<?xml version="1.0" encoding="UTF-8" standalone="no"?>
<!-- Created with Inkscape (http://www.inkscape.org/) -->

<svg
   version="1.1"
   id="svg2"
   xml:space="preserve"
   width="27.999466"
   height="20.481199"
   viewBox="0 0 27.999466 20.481199"
   sodipodi:docname="8edd59efc3b87b3fb63ecbc9aebb37c4.ai"
   xmlns:inkscape="http://www.inkscape.org/namespaces/inkscape"
   xmlns:sodipodi="http://sodipodi.sourceforge.net/DTD/sodipodi-0.dtd"
   xmlns="http://www.w3.org/2000/svg"
   xmlns:svg="http://www.w3.org/2000/svg"><defs
     id="defs6"><clipPath
       clipPathUnits="userSpaceOnUse"
       id="clipPath16"><path
         d="M 0,15.361 H 21 V 0 H 0 Z"
         id="path14" /></clipPath></defs><sodipodi:namedview
     id="namedview4"
     pagecolor="#ffffff"
     bordercolor="#666666"
     borderopacity="1.0"
     inkscape:pageshadow="2"
     inkscape:pageopacity="0.0"
     inkscape:pagecheckerboard="0" /><g
     id="g8"
     inkscape:groupmode="layer"
     inkscape:label="8edd59efc3b87b3fb63ecbc9aebb37c4"
     transform="matrix(1.3333333,0,0,-1.3333333,0,20.481333)"><g
       id="g10"><g
         id="g12"
         clip-path="url(#clipPath16)"><g
           id="g18"
           transform="translate(17.3506,3.8961)"><path
             d="m 0,0 c -0.727,0 -1.325,0.585 -1.325,1.325 0,0.727 0.598,1.312 1.325,1.312 0.727,0 1.325,-0.585 1.325,-1.312 C 1.325,0.585 0.727,0 0,0 m -14.182,0 c -0.727,0 -1.325,0.585 -1.325,1.325 0,0.727 0.598,1.312 1.325,1.312 0.727,0 1.325,-0.585 1.325,-1.312 C -12.857,0.585 -13.455,0 -14.182,0 M 0.39,5.922 h -14.481 c -1.792,0 -3.26,-1.455 -3.26,-3.26 V 1.351 c 0,-0.468 0.104,-0.91 0.286,-1.312 v -2.753 c 0,-0.649 0.533,-1.182 1.182,-1.182 h 0.987 c 0.649,0 1.182,0.533 1.182,1.182 v 0.805 H 0.013 v -0.805 c 0,-0.649 0.532,-1.182 1.182,-1.182 h 0.987 c 0.662,0 1.182,0.533 1.182,1.182 v 2.753 c 0.182,0.402 0.285,0.844 0.285,1.312 v 1.311 c 0,1.805 -1.454,3.26 -3.259,3.26"
             style="fill:#ee801f;fill-opacity:1;fill-rule:nonzero;stroke:none"
             id="path20" /></g><g
           id="g22"
           transform="translate(4.8663,14.3542)"><path
             d="m 0,0 c -0.614,0 -1.114,-0.501 -1.114,-1.116 v -4.059 c 0,-0.613 0.5,-1.114 1.114,-1.114 h 11.267 c 0.615,0 1.115,0.501 1.115,1.114 v 4.059 C 12.382,-0.501 11.882,0 11.267,0 Z M 11.267,-7.296 H 0 c -1.17,0 -2.122,0.951 -2.122,2.121 v 4.059 c 0,1.171 0.952,2.123 2.122,2.123 h 11.267 c 1.171,0 2.123,-0.952 2.123,-2.123 v -4.059 c 0,-1.17 -0.952,-2.121 -2.123,-2.121"
             style="fill:#ee801f;fill-opacity:1;fill-rule:nonzero;stroke:none"
             id="path24" /></g><path
           d="m 18.839,10.319 h -0.64 v 1.443 h 0.64 z"
           style="fill:#ee801f;fill-opacity:1;fill-rule:nonzero;stroke:none"
           id="path26" /><path
           d="m 2.837,10.319 h -0.64 v 1.443 h 0.64 z"
           style="fill:#ee801f;fill-opacity:1;fill-rule:nonzero;stroke:none"
           id="path28" /></g></g></g></svg>
