<svg xmlns="http://www.w3.org/2000/svg" width="22" height="16" viewBox="0 0 22 16" fill="none">
  <path d="M18.24 5.54004H3.76C1.97 5.54004 0.5 6.99004 0.5 8.80004V10.11C0.5 10.58 0.6 11.02 0.79 11.42V14.17C0.79 14.82 1.32 15.35 1.97 15.35H2.96C3.61 15.35 4.14 14.82 4.14 14.17V13.36H17.87V14.17C17.87 14.82 18.4 15.35 19.05 15.35H20.04C20.7 15.35 21.22 14.82 21.22 14.17V11.42C21.4 11.02 21.51 10.58 21.51 10.11V8.80004C21.51 6.99004 20.06 5.54004 18.25 5.54004H18.24ZM3.67 11.47C2.94 11.47 2.35 10.89 2.35 10.15C2.35 9.41004 2.95 8.84004 3.67 8.84004C4.39 8.84004 4.99 9.42004 4.99 10.15C4.99 10.88 4.39 11.47 3.67 11.47ZM17.85 11.47C17.12 11.47 16.53 10.89 16.53 10.15C16.53 9.41004 17.13 8.84004 17.85 8.84004C18.57 8.84004 19.17 9.42004 19.17 10.15C19.17 10.88 18.57 11.47 17.85 11.47Z" fill="white"/>
  <path d="M16.63 8.3H5.37C4.2 8.3 3.25 7.35 3.25 6.18V2.12C3.25 0.95 4.2 0 5.37 0H16.64C17.81 0 18.76 0.95 18.76 2.12V6.18C18.76 7.35 17.81 8.3 16.64 8.3H16.63ZM5.37 1.01C4.76 1.01 4.26 1.51 4.26 2.13V6.19C4.26 6.8 4.76 7.3 5.37 7.3H16.64C17.26 7.3 17.75 6.8 17.75 6.19V2.12C17.75 1.5 17.25 1 16.64 1H5.37V1.01Z" fill="white"/>
  <path d="M19.3402 3.59998H18.7002V5.03998H19.3402V3.59998Z" fill="white"/>
  <path d="M3.3402 3.59998H2.7002V5.03998H3.3402V3.59998Z" fill="white"/>
</svg>
