<?xml version="1.0" encoding="UTF-8" standalone="no"?>
<!-- Created with Inkscape (http://www.inkscape.org/) -->

<svg
   version="1.1"
   id="svg2"
   xml:space="preserve"
   width="106.66656"
   height="97.17588"
   viewBox="0 0 106.66656 97.175881"
   sodipodi:docname="f8da2ab9084b141f441a4349ef7505a1.ai"
   xmlns:inkscape="http://www.inkscape.org/namespaces/inkscape"
   xmlns:sodipodi="http://sodipodi.sourceforge.net/DTD/sodipodi-0.dtd"
   xmlns="http://www.w3.org/2000/svg"
   xmlns:svg="http://www.w3.org/2000/svg"><defs
     id="defs6"><clipPath
       clipPathUnits="userSpaceOnUse"
       id="clipPath16"><path
         d="M 0,72.882 H 80 V 0 H 0 Z"
         id="path14" /></clipPath></defs><sodipodi:namedview
     id="namedview4"
     pagecolor="#ffffff"
     bordercolor="#666666"
     borderopacity="1.0"
     inkscape:pageshadow="2"
     inkscape:pageopacity="0.0"
     inkscape:pagecheckerboard="0" /><g
     id="g8"
     inkscape:groupmode="layer"
     inkscape:label="f8da2ab9084b141f441a4349ef7505a1"
     transform="matrix(1.3333333,0,0,-1.3333333,-1.1014801e-4,97.175998)"><g
       id="g10"><g
         id="g12"
         clip-path="url(#clipPath16)"><g
           id="g18"
           transform="translate(74.0031,56.0137)"><path
             d="m 0,0 c -0.03,0.057 -0.059,0.114 -0.089,0.172 h -0.966 c -11.096,0 -22.192,0 -33.288,0 -3.904,0 -7.808,-0.011 -11.712,0.011 -0.569,0.003 -0.774,-0.136 -0.717,-0.734 0.116,-1.219 -0.009,-2.454 -0.652,-3.493 -0.566,-0.913 -0.366,-1.3 0.451,-1.93 5.808,-4.482 11.56,-9.037 17.329,-13.569 1.946,-1.529 2.844,-1.519 4.824,0.037 6.577,5.167 13.156,10.33 19.733,15.497 C -3.389,-2.675 -1.696,-1.337 0,0 m -34.693,-52.213 c 3.644,0.025 6.759,0.678 9.632,2.212 2.656,1.418 2.738,1.721 1.611,4.567 -1.186,2.997 -2.968,5.655 -4.864,8.237 -0.714,0.973 -1.558,1.831 -2.559,2.527 -1.235,0.857 -2.473,0.949 -3.78,0.138 -0.996,-0.618 -2.044,-1.155 -3.046,-1.765 -2.192,-1.334 -4.484,-1.438 -6.848,-0.577 -2.287,0.833 -4.075,2.274 -5.304,4.402 -2.757,4.778 -5.548,9.536 -8.298,14.317 -2.717,4.723 -1.336,9.894 3.338,12.624 0.887,0.518 1.77,1.042 2.67,1.536 1.301,0.716 1.725,1.844 1.593,3.255 -0.072,0.763 -0.206,1.517 -0.475,2.232 -1.278,3.395 -2.955,6.578 -5.147,9.476 -0.551,0.729 -1.198,1.372 -1.976,1.867 -0.331,0.211 -0.65,0.344 -1.055,0.09 -0.844,-0.531 -1.771,-0.94 -2.567,-1.531 -5.447,-4.046 -8.266,-9.486 -8.421,-16.265 -0.133,-5.814 1.502,-11.209 4.298,-16.231 3.11,-5.587 6.37,-11.093 9.627,-16.597 1.728,-2.92 3.886,-5.521 6.405,-7.804 4.419,-4.007 9.448,-6.612 15.166,-6.71 M 2.189,-3.108 c -2.552,-2.004 -4.904,-3.851 -7.257,-5.699 -5.912,-4.643 -11.82,-9.293 -17.738,-13.929 -3.055,-2.394 -5.909,-2.361 -8.973,0.051 -5.86,4.614 -11.727,9.22 -17.59,13.831 -0.23,0.182 -0.559,0.337 -0.651,0.577 -0.409,1.069 -0.972,0.606 -1.568,0.228 -0.471,-0.298 -0.946,-0.601 -1.451,-0.832 -2.698,-1.234 -2.808,-3.525 -2.455,-5.695 0.104,-0.641 0.367,-1.231 0.695,-1.796 2.744,-4.718 5.483,-9.439 8.218,-14.163 0.768,-1.327 1.899,-2.216 3.299,-2.785 1.246,-0.507 2.449,-0.47 3.622,0.259 0.947,0.588 1.926,1.124 2.893,1.679 2.952,1.694 6.033,1.464 8.707,-0.649 0.716,-0.566 1.405,-1.168 1.965,-1.889 2.779,-3.582 5.357,-7.282 6.702,-11.687 0.294,-0.963 0.429,-1.949 0.349,-2.956 -0.128,-1.603 -0.851,-2.822 -2.262,-3.652 -9.606,-5.652 -18.918,-4.825 -27.931,1.339 -3.903,2.669 -7.073,6.118 -9.562,10.118 -3.875,6.228 -7.601,12.554 -11.034,19.036 -3.032,5.726 -4.625,11.878 -4.056,18.411 0.701,8.055 4.431,14.346 11.341,18.667 0.323,0.202 0.674,0.362 0.987,0.577 2.452,1.681 4.712,0.865 6.446,-0.621 1.878,-1.609 3.275,-3.605 4.435,-5.763 0.903,-1.678 1.882,-3.32 2.595,-5.095 0.155,-0.387 0.374,-0.563 0.79,-0.521 0.233,0.024 0.47,0.004 0.705,0.004 15.422,0 30.844,0.001 46.266,-10e-4 0.822,0 1.642,0.006 2.447,-0.224 2.425,-0.691 3.838,-2.52 3.839,-5.043 0.005,-11.368 -0.049,-22.737 0.035,-34.105 0.024,-3.268 -2.483,-5.376 -5.185,-5.413 -5.933,-0.08 -11.867,-0.04 -17.801,-0.023 -1.132,0.003 -1.921,0.832 -1.926,1.878 -0.004,1.027 0.713,1.781 1.825,1.879 0.467,0.041 0.939,0.023 1.409,0.024 5.141,10e-4 10.282,0 15.422,0.002 0.352,0 0.707,-0.002 1.056,0.039 0.988,0.115 1.383,0.558 1.389,1.569 0.01,1.704 0.003,3.407 0.003,5.111 0,8.695 0,17.391 0,26.086 z"
             style="fill:#ffffff;fill-opacity:1;fill-rule:nonzero;stroke:none"
             id="path20" /></g></g></g></g></svg>
