<?xml version="1.0" encoding="UTF-8" standalone="no"?>
<svg
   xmlns:dc="http://purl.org/dc/elements/1.1/"
   xmlns:cc="http://creativecommons.org/ns#"
   xmlns:rdf="http://www.w3.org/1999/02/22-rdf-syntax-ns#"
   xmlns:svg="http://www.w3.org/2000/svg"
   xmlns="http://www.w3.org/2000/svg"
   viewBox="0 0 64 44.238667"
   height="44.238667"
   width="64"
   xml:space="preserve"
   id="svg2"
   version="1.1"><metadata
     id="metadata8"><rdf:RDF><cc:Work
         rdf:about=""><dc:format>image/svg+xml</dc:format><dc:type
           rdf:resource="http://purl.org/dc/dcmitype/StillImage" /></cc:Work></rdf:RDF></metadata><defs
     id="defs6"><clipPath
       id="clipPath18"
       clipPathUnits="userSpaceOnUse"><path
         id="path16"
         d="M 0,33.179 H 48 V 0 H 0 Z" /></clipPath></defs><g
     transform="matrix(1.3333333,0,0,-1.3333333,0,44.238667)"
     id="g10"><g
       id="g12"><g
         clip-path="url(#clipPath18)"
         id="g14"><g
           transform="translate(45.2844,14.3477)"
           id="g20"><path
             id="path22"
             style="fill:#ee801f;fill-opacity:1;fill-rule:nonzero;stroke:none"
             d="m 0,0 h -43.043 c -1.238,0 -2.241,1.004 -2.241,2.242 0,1.238 1.003,2.242 2.241,2.242 H 0 C 1.238,4.484 2.242,3.48 2.242,2.242 2.242,1.004 1.238,0 0,0" /></g><g
           transform="translate(45.5217,28.6954)"
           id="g24"><path
             id="path26"
             style="fill:#ee801f;fill-opacity:1;fill-rule:nonzero;stroke:none"
             d="m 0,0 h -43.043 c -1.239,0 -2.242,1.004 -2.242,2.242 0,1.238 1.003,2.242 2.242,2.242 H 0 C 1.238,4.484 2.242,3.48 2.242,2.242 2.242,1.004 1.238,0 0,0" /></g><g
           transform="translate(45.7582)"
           id="g28"><path
             id="path30"
             style="fill:#ee801f;fill-opacity:1;fill-rule:nonzero;stroke:none"
             d="m 0,0 h -43.043 c -1.238,0 -2.242,1.004 -2.242,2.242 0,1.238 1.004,2.242 2.242,2.242 H 0 C 1.238,4.484 2.242,3.48 2.242,2.242 2.242,1.004 1.238,0 0,0" /></g></g></g></g></svg>