<?xml version="1.0" encoding="UTF-8" standalone="no"?>
<svg
   xmlns:dc="http://purl.org/dc/elements/1.1/"
   xmlns:cc="http://creativecommons.org/ns#"
   xmlns:rdf="http://www.w3.org/1999/02/22-rdf-syntax-ns#"
   xmlns:svg="http://www.w3.org/2000/svg"
   xmlns="http://www.w3.org/2000/svg"
   viewBox="0 0 46.954399 46.953068"
   height="46.953068"
   width="46.954399"
   xml:space="preserve"
   id="svg2"
   version="1.1"><metadata
     id="metadata8"><rdf:RDF><cc:Work
         rdf:about=""><dc:format>image/svg+xml</dc:format><dc:type
           rdf:resource="http://purl.org/dc/dcmitype/StillImage" /></cc:Work></rdf:RDF></metadata><defs
     id="defs6"><clipPath
       id="clipPath18"
       clipPathUnits="userSpaceOnUse"><path
         id="path16"
         d="M 0,35.215 H 35.216 V 0 H 0 Z" /></clipPath></defs><g
     transform="matrix(1.3333333,0,0,-1.3333333,0,46.953067)"
     id="g10"><g
       id="g12"><g
         clip-path="url(#clipPath18)"
         id="g14"><g
           transform="translate(32.7158)"
           id="g20"><path
             id="path22"
             style="fill:#ffffff;fill-opacity:1;fill-rule:nonzero;stroke:none"
             d="m 0,0 c -0.64,0 -1.279,0.244 -1.768,0.732 l -30.215,30.215 c -0.977,0.977 -0.977,2.559 0,3.535 0.976,0.977 2.558,0.977 3.535,0 L 1.768,4.268 C 2.744,3.291 2.744,1.709 1.768,0.732 1.279,0.244 0.64,0 0,0" /></g><g
           transform="translate(2.5)"
           id="g24"><path
             id="path26"
             style="fill:#ffffff;fill-opacity:1;fill-rule:nonzero;stroke:none"
             d="m 0,0 c -0.64,0 -1.279,0.244 -1.768,0.732 -0.976,0.977 -0.976,2.559 0,3.536 l 30.216,30.214 c 0.977,0.977 2.559,0.977 3.535,0 0.977,-0.976 0.977,-2.558 0,-3.535 L 1.768,0.732 C 1.279,0.244 0.64,0 0,0" /></g></g></g></g></svg>