<?xml version="1.0" encoding="UTF-8" standalone="no"?>
<!-- Created with Inkscape (http://www.inkscape.org/) -->

<svg
   version="1.1"
   id="svg2"
   xml:space="preserve"
   width="106.3956"
   height="106.6664"
   viewBox="0 0 106.3956 106.6664"
   sodipodi:docname="42cfc9a9ea223c8af4e093e47e319e13.ai"
   xmlns:inkscape="http://www.inkscape.org/namespaces/inkscape"
   xmlns:sodipodi="http://sodipodi.sourceforge.net/DTD/sodipodi-0.dtd"
   xmlns="http://www.w3.org/2000/svg"
   xmlns:svg="http://www.w3.org/2000/svg"><defs
     id="defs6"><clipPath
       clipPathUnits="userSpaceOnUse"
       id="clipPath16"><path
         d="M 0,80 H 79.797 V 0 H 0 Z"
         id="path14" /></clipPath></defs><sodipodi:namedview
     id="namedview4"
     pagecolor="#ffffff"
     bordercolor="#666666"
     borderopacity="1.0"
     inkscape:pageshadow="2"
     inkscape:pageopacity="0.0"
     inkscape:pagecheckerboard="0" /><g
     id="g8"
     inkscape:groupmode="layer"
     inkscape:label="42cfc9a9ea223c8af4e093e47e319e13"
     transform="matrix(1.3333333,0,0,-1.3333333,0,106.6664)"><g
       id="g10"><g
         id="g12"
         clip-path="url(#clipPath16)"><g
           id="g18"
           transform="translate(22.5827,13.8118)"><path
             d="m 0,0 1.356,-0.814 c 4.973,-2.961 10.625,-4.521 16.344,-4.521 17.655,0 32.032,14.377 32.032,32.032 0,17.655 -14.377,32.031 -32.032,32.031 -17.655,0 -32.032,-14.376 -32.032,-32.054 0,-5.832 1.628,-11.574 4.68,-16.615 l 0.836,-1.356 -3.21,-11.936 12.003,3.21 z m -22.583,-13.789 5.742,21.384 c -3.255,5.855 -4.95,12.411 -4.95,19.079 -0.023,21.792 17.699,39.514 39.491,39.514 21.791,0 39.514,-17.722 39.514,-39.514 0,-21.791 -17.723,-39.514 -39.514,-39.514 -6.533,0 -12.998,1.65 -18.785,4.793 l -21.498,-5.765 z"
             style="fill:#ee801f;fill-opacity:1;fill-rule:nonzero;stroke:none"
             id="path20" /></g><g
           id="g22"
           transform="translate(54.976,34.9929)"><path
             d="m 0,0 c -1.628,0.972 -3.752,2.057 -5.651,1.266 -1.47,-0.61 -2.419,-2.894 -3.368,-4.069 -0.498,-0.61 -1.063,-0.701 -1.832,-0.384 -5.515,2.192 -9.742,5.877 -12.794,10.963 -0.52,0.791 -0.43,1.402 0.203,2.148 0.927,1.085 2.08,2.305 2.329,3.775 0.248,1.469 -0.43,3.165 -1.04,4.453 -0.769,1.65 -1.628,4.024 -3.301,4.973 -1.537,0.859 -3.549,0.384 -4.905,-0.723 -2.351,-1.922 -3.481,-4.906 -3.458,-7.889 0,-0.837 0.113,-1.696 0.316,-2.51 0.475,-1.966 1.379,-3.797 2.396,-5.538 0.769,-1.311 1.605,-2.577 2.509,-3.82 2.962,-4.001 6.624,-7.483 10.873,-10.105 2.125,-1.311 4.409,-2.441 6.782,-3.232 2.645,-0.882 5.018,-1.786 7.889,-1.244 3.007,0.566 5.968,2.419 7.166,5.313 0.362,0.859 0.52,1.808 0.339,2.712 C 4.046,-2.034 1.515,-0.927 0,-0.023 Z"
             style="fill:#ee801f;fill-opacity:1;fill-rule:evenodd;stroke:none"
             id="path24" /></g></g></g></g></svg>
