<?xml version="1.0" encoding="UTF-8" standalone="no"?>
<!-- Created with Inkscape (http://www.inkscape.org/) -->

<svg
   version="1.1"
   id="svg2"
   xml:space="preserve"
   width="106.66613"
   height="83.795868"
   viewBox="0 0 106.66613 83.795868"
   sodipodi:docname="e9f85f007cdf5a5f89352c0329d96b66.ai"
   xmlns:inkscape="http://www.inkscape.org/namespaces/inkscape"
   xmlns:sodipodi="http://sodipodi.sourceforge.net/DTD/sodipodi-0.dtd"
   xmlns="http://www.w3.org/2000/svg"
   xmlns:svg="http://www.w3.org/2000/svg"><defs
     id="defs6"><clipPath
       clipPathUnits="userSpaceOnUse"
       id="clipPath16"><path
         d="M 0,62.847 H 80 V 0 H 0 Z"
         id="path14" /></clipPath></defs><sodipodi:namedview
     id="namedview4"
     pagecolor="#ffffff"
     bordercolor="#666666"
     borderopacity="1.0"
     inkscape:pageshadow="2"
     inkscape:pageopacity="0.0"
     inkscape:pagecheckerboard="0" /><g
     id="g8"
     inkscape:groupmode="layer"
     inkscape:label="e9f85f007cdf5a5f89352c0329d96b66"
     transform="matrix(1.3333333,0,0,-1.3333333,0,83.795865)"><g
       id="g10"><g
         id="g12"
         clip-path="url(#clipPath16)"><g
           id="g18"
           transform="translate(74.4646,11.5549)"><path
             d="M 0,0 C 0,-3.325 -2.694,-6.019 -6.019,-6.019 H -62.91 c -3.325,0 -6.019,2.694 -6.019,6.019 v 39.737 c 0,0.8 0.168,1.578 0.442,2.294 L -44.43,14.733 c 2.525,-2.862 6.145,-4.504 9.955,-4.504 3.809,0 7.429,1.642 9.955,4.504 l 24.057,27.298 c 0.295,-0.695 0.442,-1.473 0.442,-2.294 L -0.021,0 Z m -6.019,45.777 c 0.463,0 0.926,-0.063 1.368,-0.168 L -28.645,18.374 c -1.473,-1.663 -3.599,-2.631 -5.809,-2.631 -2.21,0 -4.336,0.947 -5.809,2.631 l -24.015,27.235 c 0.442,0.105 0.905,0.168 1.368,0.168 z m 0,5.515 H -62.91 c -6.377,0 -11.555,-5.178 -11.555,-11.555 V 0 c 0,-6.377 5.178,-11.555 11.555,-11.555 h 56.891 c 6.377,0 11.554,5.178 11.554,11.555 v 39.737 c 0,6.377 -5.177,11.555 -11.554,11.555"
             style="fill:#ee801f;fill-opacity:1;fill-rule:nonzero;stroke:none"
             id="path20" /></g></g></g></g></svg>
