<?xml version="1.0" encoding="UTF-8" standalone="no"?>
<!-- Created with Inkscape (http://www.inkscape.org/) -->

<svg
   version="1.1"
   id="svg2"
   xml:space="preserve"
   width="229.33463"
   height="259.36929"
   viewBox="0 0 229.33463 259.36929"
   sodipodi:docname="3193ed6d1977707248bc5dc0c34039e9.ai"
   xmlns:inkscape="http://www.inkscape.org/namespaces/inkscape"
   xmlns:sodipodi="http://sodipodi.sourceforge.net/DTD/sodipodi-0.dtd"
   xmlns="http://www.w3.org/2000/svg"
   xmlns:svg="http://www.w3.org/2000/svg"><defs
     id="defs6"><clipPath
       clipPathUnits="userSpaceOnUse"
       id="clipPath16"><path
         d="M 0,194.527 H 172.004 V 0 H 0 Z"
         id="path14" /></clipPath></defs><sodipodi:namedview
     id="namedview4"
     pagecolor="#ffffff"
     bordercolor="#666666"
     borderopacity="1.0"
     inkscape:pageshadow="2"
     inkscape:pageopacity="0.0"
     inkscape:pagecheckerboard="0" /><g
     id="g8"
     inkscape:groupmode="layer"
     inkscape:label="3193ed6d1977707248bc5dc0c34039e9"
     transform="matrix(1.3333333,0,0,-1.3333333,-0.00166546,259.36933)"><g
       id="g10"><g
         id="g12"
         clip-path="url(#clipPath16)"><g
           id="g18"
           transform="translate(88.6789,1.8535)"><path
             d="m 0,0 -51.656,35.52 c -29.254,20.115 -42.228,56.779 -32.137,90.817 l 17.818,60.104 c 3.533,-2.555 15.612,-10.623 32.821,-9.878 16.103,0.698 26.943,8.69 30.456,11.521 1.369,-1.555 12.851,-12.94 31.101,-11.855 16.736,0.996 26.339,11.523 27.809,13.384 6.972,-19.7 13.942,-39.399 20.913,-59.099 C 88.969,97.046 77.914,59.758 49.744,38.152 Z"
             style="fill:#555555;fill-opacity:1;fill-rule:nonzero;stroke:none"
             id="path20" /></g><g
           id="g22"
           transform="translate(88.6789,1.8535)"><path
             d="m 0,0 -51.656,35.52 c -29.254,20.115 -42.228,56.779 -32.137,90.817 l 17.818,60.104 c 3.533,-2.555 15.612,-10.623 32.821,-9.878 16.103,0.698 26.943,8.69 30.456,11.521 1.369,-1.555 12.851,-12.94 31.101,-11.855 16.736,0.996 26.339,11.523 27.809,13.384 6.972,-19.7 13.942,-39.399 20.913,-59.099 C 88.969,97.046 77.914,59.758 49.744,38.152 Z"
             style="fill:none;stroke:#242021;stroke-width:3;stroke-linecap:butt;stroke-linejoin:miter;stroke-miterlimit:10;stroke-dasharray:none;stroke-opacity:1"
             id="path24" /></g><g
           id="g26"
           transform="translate(146.9028,109.8866)"><path
             d="M 0,0 H -31.809 L -60.818,29.009 -89.828,0 h -31.809 l 60.819,60.818 z"
             style="fill:#ee801f;fill-opacity:1;fill-rule:nonzero;stroke:none"
             id="path28" /></g><g
           id="g30"
           transform="translate(146.9401,97.9315)"><path
             d="M 0,0 -60.941,-60.936 -121.876,0 h 32.942 l 27.993,-28.637 15.442,14.792 L -60.137,0 Z"
             style="fill:#ee801f;fill-opacity:1;fill-rule:nonzero;stroke:none"
             id="path32" /></g></g></g></g></svg>
