<?xml version="1.0" encoding="UTF-8" standalone="no"?>
<!-- Created with Inkscape (http://www.inkscape.org/) -->

<svg
   version="1.1"
   id="svg2"
   xml:space="preserve"
   width="154.88927"
   height="96.11573"
   viewBox="0 0 154.88927 96.115731"
   sodipodi:docname="b9cf33430ba7bdebc58664e0c13cf91e.ai"
   xmlns:inkscape="http://www.inkscape.org/namespaces/inkscape"
   xmlns:sodipodi="http://sodipodi.sourceforge.net/DTD/sodipodi-0.dtd"
   xmlns="http://www.w3.org/2000/svg"
   xmlns:svg="http://www.w3.org/2000/svg"><defs
     id="defs6"><clipPath
       clipPathUnits="userSpaceOnUse"
       id="clipPath16"><path
         d="M 0,72.087 H 116.167 V 0 H 0 Z"
         id="path14" /></clipPath></defs><sodipodi:namedview
     id="namedview4"
     pagecolor="#ffffff"
     bordercolor="#666666"
     borderopacity="1.0"
     inkscape:pageshadow="2"
     inkscape:pageopacity="0.0"
     inkscape:pagecheckerboard="0" /><g
     id="g8"
     inkscape:groupmode="layer"
     inkscape:label="b9cf33430ba7bdebc58664e0c13cf91e"
     transform="matrix(1.3333333,0,0,-1.3333333,0,96.115998)"><g
       id="g10"><g
         id="g12"
         clip-path="url(#clipPath16)"><g
           id="g18"
           transform="translate(46.5636,11.9042)"><path
             d="m 0,0 c 0,-6.575 5.331,-11.904 11.904,-11.904 6.575,0 11.906,5.329 11.906,11.904 z m 51.905,3.254 h -80 l 7.765,7.765 c 4.562,4.561 7.125,10.749 7.125,17.201 0,0.176 -0.008,0.35 -0.023,0.523 -0.053,0.587 -0.087,1.181 -0.097,1.778 -0.233,12.297 8.266,22.646 19.813,25.149 0.468,2.568 2.714,4.513 5.416,4.513 2.705,0 4.952,-1.948 5.419,-4.517 11.333,-2.48 19.816,-12.576 19.816,-24.654 v -2.918 c 0,-6.452 2.564,-12.638 7.125,-17.201 z"
             style="fill:#ee801f;fill-opacity:1;fill-rule:nonzero;stroke:none"
             id="path20" /></g><g
           id="g22"
           transform="translate(101.5807,36.6293)"><path
             d="m 0,0 c 5.663,-1.225 10,-5.874 12.359,-10.994 1.688,-3.921 2.297,-8.235 2.221,-12.473 -0.154,-1.403 -0.253,-2.797 -0.46,-4.175 l -0.099,0.005 0.035,4.153 C 13.714,-13.571 9.523,-3.869 0,0"
             style="fill:#ee801f;fill-opacity:1;fill-rule:nonzero;stroke:none"
             id="path24" /></g><g
           id="g26"
           transform="translate(101.9406,30.4355)"><path
             d="m 0,0 c 7.831,-1.906 10.758,-11.234 9.414,-18.429 0,0 -0.066,0.003 -0.066,0.003 l 0.023,2.768 C 9.205,-9.174 6.255,-2.463 0,0"
             style="fill:#ee801f;fill-opacity:1;fill-rule:nonzero;stroke:none"
             id="path28" /></g><g
           id="g30"
           transform="translate(101.0951,23.9438)"><path
             d="m 0,0 c 4.17,-1.022 5.712,-5.969 5.005,-9.798 0,0 -0.035,0.002 -0.035,0.002 C 5.247,-5.961 3.815,-1.469 0,0"
             style="fill:#ee801f;fill-opacity:1;fill-rule:nonzero;stroke:none"
             id="path32" /></g><g
           id="g34"
           transform="translate(2.5158,4.6601)"><path
             d="M 0,0 C -3.201,4.83 -3.062,11.187 -1.178,16.499 0.349,20.485 2.925,24 5.937,26.982 7.026,27.878 8.071,28.809 9.18,29.651 L 9.247,29.578 6.325,26.628 C -0.339,19.324 -4.123,9.378 0,0"
             style="fill:#ee801f;fill-opacity:1;fill-rule:nonzero;stroke:none"
             id="path36" /></g><g
           id="g38"
           transform="translate(6.5809,9.3471)"><path
             d="m 0,0 c -4.278,6.831 0.136,15.553 6.12,19.769 0,0 0.045,-0.049 0.045,-0.049 L 4.217,17.753 C -0.189,12.995 -2.76,6.128 0,0"
             style="fill:#ee801f;fill-opacity:1;fill-rule:nonzero;stroke:none"
             id="path40" /></g><g
           id="g42"
           transform="translate(11.7174,13.4062)"><path
             d="m 0,0 c -2.274,3.642 0.075,8.262 3.254,10.51 0,0 0.024,-0.026 0.024,-0.026 C 0.403,7.931 -1.707,3.714 0,0"
             style="fill:#ee801f;fill-opacity:1;fill-rule:nonzero;stroke:none"
             id="path44" /></g></g></g></g></svg>
