<?xml version="1.0" encoding="UTF-8" standalone="no"?>
<!-- Created with Inkscape (http://www.inkscape.org/) -->

<svg
   version="1.1"
   id="svg2"
   xml:space="preserve"
   width="202.44342"
   height="258.13715"
   viewBox="0 0 202.44342 258.13715"
   sodipodi:docname="4cefbdd8928d09aefc205cdbefa1bda2.ai"
   xmlns:inkscape="http://www.inkscape.org/namespaces/inkscape"
   xmlns:sodipodi="http://sodipodi.sourceforge.net/DTD/sodipodi-0.dtd"
   xmlns="http://www.w3.org/2000/svg"
   xmlns:svg="http://www.w3.org/2000/svg"><defs
     id="defs6"><clipPath
       clipPathUnits="userSpaceOnUse"
       id="clipPath20"><path
         d="M 0,193.603 H 151.833 V 0 H 0 Z"
         id="path18" /></clipPath><clipPath
       clipPathUnits="userSpaceOnUse"
       id="clipPath36"><path
         d="M 0,193.603 H 151.833 V 0 H 0 Z"
         id="path34" /></clipPath><clipPath
       clipPathUnits="userSpaceOnUse"
       id="clipPath52"><path
         d="M 0,193.603 H 151.833 V 0 H 0 Z"
         id="path50" /></clipPath></defs><sodipodi:namedview
     id="namedview4"
     pagecolor="#ffffff"
     bordercolor="#666666"
     borderopacity="1.0"
     inkscape:pageshadow="2"
     inkscape:pageopacity="0.0"
     inkscape:pagecheckerboard="0" /><g
     id="g8"
     inkscape:groupmode="layer"
     inkscape:label="4cefbdd8928d09aefc205cdbefa1bda2"
     transform="matrix(1.3333333,0,0,-1.3333333,0,258.13719)"><g
       id="g10"
       transform="translate(150.5469,159.7064)"><path
         d="M 0,0 V -139.895 H -123.067 V 32.613 h 90.454 V 0 Z"
         style="fill:#555555;fill-opacity:1;fill-rule:nonzero;stroke:none"
         id="path12" /></g><g
       id="g14"><g
         id="g16"
         clip-path="url(#clipPath20)"><g
           id="g22"
           transform="translate(150.5469,159.7064)"><path
             d="M 0,0 V -139.895 H -123.067 V 32.613 h 90.454 V 0 Z"
             style="fill:none;stroke:#242021;stroke-width:2.567;stroke-linecap:butt;stroke-linejoin:miter;stroke-miterlimit:10;stroke-dasharray:none;stroke-opacity:1"
             id="path24" /></g></g></g><g
       id="g26"
       transform="translate(118.2983,192.6948)"><path
         d="M 0,0 32.627,-32.605"
         style="fill:#555555;fill-opacity:1;fill-rule:nonzero;stroke:none"
         id="path28" /></g><g
       id="g30"><g
         id="g32"
         clip-path="url(#clipPath36)"><g
           id="g38"
           transform="translate(118.2983,192.6948)"><path
             d="M 0,0 32.627,-32.605"
             style="fill:none;stroke:#242021;stroke-width:2.567;stroke-linecap:butt;stroke-linejoin:miter;stroke-miterlimit:10;stroke-dasharray:none;stroke-opacity:1"
             id="path40" /></g></g></g><g
       id="g42"
       transform="translate(24.6103,78.1003)"><path
         d="M 0,0 -13.895,-76.659 11.366,-63.785 37.244,-76.659 18.484,0 Z"
         style="fill:#555555;fill-opacity:1;fill-rule:nonzero;stroke:none"
         id="path44" /></g><g
       id="g46"><g
         id="g48"
         clip-path="url(#clipPath52)"><g
           id="g54"
           transform="translate(24.6103,78.1003)"><path
             d="M 0,0 -13.895,-76.659 11.366,-63.785 37.244,-76.659 18.484,0 Z"
             style="fill:none;stroke:#242021;stroke-width:1.554;stroke-linecap:butt;stroke-linejoin:miter;stroke-miterlimit:10;stroke-dasharray:none;stroke-opacity:1"
             id="path56" /></g><g
           id="g58"
           transform="translate(67.5715,85.0173)"><path
             d="m 0,0 c 0,-2.759 -5.208,-4.796 -5.889,-7.34 -0.703,-2.633 2.768,-6.997 1.434,-9.302 -1.352,-2.337 -6.879,-1.504 -8.777,-3.401 -1.897,-1.897 -1.064,-7.425 -3.401,-8.777 -2.305,-1.334 -6.669,2.138 -9.301,1.434 -2.545,-0.68 -4.582,-5.888 -7.34,-5.888 -2.759,0 -4.796,5.208 -7.341,5.888 -2.632,0.704 -6.996,-2.767 -9.301,-1.434 -2.338,1.353 -1.504,6.88 -3.402,8.777 -1.897,1.898 -7.424,1.064 -8.777,3.402 -1.333,2.305 2.138,6.669 1.435,9.301 -0.68,2.544 -5.889,4.582 -5.889,7.34 0,2.759 5.209,4.796 5.889,7.34 0.703,2.633 -2.768,6.997 -1.434,9.302 1.352,2.338 6.88,1.504 8.777,3.401 1.897,1.897 1.064,7.425 3.402,8.777 2.304,1.334 6.668,-2.138 9.301,-1.434 2.544,0.68 4.581,5.888 7.34,5.888 2.758,0 4.796,-5.208 7.34,-5.888 2.632,-0.704 6.997,2.767 9.301,1.434 2.338,-1.353 1.504,-6.88 3.402,-8.777 1.897,-1.898 7.424,-1.064 8.777,-3.402 C -3.121,14.336 -6.592,9.972 -5.888,7.34 -5.208,4.796 0,2.758 0,0"
             style="fill:#ee801f;fill-opacity:1;fill-rule:nonzero;stroke:none"
             id="path60" /></g><g
           id="g62"
           transform="translate(67.5715,85.0173)"><path
             d="m 0,0 c 0,-2.759 -5.208,-4.796 -5.889,-7.34 -0.703,-2.633 2.768,-6.997 1.434,-9.302 -1.352,-2.337 -6.879,-1.504 -8.777,-3.401 -1.897,-1.897 -1.064,-7.425 -3.401,-8.777 -2.305,-1.334 -6.669,2.138 -9.301,1.434 -2.545,-0.68 -4.582,-5.888 -7.34,-5.888 -2.759,0 -4.796,5.208 -7.341,5.888 -2.632,0.704 -6.996,-2.767 -9.301,-1.434 -2.338,1.353 -1.504,6.88 -3.402,8.777 -1.897,1.898 -7.424,1.064 -8.777,3.402 -1.333,2.305 2.138,6.669 1.435,9.301 -0.68,2.544 -5.889,4.582 -5.889,7.34 0,2.759 5.209,4.796 5.889,7.34 0.703,2.633 -2.768,6.997 -1.434,9.302 1.352,2.338 6.88,1.504 8.777,3.401 1.897,1.897 1.064,7.425 3.402,8.777 2.304,1.334 6.668,-2.138 9.301,-1.434 2.544,0.68 4.581,5.888 7.34,5.888 2.758,0 4.796,-5.208 7.34,-5.888 2.632,-0.704 6.997,2.767 9.301,1.434 2.338,-1.353 1.504,-6.88 3.402,-8.777 1.897,-1.898 7.424,-1.064 8.777,-3.402 C -3.121,14.336 -6.592,9.972 -5.888,7.34 -5.208,4.796 0,2.758 0,0 Z"
             style="fill:none;stroke:#242021;stroke-width:2.045;stroke-linecap:butt;stroke-linejoin:miter;stroke-miterlimit:10;stroke-dasharray:none;stroke-opacity:1"
             id="path64" /></g><g
           id="g66"
           transform="translate(34.2972,61.0254)"><path
             d="m 0,0 c -13.23,0 -23.992,10.763 -23.992,23.992 0,13.229 10.762,23.992 23.992,23.992 13.229,0 23.992,-10.763 23.992,-23.992 C 23.992,10.763 13.229,0 0,0"
             style="fill:#ffffff;fill-opacity:1;fill-rule:nonzero;stroke:none"
             id="path68" /></g><g
           id="g70"
           transform="translate(34.2972,61.0254)"><path
             d="m 0,0 c -13.23,0 -23.992,10.763 -23.992,23.992 0,13.229 10.762,23.992 23.992,23.992 13.229,0 23.992,-10.763 23.992,-23.992 C 23.992,10.763 13.229,0 0,0 Z"
             style="fill:none;stroke:#242021;stroke-width:2.045;stroke-linecap:butt;stroke-linejoin:miter;stroke-miterlimit:10;stroke-dasharray:none;stroke-opacity:1"
             id="path72" /></g><g
           id="g74"
           transform="translate(45.2387,85.6815)"><path
             d="M 0,0 H -5.715 L -10.927,5.212 -16.139,0 h -5.715 l 10.927,10.927 z"
             style="fill:#242021;fill-opacity:1;fill-rule:nonzero;stroke:none"
             id="path76" /></g><g
           id="g78"
           transform="translate(45.2454,83.5336)"><path
             d="M 0,0 -10.949,-10.948 -21.897,0 h 5.919 l 5.029,-5.145 2.774,2.658 -2.63,2.487 z"
             style="fill:#ee801f;fill-opacity:1;fill-rule:nonzero;stroke:none"
             id="path80" /></g></g></g></g></svg>
