<?xml version="1.0" encoding="UTF-8" standalone="no"?>
<!-- Created with Inkscape (http://www.inkscape.org/) -->

<svg
   version="1.1"
   id="svg2"
   xml:space="preserve"
   width="106.6664"
   height="106.63599"
   viewBox="0 0 106.6664 106.636"
   sodipodi:docname="7c5a4d7c3dae86e01e695506e2cbfca8.ai"
   xmlns:inkscape="http://www.inkscape.org/namespaces/inkscape"
   xmlns:sodipodi="http://sodipodi.sourceforge.net/DTD/sodipodi-0.dtd"
   xmlns="http://www.w3.org/2000/svg"
   xmlns:svg="http://www.w3.org/2000/svg"><defs
     id="defs6"><clipPath
       clipPathUnits="userSpaceOnUse"
       id="clipPath16"><path
         d="M 0,79.977 H 80 V 0 H 0 Z"
         id="path14" /></clipPath></defs><sodipodi:namedview
     id="namedview4"
     pagecolor="#ffffff"
     bordercolor="#666666"
     borderopacity="1.0"
     inkscape:pageshadow="2"
     inkscape:pageopacity="0.0"
     inkscape:pagecheckerboard="0" /><g
     id="g8"
     inkscape:groupmode="layer"
     inkscape:label="7c5a4d7c3dae86e01e695506e2cbfca8"
     transform="matrix(1.3333333,0,0,-1.3333333,-2.6666666e-4,106.636)"><g
       id="g10"><g
         id="g12"
         clip-path="url(#clipPath16)"><g
           id="g18"
           transform="translate(61.1751,65.6949)"><path
             d="m 0,0 c -2.599,0 -4.678,-2.102 -4.678,-4.678 0,-2.576 2.102,-4.678 4.678,-4.678 2.576,0 4.678,2.102 4.678,4.678 C 4.678,-2.102 2.576,0 0,0"
             style="fill:#ffffff;fill-opacity:1;fill-rule:nonzero;stroke:none"
             id="path20" /></g><g
           id="g22"
           transform="translate(40.339,27.3898)"><path
             d="m 0,0 c -6.96,0 -12.61,5.65 -12.61,12.61 0,6.961 5.65,12.61 12.61,12.61 6.96,0 12.61,-5.649 12.61,-12.61 C 12.61,5.65 6.96,0 0,0 m 0,32.294 c -10.847,0 -19.684,-8.836 -19.684,-19.684 0,-10.847 8.837,-19.683 19.684,-19.683 10.847,0 19.684,8.836 19.684,19.683 0,10.848 -8.837,19.684 -19.684,19.684"
             style="fill:#ffffff;fill-opacity:1;fill-rule:nonzero;stroke:none"
             id="path24" /></g><g
           id="g26"
           transform="translate(24.0452,72.452)"><path
             d="m 0,0 c -9.085,0 -16.497,-7.39 -16.497,-16.497 v -31.932 c 0,-9.085 7.39,-16.498 16.497,-16.498 h 31.932 c 9.085,0 16.497,7.39 16.497,16.498 v 31.932 C 48.429,-7.412 41.04,0 31.932,0 31.932,0 0,0 0,0 M 31.91,-72.429 H -0.023 c -13.243,0 -24.022,10.779 -24.022,24.022 v 31.932 c 0.022,13.221 10.802,24 24.045,24 h 31.932 c 13.243,0 24.023,-10.779 24.023,-24.022 v -31.932 c 0,-13.243 -10.78,-24.023 -24.023,-24.023 z"
             style="fill:#ffffff;fill-opacity:1;fill-rule:nonzero;stroke:none"
             id="path28" /></g></g></g></g></svg>
