<svg width="26" height="26" viewBox="0 0 26 26" fill="none" xmlns="http://www.w3.org/2000/svg">
<g id="instagram icon" clip-path="url(#clip0_59_208)">
<g id="ELEMENTS">
<g id="Group">
<path id="Vector" d="M19.5 4.64441C18.6713 4.64441 18.0083 5.32785 18.0083 6.16561C18.0083 7.00337 18.6785 7.68681 19.5 7.68681C20.3215 7.68681 20.9917 7.00337 20.9917 6.16561C20.9917 5.32785 20.3215 4.64441 19.5 4.64441Z" fill="white"/>
<path id="Vector_2" d="M12.8558 6.59924C9.39685 6.59924 6.57922 9.47262 6.57922 13C6.57922 16.5275 9.39685 19.4008 12.8558 19.4008C16.3148 19.4008 19.1324 16.5275 19.1324 13C19.1324 9.47262 16.3148 6.59924 12.8558 6.59924ZM12.8558 17.1007C10.6363 17.1007 8.83477 15.2635 8.83477 13C8.83477 10.7366 10.6363 8.89941 12.8558 8.89941C15.0753 8.89941 16.8769 10.7366 16.8769 13C16.8769 15.2635 15.0753 17.1007 12.8558 17.1007Z" fill="white"/>
<path id="Vector_3" d="M17.8354 26H7.653C3.43016 26 -0.00720215 22.4946 -0.00720215 18.1882V7.80441C4.05964e-06 3.50537 3.43737 0 7.6602 0H17.8426C22.0654 0 25.5028 3.50537 25.5028 7.81176V18.1956C25.5028 22.502 22.0654 26.0073 17.8426 26.0073L17.8354 26ZM7.6602 2.44714C4.76331 2.44714 2.39967 4.8502 2.39967 7.81176V18.1956C2.39967 21.1498 4.7561 23.5602 7.6602 23.5602H17.8426C20.7395 23.5602 23.1031 21.1572 23.1031 18.1956V7.81176C23.1031 4.85755 20.7467 2.44714 17.8426 2.44714H7.6602Z" fill="white"/>
</g>
</g>
</g>
<defs>
<clipPath id="clip0_59_208">
<rect width="25.4956" height="26" fill="white"/>
</clipPath>
</defs>
</svg>
