<svg xmlns="http://www.w3.org/2000/svg" width="197" height="213" viewBox="0 0 197 213" fill="none">
  <path d="M151.661 53.4266H124.134L99.0298 27.9431L73.9258 53.4266H46.3989L99.0298 6.10352e-05L151.661 53.4266Z" fill="#242021"/>
  <path d="M151.693 63.9286L98.9564 117.458L46.2241 63.9286H74.7321L98.9564 89.0848L112.319 76.0905L99.6519 63.9286H151.693Z" fill="#F0801F"/>
  <path d="M38.3565 178.254C35.1782 179.334 29.2868 180.685 23.7778 180.685C15.4912 180.685 9.80706 178.586 6.01612 174.896C2.03633 171.1 -0.0318724 165.563 0.000371312 159.429C0.0648587 144.531 10.977 136.966 24.6668 136.966C30.3693 136.966 34.7038 137.999 36.9148 139.065L34.6439 148.239C32.2625 147.22 29.4112 146.425 24.6069 146.425C17.6377 146.425 11.8753 150.128 11.8753 158.839C11.8753 166.821 16.979 171.464 23.9021 171.464C25.4545 171.464 26.91 171.319 27.4582 171.1V163.721H21.8063V154.804H38.3611V178.254H38.3565Z" fill="#242021"/>
  <path d="M55.676 180.255L42.2534 137.391H54.6718L59.1491 154.243C60.4803 159.045 61.6411 163.735 62.6591 169.234H62.7834C63.8014 164.002 65.0082 159.045 66.2427 154.435L70.8305 137.391H82.8574L69.0433 180.255H55.6668H55.676Z" fill="#242021"/>
  <path d="M87.4683 137.396H98.7766V170.637H115.032V180.255H87.4683V137.391V137.396Z" fill="#242021"/>
  <path d="M132.038 170.319L129.657 180.255H117.957L130.205 137.391H145.272L157.865 180.255H145.65L142.955 170.319H132.038ZM141.403 161.846L139.445 154.136C138.805 151.718 138.003 148.221 137.345 145.696H137.22C136.594 148.225 135.967 151.751 135.355 154.187L133.54 161.851H141.403V161.846Z" fill="#242021"/>
  <path d="M163.268 137.98C166.465 137.471 171.255 137.059 176.907 137.059C183.375 137.059 188.013 137.966 191.191 140.398C193.9 142.497 195.355 145.551 195.355 149.745C195.355 155.085 191.408 158.886 188.119 160.111V160.336C190.924 161.561 192.44 164.296 193.522 168.013C194.789 172.371 196.184 178.6 197 180.255H185.443C184.802 179.016 183.706 175.659 182.481 170.384C181.339 165.25 179.786 164.184 176.295 164.184H174.461V180.255H163.264V137.98H163.268ZM174.466 155.945H177.409C181.67 155.945 184.13 153.832 184.13 150.619C184.13 147.407 182.048 145.579 178.289 145.546C176.161 145.546 175.033 145.658 174.466 145.798V155.94V155.945Z" fill="#242021"/>
  <path d="M21.2998 195.447C21.2998 196.27 20.701 196.999 19.7014 196.999C18.7756 196.999 18.1768 196.27 18.1768 195.447C18.1768 194.624 18.8124 193.894 19.7475 193.894C20.6826 193.894 21.2906 194.596 21.2998 195.447ZM18.4946 212.668V199.323H20.9727V212.668H18.4946Z" fill="#242021"/>
  <path d="M35.6897 202.98C35.6897 201.647 35.6528 200.441 35.5791 199.323H37.7348L37.8684 201.642H37.9375C38.7252 200.31 40.0287 198.996 42.4839 198.996C44.4507 198.996 45.9201 200.268 46.5051 201.885H46.5604C47.0072 201.095 47.5461 200.501 48.1081 200.081C48.9925 199.384 49.9321 199 51.3601 199C53.1058 199 56.0907 200.095 56.0907 205.149V212.677H53.6724V205.402C53.6724 202.535 52.5024 201.058 50.4803 201.058C48.9464 201.058 47.7948 202.157 47.3296 203.302C47.2006 203.653 47.0993 204.092 47.0993 204.523V212.673H44.681V204.915C44.681 202.573 43.5341 201.053 41.6409 201.053C39.9412 201.053 38.7666 202.414 38.3198 203.559C38.1816 203.919 38.1079 204.354 38.1079 204.775V212.673H35.6897V202.989V202.98Z" fill="#242021"/>
  <path d="M84.631 205.827C84.631 210.695 80.9138 212.995 77.3716 212.995C73.401 212.995 70.3701 210.209 70.3701 206.122C70.3701 201.792 73.507 198.991 77.6019 198.991C81.6969 198.991 84.6264 201.956 84.6264 205.827H84.631ZM72.9174 206.033C72.9174 209.199 74.9902 211.139 77.4729 211.139C79.9557 211.139 82.093 209.278 82.093 205.939C82.093 203.611 80.7203 200.852 77.5512 200.852C74.3822 200.852 72.922 203.344 72.922 206.033H72.9174ZM81.1902 193.422L77.7125 197.453H75.9206L78.4034 193.422H81.1902Z" fill="#242021"/>
  <path d="M101.6 199.323L104.484 206.8C105.009 208.146 105.391 209.217 105.728 210.311H105.797C106.151 209.203 106.58 208.1 107.077 206.8L109.965 199.323H112.605L106.856 212.668H104.433L98.9058 199.323H101.596H101.6Z" fill="#242021"/>
  <path d="M129.261 206.519C129.316 209.526 131.522 211.041 134.222 211.041C136.198 211.041 137.345 210.7 138.349 210.297L138.791 212.079C137.92 212.458 136.345 212.995 133.913 212.995C129.578 212.995 126.884 210.227 126.884 206.248C126.884 202.269 129.408 198.991 133.65 198.991C138.473 198.991 139.611 203.125 139.611 205.397C139.611 205.902 139.579 206.271 139.514 206.515H129.256L129.261 206.519ZM137.211 204.714C137.229 203.569 136.709 200.763 133.466 200.763C130.675 200.763 129.519 203.073 129.293 204.714H137.211Z" fill="#242021"/>
  <path d="M157.018 195.447C157.018 196.27 156.419 196.999 155.42 196.999C154.494 196.999 153.895 196.27 153.895 195.447C153.895 194.624 154.531 193.894 155.466 193.894C156.401 193.894 157.009 194.596 157.018 195.447ZM154.213 212.668V199.323H156.691V212.668H154.213Z" fill="#242021"/>
  <path d="M171.901 210.11C172.707 210.615 174.112 211.144 175.415 211.144C177.345 211.144 178.174 210.227 178.174 209.142C178.174 207.922 177.368 207.342 175.48 206.753C172.887 205.963 171.703 204.598 171.707 202.975C171.707 200.833 173.471 198.991 176.558 198.991C177.999 198.991 179.275 199.365 180.072 199.856L179.464 201.675C178.958 201.362 177.857 200.829 176.452 200.829C174.946 200.829 174.116 201.652 174.116 202.704C174.116 203.877 175.033 204.368 176.899 204.972C179.414 205.785 180.584 206.921 180.588 208.96C180.588 211.219 178.773 213 175.355 213C173.757 213 172.338 212.598 171.297 212.018L171.901 210.11Z" fill="#242021"/>
</svg>
