<?xml version="1.0" encoding="UTF-8" standalone="no"?>
<!-- Created with Inkscape (http://www.inkscape.org/) -->

<svg
   version="1.1"
   id="svg2"
   xml:space="preserve"
   width="1920"
   height="2880"
   viewBox="0 0 1920 2880"
   sodipodi:docname="16c759f0b75486cff78cc163cd7f9a91.ai"
   xmlns:inkscape="http://www.inkscape.org/namespaces/inkscape"
   xmlns:sodipodi="http://sodipodi.sourceforge.net/DTD/sodipodi-0.dtd"
   xmlns="http://www.w3.org/2000/svg"
   xmlns:svg="http://www.w3.org/2000/svg"><defs
     id="defs6"><clipPath
       clipPathUnits="userSpaceOnUse"
       id="clipPath16"><path
         d="M 0,0 H 1440 V 2160 H 0 Z"
         id="path14" /></clipPath></defs><sodipodi:namedview
     id="namedview4"
     pagecolor="#ffffff"
     bordercolor="#666666"
     borderopacity="1.0"
     inkscape:pageshadow="2"
     inkscape:pageopacity="0.0"
     inkscape:pagecheckerboard="0" /><g
     id="g8"
     inkscape:groupmode="layer"
     inkscape:label="16c759f0b75486cff78cc163cd7f9a91"
     transform="matrix(1.3333333,0,0,-1.3333333,0,2879.9999)"><g
       id="g10"><g
         id="g12"
         clip-path="url(#clipPath16)"><g
           id="g18"
           transform="translate(3794,206.76)"><path
             d="m 0,0 v -220.14 h -4087.589 v 6.88 H -4096 v 2211.5 h 900.606 c -287.424,-142.945 -495.3,-525.887 -527.746,-970.905 -4.213,-57.796 -5.388,-115.557 -3.686,-172.842 6.807,-229.111 68.097,-445.988 170.469,-609.898 0.22,-0.352 0.438,-0.701 0.655,-1.048 340.354,-543.931 840.344,-87.968 1186.564,-21.89 551.692,105.293 1110.119,87.687 1659.187,-47.221 C -473.301,116.301 -236.65,58.15 0,0"
             style="fill:#242021;fill-opacity:1;fill-rule:nonzero;stroke:none"
             id="path20" /></g></g></g></g></svg>
