<?xml version="1.0" encoding="UTF-8" standalone="no"?>
<!-- Created with Inkscape (http://www.inkscape.org/) -->

<svg
   version="1.1"
   id="svg2"
   xml:space="preserve"
   width="5461.333"
   height="1866.6666"
   viewBox="0 0 5461.333 1866.6667"
   sodipodi:docname="5f4df5f8a4561b6ea20cff246c4f889a.ai"
   xmlns:inkscape="http://www.inkscape.org/namespaces/inkscape"
   xmlns:sodipodi="http://sodipodi.sourceforge.net/DTD/sodipodi-0.dtd"
   xmlns="http://www.w3.org/2000/svg"
   xmlns:svg="http://www.w3.org/2000/svg"><defs
     id="defs6"><clipPath
       clipPathUnits="userSpaceOnUse"
       id="clipPath16"><path
         d="M 0,1418.76 H 4105.34 V 0 H 0 Z"
         id="path14" /></clipPath></defs><sodipodi:namedview
     id="namedview4"
     pagecolor="#ffffff"
     bordercolor="#666666"
     borderopacity="1.0"
     inkscape:pageshadow="2"
     inkscape:pageopacity="0.0"
     inkscape:pagecheckerboard="0" /><g
     id="g8"
     inkscape:groupmode="layer"
     inkscape:label="5f4df5f8a4561b6ea20cff246c4f889a"
     transform="matrix(1.3333333,0,0,-1.3333333,-6.2265332,1879.1738)"><g
       id="g10"><g
         id="g12"
         clip-path="url(#clipPath16)"><g
           id="g18"
           transform="translate(4100.6699,148.3084)"><path
             d="m 0,0 v -138.928 h -4087.589 v 4.341 H -4096 v 1395.659 h 900.606 c -287.424,-90.212 -495.3,-331.883 -527.746,-612.73 -4.213,-36.474 -5.388,-72.927 -3.686,-109.079 6.808,-144.59 68.097,-281.459 170.469,-384.901 0.22,-0.222 0.438,-0.443 0.655,-0.662 340.354,-343.27 840.344,-55.516 1186.564,-13.814 551.692,66.449 1110.119,55.338 1659.187,-29.801 C -473.301,73.396 -236.65,36.698 0,0"
             style="fill:#242021;fill-opacity:1;fill-rule:nonzero;stroke:none"
             id="path20" /></g></g></g></g></svg>
