<?xml version="1.0" encoding="UTF-8" standalone="no"?>
<!-- Created with Inkscape (http://www.inkscape.org/) -->

<svg
   version="1.1"
   id="svg2"
   xml:space="preserve"
   width="176.73839"
   height="159.99925"
   viewBox="0 0 176.73839 159.99925"
   sodipodi:docname="7f07ed99d39eea9d3d34e5b3b64c1d9a.ai"
   xmlns:inkscape="http://www.inkscape.org/namespaces/inkscape"
   xmlns:sodipodi="http://sodipodi.sourceforge.net/DTD/sodipodi-0.dtd"
   xmlns="http://www.w3.org/2000/svg"
   xmlns:svg="http://www.w3.org/2000/svg"><defs
     id="defs6"><clipPath
       clipPathUnits="userSpaceOnUse"
       id="clipPath16"><path
         d="M 0,120 H 132.554 V 0 H 0 Z"
         id="path14" /></clipPath></defs><sodipodi:namedview
     id="namedview4"
     pagecolor="#ffffff"
     bordercolor="#666666"
     borderopacity="1.0"
     inkscape:pageshadow="2"
     inkscape:pageopacity="0.0"
     inkscape:pagecheckerboard="0" /><g
     id="g8"
     inkscape:groupmode="layer"
     inkscape:label="7f07ed99d39eea9d3d34e5b3b64c1d9a"
     transform="matrix(1.3333333,0,0,-1.3333333,0,159.99979)"><g
       id="g10"><g
         id="g12"
         clip-path="url(#clipPath16)"><g
           id="g18"
           transform="translate(17.4568,40.8954)"><path
             d="m 0,0 v -37.757 c 0,-1.735 2.118,-3.138 4.731,-3.138 h 4.252 c 2.613,0 4.731,1.403 4.731,3.138 V 0 Z m -1.812,46.871 c -8.646,0 -15.645,-9.666 -15.645,-21.592 v -1.334 c 0,-11.925 6.999,-21.591 15.645,-21.591 h 10.215 13.714 4.347 v 44.517 z m 96.369,-4.072 v 27.122 c 0,7.062 -5.531,11.471 -9.956,7.94 L 45.702,46.871 H 28.817 V 2.354 h 16.885 l 38.899,-30.991 c 4.425,-3.531 9.956,0.879 9.956,7.94 V 6.434 Z m 2.354,0 c 10.042,0 18.186,-8.144 18.186,-18.187 0,-10.042 -8.144,-18.178 -18.186,-18.178 z"
             style="fill:#ee801f;fill-opacity:1;fill-rule:nonzero;stroke:none"
             id="path20" /></g></g></g></g></svg>
