<svg xmlns="http://www.w3.org/2000/svg" width="51" height="49" viewBox="0 0 51 49" fill="none">
  <path d="M41.9995 14.8752C45.6626 14.8752 48.6332 17.8186 48.6332 21.4481C48.6332 25.0777 45.6626 28.0182 41.9995 28.0182V14.8752Z" fill="#EF801F"/>
  <path d="M41.9995 28.0182V37.8236C41.9995 40.3756 39.9819 41.9692 38.3678 40.6932L24.179 29.4927H18.0204V13.4036H24.179L38.3678 2.20306C39.9819 0.927047 41.9995 2.52064 41.9995 5.07266V28.0182Z" fill="#555555"/>
  <path d="M18.0204 13.4036V29.4927H7.70645C4.55273 29.4927 2 25.9992 2 21.6892V21.2071C2 16.897 4.55273 13.4036 7.70645 13.4036H18.0204Z" fill="#EF801F"/>
  <path d="M16.4349 29.4927V45.8993C16.4349 46.6536 15.6622 47.2632 14.7093 47.2632H13.1582C12.2052 47.2632 11.4325 46.6536 11.4325 45.8993V29.4927H16.4349Z" fill="#555555"/>
  <path d="M11.4325 29.4927H7.70645C4.55273 29.4927 2 25.9992 2 21.6892V21.2071C2 16.897 4.55273 13.4036 7.70645 13.4036H24.179L38.3679 2.20306C39.9819 0.927047 41.9995 2.52064 41.9995 5.07266V14.8753" stroke="#242021" stroke-width="3" stroke-miterlimit="10"/>
  <path d="M41.9995 28.0182V37.8236C41.9995 40.3756 39.9819 41.9692 38.3678 40.6932L24.179 29.4927H16.4349" stroke="#242021" stroke-width="3" stroke-miterlimit="10"/>
  <path d="M41.9995 14.8752C45.6626 14.8752 48.6332 17.8186 48.6332 21.4481C48.6332 25.0777 45.6626 28.0182 41.9995 28.0182V14.8752Z" stroke="#242021" stroke-width="3" stroke-miterlimit="10"/>
  <path d="M16.4349 29.4927V45.8993C16.4349 46.6536 15.6622 47.2632 14.7093 47.2632H13.1582C12.2052 47.2632 11.4325 46.6536 11.4325 45.8993V29.4927H16.4349Z" stroke="#242021" stroke-width="3" stroke-miterlimit="10"/>
  <path d="M18.0204 13.4036V29.4927" stroke="#242021" stroke-width="3" stroke-miterlimit="10"/>
</svg>
