<?xml version="1.0" encoding="UTF-8" standalone="no"?>
<!-- Created with Inkscape (http://www.inkscape.org/) -->

<svg
   version="1.1"
   id="svg2"
   xml:space="preserve"
   width="107.99974"
   height="86.419197"
   viewBox="0 0 107.99974 86.419197"
   sodipodi:docname="8307288a9dfc552cccf506a91d2e2971.ai"
   xmlns:inkscape="http://www.inkscape.org/namespaces/inkscape"
   xmlns:sodipodi="http://sodipodi.sourceforge.net/DTD/sodipodi-0.dtd"
   xmlns="http://www.w3.org/2000/svg"
   xmlns:svg="http://www.w3.org/2000/svg"><defs
     id="defs6"><clipPath
       clipPathUnits="userSpaceOnUse"
       id="clipPath48"><path
         d="M 0,64.815 H 81 V 0 H 0 Z"
         id="path46" /></clipPath></defs><sodipodi:namedview
     id="namedview4"
     pagecolor="#ffffff"
     bordercolor="#666666"
     borderopacity="1.0"
     inkscape:pageshadow="2"
     inkscape:pageopacity="0.0"
     inkscape:pagecheckerboard="0" /><g
     id="g8"
     inkscape:groupmode="layer"
     inkscape:label="8307288a9dfc552cccf506a91d2e2971"
     transform="matrix(1.3333333,0,0,-1.3333333,0,86.419465)"><g
       id="g10"
       transform="translate(21.1351,42.4132)"><path
         d="M 0,0 -9.682,-15.019 H 9.682 Z"
         style="fill:#555555;fill-opacity:1;fill-rule:nonzero;stroke:none"
         id="path12" /></g><g
       id="g14"
       transform="translate(30.8175,27.394)"><path
         d="M 0,0 9.682,15.019 H -9.682 Z"
         style="fill:#242021;fill-opacity:1;fill-rule:nonzero;stroke:none"
         id="path16" /></g><g
       id="g18"
       transform="translate(50.1824,27.394)"><path
         d="M 0,0 9.682,15.019 H -9.682 Z"
         style="fill:#242021;fill-opacity:1;fill-rule:nonzero;stroke:none"
         id="path20" /></g><g
       id="g22"
       transform="translate(40.5,42.4132)"><path
         d="M 0,0 -9.682,-15.019 H 9.682 Z"
         style="fill:#555555;fill-opacity:1;fill-rule:nonzero;stroke:none"
         id="path24" /></g><g
       id="g26"
       transform="translate(59.8649,42.4132)"><path
         d="M 0,0 -9.682,-15.019 H 9.682 Z"
         style="fill:#555555;fill-opacity:1;fill-rule:nonzero;stroke:none"
         id="path28" /></g><g
       id="g30"
       transform="translate(50.1822,27.3942)"><path
         d="M 0,0 -9.682,-27.394 19.365,0 Z"
         style="fill:#242021;fill-opacity:1;fill-rule:nonzero;stroke:none"
         id="path32" /></g><g
       id="g34"
       transform="translate(30.8178,27.3942)"><path
         d="M 0,0 9.682,-27.394 19.364,0 Z"
         style="fill:#555555;fill-opacity:1;fill-rule:nonzero;stroke:none"
         id="path36" /></g><g
       id="g38"
       transform="translate(11.4525,27.3942)"><path
         d="M 0,0 29.048,-27.394 19.365,0 Z"
         style="fill:#242021;fill-opacity:1;fill-rule:nonzero;stroke:none"
         id="path40" /></g><g
       id="g42"><g
         id="g44"
         clip-path="url(#clipPath48)"><g
           id="g50"
           transform="translate(40.4447,50.6146)"><path
             d="m 0,0 c -0.391,0 -0.709,0.317 -0.709,0.709 v 12.783 c 0,0.391 0.318,0.708 0.709,0.708 0.391,0 0.709,-0.317 0.709,-0.708 V 0.709 C 0.709,0.317 0.391,0 0,0"
             style="fill:#242021;fill-opacity:1;fill-rule:nonzero;stroke:none"
             id="path52" /></g><g
           id="g54"
           transform="translate(69.5478,37.3187)"><path
             d="m 0,0 c -0.233,0 -0.461,0.115 -0.596,0.325 -0.212,0.329 -0.118,0.767 0.211,0.979 l 10.744,6.927 c 0.33,0.211 0.768,0.117 0.98,-0.212 0.212,-0.329 0.117,-0.768 -0.212,-0.98 L 0.383,0.113 C 0.265,0.037 0.132,0 0,0"
             style="fill:#242021;fill-opacity:1;fill-rule:nonzero;stroke:none"
             id="path56" /></g><g
           id="g58"
           transform="translate(11.452,37.3187)"><path
             d="m 0,0 c -0.132,0 -0.265,0.037 -0.383,0.113 l -10.744,6.926 c -0.329,0.212 -0.424,0.651 -0.212,0.98 0.212,0.329 0.651,0.423 0.98,0.212 L 0.385,1.304 C 0.714,1.092 0.808,0.654 0.596,0.325 0.461,0.115 0.233,0 0,0"
             style="fill:#242021;fill-opacity:1;fill-rule:nonzero;stroke:none"
             id="path60" /></g><g
           id="g62"
           transform="translate(26.6434,46.5134)"><path
             d="m 0,0 c -0.231,0 -0.457,0.113 -0.593,0.32 l -4.42,6.732 c -0.214,0.327 -0.123,0.766 0.204,0.981 0.327,0.215 0.767,0.124 0.981,-0.203 L 0.592,1.098 C 0.807,0.77 0.716,0.331 0.388,0.116 0.269,0.038 0.133,0 0,0"
             style="fill:#555555;fill-opacity:1;fill-rule:nonzero;stroke:none"
             id="path64" /></g><g
           id="g66"
           transform="translate(51.6265,46.4737)"><path
             d="m 0,0 c -0.111,0 -0.223,0.026 -0.328,0.081 -0.347,0.182 -0.481,0.61 -0.299,0.957 L 2.938,7.849 C 3.12,8.195 3.548,8.329 3.895,8.148 4.242,7.966 4.376,7.538 4.194,7.191 L 0.628,0.38 C 0.502,0.138 0.255,0 0,0"
             style="fill:#555555;fill-opacity:1;fill-rule:nonzero;stroke:none"
             id="path68" /></g></g></g></g></svg>
