<svg width="36" height="35" viewBox="0 0 36 35" fill="none" xmlns="http://www.w3.org/2000/svg">
<g id="Property 1=Default">
<g id="Imoveis">
<g id="Group 22">
<rect id="Rectangle 15" x="19.1279" y="4.87048" width="2.25036" height="2.25036" fill="#FBE18A"/>
<rect id="Rectangle 20" x="5.62573" y="23.9985" width="9.00145" height="6.75109" fill="#FBE18A"/>
<rect id="Rectangle 17" x="24.5289" y="4.87048" width="2.25036" height="2.25036" fill="#FBE18A"/>
<rect id="Rectangle 18" x="27.1168" y="4.87048" width="2.25036" height="2.25036" fill="#FBE18A"/>
<rect id="Rectangle 16" x="21.9409" y="7.45837" width="2.25036" height="2.25036" fill="#FBE18A"/>
<rect id="Rectangle 17_2" x="24.5289" y="7.45837" width="2.25036" height="2.25036" fill="#FBE18A"/>
<rect id="Rectangle 15_2" x="19.1279" y="9.99011" width="2.25036" height="2.25036" fill="#FBE18A"/>
<rect id="Rectangle 17_3" x="24.5289" y="9.99011" width="2.25036" height="2.25036" fill="#FBE18A"/>
<rect id="Rectangle 19" x="29.5922" y="9.99011" width="2.25036" height="2.25036" fill="#FBE18A"/>
<rect id="Rectangle 17_4" x="24.5289" y="12.5217" width="2.25036" height="2.25036" fill="#FBE18A"/>
<rect id="Rectangle 18_2" x="27.1168" y="12.5217" width="2.25036" height="2.25036" fill="#FBE18A"/>
<rect id="Rectangle 19_2" x="29.5922" y="12.5217" width="2.25036" height="2.25036" fill="#FBE18A"/>
<rect id="Rectangle 16_2" x="21.9409" y="15.1097" width="2.25036" height="2.25036" fill="#FBE18A"/>
<rect id="Rectangle 17_5" x="24.5289" y="15.1097" width="2.25036" height="2.25036" fill="#FBE18A"/>
<rect id="Rectangle 17_6" x="24.5289" y="17.6414" width="2.25036" height="2.25036" fill="#FBE18A"/>
<rect id="Rectangle 19_3" x="29.5922" y="17.6414" width="2.25036" height="2.25036" fill="#FBE18A"/>
<rect id="Rectangle 19_4" x="29.5922" y="20.1729" width="2.25036" height="2.25036" fill="#FBE18A"/>
<rect id="Rectangle 15_3" x="19.1279" y="22.8733" width="2.25036" height="2.25036" fill="#FBE18A"/>
<rect id="Rectangle 18_3" x="27.1168" y="22.8733" width="2.25036" height="2.25036" fill="#FBE18A"/>
</g>
<g id="Group">
<path id="Vector" d="M18.5883 3V14.1358L19.6951 15.1917H21.3328V16.7544L22.6376 17.9993H23.941V19.2426L25.2923 20.5309H26.5476V21.7277L27.3739 22.5166L26.5476 23.295V25.0632H24.6908V24.5323L23.941 23.8214V25.0632H23.5435L23.566 33H32.4297V3H18.5883ZM21.3328 14.5633H19.4761V12.7065H21.3328V14.5633ZM21.3328 11.9567H19.4761V10.0999H21.3328V11.9567ZM21.3328 9.35005H19.4761V7.49183H21.3328V9.35005ZM21.3328 6.74194H19.4761V4.88522H21.3328V6.74194ZM23.941 17.0484H22.0827V15.1917H23.941V17.0484ZM23.941 14.5633H22.0827V12.7065H23.941V14.5633ZM23.941 11.9567H22.0827V10.0999H23.941V11.9567ZM23.941 9.35005H22.0827V7.49183H23.941V9.35005ZM23.941 6.74194H22.0827V4.88522H23.941V6.74194ZM26.5476 19.8575H24.6908V17.9993H26.5476V19.8575ZM26.5476 17.0484H24.6908V15.1917H26.5476V17.0484ZM26.5476 14.5633H24.6908V12.7065H26.5476V14.5633ZM26.5476 11.9567H24.6908V10.0999H26.5476V11.9567ZM26.5476 9.35005H24.6908V7.49183H26.5476V9.35005ZM26.5476 6.74194H24.6908V4.88522H26.5476V6.74194ZM29.1557 25.0632H27.2975V23.2065H29.1557V25.0632ZM29.1557 22.3891H27.2975V20.5309H29.1557V22.3891ZM29.1557 19.8575H27.2975V17.9993H29.1557V19.8575ZM29.1557 17.0484H27.2975V15.1917H29.1557V17.0484ZM29.1557 14.5633H27.2975V12.7065H29.1557V14.5633ZM29.1557 11.9567H27.2975V10.0999H29.1557V11.9567ZM29.1557 9.35005H27.2975V7.49183H29.1557V9.35005ZM29.1557 6.74194H27.2975V4.88522H29.1557V6.74194ZM31.5418 25.0632H29.6851V23.2065H31.5418V25.0632ZM31.5418 22.3891H29.6851V20.5309H31.5418V22.3891ZM31.5418 19.8575H29.6851V17.9993H31.5418V19.8575ZM31.5418 17.0484H29.6851V15.1917H31.5418V17.0484ZM31.5418 14.5633H29.6851V12.7065H31.5418V14.5633ZM31.5418 11.9567H29.6851V10.0999H31.5418V11.9567ZM31.5418 9.35005H29.6851V7.49183H31.5418V9.35005ZM31.5418 6.74194H29.6851V4.88522H31.5418V6.74194Z" fill="white"/>
<g id="Group_2">
<path id="Vector_2" d="M13.6419 14.7701L4.19934 23.8858V32.9999H15.5466V25.3526H19.953V32.9999H23.0845V23.9158L13.6419 14.7701ZM9.68852 30.0229H6.31252V27.8332H9.68852V30.0229ZM9.68852 27.2528H6.31252V25.0631H9.68852V27.2528ZM13.7529 30.0229H10.3754V27.8332H13.7529V30.0229ZM13.7529 27.2528H10.3754V25.0631H13.7529V27.2528Z" fill="white"/>
<path id="Vector_3" d="M27.0469 22.5151L24.9623 24.4813L13.4935 13.6095L2.0262 24.4813L0 22.4851L4.19937 18.4897V11.4948H7.27541V15.5622L13.5235 9.61707L27.0469 22.5151Z" fill="white"/>
</g>
<g id="Group 22_2" filter="url(#filter0_f_123_1447)">
<rect id="Rectangle 15_4" x="19.1279" y="4.87048" width="2.25036" height="2.25036" fill="white" fill-opacity="0.5"/>
<rect id="Rectangle 20_2" x="5.62573" y="23.9985" width="9.00145" height="6.75109" fill="white" fill-opacity="0.5"/>
<rect id="Rectangle 17_7" x="24.5289" y="4.87048" width="2.25036" height="2.25036" fill="white" fill-opacity="0.5"/>
<rect id="Rectangle 18_4" x="27.1168" y="4.87048" width="2.25036" height="2.25036" fill="white" fill-opacity="0.5"/>
<rect id="Rectangle 16_3" x="21.9409" y="7.45837" width="2.25036" height="2.25036" fill="white" fill-opacity="0.5"/>
<rect id="Rectangle 17_8" x="24.5289" y="7.45837" width="2.25036" height="2.25036" fill="white" fill-opacity="0.5"/>
<rect id="Rectangle 15_5" x="19.1279" y="9.99011" width="2.25036" height="2.25036" fill="white" fill-opacity="0.5"/>
<rect id="Rectangle 17_9" x="24.5289" y="9.99011" width="2.25036" height="2.25036" fill="white" fill-opacity="0.5"/>
<rect id="Rectangle 19_5" x="29.5922" y="9.99011" width="2.25036" height="2.25036" fill="white" fill-opacity="0.5"/>
<rect id="Rectangle 17_10" x="24.5289" y="12.5217" width="2.25036" height="2.25036" fill="white" fill-opacity="0.5"/>
<rect id="Rectangle 18_5" x="27.1168" y="12.5217" width="2.25036" height="2.25036" fill="white" fill-opacity="0.5"/>
<rect id="Rectangle 19_6" x="29.5922" y="12.5217" width="2.25036" height="2.25036" fill="white" fill-opacity="0.5"/>
<rect id="Rectangle 16_4" x="21.9409" y="15.1097" width="2.25036" height="2.25036" fill="white" fill-opacity="0.5"/>
<rect id="Rectangle 17_11" x="24.5289" y="15.1097" width="2.25036" height="2.25036" fill="white" fill-opacity="0.5"/>
<rect id="Rectangle 17_12" x="24.5289" y="17.6414" width="2.25036" height="2.25036" fill="white" fill-opacity="0.5"/>
<rect id="Rectangle 19_7" x="29.5922" y="17.6414" width="2.25036" height="2.25036" fill="white" fill-opacity="0.5"/>
<rect id="Rectangle 19_8" x="29.5922" y="20.1729" width="2.25036" height="2.25036" fill="white" fill-opacity="0.5"/>
<rect id="Rectangle 15_6" x="19.1279" y="22.8733" width="2.25036" height="2.25036" fill="white" fill-opacity="0.5"/>
<rect id="Rectangle 18_6" x="27.1168" y="22.8733" width="2.25036" height="2.25036" fill="white" fill-opacity="0.5"/>
</g>
</g>
</g>
</g>
<defs>
<filter id="filter0_f_123_1447" x="1.62573" y="0.870483" width="34.2168" height="33.8792" filterUnits="userSpaceOnUse" color-interpolation-filters="sRGB">
<feFlood flood-opacity="0" result="BackgroundImageFix"/>
<feBlend mode="normal" in="SourceGraphic" in2="BackgroundImageFix" result="shape"/>
<feGaussianBlur stdDeviation="2" result="effect1_foregroundBlur_123_1447"/>
</filter>
</defs>
</svg>
