<svg width="35" height="33" viewBox="0 0 35 33" fill="none" xmlns="http://www.w3.org/2000/svg">
<g id="Property 1=Variant3">
<g id="Imoveis">
<g id="Group 22">
<rect id="Rectangle 20" x="5.62573" y="22.9985" width="9.00145" height="6.75109" fill="#FBE18A"/>
<rect id="Rectangle 16" x="21.9409" y="3.87048" width="2.25036" height="2.25036" fill="#FBE18A"/>
<rect id="Rectangle 18" x="27.1168" y="3.87048" width="2.25036" height="2.25036" fill="#FBE18A"/>
<rect id="Rectangle 19" x="29.5922" y="3.87048" width="2.25036" height="2.25036" fill="#FBE18A"/>
<rect id="Rectangle 15" x="19.1279" y="6.45837" width="2.25036" height="2.25036" fill="#FBE18A"/>
<rect id="Rectangle 17" x="24.5289" y="6.45837" width="2.25036" height="2.25036" fill="#FBE18A"/>
<rect id="Rectangle 18_2" x="27.1168" y="6.45837" width="2.25036" height="2.25036" fill="#FBE18A"/>
<rect id="Rectangle 19_2" x="29.5922" y="6.45837" width="2.25036" height="2.25036" fill="#FBE18A"/>
<rect id="Rectangle 16_2" x="21.9409" y="8.99011" width="2.25036" height="2.25036" fill="#FBE18A"/>
<rect id="Rectangle 17_2" x="24.5289" y="8.99011" width="2.25036" height="2.25036" fill="#FBE18A"/>
<rect id="Rectangle 15_2" x="19.1279" y="11.5217" width="2.25036" height="2.25036" fill="#FBE18A"/>
<rect id="Rectangle 16_3" x="21.9409" y="11.5217" width="2.25036" height="2.25036" fill="#FBE18A"/>
<rect id="Rectangle 19_3" x="29.5922" y="11.5217" width="2.25036" height="2.25036" fill="#FBE18A"/>
<rect id="Rectangle 17_3" x="24.5289" y="14.1097" width="2.25036" height="2.25036" fill="#FBE18A"/>
<rect id="Rectangle 18_3" x="27.1168" y="14.1097" width="2.25036" height="2.25036" fill="#FBE18A"/>
<rect id="Rectangle 19_4" x="29.5922" y="14.1097" width="2.25036" height="2.25036" fill="#FBE18A"/>
<rect id="Rectangle 18_4" x="27.1168" y="16.6414" width="2.25036" height="2.25036" fill="#FBE18A"/>
<rect id="Rectangle 19_5" x="29.5922" y="19.1729" width="2.25036" height="2.25036" fill="#FBE18A"/>
<rect id="Rectangle 15_3" x="19.1279" y="21.8733" width="2.25036" height="2.25036" fill="#FBE18A"/>
</g>
<g id="Group">
<path id="Vector" d="M18.5883 2V13.1358L19.6951 14.1917H21.3328V15.7544L22.6376 16.9993H23.941V18.2426L25.2923 19.5309H26.5476V20.7277L27.3739 21.5166L26.5476 22.295V24.0632H24.6908V23.5323L23.941 22.8214V24.0632H23.5435L23.566 32H32.4297V2H18.5883ZM21.3328 13.5633H19.4761V11.7065H21.3328V13.5633ZM21.3328 10.9567H19.4761V9.09993H21.3328V10.9567ZM21.3328 8.35005H19.4761V6.49183H21.3328V8.35005ZM21.3328 5.74194H19.4761V3.88522H21.3328V5.74194ZM23.941 16.0484H22.0827V14.1917H23.941V16.0484ZM23.941 13.5633H22.0827V11.7065H23.941V13.5633ZM23.941 10.9567H22.0827V9.09993H23.941V10.9567ZM23.941 8.35005H22.0827V6.49183H23.941V8.35005ZM23.941 5.74194H22.0827V3.88522H23.941V5.74194ZM26.5476 18.8575H24.6908V16.9993H26.5476V18.8575ZM26.5476 16.0484H24.6908V14.1917H26.5476V16.0484ZM26.5476 13.5633H24.6908V11.7065H26.5476V13.5633ZM26.5476 10.9567H24.6908V9.09993H26.5476V10.9567ZM26.5476 8.35005H24.6908V6.49183H26.5476V8.35005ZM26.5476 5.74194H24.6908V3.88522H26.5476V5.74194ZM29.1557 24.0632H27.2975V22.2065H29.1557V24.0632ZM29.1557 21.3891H27.2975V19.5309H29.1557V21.3891ZM29.1557 18.8575H27.2975V16.9993H29.1557V18.8575ZM29.1557 16.0484H27.2975V14.1917H29.1557V16.0484ZM29.1557 13.5633H27.2975V11.7065H29.1557V13.5633ZM29.1557 10.9567H27.2975V9.09993H29.1557V10.9567ZM29.1557 8.35005H27.2975V6.49183H29.1557V8.35005ZM29.1557 5.74194H27.2975V3.88522H29.1557V5.74194ZM31.5418 24.0632H29.6851V22.2065H31.5418V24.0632ZM31.5418 21.3891H29.6851V19.5309H31.5418V21.3891ZM31.5418 18.8575H29.6851V16.9993H31.5418V18.8575ZM31.5418 16.0484H29.6851V14.1917H31.5418V16.0484ZM31.5418 13.5633H29.6851V11.7065H31.5418V13.5633ZM31.5418 10.9567H29.6851V9.09993H31.5418V10.9567ZM31.5418 8.35005H29.6851V6.49183H31.5418V8.35005ZM31.5418 5.74194H29.6851V3.88522H31.5418V5.74194Z" fill="white"/>
<g id="Group_2">
<path id="Vector_2" d="M13.6419 13.7701L4.19934 22.8858V31.9999H15.5466V24.3526H19.953V31.9999H23.0845V22.9158L13.6419 13.7701ZM9.68852 29.0229H6.31252V26.8332H9.68852V29.0229ZM9.68852 26.2528H6.31252V24.0631H9.68852V26.2528ZM13.7529 29.0229H10.3754V26.8332H13.7529V29.0229ZM13.7529 26.2528H10.3754V24.0631H13.7529V26.2528Z" fill="white"/>
<path id="Vector_3" d="M27.0469 21.5151L24.9623 23.4813L13.4935 12.6095L2.0262 23.4813L0 21.4851L4.19937 17.4897V10.4948H7.27541V14.5622L13.5235 8.61707L27.0469 21.5151Z" fill="white"/>
</g>
</g>
<g id="Group 23" filter="url(#filter0_f_123_1451)">
<g id="Rectangle 20_2">
<rect x="5.62573" y="22.9985" width="9.00145" height="6.75109" fill="white" fill-opacity="0.5" style="mix-blend-mode:soft-light"/>
</g>
<g id="Rectangle 16_4">
<rect x="21.9409" y="3.87048" width="2.25036" height="2.25036" fill="white" fill-opacity="0.5" style="mix-blend-mode:soft-light"/>
</g>
<g id="Rectangle 18_5">
<rect x="27.1168" y="3.87048" width="2.25036" height="2.25036" fill="white" fill-opacity="0.5" style="mix-blend-mode:soft-light"/>
</g>
<g id="Rectangle 19_6">
<rect x="29.5922" y="3.87048" width="2.25036" height="2.25036" fill="white" fill-opacity="0.5" style="mix-blend-mode:soft-light"/>
</g>
<g id="Rectangle 15_4">
<rect x="19.1279" y="6.45837" width="2.25036" height="2.25036" fill="white" fill-opacity="0.5" style="mix-blend-mode:soft-light"/>
</g>
<g id="Rectangle 17_4">
<rect x="24.5289" y="6.45837" width="2.25036" height="2.25036" fill="white" fill-opacity="0.5" style="mix-blend-mode:soft-light"/>
</g>
<g id="Rectangle 18_6">
<rect x="27.1168" y="6.45837" width="2.25036" height="2.25036" fill="white" fill-opacity="0.5" style="mix-blend-mode:soft-light"/>
</g>
<g id="Rectangle 19_7">
<rect x="29.5922" y="6.45837" width="2.25036" height="2.25036" fill="white" fill-opacity="0.5" style="mix-blend-mode:soft-light"/>
</g>
<g id="Rectangle 16_5">
<rect x="21.9409" y="8.99011" width="2.25036" height="2.25036" fill="white" fill-opacity="0.5" style="mix-blend-mode:soft-light"/>
</g>
<g id="Rectangle 17_5">
<rect x="24.5289" y="8.99011" width="2.25036" height="2.25036" fill="white" fill-opacity="0.5" style="mix-blend-mode:soft-light"/>
</g>
<g id="Rectangle 15_5">
<rect x="19.1279" y="11.5217" width="2.25036" height="2.25036" fill="white" fill-opacity="0.5" style="mix-blend-mode:soft-light"/>
</g>
<g id="Rectangle 16_6">
<rect x="21.9409" y="11.5217" width="2.25036" height="2.25036" fill="white" fill-opacity="0.5" style="mix-blend-mode:soft-light"/>
</g>
<g id="Rectangle 19_8">
<rect x="29.5922" y="11.5217" width="2.25036" height="2.25036" fill="white" fill-opacity="0.5" style="mix-blend-mode:soft-light"/>
</g>
<g id="Rectangle 17_6">
<rect x="24.5289" y="14.1097" width="2.25036" height="2.25036" fill="white" fill-opacity="0.5" style="mix-blend-mode:soft-light"/>
</g>
<g id="Rectangle 18_7">
<rect x="27.1168" y="14.1097" width="2.25036" height="2.25036" fill="white" fill-opacity="0.5" style="mix-blend-mode:soft-light"/>
</g>
<g id="Rectangle 19_9">
<rect x="29.5922" y="14.1097" width="2.25036" height="2.25036" fill="white" fill-opacity="0.5" style="mix-blend-mode:soft-light"/>
</g>
<g id="Rectangle 18_8">
<rect x="27.1168" y="16.6414" width="2.25036" height="2.25036" fill="white" fill-opacity="0.5" style="mix-blend-mode:soft-light"/>
</g>
<g id="Rectangle 19_10">
<rect x="29.5922" y="19.1729" width="2.25036" height="2.25036" fill="white" fill-opacity="0.5" style="mix-blend-mode:soft-light"/>
</g>
<g id="Rectangle 15_6">
<rect x="19.1279" y="21.8733" width="2.25036" height="2.25036" fill="white" fill-opacity="0.5" style="mix-blend-mode:soft-light"/>
</g>
</g>
</g>
</g>
<defs>
<filter id="filter0_f_123_1451" x="2.62573" y="0.870483" width="32.2168" height="31.8792" filterUnits="userSpaceOnUse" color-interpolation-filters="sRGB">
<feFlood flood-opacity="0" result="BackgroundImageFix"/>
<feBlend mode="normal" in="SourceGraphic" in2="BackgroundImageFix" result="shape"/>
<feGaussianBlur stdDeviation="1.5" result="effect1_foregroundBlur_123_1451"/>
</filter>
</defs>
</svg>
