<?xml version="1.0" encoding="UTF-8" standalone="no"?>
<!-- Created with Inkscape (http://www.inkscape.org/) -->

<svg
   version="1.1"
   id="svg2"
   xml:space="preserve"
   width="82.911995"
   height="106.66653"
   viewBox="0 0 82.911995 106.66653"
   sodipodi:docname="4fe904c48ae9d321654e512c7f0bcbed.ai"
   xmlns:inkscape="http://www.inkscape.org/namespaces/inkscape"
   xmlns:sodipodi="http://sodipodi.sourceforge.net/DTD/sodipodi-0.dtd"
   xmlns="http://www.w3.org/2000/svg"
   xmlns:svg="http://www.w3.org/2000/svg"><defs
     id="defs6"><clipPath
       clipPathUnits="userSpaceOnUse"
       id="clipPath16"><path
         d="M 0,80 H 62.185 V 0 H 0 Z"
         id="path14" /></clipPath></defs><sodipodi:namedview
     id="namedview4"
     pagecolor="#ffffff"
     bordercolor="#666666"
     borderopacity="1.0"
     inkscape:pageshadow="2"
     inkscape:pageopacity="0.0"
     inkscape:pagecheckerboard="0" /><g
     id="g8"
     inkscape:groupmode="layer"
     inkscape:label="4fe904c48ae9d321654e512c7f0bcbed"
     transform="matrix(1.3333333,0,0,-1.3333333,-3.9999999e-4,106.66666)"><g
       id="g10"><g
         id="g12"
         clip-path="url(#clipPath16)"><g
           id="g18"
           transform="translate(31.0923,74.4221)"><path
             d="m 0,0 c -14.083,0 -25.536,-11.453 -25.536,-25.536 0,-10.986 16.883,-32.237 25.536,-41.972 8.653,9.735 25.536,31.007 25.536,41.972 C 25.536,-11.453 14.083,0 0,0 m 0,-74.422 v 0 c -0.764,0 -1.506,0.318 -2.036,0.891 -1.188,1.272 -29.056,31.474 -29.056,48.017 0,16.543 13.955,31.092 31.092,31.092 17.137,0 31.092,-13.956 31.092,-31.092 0,-17.137 -27.868,-46.724 -29.056,-48.017 C 1.506,-74.104 0.764,-74.422 0,-74.422"
             style="fill:#ffffff;fill-opacity:1;fill-rule:nonzero;stroke:none"
             id="path20" /></g><g
           id="g22"
           transform="translate(31.0923,58.7063)"><path
             d="m 0,0 c -4.645,0 -8.441,-3.775 -8.441,-8.441 0,-4.666 3.775,-8.441 8.441,-8.441 4.666,0 8.441,3.775 8.441,8.441 C 8.441,-3.775 4.666,0 0,0 m 0,-22.439 c -7.72,0 -13.998,6.278 -13.998,13.998 0,7.72 6.278,13.998 13.998,13.998 7.72,0 13.998,-6.278 13.998,-13.998 0,-7.72 -6.278,-13.998 -13.998,-13.998"
             style="fill:#ffffff;fill-opacity:1;fill-rule:nonzero;stroke:none"
             id="path24" /></g></g></g></g></svg>
