<svg xmlns="http://www.w3.org/2000/svg" width="22" height="12" viewBox="0 0 22 12" fill="none">
  <path d="M0.5 11.63C0.22 11.63 0 11.4 0 11.13V0.5C0 0.23 0.23 0 0.5 0C0.77 0 1 0.23 1 0.5V11.12C1 11.4 0.77 11.62 0.5 11.62V11.63Z" fill="#555555"/>
  <path d="M20.84 11.63C20.56 11.63 20.34 11.4 20.34 11.13V7.03003H0.5C0.22 7.03003 0 6.80003 0 6.53003C0 6.26003 0.23 6.03003 0.5 6.03003H20.83C21.11 6.03003 21.33 6.26003 21.33 6.53003V11.14C21.33 11.42 21.1 11.64 20.83 11.64L20.84 11.63Z" fill="#555555"/>
  <path d="M6.34984 3.81006H20.2498C20.9398 3.81006 21.4998 4.37006 21.4998 5.06006V6.99006H5.08984V5.06006C5.08984 4.37006 5.64984 3.81006 6.33984 3.81006H6.34984Z" fill="#555555"/>
  <path d="M2.99016 5.64994C3.86277 5.64994 4.57016 4.98732 4.57016 4.16994C4.57016 3.35256 3.86277 2.68994 2.99016 2.68994C2.11755 2.68994 1.41016 3.35256 1.41016 4.16994C1.41016 4.98732 2.11755 5.64994 2.99016 5.64994Z" fill="#555555"/>
</svg>
