<svg xmlns="http://www.w3.org/2000/svg" width="164" height="174" viewBox="0 0 164 174" fill="none">
  <path d="M126.004 43.6442H103.225L82.4503 22.8267L61.676 43.6442H38.8966L82.4503 0L126.004 43.6442Z" fill="white"/>
  <path d="M126.031 52.2232L82.3893 95.9515L38.7517 52.2232H62.343L82.3893 72.7734L93.4473 62.1583L82.9649 52.2232H126.031Z" fill="white"/>
  <path d="M32.2411 145.616C29.611 146.498 24.7357 147.602 20.1767 147.602C13.3193 147.602 8.61553 145.887 5.47841 142.873C2.185 139.771 0.473503 135.249 0.500185 130.237C0.553551 118.068 9.58373 111.887 20.9124 111.887C25.6314 111.887 29.2184 112.732 31.048 113.603L29.1688 121.097C27.1981 120.264 24.8386 119.615 20.8629 119.615C15.0956 119.615 10.327 122.64 10.327 129.756C10.327 136.276 14.5505 140.069 20.2797 140.069C21.5642 140.069 22.7688 139.951 23.2224 139.771V133.744H18.5453V126.46H32.2449V145.616H32.2411Z" fill="white"/>
  <path d="M46.5736 147.25L35.4659 112.235H45.7426L49.4477 126.001C50.5493 129.924 51.5098 133.755 52.3523 138.247H52.4552C53.2976 133.973 54.2963 129.924 55.3178 126.158L59.1144 112.235H69.067L57.6354 147.25H46.5659H46.5736Z" fill="white"/>
  <path d="M72.8827 112.239H82.2407V139.393H95.6926V147.25H72.8827V112.235V112.239Z" fill="white"/>
  <path d="M109.766 139.133L107.795 147.25H98.113L108.249 112.235H120.717L131.139 147.25H121.03L118.8 139.133H109.766ZM117.515 132.212L115.895 125.913C115.365 123.939 114.702 121.081 114.157 119.019H114.054C113.536 121.085 113.017 123.965 112.51 125.955L111.008 132.216H117.515V132.212Z" fill="white"/>
  <path d="M135.61 112.716C138.255 112.3 142.219 111.964 146.897 111.964C152.248 111.964 156.087 112.705 158.717 114.691C160.958 116.406 162.163 118.9 162.163 122.327C162.163 126.689 158.896 129.794 156.174 130.795V130.978C158.496 131.979 159.75 134.214 160.646 137.25C161.694 140.81 162.849 145.898 163.524 147.25H153.96C153.43 146.238 152.523 143.496 151.509 139.187C150.563 134.993 149.279 134.122 146.39 134.122H144.872V147.25H135.606V112.716H135.61ZM144.876 127.392H147.312C150.838 127.392 152.873 125.665 152.873 123.041C152.873 120.417 151.151 118.923 148.04 118.897C146.279 118.897 145.345 118.988 144.876 119.103V127.388V127.392Z" fill="white"/>
  <path d="M18.126 159.661C18.126 160.333 17.6305 160.929 16.8033 160.929C16.0372 160.929 15.5416 160.333 15.5416 159.661C15.5416 158.988 16.0677 158.393 16.8415 158.393C17.6153 158.393 18.1184 158.966 18.126 159.661ZM15.8046 173.729V162.827H17.8554V173.729H15.8046Z" fill="white"/>
  <path d="M30.0341 165.814C30.0341 164.726 30.0036 163.74 29.9426 162.827H31.7266L31.8371 164.722H31.8943C32.5461 163.633 33.6248 162.56 35.6565 162.56C37.2842 162.56 38.5001 163.599 38.9842 164.921H39.03C39.3997 164.275 39.8457 163.79 40.3107 163.446C41.0426 162.877 41.8202 162.564 43.0019 162.564C44.4466 162.564 46.9166 163.458 46.9166 167.587V173.737H44.9154V167.793C44.9154 165.452 43.9472 164.244 42.2738 164.244C41.0045 164.244 40.0515 165.142 39.6666 166.078C39.5598 166.364 39.476 166.724 39.476 167.075V173.733H37.4748V167.396C37.4748 165.482 36.5256 164.241 34.959 164.241C33.5524 164.241 32.5804 165.352 32.2107 166.288C32.0963 166.582 32.0353 166.937 32.0353 167.281V173.733H30.0341V165.822V165.814Z" fill="white"/>
  <path d="M70.5346 168.141C70.5346 172.117 67.4585 173.996 64.5272 173.996C61.2414 173.996 58.7333 171.72 58.7333 168.381C58.7333 164.844 61.3291 162.556 64.7178 162.556C68.1065 162.556 70.5308 164.978 70.5308 168.141H70.5346ZM60.8412 168.309C60.8412 170.895 62.5565 172.48 64.6111 172.48C66.6656 172.48 68.4343 170.96 68.4343 168.232C68.4343 166.33 67.2984 164.076 64.6759 164.076C62.0534 164.076 60.845 166.112 60.845 168.309H60.8412ZM67.6872 158.007L64.8093 161.299H63.3265L65.3811 158.007H67.6872Z" fill="white"/>
  <path d="M84.5773 162.827L86.9635 168.935C87.3981 170.035 87.7144 170.91 87.9927 171.804H88.0499C88.3434 170.898 88.6979 169.997 89.1096 168.935L91.4996 162.827H93.6837L88.9266 173.729H86.9216L82.3474 162.827H84.5735H84.5773Z" fill="white"/>
  <path d="M107.467 168.706C107.513 171.162 109.339 172.4 111.572 172.4C113.208 172.4 114.157 172.121 114.988 171.792L115.354 173.248C114.633 173.557 113.33 173.996 111.317 173.996C107.73 173.996 105.5 171.735 105.5 168.484C105.5 165.234 107.589 162.556 111.1 162.556C115.091 162.556 116.032 165.933 116.032 167.789C116.032 168.202 116.006 168.503 115.952 168.702H107.463L107.467 168.706ZM114.046 167.231C114.062 166.296 113.631 164.004 110.947 164.004C108.637 164.004 107.681 165.891 107.494 167.231H114.046Z" fill="white"/>
  <path d="M130.437 159.661C130.437 160.333 129.942 160.929 129.114 160.929C128.348 160.929 127.853 160.333 127.853 159.661C127.853 158.988 128.379 158.393 129.152 158.393C129.926 158.393 130.429 158.966 130.437 159.661ZM128.116 173.729V162.827H130.166V173.729H128.116Z" fill="white"/>
  <path d="M142.753 171.639C143.42 172.052 144.583 172.484 145.662 172.484C147.259 172.484 147.945 171.735 147.945 170.849C147.945 169.852 147.278 169.378 145.715 168.897C143.569 168.251 142.589 167.136 142.593 165.811C142.593 164.061 144.053 162.556 146.607 162.556C147.8 162.556 148.856 162.862 149.515 163.263L149.012 164.749C148.593 164.493 147.682 164.057 146.519 164.057C145.273 164.057 144.587 164.73 144.587 165.589C144.587 166.548 145.345 166.949 146.889 167.442C148.97 168.106 149.938 169.034 149.942 170.7C149.942 172.545 148.44 174 145.612 174C144.289 174 143.115 173.672 142.254 173.198L142.753 171.639Z" fill="white"/>
</svg>
