<?xml version="1.0" encoding="UTF-8" standalone="no"?>
<!-- Created with Inkscape (http://www.inkscape.org/) -->

<svg
   version="1.1"
   id="svg2"
   xml:space="preserve"
   width="104.957"
   height="107.99973"
   viewBox="0 0 104.957 107.99973"
   sodipodi:docname="3f14bf1dd8205aee2645df9632f0727e.ai"
   xmlns:inkscape="http://www.inkscape.org/namespaces/inkscape"
   xmlns:sodipodi="http://sodipodi.sourceforge.net/DTD/sodipodi-0.dtd"
   xmlns="http://www.w3.org/2000/svg"
   xmlns:svg="http://www.w3.org/2000/svg"><defs
     id="defs6"><clipPath
       clipPathUnits="userSpaceOnUse"
       id="clipPath16"><path
         d="M 0,81 H 78.718 V 0 H 0 Z"
         id="path14" /></clipPath></defs><sodipodi:namedview
     id="namedview4"
     pagecolor="#ffffff"
     bordercolor="#666666"
     borderopacity="1.0"
     inkscape:pageshadow="2"
     inkscape:pageopacity="0.0"
     inkscape:pagecheckerboard="0" /><g
     id="g8"
     inkscape:groupmode="layer"
     inkscape:label="3f14bf1dd8205aee2645df9632f0727e"
     transform="matrix(1.3333333,0,0,-1.3333333,-3.2743402e-4,107.99973)"><g
       id="g10"><g
         id="g12"
         clip-path="url(#clipPath16)"><g
           id="g18"
           transform="translate(39.3201)"><path
             d="m 0,0 c -9.918,0 -19.33,3.674 -26.659,10.44 -7.725,7.131 -12.21,16.844 -12.629,27.348 -0.867,21.685 16.071,40.032 37.756,40.898 C 1.854,78.822 5.235,78.524 8.515,77.804 8.863,77.727 9.083,77.383 9.006,77.035 8.93,76.687 8.588,76.465 8.238,76.543 5.067,77.24 1.798,77.527 -1.481,77.397 -22.455,76.559 -38.837,58.814 -37.999,37.84 -37.593,27.68 -33.255,18.286 -25.784,11.388 -18.312,4.491 -8.602,0.912 1.558,1.322 c 10.16,0.405 19.554,4.744 26.452,12.215 6.897,7.471 10.472,17.181 10.066,27.341 -0.339,8.48 -3.389,16.395 -8.82,22.887 -0.229,0.274 -0.193,0.681 0.081,0.91 0.273,0.227 0.68,0.192 0.909,-0.081 C 35.862,57.88 39.015,49.697 39.366,40.93 39.785,30.425 36.089,20.386 28.958,12.661 21.827,4.937 12.114,0.452 1.609,0.032 1.072,0.011 0.535,0 0,0"
             style="fill:#555555;fill-opacity:1;fill-rule:nonzero;stroke:none"
             id="path20" /></g><g
           id="g22"
           transform="translate(39.339,12.9036)"><path
             d="m 0,0 c -13.315,-0.001 -24.806,10.059 -26.279,23.593 -1.579,14.501 8.935,27.582 23.436,29.161 3.281,0.358 6.55,0.106 9.716,-0.747 C 7.217,51.915 7.421,51.561 7.328,51.216 7.235,50.872 6.88,50.669 6.537,50.761 3.527,51.572 0.418,51.812 -2.704,51.471 -16.497,49.97 -26.498,37.526 -24.996,23.732 -23.495,9.938 -11.047,-0.062 2.743,1.44 c 13.793,1.501 23.794,13.945 22.292,27.739 -0.458,4.21 -1.982,8.26 -4.408,11.71 -0.205,0.292 -0.135,0.694 0.157,0.899 0.291,0.205 0.694,0.135 0.899,-0.157 2.55,-3.628 4.153,-7.886 4.635,-12.313 C 27.897,14.817 17.384,1.736 2.883,0.157 1.915,0.051 0.952,0 0,0"
             style="fill:#555555;fill-opacity:1;fill-rule:nonzero;stroke:none"
             id="path24" /></g><g
           id="g26"
           transform="translate(39.3473,25.8092)"><path
             d="m 0,0 c -3.41,0 -6.649,1.266 -9.176,3.599 -2.662,2.457 -4.207,5.799 -4.351,9.41 -0.145,3.611 1.129,7.066 3.587,9.728 2.458,2.662 5.8,4.207 9.411,4.352 0.35,0.012 0.656,-0.263 0.67,-0.619 0.014,-0.357 -0.263,-0.657 -0.619,-0.671 -3.266,-0.13 -6.29,-1.529 -8.514,-3.937 -2.224,-2.409 -3.377,-5.535 -3.246,-8.801 0.13,-3.267 1.529,-6.29 3.938,-8.514 2.409,-2.224 5.535,-3.376 8.801,-3.246 3.266,0.13 6.29,1.528 8.513,3.937 2.224,2.409 3.377,5.535 3.247,8.801 -0.038,0.938 -0.182,1.869 -0.429,2.767 -0.095,0.343 0.107,0.699 0.45,0.793 0.344,0.095 0.699,-0.107 0.794,-0.451 0.273,-0.992 0.433,-2.021 0.474,-3.058 C 13.694,10.48 12.42,7.025 9.963,4.363 7.505,1.701 4.163,0.155 0.552,0.011 0.368,0.004 0.183,0 0,0"
             style="fill:#555555;fill-opacity:1;fill-rule:nonzero;stroke:none"
             id="path28" /></g><g
           id="g30"
           transform="translate(59.6693,68.6278)"><path
             d="M 0,0 -14.026,-19.583"
             style="fill:#242021;fill-opacity:1;fill-rule:nonzero;stroke:none"
             id="path32" /></g><g
           id="g34"
           transform="translate(45.6427,48.1414)"><path
             d="m 0,0 c -0.182,0 -0.366,0.055 -0.525,0.169 -0.406,0.29 -0.499,0.855 -0.209,1.26 l 14.026,19.583 c 0.29,0.406 0.854,0.5 1.26,0.209 0.406,-0.291 0.499,-0.855 0.209,-1.261 L 0.735,0.377 C 0.559,0.131 0.282,0 0,0"
             style="fill:#242021;fill-opacity:1;fill-rule:nonzero;stroke:none"
             id="path36" /></g><g
           id="g38"
           transform="translate(60.0926,69.2219)"><path
             d="m 0,0 c 3.599,1.311 7.478,1.808 11.275,1.626 l -8.802,-12.29 c -3.971,0.346 -8.002,-0.656 -11.664,-2.169 z"
             style="fill:#242021;fill-opacity:1;fill-rule:nonzero;stroke:none"
             id="path40" /></g><g
           id="g42"
           transform="translate(50.9014,56.3889)"><path
             d="M 0,0 C 0.299,3.962 -0.209,8.053 -1.703,11.742 L 7.08,24.004 C 8.49,20.377 9.298,16.645 9.191,12.833 Z"
             style="fill:#242021;fill-opacity:1;fill-rule:nonzero;stroke:none"
             id="path44" /></g><g
           id="g46"
           transform="translate(62.0537,57.8436)"><path
             d="m 0,0 c -3.972,0.345 -8.002,-0.656 -11.664,-2.169 0.298,3.962 -0.21,8.052 -1.703,11.742 l 1.182,1.65 c 1.408,-3.63 2.217,-7.361 2.109,-11.174 3.601,1.312 7.48,1.81 11.276,1.626 z"
             style="fill:#242021;fill-opacity:1;fill-rule:nonzero;stroke:none"
             id="path48" /></g><g
           id="g50"
           transform="translate(64.9014,61.8196)"><path
             d="m 0,0 c -3.97,0.348 -8.002,-0.656 -11.662,-2.167 0.298,3.963 -0.212,8.05 -1.705,11.74 l 1.182,1.65 c 1.41,-3.627 2.219,-7.359 2.111,-11.172 3.6,1.312 7.478,1.808 11.275,1.626 z"
             style="fill:#242021;fill-opacity:1;fill-rule:nonzero;stroke:none"
             id="path52" /></g><g
           id="g54"
           transform="translate(67.7511,65.7984)"><path
             d="m 0,0 c -3.97,0.347 -8.002,-0.655 -11.662,-2.167 0.298,3.962 -0.212,8.05 -1.705,11.74 l 1.182,1.65 c 1.41,-3.627 2.219,-7.358 2.111,-11.172 3.6,1.312 7.478,1.808 11.276,1.627 z"
             style="fill:#242021;fill-opacity:1;fill-rule:nonzero;stroke:none"
             id="path56" /></g><g
           id="g58"
           transform="translate(70.5998,69.7758)"><path
             d="m 0,0 c -3.97,0.348 -8.001,-0.655 -11.662,-2.166 0.299,3.962 -0.211,8.05 -1.705,11.739 l 1.183,1.651 c 1.41,-3.627 2.218,-7.359 2.11,-11.173 3.601,1.313 7.478,1.808 11.276,1.628 z"
             style="fill:#242021;fill-opacity:1;fill-rule:nonzero;stroke:none"
             id="path60" /></g><g
           id="g62"
           transform="translate(38.2162,38.6744)"><path
             d="m 0,0 4.495,18.89 3.488,-7.745 8.453,-0.808 z"
             style="fill:#242021;fill-opacity:1;fill-rule:nonzero;stroke:none"
             id="path64" /></g></g></g></g></svg>
