<svg xmlns="http://www.w3.org/2000/svg" width="122" height="126" viewBox="0 0 122 126" fill="none">
  <path d="M60.9411 125.004C45.5691 125.004 30.9811 119.337 19.6251 108.894C7.65311 97.8852 0.701108 82.8979 0.0491083 66.688C-1.29089 33.2245 24.9571 4.91085 58.5691 3.57661C63.8171 3.3695 69.0571 3.82753 74.1411 4.93872C74.6811 5.05821 75.0211 5.58792 74.9011 6.1256C74.7811 6.66327 74.2531 7.0058 73.7091 6.88233C68.7931 5.80697 63.7291 5.36488 58.6451 5.56402C26.1411 6.85843 0.749108 34.2401 2.04911 66.6083C2.67711 82.2886 9.40111 96.7859 20.9811 107.428C32.5611 118.074 47.6091 123.594 63.3571 122.961C79.1051 122.336 93.6651 115.64 104.353 104.11C115.041 92.5801 120.585 77.5968 119.953 61.9166C119.429 48.8291 114.701 36.6179 106.281 26.5972C105.925 26.175 105.981 25.5457 106.405 25.1952C106.829 24.8447 107.457 24.8965 107.813 25.3187C116.517 35.6779 121.405 48.3074 121.949 61.8369C122.597 78.0469 116.869 93.54 105.817 105.46C94.7651 117.381 79.7131 124.303 63.4291 124.948C62.5971 124.98 61.7651 124.996 60.9331 124.996L60.9411 125.004Z" fill="#EF801F"/>
  <path d="M60.9692 105.09C40.3332 105.09 22.5252 89.569 20.2412 68.6832C17.7932 46.3039 34.0892 26.1191 56.5652 23.6816C61.6492 23.128 66.7172 23.5183 71.6252 24.8327C72.1572 24.9761 72.4732 25.5217 72.3292 26.0514C72.1852 26.5811 71.6332 26.8958 71.1052 26.7524C66.4412 25.5018 61.6212 25.1314 56.7852 25.6571C35.4052 27.9751 19.9092 47.1761 22.2332 68.4642C24.5612 89.7522 43.8532 105.186 65.2252 102.868C86.6052 100.55 102.101 81.3485 99.7772 60.0605C99.0652 53.5645 96.7052 47.3155 92.9452 41.9866C92.6292 41.5365 92.7372 40.9152 93.1892 40.6006C93.6412 40.2859 94.2652 40.3934 94.5812 40.8435C98.5332 46.4433 101.017 53.0149 101.765 59.8454C104.213 82.2247 87.9172 102.41 65.4412 104.847C63.9412 105.01 62.4492 105.09 60.9732 105.09H60.9692Z" fill="#F0801F"/>
  <path d="M60.9851 85.1761C55.7011 85.1761 50.6811 83.2205 46.7651 79.6241C42.6411 75.8324 40.2451 70.6747 40.0211 65.1028C39.7971 59.5309 41.7731 54.1979 45.5811 50.0916C49.3891 45.9854 54.5691 43.5997 60.1651 43.3766C60.7091 43.3567 61.1811 43.7829 61.2051 44.3325C61.2251 44.8821 60.7971 45.3441 60.2451 45.368C55.1811 45.5672 50.4971 47.7259 47.0491 51.4458C43.6011 55.1617 41.8171 59.9849 42.0171 65.0271C42.2171 70.0693 44.3851 74.7332 48.1211 78.1664C51.8531 81.5995 56.7011 83.3759 61.7611 83.1767C66.8251 82.9776 71.5091 80.8189 74.9571 77.099C78.4051 73.383 80.1891 68.5599 79.9891 63.5176C79.9331 62.0719 79.7091 60.6341 79.3251 59.2481C79.1771 58.7184 79.4931 58.1687 80.0251 58.0254C80.5571 57.878 81.1091 58.1926 81.2531 58.7223C81.6771 60.2557 81.9251 61.8409 81.9891 63.442C82.2131 69.0139 80.2371 74.3469 76.4291 78.4531C72.6211 82.5594 67.4411 84.9451 61.8451 85.1681C61.5611 85.1801 61.2731 85.184 60.9891 85.184L60.9851 85.1761Z" fill="#F0801F"/>
  <path d="M70.741 50.7129C70.457 50.7129 70.173 50.6293 69.925 50.454C69.297 50.004 69.153 49.1357 69.601 48.5104L91.337 18.289C91.785 17.6637 92.661 17.5163 93.289 17.9664C93.917 18.4164 94.061 19.2847 93.613 19.91L71.877 50.1314C71.605 50.5098 71.173 50.7129 70.737 50.7129H70.741Z" fill="#EF801F"/>
  <path d="M93.1368 18.1814C98.7168 16.1582 104.725 15.3895 110.613 15.6723L96.9688 34.6383C90.8128 34.1046 84.5688 35.65 78.8928 37.9839L93.1368 18.1814Z" fill="#EF801F"/>
  <path d="M78.8929 37.9839C79.3569 31.8703 78.5689 25.5576 76.2529 19.8622L89.8649 0.939941C92.0489 6.53577 93.3049 12.2949 93.1369 18.1815L78.8929 37.9839Z" fill="#EF801F"/>
  <path d="M96.1769 35.7376C90.0209 35.2039 83.7769 36.7492 78.1009 39.0831C78.5649 32.9695 77.7769 26.6568 75.4609 20.9614L77.2929 18.4164C79.4769 24.0202 80.7289 29.7753 80.5609 35.6619C86.1409 33.6386 92.1529 32.866 98.0369 33.1527L96.1769 35.7376Z" fill="#EF801F"/>
  <path d="M100.589 29.6041C94.4371 29.0664 88.189 30.6157 82.513 32.9496C82.977 26.836 82.185 20.5273 79.873 14.8319L81.705 12.2869C83.889 17.8827 85.1451 23.6418 84.9771 29.5284C90.5571 27.5051 96.5651 26.7364 102.453 27.0192L100.589 29.608V29.6041Z" fill="#EF801F"/>
  <path d="M105.005 23.4627C98.8528 22.929 92.6048 24.4743 86.9288 26.8082C87.3928 20.6947 86.6008 14.3859 84.2888 8.69051L86.1208 6.14551C88.3048 11.7413 89.5608 17.5005 89.3928 23.387C94.9728 21.3638 100.981 20.5951 106.869 20.8739L105.005 23.4627Z" fill="#EF801F"/>
  <path d="M109.421 17.3252C103.269 16.7875 97.0209 18.3368 91.3449 20.6667C91.8089 14.5531 91.0169 8.24438 88.7009 2.54899L90.5329 0C92.7169 5.59583 93.9729 11.3549 93.8049 17.2415C99.3849 15.2183 105.393 14.4496 111.281 14.7284L109.417 17.3212L109.421 17.3252Z" fill="#EF801F"/>
  <path d="M59.229 65.3218L66.197 36.1718L71.601 48.1201L84.705 49.3668L59.229 65.3218Z" fill="#EF801F"/>
</svg>
