<svg xmlns="http://www.w3.org/2000/svg" xmlns:xlink="http://www.w3.org/1999/xlink" width="167.868" height="324.286" viewBox="0 0 167.868 324.286">
  <defs>
    <clipPath id="clip-path">
      <path id="Caminho_111402" data-name="Caminho 111402" d="M60.34,158.82s-3.53,11.49-.54,11.29c5.24-.35,36.06.67,57.84,5.96,0,0,3.52,1.24-3.12-6.35S65.38,155.6,60.34,158.81h0Z" fill="none"/>
    </clipPath>
  </defs>
  <g id="confirmacao" transform="translate(0.005 0.004)">
    <g id="Grupo_28483" data-name="Grupo 28483">
      <g id="Grupo_28468" data-name="Grupo 28468">
        <g id="Grupo_28464" data-name="Grupo 28464">
          <path id="Caminho_111373" data-name="Caminho 111373" d="M76.62,213.1c-4.77-2.5-8.45-.82-11.52,4.58-4.1,7.21-9.81,25.22-5.76,27.61,4.63,2.74,12.46-3.16,17.05-11.9s5-17.79.24-20.29h0Z" fill="#555"/>
          <path id="Caminho_111374" data-name="Caminho 111374" d="M72.34,211.97c-2.79.1-5.16,2.05-7.24,5.71-4.1,7.21-9.81,25.22-5.76,27.61a4.481,4.481,0,0,0,.58.29,57,57,0,0,1,12.42-33.62h0Z" fill="#242021"/>
          <g id="Grupo_28463" data-name="Grupo 28463">
            <path id="Caminho_111375" data-name="Caminho 111375" d="M76.82,231.35a22.136,22.136,0,0,1-6.1-5.09,1.142,1.142,0,0,1,1.73-1.49,20.15,20.15,0,0,0,5.4,4.54,1.145,1.145,0,1,1-1.04,2.04Z" fill="#242021"/>
            <path id="Caminho_111376" data-name="Caminho 111376" d="M75.25,234.69a22.136,22.136,0,0,1-6.1-5.09,1.142,1.142,0,0,1,1.73-1.49,20.15,20.15,0,0,0,5.4,4.54,1.145,1.145,0,1,1-1.04,2.04Z" fill="#242021"/>
            <path id="Caminho_111377" data-name="Caminho 111377" d="M73.76,237.79a22.136,22.136,0,0,1-6.1-5.09,1.142,1.142,0,0,1,1.73-1.49,20.15,20.15,0,0,0,5.4,4.54,1.145,1.145,0,1,1-1.04,2.04Z" fill="#242021"/>
          </g>
        </g>
        <g id="Grupo_28466" data-name="Grupo 28466">
          <path id="Caminho_111378" data-name="Caminho 111378" d="M5.28,289.72c-5.06,1.83-6.3,5.68-4.39,11.6,2.56,7.89,12,24.26,16.49,22.88,5.15-1.58,6.07-11.33,2.71-20.61S10.33,287.9,5.27,289.73h0Z" fill="#555"/>
          <path id="Caminho_111379" data-name="Caminho 111379" d="M1.56,292.11c-1.81,2.13-1.97,5.19-.67,9.2,2.56,7.89,12,24.26,16.49,22.88a4.489,4.489,0,0,0,.61-.23A57.051,57.051,0,0,1,1.55,292.11h0Z" fill="#242021"/>
          <g id="Grupo_28465" data-name="Grupo 28465">
            <path id="Caminho_111380" data-name="Caminho 111380" d="M18.89,301.87a22.131,22.131,0,0,1-7.87,1.07,1.146,1.146,0,1,1,.07-2.29,20.135,20.135,0,0,0,7-.93,1.142,1.142,0,0,1,.8,2.14h0Z" fill="#242021"/>
            <path id="Caminho_111381" data-name="Caminho 111381" d="M20.3,305.29a22.131,22.131,0,0,1-7.87,1.07,1.146,1.146,0,1,1,.07-2.29,20.135,20.135,0,0,0,7-.93,1.142,1.142,0,0,1,.8,2.14h0Z" fill="#242021"/>
            <path id="Caminho_111382" data-name="Caminho 111382" d="M21.58,308.48a22.131,22.131,0,0,1-7.87,1.07,1.146,1.146,0,1,1,.07-2.29,20.135,20.135,0,0,0,7-.93,1.142,1.142,0,0,1,.8,2.14h0Z" fill="#242021"/>
          </g>
        </g>
        <g id="Grupo_28467" data-name="Grupo 28467">
          <path id="Caminho_111383" data-name="Caminho 111383" d="M64.89,152.6c-3.48,1.34-7.4,49.94-61.49,138.16,0,0,11.25,12.53,16.79,6.93,0,0,61.58-95.9,64.01-99.75,2.72-4.31,8.45-4.03,12.24-1.01,2.19,1.74,18.76,17.75,8.33,18.25s-20.48-1.35-26.88-1.53c-1.19-.03-6.05,11.05-1.2,14.76s53.35,10.15,58.87,1.85c7.65-11.5-16.98-53.5-23.07-60.44s-44.12-18.57-47.6-17.23Z" fill="#b3b3b3"/>
          <path id="Caminho_111384" data-name="Caminho 111384" d="M56.85,177.92c5.1-16.15,6.61-24.77,8.04-25.32,3.48-1.34,41.5,10.3,47.6,17.23a87.4,87.4,0,0,1,7.33,10.88,119.632,119.632,0,0,0-31.55-5.88,110.9,110.9,0,0,0-27.5,2.24c-1.31.27-2.62.54-3.92.85h0Z" fill="#9d9d9d"/>
          <path id="Caminho_111385" data-name="Caminho 111385" d="M90.31,159.01c.36.13.72.25,1.07.38a194.707,194.707,0,0,1,1.15,24.01c-.02.88-.06,1.75-.11,2.61h.14a3.238,3.238,0,0,0,3.31-1.48,12.768,12.768,0,0,0,1.79-5.32c.78-4.98.46-11.71-.11-17.48.36.14.72.29,1.07.43.54,5.74.83,12.31.06,17.21a14.08,14.08,0,0,1-1.97,5.76,4.19,4.19,0,0,1-4.31,1.9h-.04a50.057,50.057,0,0,1-1.05,7.72,8.9,8.9,0,0,0-1.03-.06,58.358,58.358,0,0,0,1.22-11.31,194.783,194.783,0,0,0-1.2-24.36Z" fill="#767474"/>
          <path id="Caminho_111386" data-name="Caminho 111386" d="M94.1,232.57c-8.67-1.22-15.71-2.85-17.4-4.15-4.85-3.71,0-14.8,1.2-14.76,6.18.17,15.74,1.9,25.76,1.57-.25.24-.49.49-.73.75a41.25,41.25,0,0,0-6.04,8.28,21.837,21.837,0,0,0-2.78,8.32h0Z" fill="#9d9d9d"/>
        </g>
      </g>
      <g id="Grupo_28469" data-name="Grupo 28469">
        <path id="Caminho_111387" data-name="Caminho 111387" d="M139.78,119.28c.2-2.26,9.85-22.45,10.16-29.23l9.42,3.89a180.976,180.976,0,0,1-8.91,36.26s-10.86-8.66-10.66-10.92Z" fill="#fecba5"/>
        <path id="Caminho_111388" data-name="Caminho 111388" d="M143.58,109.39c1.47,3.44,5.11,8.1,10.67,8.81-1.17,4.09-2.45,8.07-3.81,12,0,0-10.86-8.66-10.66-10.92.08-.94,1.8-4.99,3.81-9.89Z" fill="#e58c6c"/>
        <path id="Caminho_111389" data-name="Caminho 111389" d="M159.54,94.45c-2.13,1.45-5.99,2.67-8.31,1.11-2.99-2.01-7.85-11.12-9.63-13.15-.55-.63-1.99-2.46-1.64-3.38.8-2.07,7.34,3.7,7.37,3.67.24-.23.73-10.84,2.68-11.58,2.24-.85,2.06,7.74,2.39,7.72.36-.02,2.39-8.15,5.2-7.66,1.92.33-.15,8.7.06,8.82.08.05,5.26-6,6.81-4.63,1.63,1.44-2.63,6.08-2.89,7.88-.02.16,5.68-3.01,6.26-1.39.35.98-3.33,4.34-3.85,5.01-2.08,2.68-2.33,6.14-4.46,7.59h0Z" fill="#fecba5"/>
      </g>
      <g id="Grupo_28471" data-name="Grupo 28471">
        <path id="Caminho_111390" data-name="Caminho 111390" d="M23.53,57.53s-5.46-28.49-5.05-40.82L7.23,18.62S-.86,65.7,15.06,67.48c13.33,1.48,8.02-12.13,8.47-9.95h0Z" fill="#fecba5"/>
        <path id="Caminho_111391" data-name="Caminho 111391" d="M5.31,47.75c.71,1.41,4.52,7.31,17.32,4.82.48,2.71.82,4.53.89,4.89a.2.2,0,0,0,.01.07v-.07c-.33-1.81,4.72,11.48-8.47,10.02-6.77-.75-9.2-9.69-9.75-19.72h0Z" fill="#e58c6c"/>
        <g id="Grupo_28470" data-name="Grupo 28470">
          <path id="Caminho_111392" data-name="Caminho 111392" d="M16.75,19.44c.97-.57,2.33-1.91,4.58-5.43a6.959,6.959,0,0,0,1.24-5.47c-.53-3-3.73-1.96-3.93-2.31-.2-.32-.18-6.57-5.35-6.22A1.887,1.887,0,0,0,11.3,1.79,3.431,3.431,0,0,0,7.87.73c-2.06.54-2.23,3.04-2.23,3.04A1.9,1.9,0,0,0,3.14,4.8a3.111,3.111,0,0,0-.23,2.62S1.84,6.47.72,8.27c-1.13,1.82-.91,2.49.46,4.92,1.26,2.23,4.38,6.19,6.54,7.08,3.76,1.56,6.35.72,9.03-.85Z" fill="#fecba5"/>
          <path id="Caminho_111393" data-name="Caminho 111393" d="M13.69,7.25a22.169,22.169,0,0,1,4.89-1.29,1.1,1.1,0,0,0,.06.28.176.176,0,0,0,.13.06c-.52.11-1.14.25-1.42.32-.51.13-1.01.27-1.51.44-.42.14-.84.28-1.25.44-1.27.51-2.75,1.1-3.08,2.58a1.336,1.336,0,0,0,.44,1.43,2.958,2.958,0,0,0,1.24.55,20.739,20.739,0,0,0,3.33.4,9.136,9.136,0,0,0,1.17.01,9.475,9.475,0,0,1-1.66.25,14.351,14.351,0,0,1-2.63-.1c-.09.07-.17.13-.19.15a5.143,5.143,0,0,0-1.62,2.15c-.11.26-.37.96-.35.79a7.353,7.353,0,0,1,.92-2.79,2.91,2.91,0,0,1,.4-.48,2.228,2.228,0,0,1-1.65-1.47,1.35,1.35,0,0,1-.45,0,1.474,1.474,0,0,1-.35-.08c-.04.09-.13.19-.19.31a3.642,3.642,0,0,1-.23.39,2.158,2.158,0,0,1-2.29.7,5.052,5.052,0,0,1-.33,1.15,3.917,3.917,0,0,1-.64,1.17,1.731,1.731,0,0,1-1.99.21,6.539,6.539,0,0,1-3-2.72c0-.01-.02-.02-.03-.03h.02a.049.049,0,0,0,.01.03c.21.21.41.43.62.63.78.76,2.01,1.82,3.2,1.7.85-.08,1.42-1.1,1.62-1.83a2.52,2.52,0,0,0,.05-.48,2.313,2.313,0,0,1-.35-.18A12.485,12.485,0,0,1,2.3,7.16a1.164,1.164,0,0,1,.6.22,7.853,7.853,0,0,0,.54.8c1.02,1.36,2.28,3.1,4.02,3.51a2.243,2.243,0,0,0,1.47-.07,2.1,2.1,0,0,0,.67-.72,2.236,2.236,0,0,0,.1-.21,5.816,5.816,0,0,1-1.2-.94A13.719,13.719,0,0,1,6.23,6.16a9.94,9.94,0,0,1-.99-2.52,1.548,1.548,0,0,1,.41.12V3.69c.01.04.03.09.04.13a13.44,13.44,0,0,0,.85,1.9A18.721,18.721,0,0,0,8.86,9.36a3.231,3.231,0,0,0,1.46,1.18,1.185,1.185,0,0,0,.53,0v-.12a3.083,3.083,0,0,1,1.96-2.76c.08-.04.15-.08.23-.12a7.347,7.347,0,0,0-.25-1.13,34.8,34.8,0,0,0-1.04-3.48c-.15-.41-.29-.83-.44-1.24a1.9,1.9,0,0,1,.23-.74,16.972,16.972,0,0,1,1,2.56c.21.62.38,1.25.55,1.88.14.5.3.99.48,1.48.04.1.08.23.12.36h0Z" fill="#d06644"/>
        </g>
      </g>
      <g id="Grupo_28476" data-name="Grupo 28476">
        <path id="Caminho_111394" data-name="Caminho 111394" d="M60.34,158.82s-3.53,11.49-.54,11.29c5.24-.35,36.06.67,57.84,5.96,0,0,3.52,1.24-3.12-6.35S65.38,155.6,60.34,158.81h0Z" fill="#555"/>
        <g id="Grupo_28473" data-name="Grupo 28473" clip-path="url(#clip-path)">
          <g id="Grupo_28472" data-name="Grupo 28472">
            <path id="Caminho_111395" data-name="Caminho 111395" d="M64.34,159.08l-.28,13.97a.51.51,0,1,0,1.02.02l.28-13.98a.51.51,0,1,0-1.02-.02Z" fill="#242021"/>
            <path id="Caminho_111396" data-name="Caminho 111396" d="M73.14,160.55l-.46,13.97a.515.515,0,1,0,1.03.03l.46-13.97a.515.515,0,1,0-1.03-.03Z" fill="#242021"/>
            <path id="Caminho_111397" data-name="Caminho 111397" d="M82.48,160.54l-.74,13.96a.516.516,0,1,0,1.03.05l.74-13.96a.516.516,0,1,0-1.03-.05Z" fill="#242021"/>
            <path id="Caminho_111398" data-name="Caminho 111398" d="M90,162.05l-.49,13.97a.515.515,0,0,0,1.03.03l.49-13.97a.515.515,0,1,0-1.03-.03Z" fill="#242021"/>
            <path id="Caminho_111399" data-name="Caminho 111399" d="M98.18,162.16l-.65,13.96a.516.516,0,1,0,1.03.05l.65-13.96a.516.516,0,1,0-1.03-.05Z" fill="#242021"/>
            <path id="Caminho_111400" data-name="Caminho 111400" d="M106.31,163.74l.6,13.96a.516.516,0,1,0,1.03-.05l-.6-13.96a.516.516,0,1,0-1.03.05Z" fill="#242021"/>
            <path id="Caminho_111401" data-name="Caminho 111401" d="M113.33,167.02l.54,13.97a.513.513,0,0,0,.53.49.506.506,0,0,0,.49-.53l-.54-13.97a.51.51,0,1,0-1.02.04Z" fill="#242021"/>
          </g>
        </g>
        <g id="Grupo_28475" data-name="Grupo 28475">
          <path id="Caminho_111403" data-name="Caminho 111403" d="M23.49,52.18s33.19,25.37,48.4,30.75c14.65,5.18,36.12,13.19,48.75,26.12,5.89,6.03,12.11,13.33,13.23,12.07,1.72-1.94,2.13-3.79,3.53-4.32,3.08-1.18,15.02,7.66,15.54,13.82.48,5.73-3.78,22.6-18.42,16.15-16.34-7.2-20.67-11.94-20.67-11.94s4.8,22.85,3.33,31.64c-.49,2.96-.97,4.77-2.34,4.03-7.89-4.29-47.41-10.85-55.39-8.38,0,0-6.86-4.79-1.72-49.14,0,0-12.39-11.41-24.68-21.66C23.47,83.33,16.06,72.3,12.99,71.13s4.42-14.62,10.5-18.95h0Z" fill="#242021"/>
          <path id="Caminho_111404" data-name="Caminho 111404" d="M6.35,57.34s12.59.91,16.07-5.77a8.552,8.552,0,0,1,7.31,3.91c3.62,5.61-13.68,18.87-17.59,15.3-6.55-5.99-7.8-11.54-5.8-13.44h0Z" fill="#ee801f"/>
          <path id="Caminho_111405" data-name="Caminho 111405" d="M142,112.41s-5.89,3.21-4.35,7.94,13,12.45,15.08,9.34,1.26-8.37.78-9.31-6.83-.73-11.52-7.98h0Z" fill="#ee801f"/>
          <g id="Grupo_28474" data-name="Grupo 28474">
            <path id="Caminho_111406" data-name="Caminho 111406" d="M133.49,122.1s-1.39,8.66,2.55,15a61.684,61.684,0,0,1-2.55-15Z" fill="#555"/>
            <path id="Caminho_111407" data-name="Caminho 111407" d="M113.85,134.83c-.29-1.16-4.38-17.72-5.65-21.2-1.32-3.61,6.07,11.35,9.53,15.4s17.05,18.32,28.2,17.68c-2.78,1.77-6.52,2.22-11.41.06-16.24-7.15-20.61-11.87-20.67-11.93Z" fill="#555"/>
            <path id="Caminho_111408" data-name="Caminho 111408" d="M63.94,138.17a55.175,55.175,0,0,0,42.13,22.44S86.61,158.01,63.94,138.17Z" fill="#555"/>
            <path id="Caminho_111409" data-name="Caminho 111409" d="M59.23,111.45a36.735,36.735,0,0,0,8.15-11.39l-8.15,11.39Z" fill="#555"/>
            <path id="Caminho_111410" data-name="Caminho 111410" d="M63.3,90.8s.85,12.35-4.08,18.51c0,0,3.99-12.16,4.08-18.51Z" fill="#555"/>
          </g>
        </g>
      </g>
      <g id="Grupo_28477" data-name="Grupo 28477">
        <path id="Caminho_111411" data-name="Caminho 111411" d="M74.14,83.9s-15.86,2.64,17.22,26.24c0,0,12.02-12.81,3.23-17.51-12.37-6.62-20.45-8.72-20.45-8.72Z" fill="#555"/>
        <path id="Caminho_111412" data-name="Caminho 111412" d="M75.65,85s-11.69.4,15.25,21.68c0,0,8.94-9.51,1.84-14.07C82.79,86.21,75.65,85,75.65,85Z" fill="#ee801f"/>
        <path id="Caminho_111413" data-name="Caminho 111413" d="M74.09,74.55s1.14,6.35-.15,11.25c-.47,1.8,9.8,12.27,14.85,13.81,3.03.92,4.58-2.16,4.69-6.29,0,0-5.45-6.61-4.16-14.2.85-5.03-15.23-4.56-15.23-4.56h0Z" fill="#fecba5"/>
        <path id="Caminho_111414" data-name="Caminho 111414" d="M74.56,79.9a37.181,37.181,0,0,0-.46-5.35s16.08-.46,15.23,4.56a16.314,16.314,0,0,0,.91,8.27c-5.58-.52-12.13-4.84-15.67-7.48Z" fill="#e58c6c"/>
      </g>
      <g id="Grupo_28482" data-name="Grupo 28482">
        <path id="Caminho_111415" data-name="Caminho 111415" d="M100.08,56.71a5.787,5.787,0,1,1-5.9,5.07A5.512,5.512,0,0,1,100.08,56.71Z" fill="#e58c6c"/>
        <path id="Caminho_111416" data-name="Caminho 111416" d="M99.03,43.54s3.34,10.72-.12,17.81-9.08-8.51-9.08-8.51l-3.96-7.01,13.16-2.29h0Z" fill="#e09741"/>
        <g id="Grupo_28478" data-name="Grupo 28478">
          <path id="Caminho_111417" data-name="Caminho 111417" d="M75.99,37.44c10.11-2.49,21.07,6.34,23.3,18.32,1.97,10.59-1.62,22.05-7.84,24.21-9.83,3.42-23.25-2.25-27.48-13.78-4.19-11.44,1.91-26.26,12.02-28.75Z" fill="#fecba5"/>
          <path id="Caminho_111418" data-name="Caminho 111418" d="M63.72,65.44c-3.67-11.33,2.39-25.56,12.27-28,8.48-2.09,17.55,3.78,21.58,12.8-.68.34-.67-.53-1.23-.43-4.9.85-11.76-3.04-15.21-.61-4.87,3.43-11.34,2.14-11.34,2.14-.25,3.63-5.28,14.43-5.28,14.43s-.29-.1-.79-.33h0Z" fill="#e58c6c"/>
        </g>
        <g id="Grupo_28479" data-name="Grupo 28479">
          <path id="Caminho_111419" data-name="Caminho 111419" d="M65.02,69.36s3.2-13.35,3.17-20.06c0,0,6.92,1.14,10.41-.6,5.02-2.51,8.92-.73,10.42-.49,4.42.72,10.64,1.52,15.33-7.4,3.96-7.54-2.32-12.63-11.6-10.08-4.94,1.36-8.37-.22-12.31-1.62-11.84-4.21-15.35,2.7-16.45,8.88,0,0-16.59,10.5,1.04,31.37Z" fill="#fdb44e"/>
          <path id="Caminho_111420" data-name="Caminho 111420" d="M60.39,41.4c3.28,2.7,9.74,6.91,16.64,5.22,9.91-2.42,12.19-.72,14.9.03a17.238,17.238,0,0,0,5.98.96c-3.14,1.46-6.32,1.01-8.89.59-1.5-.24-5.4-2.02-10.42.49-3.49,1.74-10.41.6-10.41.6.03,6.71-3.17,20.06-3.17,20.06-11.82-14-8.25-23.33-4.62-27.95h0Z" fill="#e09741"/>
        </g>
        <path id="Caminho_111421" data-name="Caminho 111421" d="M61.16,62.83a5.785,5.785,0,0,1,6.58,9.45,5.789,5.789,0,0,1-6.58-9.46Z" fill="#fecba5"/>
        <g id="Grupo_28481" data-name="Grupo 28481">
          <path id="Caminho_111422" data-name="Caminho 111422" d="M78.47,56.94c-.59.09-.96.9-.83,1.81s.72,1.58,1.31,1.49.96-.9.83-1.81-.72-1.58-1.31-1.49Z" fill="#802419"/>
          <path id="Caminho_111423" data-name="Caminho 111423" d="M92.68,55.87c-.6.04-1.04.81-.98,1.73s.59,1.64,1.18,1.6,1.04-.81.98-1.73S93.27,55.83,92.68,55.87Z" fill="#802419"/>
          <path id="Caminho_111424" data-name="Caminho 111424" d="M82.13,54.16s-3.78-6.49-8.19.3C73.94,54.46,78.23,52.1,82.13,54.16Z" fill="#802419"/>
          <path id="Caminho_111425" data-name="Caminho 111425" d="M96.91,53.02s-3.52-5.9-7.36.32C89.55,53.34,93.7,51.06,96.91,53.02Z" fill="#802419"/>
          <path id="Caminho_111426" data-name="Caminho 111426" d="M88.61,56.38s-.68,4.89.05,5.64c1.21,1.23.92,1.64-.04,2.1,0,0,4.81-.92,2.45-2.64-2.12-1.55-2.46-5.11-2.46-5.11h0Z" fill="#802419"/>
          <g id="Grupo_28480" data-name="Grupo 28480">
            <path id="Caminho_111427" data-name="Caminho 111427" d="M90.13,66.69c-1.34-.27-6.61-1.48-8.42-1.7-1.83-.22-2,7.03,2.63,8.21C88.66,74.3,91.9,67.05,90.13,66.69Z" fill="#802419"/>
            <path id="Caminho_111428" data-name="Caminho 111428" d="M90.59,67.19a.576.576,0,0,0-.45-.49c-1.34-.27-6.61-1.48-8.42-1.7-.35-.04-.64.19-.84.59.55,1.03,1.99,1.69,5.25,2.4,2.53.55,3.82-.1,4.46-.8Z" fill="#fff"/>
          </g>
        </g>
      </g>
    </g>
  </g>
</svg>
