<svg xmlns="http://www.w3.org/2000/svg" width="116.034" height="275.76" viewBox="0 0 116.034 275.76">
  <g id="confirmacao" transform="translate(-0.001 0)">
    <g id="Grupo_28500" data-name="Grupo 28500">
      <g id="Grupo_28488" data-name="Grupo 28488">
        <g id="Grupo_28484" data-name="Grupo 28484">
          <path id="Caminho_111429" data-name="Caminho 111429" d="M9.55,227.6s17.09,54.89,27.25,47.47,25.28-56.73,25.28-56.73l-9.98-2.68L37.67,243.15l-4.03-23.56L9.56,227.58h0Z" fill="#ec9a6f"/>
          <path id="Caminho_111430" data-name="Caminho 111430" d="M38.79,241l13.3-25.33,9.98,2.68s-9.94,32.41-19.11,48.63c1.09-11.12-2.7-22.21-4.16-25.98Z" fill="#d06644"/>
          <path id="Caminho_111431" data-name="Caminho 111431" d="M32.57,219.96c.42.44.89.97,1.38,1.57l2.93,17.13c-5.35,1.48-17.92-1.94-25.05-4.14-1.44-4.17-2.29-6.91-2.29-6.91l23.03-7.64h0Z" fill="#d06644"/>
        </g>
        <g id="Grupo_28486" data-name="Grupo 28486">
          <path id="Caminho_111432" data-name="Caminho 111432" d="M43.33,231.72s27.06,41.49,36.85,32.27,12.31-58.34,12.31-58.34l-8.34-4.77-7.79,30.88L63.77,215.08,43.33,231.72h0Z" fill="#ec9a6f"/>
          <path id="Caminho_111433" data-name="Caminho 111433" d="M70.61,224.14c-5.83,5.06-17.85,10.43-23.65,12.87-2.25-3.17-3.63-5.29-3.63-5.29l20.44-16.64Z" fill="#d06644"/>
          <g id="Grupo_28485" data-name="Grupo 28485">
            <path id="Caminho_111434" data-name="Caminho 111434" d="M82.34,198.22c1.48-5.03,3.35-6.7,7.25-5.16,7.93,3.12,30.08,20.1,25.92,22.74-4.7,2.98-12.51.88-19.48-2.34-9.21-4.27-15.31-9.79-13.7-15.24Z" fill="#ec9a6f"/>
            <path id="Caminho_111435" data-name="Caminho 111435" d="M82.94,196.45c-.21.53-.41,1.13-.6,1.77-1.61,5.45,4.49,10.97,13.7,15.24,4.38,2.03,9.1,3.61,13.17,3.76-1.81-7.72-19.36-17.29-26.27-20.77Z" fill="#ec9a6f"/>
            <path id="Caminho_111436" data-name="Caminho 111436" d="M109.21,217.21a10.786,10.786,0,0,0,6.31-1.42c4.16-2.64-17.99-19.61-25.92-22.74-3.4-1.34-5.26-.25-6.66,3.38,6.91,3.48,24.48,13.05,26.27,20.77h0Z" fill="#ee801f"/>
          </g>
        </g>
        <g id="Grupo_28487" data-name="Grupo 28487">
          <path id="Caminho_111437" data-name="Caminho 111437" d="M5.77,183.63s-7.45,37.41-1.17,45.35c3.15,3.99,27.5,10.99,33.78,5.9l.35-4.59,5.28,4.86s27.89-8.59,28.13-20.39c.18-8.87-17.22-17.1-20.43-24.09s-45.94-7.05-45.94-7.05h0Z" fill="#242021"/>
          <path id="Caminho_111438" data-name="Caminho 111438" d="M4.59,190.28c.65-4.02,1.18-6.65,1.18-6.65s42.73.05,45.94,7.05a19.339,19.339,0,0,0,4.69,5.57c-13.87,9.78-39.44-.15-51.8-5.97h0Z" fill="#555"/>
          <path id="Caminho_111439" data-name="Caminho 111439" d="M25.7,214.7a26.414,26.414,0,0,0,3.8,9.34.517.517,0,1,1-.85.59c-3.49-5.05-4.79-12.13-5.08-18.82a90.225,90.225,0,0,1,1.37-19.02.51.51,0,0,1,1,.2,89.451,89.451,0,0,0-1.35,18.77,53.026,53.026,0,0,0,.89,7.93c1.31-.14,2.74-.98,3.68-4.08.92-3,2.66-21.49,2.66-21.49a.512.512,0,1,1,1.02.1s-1.77,18.67-2.7,21.7a7.658,7.658,0,0,1-2.3,3.89,4.106,4.106,0,0,1-2.16.9h0Z" fill="#555"/>
          <path id="Caminho_111440" data-name="Caminho 111440" d="M37.89,235.24c-.9-2.74-1.8-3.93-5.33-6.78-2.89-2.33-14.32-7.61-9.09-6.42,5.71,1.3,9.92,1.91,10.47,2.23s4.84,6.05,4.84,6.05v.03l-.05-.05-.35,4.59c-.15.12-.32.24-.49.35Z" fill="#555"/>
        </g>
      </g>
      <g id="Grupo_28491" data-name="Grupo 28491">
        <g id="Grupo_28489" data-name="Grupo 28489">
          <path id="Caminho_111441" data-name="Caminho 111441" d="M46.78,122.5S30.15,78.92,48.86,38.97c0,0,6.29-8.32,1.29-13.25-3.73-3.68-14.79-8.17-20.19.56-7.19,11.63-19.14,47.07-16.17,97.63,0,0-24.2,52.86-8.48,63.04,9.53,6.17,40.57,12.8,45.12,6.83,0,0,10.11,6.19,20.79-10.52C82.59,165.45,84.39,165.4,86.4,161.4s-4.54-13.92-10.02-14.81c-4.55-.74-11.49,9.02-11.49,9.02s6.81-15.6.5-22.35c-10.1-10.8-18.61-10.75-18.61-10.75h0Z" fill="#ee801f"/>
          <path id="Caminho_111442" data-name="Caminho 111442" d="M31.53,107.46s-12.38,7.44-15.87,14.23c0,0,2.14-9.06,15.87-14.23Z" fill="#555"/>
          <path id="Caminho_111443" data-name="Caminho 111443" d="M79.94,147s-5.32.62-5.14,3.01c.34,4.51,7.65,11.77,9.2,10.83,2.91-1.75,3.93-5.46,3.93-5.46L79.95,147h0Z"/>
          <path id="Caminho_111444" data-name="Caminho 111444" d="M38.76,18.99s-4.17,3.37-2.74,5.29c2.7,3.63,12.83,5.9,13.56,4.24a17.838,17.838,0,0,0,.78-5.12l-11.6-4.41Z"/>
          <path id="Caminho_111445" data-name="Caminho 111445" d="M50.18,194.06c-.1-.01-.19-.03-.2-.03-20.48-7.17-1.06-43.37-1.06-43.37a99.557,99.557,0,0,0-6.46,25.94c-1.05,9.78,5.88,15.55,7.96,17.18a3.216,3.216,0,0,1-.24.28h0Z" fill="#555"/>
          <path id="Caminho_111446" data-name="Caminho 111446" d="M65.45,154.19c-.28.75-.49,1.25-.56,1.41-1.84,2.08-7.97,9.09-8.74,10.93-.91,2.16-3.01-.2-1.82,6.64,0,0-4.39-5.05-.03-7.15,0,0,6.76-8.17,11.15-11.83h0Z" fill="#555"/>
        </g>
        <path id="Caminho_111447" data-name="Caminho 111447" d="M40.33,22.69c1.88,1.77,5.5,3.58,8.03,2.4,3.27-1.51,9.5-9.75,11.57-11.48.64-.54,2.35-2.12,2.15-3.09-.47-2.17-7.83,2.51-7.86,2.47-.2-.27.98-10.83-.83-11.86-2.08-1.19-3.25,7.32-3.57,7.25C49.46,8.3,48.74-.04,45.88,0c-1.95.02-1.22,8.62-1.45,8.71-.09.03-4.25-6.75-6-5.64-1.84,1.17,1.64,6.42,1.62,8.23,0,.16-5.14-3.87-5.97-2.35-.49.91,2.61,4.81,3.02,5.55,1.63,2.98,1.34,6.43,3.22,8.19Z" fill="#ec9a6f"/>
        <g id="Grupo_28490" data-name="Grupo 28490">
          <path id="Caminho_111448" data-name="Caminho 111448" d="M80.19,148.6c-.27-1.1-.25-3,.71-7.07a6.932,6.932,0,0,1,3.06-4.7c2.52-1.71,4,1.31,4.4,1.22.37-.09,4.84-4.45,8.18-.5a1.888,1.888,0,0,1,.11,2.67,3.425,3.425,0,0,1,3.15,1.72c1.04,1.86-.63,3.72-.63,3.72a1.9,1.9,0,0,1,1.01,2.51,3.1,3.1,0,0,1-1.72,1.99s1.43.11.91,2.17-1.15,2.38-3.85,3.09c-2.48.65-7.49,1.17-9.64.25-3.74-1.61-4.94-4.05-5.68-7.07h0Z" fill="#ec9a6f"/>
          <path id="Caminho_111449" data-name="Caminho 111449" d="M91.07,142.3a23.071,23.071,0,0,0-2.48-4.41.965.965,0,0,1-.24.15.185.185,0,0,1-.14-.05c.28.45.62.99.76,1.24.26.46.51.92.73,1.39.19.4.39.8.55,1.21.52,1.27,1.13,2.74.29,4a1.352,1.352,0,0,1-1.33.69,2.959,2.959,0,0,1-1.26-.5,20.31,20.31,0,0,1-2.6-2.11,9.184,9.184,0,0,1-.82-.83,10.811,10.811,0,0,0,.97,1.36,14.627,14.627,0,0,0,1.9,1.82,1.841,1.841,0,0,1,.03.24,5.293,5.293,0,0,1-.41,2.66c-.11.26-.43.93-.32.8a7.133,7.133,0,0,0,1.36-2.6,3.914,3.914,0,0,0,.07-.62,2.184,2.184,0,0,0,2.2.15,2,2,0,0,0,.31.33,2.233,2.233,0,0,0,.3.2c-.03.09-.05.23-.1.35a3.166,3.166,0,0,0-.12.44,2.174,2.174,0,0,0,1.09,2.13,5.4,5.4,0,0,0-.6,1.04,3.592,3.592,0,0,0-.39,1.28c-.07.75.61,1.31,1.24,1.58a6.645,6.645,0,0,0,4.04.26h-.89c-1.09-.03-2.7-.17-3.45-1.11a2.367,2.367,0,0,1,.18-2.44,2.762,2.762,0,0,1,.31-.37,2.654,2.654,0,0,0,.37.12,12.351,12.351,0,0,0,6.41-.27,1.264,1.264,0,0,0-.58-.28,7.151,7.151,0,0,1-.95.17c-1.69.21-3.81.53-5.32-.44a2.21,2.21,0,0,1-.97-1.1,2.162,2.162,0,0,1,.04-.98,2.269,2.269,0,0,1,.08-.22,5.462,5.462,0,0,0,1.51.2,13.788,13.788,0,0,0,4.16-.87,9.617,9.617,0,0,0,2.5-1.05,1.3,1.3,0,0,0-.37-.2l.05-.05-.12.06a12.657,12.657,0,0,1-1.95.71,18.492,18.492,0,0,1-4.23.87,3.276,3.276,0,0,1-1.86-.22,1.221,1.221,0,0,1-.37-.38.647.647,0,0,0,.09-.08,3.082,3.082,0,0,0,.61-3.33c-.02-.09-.05-.17-.07-.25a8.865,8.865,0,0,1,.98-.61,35.121,35.121,0,0,1,3.22-1.68c.4-.18.8-.37,1.19-.55a1.826,1.826,0,0,0,.37-.68,18.762,18.762,0,0,0-2.53,1.06c-.59.29-1.16.6-1.73.91-.45.25-.92.47-1.4.68-.1.04-.22.1-.34.16h0Z" fill="#d06644"/>
        </g>
      </g>
      <g id="Grupo_28499" data-name="Grupo 28499">
        <g id="Grupo_28494" data-name="Grupo 28494">
          <g id="Grupo_28492" data-name="Grupo 28492">
            <path id="Caminho_111450" data-name="Caminho 111450" d="M41.71,106.41a111.01,111.01,0,0,0,5.07,16.1s4.7-.03,11.27,4.4q-2.745,2.13-6.82,5.47c-1.98,1.63-7.97,7.63-17.41,3.64-9.01-3.81-7.85-14.89,3.69-26.95a9.351,9.351,0,0,1,4.2-2.66Z" fill="#d06644"/>
            <path id="Caminho_111451" data-name="Caminho 111451" d="M44.01,114.74c1.53,4.88,2.77,7.77,2.77,7.77s4.7-.03,11.27,4.4q-2.745,2.13-6.82,5.47c-1.69,1.39-6.29,5.96-13.47,4.8-11.07-10.95-.71-19,6.26-22.43h0Z" fill="#ec9a6f"/>
          </g>
          <g id="Grupo_28493" data-name="Grupo 28493">
            <path id="Caminho_111452" data-name="Caminho 111452" d="M53.43,118.36s-4.92,2.76-3.49,6.37c1.69,4.26-17.28,5.38-15.43-.72.69-2.27,3.24-3.96,5.77-10.82,2.32-6.28,13.14,5.17,13.14,5.17Z" fill="#ec9a6f"/>
            <path id="Caminho_111453" data-name="Caminho 111453" d="M37.68,118.78a34.107,34.107,0,0,0,2.61-5.59c2.32-6.28,13.14,5.17,13.14,5.17s-3.26,1.83-3.7,4.46a22.74,22.74,0,0,1-12.05-4.04Z" fill="#d06644"/>
          </g>
        </g>
        <g id="Grupo_28498" data-name="Grupo 28498">
          <path id="Caminho_111454" data-name="Caminho 111454" d="M35.45,98.25a13.007,13.007,0,0,1-4.84,5.37c-2.53,1.65-4.79,3.64-5.62,5.48s5.27-.26,8.01,2.31,6.9,3.35,9.35,2.21,2.63-7.2,2.63-7.2l-9.53-8.17Z" fill="#191919"/>
          <path id="Caminho_111455" data-name="Caminho 111455" d="M40.86,92.07a5.847,5.847,0,1,1-7.95,1.72A5.751,5.751,0,0,1,40.86,92.07Z" fill="#d06644"/>
          <path id="Caminho_111456" data-name="Caminho 111456" d="M71.25,77.73C81.26,83.9,82.18,99.28,74.96,111s-25.37,13.64-34.15,6.8c-6.84-5.32-9.43-15.25-2.21-26.97s22.65-19.27,32.66-13.1Z" fill="#ec9a6f"/>
          <path id="Caminho_111457" data-name="Caminho 111457" d="M39.71,89.14c7.6-10.74,22.03-17.28,31.55-11.42,10.01,6.17,10.93,21.55,3.71,33.27-3.86,6.26-10.83,9.72-17.84,10.55,1.77-3.19,8.57-15.59,8.59-18.35,0,0-9.53-13.84-7.84-20.49,0,0-11.19,1.27-18.16,6.44h0Z" fill="#d06644"/>
          <g id="Grupo_28495" data-name="Grupo 28495">
            <path id="Caminho_111458" data-name="Caminho 111458" d="M58.81,80.25s1.76,13.6,8.82,21.44c0,0-6.7,17.24-16.53,22.45,0,0,9.08,2.12,12.22,1.15,4.55-1.4,4.81,2.14,7.88,2.24,3.75.13,29.13-35.15,2.66-50.81-27.03-15.99-32.97-.89-35.36,5.92-2.03,5.78-.28,9.03-.28,9.03s8-12.13,20.59-11.42Z" fill="#2d2c2a"/>
            <path id="Caminho_111459" data-name="Caminho 111459" d="M85.76,97.8c-.43,14.79-12.11,29.81-14.56,29.73-3.07-.1-3.32-3.64-7.88-2.24-3.14.97-12.22-1.15-12.22-1.15,9.83-5.2,16.53-22.45,16.53-22.45a28.823,28.823,0,0,1-4.39-6.72A113.633,113.633,0,0,0,85.75,97.8ZM37.97,84.47q2.085,1.41,4.26,2.62a29.374,29.374,0,0,0-4,4.59s-1.38-2.57-.26-7.2Z" fill="#191919"/>
          </g>
          <g id="Grupo_28497" data-name="Grupo 28497">
            <path id="Caminho_111460" data-name="Caminho 111460" d="M54.91,95.23s8.12-4.4,5.5,4.92C60.41,100.15,61.33,94.15,54.91,95.23Z" fill="#56181d"/>
            <path id="Caminho_111461" data-name="Caminho 111461" d="M40.9,90.47s7.14-7.54,7.03,2.27C47.93,92.74,46.19,86.78,40.9,90.47Z" fill="#56181d"/>
            <path id="Caminho_111462" data-name="Caminho 111462" d="M47.09,97.43a4.512,4.512,0,0,1-1.85,3.21,2.255,2.255,0,0,0-.88,2.66s-1.97-2.72-.36-3.22c2.02-.63,3.08-3.03,3.09-2.65Z" fill="#56181d"/>
            <g id="Grupo_28496" data-name="Grupo 28496">
              <path id="Caminho_111463" data-name="Caminho 111463" d="M43.76,105.77c1.37.21,6.8.88,8.59,1.3,1.81.43-.54,7.38-5.34,6.9-4.49-.45-5.05-8.48-3.25-8.21Z" fill="#56181d"/>
              <path id="Caminho_111464" data-name="Caminho 111464" d="M43.16,106.09a.592.592,0,0,1,.6-.31c1.37.21,6.8.88,8.59,1.3.35.08.54.4.59.86-.88.79-2.47.92-5.82.46-2.6-.36-3.59-1.42-3.96-2.31Z" fill="#fff"/>
            </g>
            <path id="Caminho_111465" data-name="Caminho 111465" d="M45.35,95.77S43.41,90.3,40,95.24C41.61,94.27,43.36,94.24,45.35,95.77Z" fill="#56181d"/>
            <path id="Caminho_111466" data-name="Caminho 111466" d="M57.21,103.64s1.43-6.48-5.26-3.95A5.644,5.644,0,0,1,57.21,103.64Z" fill="#56181d"/>
          </g>
        </g>
      </g>
    </g>
  </g>
</svg>
