<svg xmlns="http://www.w3.org/2000/svg" width="22" height="22" viewBox="0 0 22 22" fill="none">
  <path d="M21.5 9.32C21.22 9.32 21 9.1 21 8.82V3.52C21 2.13 19.87 1 18.48 1H13.18C12.9 1 12.68 0.78 12.68 0.5C12.68 0.22 12.9 0 13.18 0H18.48C20.42 0 22 1.58 22 3.52V8.82C22 9.1 21.78 9.32 21.5 9.32Z" fill="white"/>
  <path d="M0.5 9.32C0.22 9.32 0 9.1 0 8.82V3.52C0 1.58 1.58 0 3.52 0H8.82C9.1 0 9.32 0.22 9.32 0.5C9.32 0.78 9.1 1 8.82 1H3.52C2.13 1 1 2.13 1 3.52V8.82C1 9.1 0.78 9.32 0.5 9.32Z" fill="white"/>
  <path d="M8.82 21.9999H3.52C1.58 21.9999 0 20.4199 0 18.4799V13.1799C0 12.8999 0.22 12.6799 0.5 12.6799C0.78 12.6799 1 12.8999 1 13.1799V18.4799C1 19.8699 2.13 20.9999 3.52 20.9999H8.82C9.1 20.9999 9.32 21.2199 9.32 21.4999C9.32 21.7799 9.1 21.9999 8.82 21.9999Z" fill="white"/>
  <path d="M18.48 21.9999H13.18C12.9 21.9999 12.68 21.7799 12.68 21.4999C12.68 21.2199 12.9 20.9999 13.18 20.9999H18.48C19.87 20.9999 21 19.8699 21 18.4799V13.1799C21 12.8999 21.22 12.6799 21.5 12.6799C21.78 12.6799 22 12.8999 22 13.1799V18.4799C22 20.4199 20.42 21.9999 18.48 21.9999Z" fill="white"/>
  <path d="M4.54 6.69995H6.21L8.68 13.98L11.14 6.69995H12.79V15.31H11.68V10.23C11.68 10.05 11.68 9.75995 11.69 9.35995C11.7 8.95995 11.7 8.51995 11.7 8.04995L9.24 15.31H8.09L5.62 8.04995V8.30995C5.62 8.51995 5.62 8.83995 5.63 9.26995C5.64 9.69995 5.64 10.02 5.64 10.22V15.3H4.53V6.69995H4.54Z" fill="white"/>
  <path d="M14.12 10.5899C14.39 10.2399 14.73 9.96993 15.14 9.75993C15.72 9.46993 16.1 9.25993 16.27 9.11993C16.44 8.97993 16.53 8.78993 16.53 8.55993C16.53 8.29993 16.46 8.09993 16.31 7.93993C16.16 7.77993 15.93 7.70993 15.62 7.70993C15.31 7.70993 15.08 7.80993 14.96 8.00993C14.84 8.20993 14.77 8.44993 14.77 8.73993H13.85C13.85 8.14993 14.02 7.70993 14.35 7.39993C14.68 7.08993 15.12 6.92993 15.65 6.92993C16.18 6.92993 16.63 7.05993 16.96 7.31993C17.29 7.57993 17.46 7.95993 17.46 8.46993C17.46 8.92993 17.34 9.28993 17.1 9.51993C16.86 9.74993 16.48 9.99993 15.96 10.2499C15.29 10.5499 14.9 10.8499 14.78 11.1499H17.46V11.9699H13.71C13.71 11.3999 13.85 10.9499 14.12 10.5999V10.5899Z" fill="white"/>
</svg>
