<svg width="30" height="25" viewBox="0 0 30 25" fill="none" xmlns="http://www.w3.org/2000/svg">
<g id="Property 1=Variant2">
<g id="Group">
<path id="Vector" d="M2.22085 1.32212L12.639 13.1475C13.2324 13.8172 14.0886 14.2071 14.9787 14.2071C15.8688 14.2071 16.7249 13.8257 17.3183 13.1475L27.567 1.52557C27.6518 1.43233 27.7535 1.35603 27.8552 1.29669C27.4229 1.1102 26.9397 1 26.4396 1H3.53478C3.05159 1 2.59384 1.09325 2.17847 1.27126C2.19542 1.28822 2.21237 1.30517 2.22933 1.32212H2.22085Z" fill="#F0801F"/>
<path id="Vector_2" d="M29.4405 2.6615C29.3981 2.78018 29.3303 2.89885 29.2371 3.00058L18.9969 14.6225C17.9797 15.7754 16.5216 16.4366 14.9873 16.4366C13.453 16.4366 11.9949 15.7754 10.9777 14.6225L0.55948 2.78865C0.55948 2.78865 0.525572 2.73779 0.508618 2.71236C0.186493 3.24641 0 3.86523 0 4.53491V20.5394C0 22.4976 1.58519 24.0828 3.54337 24.0828H26.4566C28.4148 24.0828 30 22.4976 30 20.5394V4.54339C30 3.84827 29.7966 3.2125 29.4575 2.6615H29.4405Z" fill="#F0801F"/>
</g>
</g>
</svg>
