<svg width="30" height="24" viewBox="0 0 30 24" fill="none" xmlns="http://www.w3.org/2000/svg">
<g id="Property 1=Default">
<g id="ELEMENTS">
<path id="Vector" d="M25.6669 0H4.33307C1.94159 0 0 1.94159 0 4.33307V19.2344C0 21.6259 1.94159 23.5675 4.33307 23.5675H25.6669C28.0584 23.5675 30 21.6259 30 19.2344V4.33307C30 1.94159 28.0584 0 25.6669 0ZM25.6669 2.06788C25.8406 2.06788 26.0142 2.09156 26.18 2.13102L17.1823 12.3441C16.6298 12.9676 15.8327 13.3307 15.0039 13.3307C14.1752 13.3307 13.3781 12.9755 12.8256 12.3441L3.82005 2.13102C3.98579 2.09156 4.15943 2.06788 4.33307 2.06788H25.6669ZM27.9242 19.2344C27.9242 20.4815 26.914 21.4917 25.6669 21.4917H4.33307C3.08603 21.4917 2.07577 20.4815 2.07577 19.2344V4.33307C2.07577 4.03315 2.13891 3.74112 2.24152 3.47277L11.2628 13.7096C12.2099 14.783 13.5675 15.3986 14.9961 15.3986C16.4246 15.3986 17.7822 14.783 18.7293 13.7096L27.7506 3.47277C27.8611 3.73323 27.9163 4.02526 27.9163 4.33307V19.2344H27.9242Z" fill="white"/>
</g>
</g>
</svg>
