<svg width="30" height="27" viewBox="0 0 30 27" fill="none" xmlns="http://www.w3.org/2000/svg">
<path id="Vector" fill-rule="evenodd" clip-rule="evenodd" d="M26.4572 17.7489C25.1839 17.0169 23.5215 16.1997 22.0359 16.7955C20.8864 17.2552 20.1436 18.9747 19.4009 19.8599C19.0118 20.3196 18.5697 20.3877 17.9684 20.1494C13.6532 18.498 10.3461 15.723 7.95858 11.8925C7.55182 11.2966 7.62256 10.837 8.11774 10.2751C8.84283 9.45797 9.74477 8.53865 9.93931 7.43206C10.1338 6.32546 9.60329 5.04862 9.1258 4.07823C8.5245 2.83544 7.85247 1.04787 6.54377 0.332837C5.34118 -0.314094 3.7672 0.0434204 2.70609 0.877621C0.866833 2.3247 -0.0174251 4.57194 0.000260025 6.81917C0.000260025 7.44908 0.0886864 8.09601 0.247853 8.70889C0.619241 10.19 1.32665 11.569 2.12248 12.8799C2.72377 13.8673 3.37812 14.8207 4.08553 15.757C6.40228 18.7704 9.26728 21.3921 12.5921 23.367C14.2545 24.3544 16.0407 25.2056 17.8976 25.8015C19.9668 26.4655 21.8237 27.1464 24.0697 26.7378C26.4219 26.3122 28.7386 24.9162 29.6759 22.7371C29.9589 22.0902 30.0827 21.3751 29.9412 20.6941C29.6229 19.2811 27.6421 18.4469 26.4572 17.7659V17.7489Z" fill="#D37B14"/>
</svg>
