<svg width="32" height="32" viewBox="0 0 32 32" fill="none" xmlns="http://www.w3.org/2000/svg">
<g id="Group">
<g id="Camada 2">
<g id="CinzaClaro">
<g id="Group_2">
<g id="Group_3">
<g id="Vector" style="mix-blend-mode:lighten" opacity="0.35">
<path d="M2.24196 16C2.24196 7.92359 8.6242 1.33971 16.621 1.01388C16.415 1.00584 16.2082 1 16 1C7.71538 1 1 7.71538 1 16C1 20.8232 3.27572 25.1146 6.81313 27.8579L6.87888 27.7724C6.63487 27.9207 7.03449 27.6694 6.87888 27.7724C3.66876 25.0218 2.24196 20.5588 2.24196 16Z" fill="white"/>
</g>
<g id="Vector_2" style="mix-blend-mode:darken" opacity="0.35">
<path d="M19.3612 24.0201C19.1537 23.6475 19.2421 22.4173 19.3101 21.7437C19.3386 21.4624 19.4452 21.1957 19.6191 20.9722C20.0384 20.433 20.8391 19.3182 21.0108 18.4642C21.0539 18.2494 21.1642 18.0536 21.3184 17.8972C21.5814 17.6313 21.9365 17.22 21.927 16.9541C21.916 16.6523 21.9131 15.3914 21.9124 14.7032C21.9116 14.4059 21.8093 14.1173 21.6209 13.8871C21.4901 13.7264 21.352 13.5628 21.2958 13.5138C21.2366 13.462 21.2395 12.4983 21.2578 11.5333C21.3045 9.04714 19.4481 6.91534 16.9737 6.66476C16.9182 6.65964 16.8619 6.6538 16.805 6.64941H15.563C15.62 6.6538 15.6762 6.65964 15.7317 6.66476C18.2062 6.91534 20.0626 9.04714 20.0158 11.5333C19.9975 12.4983 19.9946 13.462 20.0538 13.5138C20.11 13.5628 20.2481 13.7264 20.3789 13.8871C20.5674 14.1173 20.6697 14.4059 20.6704 14.7032C20.6711 15.3914 20.674 16.6523 20.685 16.9541C20.6945 17.22 20.3394 17.6313 20.0764 17.8972C19.9223 18.0536 19.812 18.2494 19.7689 18.4642C19.5972 19.3182 18.7965 20.433 18.3771 20.9722C18.2033 21.1957 18.0966 21.4624 18.0681 21.7437C18.0002 22.4173 18.5685 23.7235 18.776 24.0961C19.0076 24.514 22.9286 26.6399 24.2765 27.5312C24.0916 27.6846 24.4686 27.3866 24.2765 27.5312C22.5889 26.412 19.5614 24.3818 19.3612 24.0201Z" fill="#242021"/>
</g>
</g>
<g id="Group_4" style="mix-blend-mode:darken" opacity="0.35">
<path id="Vector_3" d="M16 1C15.7552 1 15.5112 1.00658 15.2694 1.01826C23.2143 1.39962 29.5389 7.96085 29.5389 16C29.5389 20.5902 28.2764 25.2285 25.0276 27.9799C24.8179 27.841 25.3425 28.1888 25.0276 27.9799C28.6556 25.2424 31 20.8948 31 16C31 7.71538 24.2839 1 16 1Z" fill="#242021"/>
</g>
<g id="Group_5">
<path id="Vector_4" d="M6.81313 27.8579C3.27572 25.1146 1 20.8232 1 16C1 7.71538 7.71538 1 16 1C24.2847 1 31 7.71538 31 16C31 20.8948 28.6556 25.2424 25.0276 27.9799C22.5159 29.8757 19.3898 31 16 31C12.6102 31 9.35112 29.8275 6.81313 27.8579Z" stroke="white" stroke-width="2" stroke-miterlimit="10"/>
<path id="Vector_5" d="M6.87891 27.7723C8.12306 26.9497 12.6782 24.4482 12.9163 24.0201C13.1231 23.6475 13.0347 22.4173 12.9667 21.7437C12.939 21.4624 12.8316 21.1957 12.6577 20.9722C12.2384 20.433 11.4384 19.3182 11.266 18.4642C11.2229 18.2494 11.1125 18.0536 10.9584 17.8972C10.6961 17.6313 10.3403 17.22 10.3498 16.9541C10.3608 16.6523 10.3637 15.3914 10.3644 14.7032C10.3652 14.4058 10.4682 14.1173 10.6559 13.8871C10.7874 13.7264 10.9248 13.5628 10.981 13.5138C11.0402 13.462 11.0373 12.4983 11.019 11.5333C10.973 9.04714 12.8294 6.91534 15.3031 6.66476C15.3586 6.65964 15.4149 6.6538 15.4726 6.64941H16.8782C16.9352 6.6538 16.9914 6.65964 17.0469 6.66476C19.5214 6.91534 21.3778 9.04714 21.331 11.5333C21.3127 12.4983 21.3098 13.462 21.369 13.5138C21.4252 13.5628 21.5633 13.7264 21.6941 13.8871C21.8826 14.1173 21.9849 14.4058 21.9856 14.7032C21.9863 15.3914 21.9892 16.6523 22.0002 16.9541C22.0097 17.22 21.6546 17.6313 21.3916 17.8972C21.2375 18.0536 21.1272 18.2494 21.0841 18.4642C20.9124 19.3182 20.1117 20.433 19.6923 20.9722C19.5185 21.1957 19.4118 21.4624 19.3833 21.7437C19.3154 22.4173 19.227 23.6475 19.4344 24.0201C19.666 24.438 23.6798 27.0885 25.0277 27.9798C25.0605 28.001 25.092 28.0214 25.1212 28.0412" stroke="white" stroke-width="2" stroke-miterlimit="10"/>
</g>
</g>
</g>
</g>
</g>
</svg>
