<svg xmlns="http://www.w3.org/2000/svg" width="160" height="128" viewBox="0 0 160 128" fill="none">
  <path d="M41.7473 44.241L22.6238 73.9016H60.8748L41.7473 44.241Z" fill="#F0801F"/>
  <path d="M60.8748 73.9016L79.9984 44.241H41.7473L60.8748 73.9016Z" fill="#555555"/>
  <path d="M99.1258 73.9016L118.249 44.241H79.9983L99.1258 73.9016Z" fill="#555555"/>
  <path d="M79.9983 44.241L60.8748 73.9016H99.1258L79.9983 44.241Z" fill="#F0801F"/>
  <path d="M118.249 44.241L99.1257 73.9016H137.377L118.249 44.241Z" fill="#F0801F"/>
  <path d="M79.9983 128L137.377 73.9015H99.1258L79.9983 128Z" fill="#555555"/>
  <path d="M79.9983 128L99.1258 73.9015H60.8748L79.9983 128Z" fill="#F0801F"/>
  <path d="M79.9983 128L60.8748 73.9015H22.6238L79.9983 128Z" fill="#555555"/>
  <path d="M79.8902 28.045C79.1182 28.045 78.4902 27.4171 78.4902 26.6453V1.39965C78.4902 0.627843 79.1182 0 79.8902 0C80.6622 0 81.2902 0.627843 81.2902 1.39965V26.6453C81.2902 27.4171 80.6622 28.045 79.8902 28.045Z" fill="#EF801F"/>
  <path d="M137.377 54.3024C136.917 54.3024 136.465 54.0745 136.201 53.6626C135.781 53.0147 135.969 52.147 136.617 51.7271L157.84 38.0505C158.492 37.6306 159.356 37.8185 159.776 38.4664C160.196 39.1142 160.008 39.982 159.36 40.4019L138.137 54.0785C137.901 54.2304 137.641 54.3024 137.381 54.3024H137.377Z" fill="#EF801F"/>
  <path d="M22.6198 54.3024C22.3598 54.3024 22.0958 54.2304 21.8638 54.0785L0.640346 40.3979C-0.00763826 39.978 -0.195634 39.1142 0.224356 38.4624C0.644345 37.8105 1.50832 37.6266 2.16031 38.0465L23.3838 51.7231C24.0318 52.143 24.2198 53.0067 23.7998 53.6586C23.5318 54.0745 23.0838 54.2984 22.6238 54.2984L22.6198 54.3024Z" fill="#EF801F"/>
  <path d="M52.6271 36.143C52.1711 36.143 51.7231 35.919 51.4551 35.5111L42.7233 22.2185C42.2993 21.5706 42.4793 20.7028 43.1233 20.2789C43.7713 19.8551 44.6393 20.035 45.0633 20.6788L53.7951 33.9715C54.2191 34.6194 54.0391 35.4871 53.3951 35.911C53.1591 36.067 52.8911 36.139 52.6271 36.139V36.143Z" fill="#555555"/>
  <path d="M101.978 36.223C101.758 36.223 101.538 36.171 101.33 36.063C100.646 35.7031 100.382 34.8593 100.738 34.1755L107.782 20.7268C108.142 20.043 108.986 19.7751 109.67 20.135C110.354 20.4949 110.617 21.3387 110.262 22.0225L103.218 35.4711C102.97 35.947 102.482 36.223 101.978 36.223Z" fill="#555555"/>
</svg>
