<svg xmlns="http://www.w3.org/2000/svg" width="161" height="128" viewBox="0 0 161 128" fill="none">
  <path d="M42.3826 44.241L23.259 73.9016H61.5101L42.3826 44.241Z" fill="#242021"/>
  <path d="M61.5101 73.9016L80.6336 44.241H42.3826L61.5101 73.9016Z" fill="#EF801F"/>
  <path d="M99.7611 73.9016L118.885 44.241H80.6335L99.7611 73.9016Z" fill="#EF801F"/>
  <path d="M80.6335 44.241L61.51 73.9016H99.7611L80.6335 44.241Z" fill="#242021"/>
  <path d="M118.885 44.241L99.761 73.9016H138.012L118.885 44.241Z" fill="#242021"/>
  <path d="M80.6335 128L138.012 73.9015H99.7611L80.6335 128Z" fill="#EF801F"/>
  <path d="M80.6335 128L99.7611 73.9015H61.51L80.6335 128Z" fill="#555555"/>
  <path d="M80.6336 128L61.5101 73.9015H23.259L80.6336 128Z" fill="#EF801F"/>
  <path d="M80.5255 28.045C79.7535 28.045 79.1255 27.4171 79.1255 26.6453V1.39965C79.1255 0.627843 79.7535 0 80.5255 0C81.2974 0 81.9254 0.627843 81.9254 1.39965V26.6453C81.9254 27.4171 81.2974 28.045 80.5255 28.045Z" fill="#EF801F"/>
  <path d="M138.012 54.3024C137.552 54.3024 137.1 54.0745 136.836 53.6626C136.416 53.0147 136.604 52.147 137.252 51.7271L158.476 38.0505C159.128 37.6306 159.992 37.8185 160.412 38.4664C160.832 39.1142 160.644 39.982 159.996 40.4019L138.772 54.0785C138.536 54.2304 138.276 54.3024 138.016 54.3024H138.012Z" fill="#EF801F"/>
  <path d="M23.255 54.3024C22.9951 54.3024 22.7311 54.2304 22.4991 54.0785L1.2756 40.3979C0.627616 39.978 0.43962 39.1142 0.85961 38.4624C1.2796 37.8105 2.14358 37.6266 2.79556 38.0465L24.019 51.7231C24.667 52.143 24.855 53.0067 24.435 53.6586C24.167 54.0745 23.719 54.2984 23.259 54.2984L23.255 54.3024Z" fill="#EF801F"/>
  <path d="M53.2623 36.143C52.8064 36.143 52.3584 35.919 52.0904 35.5111L43.3586 22.2185C42.9346 21.5706 43.1146 20.7028 43.7586 20.2789C44.4066 19.8551 45.2745 20.035 45.6985 20.6788L54.4303 33.9715C54.8543 34.6194 54.6743 35.4871 54.0303 35.911C53.7943 36.067 53.5263 36.139 53.2623 36.139V36.143Z" fill="#242021"/>
  <path d="M102.613 36.223C102.393 36.223 102.173 36.171 101.965 36.063C101.281 35.7031 101.017 34.8593 101.373 34.1755L108.417 20.7268C108.777 20.043 109.621 19.7751 110.305 20.135C110.989 20.4949 111.253 21.3387 110.897 22.0225L103.853 35.4711C103.605 35.947 103.117 36.223 102.613 36.223Z" fill="#242021"/>
</svg>
