<?xml version="1.0" encoding="UTF-8" standalone="no"?>
<!-- Created with Inkscape (http://www.inkscape.org/) -->

<svg
   version="1.1"
   id="svg2"
   xml:space="preserve"
   width="28"
   height="16.704"
   viewBox="0 0 28 16.704"
   sodipodi:docname="547da08ca1052c01a0b17df056c6a1f2.ai"
   xmlns:inkscape="http://www.inkscape.org/namespaces/inkscape"
   xmlns:sodipodi="http://sodipodi.sourceforge.net/DTD/sodipodi-0.dtd"
   xmlns="http://www.w3.org/2000/svg"
   xmlns:svg="http://www.w3.org/2000/svg"><defs
     id="defs6"><clipPath
       clipPathUnits="userSpaceOnUse"
       id="clipPath16"><path
         d="M 0,12.528 H 21 V 0 H 0 Z"
         id="path14" /></clipPath></defs><sodipodi:namedview
     id="namedview4"
     pagecolor="#ffffff"
     bordercolor="#666666"
     borderopacity="1.0"
     inkscape:pageshadow="2"
     inkscape:pageopacity="0.0"
     inkscape:pagecheckerboard="0" /><g
     id="g8"
     inkscape:groupmode="layer"
     inkscape:label="547da08ca1052c01a0b17df056c6a1f2"
     transform="matrix(1.3333333,0,0,-1.3333333,0,16.704)"><g
       id="g10"><g
         id="g12"
         clip-path="url(#clipPath16)"><g
           id="g18"
           transform="translate(21,5.9778)"><path
             d="m 0,0 v -0.118 c 0,-0.609 -0.454,-1.1 -1.012,-1.1 H -1.725 V -1.46 c 0,-2.125 -1.115,-3.853 -2.506,-3.89 v -0.006 c 0,-0.342 -0.253,-0.622 -0.575,-0.622 -0.316,0 -0.575,0.28 -0.575,0.622 h -10.813 c 0,-0.342 -0.253,-0.622 -0.575,-0.622 -0.316,0 -0.575,0.28 -0.575,0.622 0,0.012 0,0.024 0.006,0.037 -1.248,0.254 -2.213,1.889 -2.213,3.859 v 0.242 h -0.431 c -0.564,0 -1.018,0.491 -1.018,1.1 L -21,0 c 0,0.603 0.454,1.093 1.018,1.093 h 18.97 C -0.454,1.093 0,0.603 0,0"
             style="fill:#ffffff;fill-opacity:1;fill-rule:nonzero;stroke:none"
             id="path20" /></g><g
           id="g22"
           transform="translate(3.9489,11.7332)"><path
             d="M 0,0 -0.305,-0.031 C -0.342,0.286 -0.634,0.516 -0.951,0.485 -1.212,0.454 -1.417,0.255 -1.46,0.012 c 0.018,-0.024 0.025,-0.055 0.025,-0.087 v -6.853 c 0,-0.1 -0.075,-0.175 -0.174,-0.175 -0.094,0 -0.174,0.075 -0.174,0.175 v 6.829 c 0,0.031 0,0.062 0.012,0.093 0.037,0.41 0.36,0.752 0.783,0.795 C -0.497,0.845 -0.05,0.491 0,0"
             style="fill:#ffffff;fill-opacity:1;fill-rule:nonzero;stroke:none"
             id="path24" /></g><g
           id="g26"
           transform="translate(5.1283,11.5532)"><path
             d="m 0,0 c 0.012,-0.029 -0.008,-0.063 -0.037,-0.075 l -2.047,-0.821 c -0.029,-0.011 -0.062,0.003 -0.073,0.031 -0.012,0.029 0.002,0.061 0.031,0.073 l 0.081,0.032 c -0.076,0.472 0.184,0.944 0.645,1.129 0.461,0.185 0.975,0.023 1.247,-0.37 l 0.075,0.03 C -0.05,0.04 -0.012,0.029 0,0"
             style="fill:#ffffff;fill-opacity:1;fill-rule:nonzero;stroke:none"
             id="path28" /></g></g></g></g></svg>
