<svg xmlns="http://www.w3.org/2000/svg" width="79" height="79" viewBox="0 0 79 79" fill="none">
  <path d="M39.3171 2C59.9258 2 76.6342 18.7065 76.6342 39.3171C76.6342 51.4944 70.8018 62.3104 61.7761 69.1206C58.4228 66.9033 48.4374 60.3093 47.8612 59.2697C47.345 58.3428 47.565 55.2821 47.734 53.6064C47.8049 52.9066 48.0702 52.2432 48.5028 51.6871C49.546 50.3457 51.538 47.5722 51.9652 45.4476C52.0724 44.9132 52.3468 44.4261 52.7303 44.0372C53.3846 43.3756 54.2679 42.3523 54.2443 41.6908C54.2171 40.9401 54.2098 37.8031 54.208 36.091C54.2061 35.3513 53.9517 34.6334 53.4828 34.0609C53.1574 33.661 52.8139 33.2539 52.674 33.1321C52.5268 33.0031 52.534 30.6058 52.5795 28.2048C52.6958 22.0199 48.0775 16.7164 41.9216 16.093C41.7835 16.0802 41.6435 16.0657 41.5018 16.0548H38.0049C37.8613 16.0657 37.7213 16.0802 37.5832 16.093C31.4291 16.7164 26.8108 22.0199 26.9253 28.2048C26.9708 30.6058 26.978 33.0031 26.8308 33.1321C26.6909 33.2539 26.3492 33.661 26.022 34.0609C25.5549 34.6334 25.2987 35.3513 25.2968 36.091C25.295 37.8031 25.2877 40.9401 25.2605 41.6908C25.2369 42.3523 26.122 43.3756 26.7745 44.0372C27.158 44.4261 27.4324 44.9132 27.5396 45.4476C27.9686 47.5722 29.9587 50.3457 31.002 51.6871C31.4346 52.2432 31.7017 52.9066 31.7708 53.6064C31.9398 55.2821 32.1598 58.3428 31.6454 59.2697C31.0529 60.3348 19.7207 66.5579 16.6255 68.6044L16.4619 68.8171C7.66154 61.9923 2 51.3163 2 39.3171C2 18.7065 18.7065 2 39.3171 2Z" fill="#555555"/>
  <g style="mix-blend-mode:lighten" opacity="0.35">
    <path d="M5.08977 39.3171C5.08977 19.2245 20.9675 2.84514 40.862 2.03453C40.3494 2.01454 39.8351 2 39.3171 2C18.7065 2 2 18.7065 2 39.3171C2 51.3163 7.66154 61.9924 16.4619 68.8171L16.6255 68.6044C16.0184 68.9734 17.0126 68.3482 16.6255 68.6044C8.63936 61.7615 5.08977 50.6584 5.08977 39.3171Z" fill="white"/>
  </g>
  <g style="mix-blend-mode:darken" opacity="0.35">
    <path d="M47.6792 59.2697C47.163 58.3428 47.383 55.2821 47.552 53.6064C47.6229 52.9066 47.8882 52.2432 48.3208 51.6871C49.364 50.3458 51.356 47.5722 51.7832 45.4476C51.8904 44.9132 52.1648 44.4261 52.5483 44.0372C53.2026 43.3756 54.0859 42.3524 54.0623 41.6908C54.035 40.9402 54.0278 37.8031 54.026 36.091C54.0241 35.3513 53.7697 34.6334 53.3008 34.0609C52.9754 33.661 52.6319 33.2539 52.492 33.1321C52.3448 33.0031 52.352 30.6058 52.3975 28.2049C52.5138 22.0199 47.8955 16.7164 41.7396 16.093C41.6015 16.0803 41.4615 16.0657 41.3197 16.0548H38.23C38.3717 16.0657 38.5117 16.0803 38.6498 16.093C44.8057 16.7164 49.424 22.0199 49.3077 28.2049C49.2623 30.6058 49.255 33.0031 49.4022 33.1321C49.5422 33.2539 49.8857 33.661 50.211 34.0609C50.6799 34.6334 50.9344 35.3513 50.9362 36.091C50.938 37.8031 50.9453 40.9402 50.9725 41.6908C50.9962 42.3524 50.1129 43.3756 49.4586 44.0372C49.0751 44.4261 48.8006 44.9132 48.6934 45.4476C48.2663 47.5722 46.2743 50.3458 45.231 51.6871C44.7985 52.2432 44.5331 52.9066 44.4622 53.6064C44.2932 55.2821 45.7072 58.5318 46.2234 59.4588C46.7995 60.4984 56.5541 65.7873 59.9074 68.0047C59.4476 68.3864 60.3854 67.6448 59.9074 68.0047C55.709 65.2203 48.1772 60.1694 47.6792 59.2697Z" fill="#242021"/>
  </g>
  <g style="mix-blend-mode:darken" opacity="0.35">
    <path d="M39.317 2C38.7082 2 38.1011 2.01636 37.4995 2.04544C57.2649 2.99418 72.9991 19.3172 72.9991 39.3171C72.9991 50.7365 69.8585 62.2759 61.776 69.1206C61.2544 68.7753 62.5593 69.6404 61.776 69.1206C70.8017 62.3104 76.6341 51.4944 76.6341 39.3171C76.6341 18.7065 59.9258 2 39.317 2Z" fill="#242021"/>
  </g>
  <path d="M16.4619 68.8171C7.66154 61.9924 2 51.3163 2 39.3171C2 18.7065 18.7065 2 39.3171 2C59.9277 2 76.6342 18.7065 76.6342 39.3171C76.6342 51.4944 70.8018 62.3104 61.7761 69.1206C55.5275 73.8371 47.7504 76.6342 39.3171 76.6342C30.8839 76.6342 22.776 73.7171 16.4619 68.8171Z" stroke="#F0801F" stroke-width="3" stroke-miterlimit="10"/>
  <path d="M16.6255 68.6045C19.7207 66.5579 31.0529 60.3348 31.6454 59.2697C32.1597 58.3428 31.9398 55.2821 31.7708 53.6064C31.7017 52.9066 31.4346 52.2432 31.002 51.6871C29.9587 50.3458 27.9686 47.5722 27.5396 45.4476C27.4324 44.9132 27.158 44.4261 26.7745 44.0372C26.122 43.3756 25.2368 42.3524 25.2605 41.6908C25.2877 40.9402 25.295 37.8031 25.2968 36.091C25.2986 35.3513 25.5549 34.6334 26.022 34.0609C26.3492 33.661 26.6909 33.2539 26.8308 33.1321C26.978 33.0031 26.9708 30.6058 26.9253 28.2049C26.8108 22.0199 31.4291 16.7164 37.5832 16.093C37.7213 16.0803 37.8613 16.0657 38.0049 16.0548H41.5017C41.6435 16.0657 41.7835 16.0803 41.9216 16.093C48.0775 16.7164 52.6958 22.0199 52.5795 28.2049C52.534 30.6058 52.5268 33.0031 52.674 33.1321C52.8139 33.2539 53.1574 33.661 53.4828 34.0609C53.9517 34.6334 54.2061 35.3513 54.208 36.091C54.2098 37.8031 54.217 40.9402 54.2443 41.6908C54.2679 42.3524 53.3846 43.3756 52.7303 44.0372C52.3468 44.4261 52.0724 44.9132 51.9651 45.4476C51.538 47.5722 49.546 50.3458 48.5028 51.6871C48.0702 52.2432 47.8049 52.9066 47.734 53.6064C47.565 55.2821 47.345 58.3428 47.8612 59.2697C48.4374 60.3093 58.4228 66.9033 61.7761 69.1206C61.8579 69.1733 61.936 69.2242 62.0087 69.2733" stroke="#F0801F" stroke-width="3" stroke-miterlimit="10"/>
</svg>
