<?xml version="1.0" encoding="UTF-8" standalone="no"?>
<!-- Created with Inkscape (http://www.inkscape.org/) -->

<svg
   version="1.1"
   id="svg2"
   xml:space="preserve"
   width="106.6664"
   height="106.66653"
   viewBox="0 0 106.6664 106.66653"
   sodipodi:docname="2cadedd476ce7b9fd94ee569c15b652d.ai"
   xmlns:inkscape="http://www.inkscape.org/namespaces/inkscape"
   xmlns:sodipodi="http://sodipodi.sourceforge.net/DTD/sodipodi-0.dtd"
   xmlns="http://www.w3.org/2000/svg"
   xmlns:svg="http://www.w3.org/2000/svg"><defs
     id="defs6"><clipPath
       clipPathUnits="userSpaceOnUse"
       id="clipPath16"><path
         d="M 0,80 H 80 V 0 H 0 Z"
         id="path14" /></clipPath></defs><sodipodi:namedview
     id="namedview4"
     pagecolor="#ffffff"
     bordercolor="#666666"
     borderopacity="1.0"
     inkscape:pageshadow="2"
     inkscape:pageopacity="0.0"
     inkscape:pagecheckerboard="0" /><g
     id="g8"
     inkscape:groupmode="layer"
     inkscape:label="2cadedd476ce7b9fd94ee569c15b652d"
     transform="matrix(1.3333333,0,0,-1.3333333,0,106.66653)"><g
       id="g10"><g
         id="g12"
         clip-path="url(#clipPath16)"><g
           id="g18"
           transform="translate(39.9998,78.2039)"><path
             d="m 0,0 c -21.066,0 -38.204,-17.138 -38.204,-38.204 0,-21.066 17.138,-38.204 38.204,-38.204 21.066,0 38.204,17.138 38.204,38.204 C 38.204,-17.138 21.066,0 0,0 m 0,-78.204 c -22.056,0 -40,17.944 -40,40 0,22.056 17.944,40 40,40 22.056,0 40,-17.944 40,-40 0,-22.056 -17.944,-40 -40,-40"
             style="fill:#ee801f;fill-opacity:1;fill-rule:nonzero;stroke:none"
             id="path20" /></g><g
           id="g22"
           transform="translate(58.3595,58.1042)"><path
             d="M 0,0 C -0.13,0 -0.26,0.05 -0.359,0.149 -0.558,0.347 -0.558,0.669 -0.36,0.868 L 5.011,6.24 c 0.199,0.199 0.52,0.199 0.719,0 0.199,-0.198 0.199,-0.52 0,-0.719 L 0.36,0.149 C 0.26,0.05 0.13,0 0,0"
             style="fill:#ee801f;fill-opacity:1;fill-rule:nonzero;stroke:none"
             id="path24" /></g><g
           id="g26"
           transform="translate(73.6769,39.6982)"><path
             d="m 0,0 h -7.597 c -0.281,0 -0.508,0.228 -0.508,0.508 0,0.281 0.227,0.509 0.508,0.509 H 0 C 0.281,1.017 0.508,0.789 0.508,0.508 0.508,0.228 0.281,0 0,0"
             style="fill:#ee801f;fill-opacity:1;fill-rule:nonzero;stroke:none"
             id="path28" /></g><g
           id="g30"
           transform="translate(63.8962,15.8501)"><path
             d="m 0,0 c -0.13,0 -0.26,0.05 -0.359,0.149 l -5.373,5.372 c -0.199,0.199 -0.199,0.521 0,0.719 0.198,0.199 0.52,0.199 0.719,0 L 0.359,0.868 C 0.558,0.669 0.558,0.347 0.359,0.149 0.26,0.05 0.13,0 0,0"
             style="fill:#ee801f;fill-opacity:1;fill-rule:nonzero;stroke:none"
             id="path32" /></g><g
           id="g34"
           transform="translate(40.1175,5.9033)"><path
             d="m 0,0 c -0.281,0 -0.508,0.228 -0.508,0.508 v 7.599 c 0,0.281 0.227,0.509 0.508,0.509 0.281,0 0.508,-0.228 0.508,-0.509 V 0.508 C 0.508,0.228 0.281,0 0,0"
             style="fill:#ee801f;fill-opacity:1;fill-rule:nonzero;stroke:none"
             id="path36" /></g><g
           id="g38"
           transform="translate(16.2694,15.6841)"><path
             d="m 0,0 c -0.13,0 -0.26,0.05 -0.359,0.149 -0.199,0.198 -0.199,0.52 0,0.719 l 5.372,5.373 c 0.199,0.198 0.52,0.198 0.719,0 0.199,-0.199 0.199,-0.521 0,-0.719 L 0.359,0.149 C 0.26,0.05 0.13,0 0,0"
             style="fill:#ee801f;fill-opacity:1;fill-rule:nonzero;stroke:none"
             id="path40" /></g><g
           id="g42"
           transform="translate(13.9216,39.4648)"><path
             d="m 0,0 h -7.597 c -0.281,0 -0.508,0.228 -0.508,0.508 0,0.281 0.227,0.509 0.508,0.509 H 0 C 0.281,1.017 0.508,0.789 0.508,0.508 0.508,0.228 0.281,0 0,0"
             style="fill:#ee801f;fill-opacity:1;fill-rule:nonzero;stroke:none"
             id="path44" /></g><g
           id="g46"
           transform="translate(21.4781,57.9382)"><path
             d="m 0,0 c -0.13,0 -0.26,0.05 -0.359,0.149 l -5.373,5.372 c -0.199,0.199 -0.199,0.521 0,0.719 0.198,0.199 0.52,0.199 0.719,0 L 0.359,0.868 C 0.558,0.669 0.558,0.347 0.359,0.149 0.26,0.05 0.13,0 0,0"
             style="fill:#ee801f;fill-opacity:1;fill-rule:nonzero;stroke:none"
             id="path48" /></g><g
           id="g50"
           transform="translate(39.884,65.6606)"><path
             d="m 0,0 c -0.281,0 -0.508,0.228 -0.508,0.508 v 7.597 c 0,0.281 0.227,0.509 0.508,0.509 0.281,0 0.508,-0.228 0.508,-0.509 V 0.508 C 0.508,0.228 0.281,0 0,0"
             style="fill:#ee801f;fill-opacity:1;fill-rule:nonzero;stroke:none"
             id="path52" /></g><g
           id="g54"
           transform="translate(73.6769,27.3166)"><path
             d="m 0,0 c -0.024,0 -0.048,0.004 -0.072,0.013 l -7.587,2.861 c -0.105,0.04 -0.158,0.157 -0.119,0.262 0.04,0.106 0.158,0.158 0.262,0.119 L 0.072,0.394 C 0.177,0.354 0.23,0.237 0.19,0.132 0.16,0.05 0.082,0 0,0"
             style="fill:#ee801f;fill-opacity:1;fill-rule:nonzero;stroke:none"
             id="path56" /></g><g
           id="g58"
           transform="translate(54.9257,7.1842)"><path
             d="m 0,0 c -0.078,0 -0.152,0.045 -0.186,0.12 l -3.341,7.388 c -0.046,0.103 -10e-4,0.223 0.102,0.27 0.102,0.046 0.223,0 0.269,-0.102 L 0.185,0.287 C 0.232,0.185 0.186,0.065 0.084,0.018 0.057,0.006 0.028,0 0,0"
             style="fill:#ee801f;fill-opacity:1;fill-rule:nonzero;stroke:none"
             id="path60" /></g><g
           id="g62"
           transform="translate(27.4314,6.2079)"><path
             d="M 0,0 C -0.024,0 -0.048,0.004 -0.072,0.013 -0.177,0.053 -0.23,0.17 -0.19,0.275 l 2.862,7.59 C 2.712,7.97 2.83,8.023 2.935,7.984 3.04,7.944 3.093,7.826 3.053,7.721 L 0.19,0.132 C 0.16,0.05 0.082,0 0,0"
             style="fill:#ee801f;fill-opacity:1;fill-rule:nonzero;stroke:none"
             id="path64" /></g><g
           id="g66"
           transform="translate(7.299,24.9593)"><path
             d="m 0,0 c -0.077,0 -0.151,0.045 -0.186,0.12 -0.046,0.102 0,0.223 0.102,0.269 l 7.39,3.343 C 7.409,3.779 7.529,3.733 7.576,3.631 7.622,3.528 7.577,3.408 7.474,3.361 L 0.084,0.018 C 0.057,0.006 0.028,0 0,0"
             style="fill:#ee801f;fill-opacity:1;fill-rule:nonzero;stroke:none"
             id="path68" /></g><g
           id="g70"
           transform="translate(13.912,49.5926)"><path
             d="m 0,0 c -0.024,0 -0.048,0.004 -0.072,0.013 l -7.587,2.863 c -0.105,0.04 -0.158,0.157 -0.119,0.262 0.04,0.105 0.158,0.158 0.263,0.119 L 0.072,0.394 C 0.177,0.354 0.23,0.237 0.19,0.132 0.16,0.05 0.082,0 0,0"
             style="fill:#ee801f;fill-opacity:1;fill-rule:nonzero;stroke:none"
             id="path72" /></g><g
           id="g74"
           transform="translate(28.4173,65.1974)"><path
             d="m 0,0 c -0.078,0 -0.152,0.045 -0.186,0.12 l -3.341,7.388 c -0.046,0.103 -10e-4,0.223 0.102,0.27 0.102,0.047 0.223,0 0.269,-0.102 L 0.185,0.287 C 0.232,0.185 0.186,0.064 0.084,0.018 0.057,0.006 0.028,0 0,0"
             style="fill:#ee801f;fill-opacity:1;fill-rule:nonzero;stroke:none"
             id="path76" /></g><g
           id="g78"
           transform="translate(49.7072,65.9749)"><path
             d="M 0,0 C -0.024,0 -0.048,0.004 -0.072,0.013 -0.177,0.053 -0.23,0.17 -0.19,0.275 L 2.672,7.863 C 2.712,7.968 2.83,8.021 2.935,7.981 3.04,7.942 3.093,7.824 3.053,7.719 L 0.19,0.132 C 0.16,0.05 0.082,0 0,0"
             style="fill:#ee801f;fill-opacity:1;fill-rule:nonzero;stroke:none"
             id="path80" /></g><g
           id="g82"
           transform="translate(65.3122,51.4696)"><path
             d="m 0,0 c -0.078,0 -0.152,0.045 -0.186,0.12 -0.046,0.102 0,0.223 0.102,0.269 L 7.305,3.73 C 7.407,3.777 7.528,3.731 7.574,3.629 7.62,3.527 7.575,3.406 7.472,3.36 L 0.084,0.018 C 0.057,0.006 0.028,0 0,0"
             style="fill:#ee801f;fill-opacity:1;fill-rule:nonzero;stroke:none"
             id="path84" /></g><g
           id="g86"
           transform="translate(49.7064,27.2522)"><path
             d="m 0,0 c -0.271,0 -0.545,0.088 -0.774,0.268 l -10.302,8.105 v 24.239 c 0,0.693 0.561,1.254 1.254,1.254 0.692,0 1.254,-0.561 1.254,-1.254 V 9.591 L 0.776,2.239 C 1.32,1.811 1.415,1.023 0.986,0.479 0.739,0.164 0.371,0 0,0"
             style="fill:#ee801f;fill-opacity:1;fill-rule:nonzero;stroke:none"
             id="path88" /></g></g></g></g></svg>
