<?xml version="1.0" encoding="UTF-8" standalone="no"?>
<!-- Created with Inkscape (http://www.inkscape.org/) -->

<svg
   version="1.1"
   id="svg2"
   xml:space="preserve"
   width="94.406532"
   height="106.666"
   viewBox="0 0 94.406532 106.666"
   sodipodi:docname="1e2eaf59ad09c2f25aab8270853a323a.ai"
   xmlns:inkscape="http://www.inkscape.org/namespaces/inkscape"
   xmlns:sodipodi="http://sodipodi.sourceforge.net/DTD/sodipodi-0.dtd"
   xmlns="http://www.w3.org/2000/svg"
   xmlns:svg="http://www.w3.org/2000/svg"><defs
     id="defs6"><clipPath
       clipPathUnits="userSpaceOnUse"
       id="clipPath16"><path
         d="M 0,80 H 70.805 V 0 H 0 Z"
         id="path14" /></clipPath></defs><sodipodi:namedview
     id="namedview4"
     pagecolor="#ffffff"
     bordercolor="#666666"
     borderopacity="1.0"
     inkscape:pageshadow="2"
     inkscape:pageopacity="0.0"
     inkscape:pagecheckerboard="0" /><g
     id="g8"
     inkscape:groupmode="layer"
     inkscape:label="1e2eaf59ad09c2f25aab8270853a323a"
     transform="matrix(1.3333333,0,0,-1.3333333,0,106.66653)"><g
       id="g10"><g
         id="g12"
         clip-path="url(#clipPath16)"><g
           id="g18"
           transform="translate(19.2789,17.5874)"><path
             d="m 0,0 c -1.475,1.93 -2.277,4.294 -2.277,6.723 0,6.137 4.988,11.125 11.125,11.125 1.149,0 2.277,-0.174 3.383,-0.521 v 13.446 c -1.28,0.173 -2.559,0.238 -3.838,0.216 V 20.537 c -1.085,0.347 -2.234,0.52 -3.384,0.52 -6.137,0 -11.124,-4.988 -11.124,-11.125 C -6.115,5.595 -3.622,1.843 0,0 m 37.951,46.799 c -2.646,2.884 -4.381,6.614 -4.75,10.734 v 1.692 h -3.643 c 0.911,-5.227 4.055,-9.716 8.393,-12.426 z m -4.75,-13.272 c 5.162,-3.687 11.494,-5.856 18.325,-5.856 v 13.142 c -1.301,0 -2.58,0.13 -3.86,0.412 V 30.881 c -6.831,0 -13.163,2.169 -18.325,5.855 V 9.911 c 0,-13.424 -10.886,-24.311 -24.31,-24.311 -5.009,0 -9.672,1.518 -13.532,4.121 4.424,-4.511 10.583,-7.308 17.392,-7.308 13.424,0 24.31,10.886 24.31,24.31 v 26.825 z"
             style="fill:#ee1d52;fill-opacity:1;fill-rule:evenodd;stroke:none"
             id="path20" /></g><g
           id="g22"
           transform="translate(48.6202,54.3237)"><path
             d="M 0,0 C 5.161,-3.687 11.494,-5.855 18.325,-5.855 V 4.489 C 14.508,5.291 11.125,7.287 8.588,10.062 4.25,12.773 1.106,17.24 0.195,22.488 H -9.39 v -52.523 c -0.022,-6.116 -4.988,-11.082 -11.125,-11.082 -3.622,0 -6.831,1.713 -8.848,4.381 -3.622,1.821 -6.115,5.595 -6.115,9.932 0,6.137 4.987,11.125 11.125,11.125 1.171,0 2.32,-0.174 3.383,-0.521 v 10.453 c -13.186,-0.282 -23.812,-11.038 -23.812,-24.288 0,-6.615 2.646,-12.6 6.94,-17.002 3.86,-2.602 8.522,-4.121 13.532,-4.121 13.424,0 24.31,10.887 24.31,24.311 v 26.825 z"
             style="fill:#000000;fill-opacity:1;fill-rule:evenodd;stroke:none"
             id="path24" /></g><g
           id="g26"
           transform="translate(27.6498,48.5769)"><path
             d="m 0,0 v 2.971 c -1.106,0.152 -2.212,0.217 -3.34,0.217 -13.423,0.022 -24.31,-10.865 -24.31,-24.289 0,-8.414 4.272,-15.83 10.778,-20.189 -4.294,4.38 -6.939,10.387 -6.939,17.002 0,13.25 10.604,24.028 23.811,24.288 z m 21.187,28.214 c -0.086,0.498 -0.151,0.997 -0.195,1.518 v 1.691 H 7.764 v -52.524 c 0,-6.115 -4.988,-11.081 -11.125,-11.081 -1.8,0 -3.492,0.434 -5.01,1.193 2.039,-2.668 5.248,-4.381 8.848,-4.381 6.137,0 11.103,4.966 11.125,11.082 v 52.502 z m 18.13,-17.978 v 2.797 c -3.448,0 -6.81,0.955 -9.737,2.776 2.58,-2.819 5.985,-4.771 9.737,-5.573"
             style="fill:#69c9d0;fill-opacity:1;fill-rule:evenodd;stroke:none"
             id="path28" /></g></g></g></g></svg>
