<?xml version="1.0" encoding="UTF-8" standalone="no"?>
<!-- Created with Inkscape (http://www.inkscape.org/) -->

<svg
   version="1.1"
   id="svg2"
   xml:space="preserve"
   width="92.950661"
   height="106.66653"
   viewBox="0 0 92.950661 106.66653"
   sodipodi:docname="5be7acaea52c517605dcb7790a2e984c.ai"
   xmlns:inkscape="http://www.inkscape.org/namespaces/inkscape"
   xmlns:sodipodi="http://sodipodi.sourceforge.net/DTD/sodipodi-0.dtd"
   xmlns="http://www.w3.org/2000/svg"
   xmlns:svg="http://www.w3.org/2000/svg"><defs
     id="defs6"><clipPath
       clipPathUnits="userSpaceOnUse"
       id="clipPath16"><path
         d="M 0,80 H 69.714 V 0 H 0 Z"
         id="path14" /></clipPath></defs><sodipodi:namedview
     id="namedview4"
     pagecolor="#ffffff"
     bordercolor="#666666"
     borderopacity="1.0"
     inkscape:pageshadow="2"
     inkscape:pageopacity="0.0"
     inkscape:pagecheckerboard="0" /><g
     id="g8"
     inkscape:groupmode="layer"
     inkscape:label="5be7acaea52c517605dcb7790a2e984c"
     transform="matrix(1.3333333,0,0,-1.3333333,-3.9999999e-4,106.66666)"><g
       id="g10"><g
         id="g12"
         clip-path="url(#clipPath16)"><g
           id="g18"
           transform="translate(20.1693,14.9761)"><path
             d="m 0,0 -0.069,0.024 c 1.583,-0.791 3.304,-1.226 5.178,-1.226 6.393,0 11.588,5.174 11.588,11.536 v 54.69 h 13.774 v -1.76 c 0.042,-0.541 0.114,-1.062 0.198,-1.582 h -0.021 c 0.958,-5.456 4.237,-10.089 8.725,-12.91 0,0 0.01,0 0.01,-0.01 3.04,-1.885 6.57,-2.884 10.161,-2.884 v -2.916 h -0.02 V 32.197 c -6.966,0 -13.483,2.187 -18.793,5.893 -0.01,0 -0.01,0.01 -0.021,0.01 -0.083,0.063 -0.177,0.125 -0.26,0.188 V 10.334 c 0,-13.972 -11.338,-25.31 -25.31,-25.31 -5.216,0 -10.078,1.582 -14.096,4.289 -6.768,4.54 -11.213,12.265 -11.213,21.021 0,13.982 11.327,25.309 25.309,25.289 1.166,0 2.322,-0.063 3.478,-0.219 V 21.422 c -1.114,0.364 -2.312,0.541 -3.53,0.541 -6.382,0 -11.577,-5.195 -11.577,-11.577 0,-4.519 2.592,-8.444 6.361,-10.339"
             style="fill:#ffffff;fill-opacity:1;fill-rule:evenodd;stroke:none"
             id="path20" /></g></g></g></g></svg>
