<svg xmlns="http://www.w3.org/2000/svg" width="50" height="63" viewBox="0 0 50 63" fill="none">
  <path d="M48.515 12.0625V55.3706H10.2336V1.96381H38.3684V12.0625H48.515Z" fill="#555555" stroke="#242021" stroke-width="2.57" stroke-miterlimit="10"/>
  <path d="M38.4835 1.84927L48.6331 11.9418" stroke="#242021" stroke-width="2.57" stroke-miterlimit="10"/>
  <path d="M9.34086 37.3248L5.01721 61.0577L12.8775 57.0733L20.9245 61.0577L15.0891 37.3248H9.34086Z" fill="#555555" stroke="#242021" stroke-width="1.55" stroke-miterlimit="10"/>
  <path d="M22.7037 35.1855C22.7037 36.04 21.0831 36.6716 20.8716 37.4579C20.6601 38.2443 21.7332 39.625 21.3164 40.3371C20.8996 41.0491 19.1764 40.8014 18.5854 41.3897C17.9944 41.9779 18.2557 43.6868 17.5278 44.1078C16.7999 44.5289 15.4531 43.4453 14.635 43.6651C13.8169 43.8849 13.2104 45.4886 12.3519 45.4886C11.4934 45.4886 10.8588 43.8756 10.0687 43.6651C9.27866 43.4546 7.89136 44.5227 7.17593 44.1078C6.46051 43.693 6.70935 41.9779 6.11835 41.3897C5.52735 40.8014 3.81033 41.0615 3.3873 40.3371C2.96427 39.6126 4.05295 38.2721 3.83211 37.4579C3.61126 36.6437 2 36.04 2 35.1855C2 34.3311 3.62059 33.6995 3.83211 32.9132C4.04362 32.1268 2.97049 30.7461 3.3873 30.034C3.80411 29.322 5.52735 29.5696 6.11835 28.9814C6.70935 28.3932 6.44807 26.6843 7.17593 26.2633C7.9038 25.8422 9.25066 26.9258 10.0687 26.706C10.8868 26.4862 11.4934 24.8825 12.3519 24.8825C13.2104 24.8825 13.8449 26.4955 14.635 26.706C15.4251 26.9165 16.8124 25.8484 17.5278 26.2633C18.2432 26.6781 17.9944 28.3932 18.5854 28.9814C19.1764 29.5696 20.8934 29.3096 21.3164 30.034C21.7395 30.7585 20.6508 32.099 20.8716 32.9132C21.0925 33.7274 22.7037 34.3311 22.7037 35.1855Z" fill="#EF801F"/>
  <path d="M22.7037 35.1855C22.7037 36.04 21.0831 36.6716 20.8716 37.4579C20.6601 38.2443 21.7332 39.625 21.3164 40.3371C20.8996 41.0491 19.1764 40.8014 18.5854 41.3897C17.9944 41.9779 18.2557 43.6868 17.5278 44.1078C16.7999 44.5289 15.4531 43.4453 14.635 43.6651C13.8169 43.8849 13.2104 45.4886 12.3519 45.4886C11.4934 45.4886 10.8588 43.8756 10.0687 43.6651C9.27866 43.4546 7.89136 44.5227 7.17593 44.1078C6.46051 43.693 6.70935 41.9779 6.11835 41.3897C5.52735 40.8014 3.81033 41.0615 3.3873 40.3371C2.96427 39.6126 4.05295 38.2721 3.83211 37.4579C3.61126 36.6437 2 36.04 2 35.1855C2 34.3311 3.62059 33.6995 3.83211 32.9132C4.04362 32.1268 2.97049 30.7461 3.3873 30.034C3.80411 29.322 5.52735 29.5696 6.11835 28.9814C6.70935 28.3932 6.44807 26.6843 7.17593 26.2633C7.9038 25.8422 9.25066 26.9258 10.0687 26.706C10.8868 26.4862 11.4934 24.8825 12.3519 24.8825C13.2104 24.8825 13.8449 26.4955 14.635 26.706C15.4251 26.9165 16.8124 25.8484 17.5278 26.2633C18.2432 26.6781 17.9944 28.3932 18.5854 28.9814C19.1764 29.5696 20.8934 29.3096 21.3164 30.034C21.7395 30.7585 20.6508 32.099 20.8716 32.9132C21.0925 33.7274 22.7037 34.3311 22.7037 35.1855Z" stroke="#242021" stroke-width="2.05" stroke-miterlimit="10"/>
  <path d="M12.355 42.6125C8.23976 42.6125 4.89282 39.2814 4.89282 35.1856C4.89282 31.0897 8.23976 27.7586 12.355 27.7586C16.4702 27.7586 19.8172 31.0897 19.8172 35.1856C19.8172 39.2814 16.4702 42.6125 12.355 42.6125Z" fill="white" stroke="#242021" stroke-width="2.05" stroke-miterlimit="10"/>
  <path d="M15.7579 34.9781H13.9787L12.3581 33.3652L10.7375 34.9781H8.95825L12.3581 31.5943L15.7579 34.9781Z" fill="#242021"/>
  <path d="M15.761 35.6437L12.355 39.0337L8.94891 35.6437H10.7904L12.355 37.235L13.2166 36.4146L12.3985 35.6437H15.761Z" fill="#EF801F"/>
</svg>
