<?xml version="1.0" encoding="UTF-8" standalone="no"?>
<!-- Created with Inkscape (http://www.inkscape.org/) -->

<svg
   version="1.1"
   id="svg2"
   xml:space="preserve"
   width="93.085335"
   height="106.66627"
   viewBox="0 0 93.085335 106.66627"
   sodipodi:docname="0e67cf006f93c24f6e829bb408ae9815.ai"
   xmlns:inkscape="http://www.inkscape.org/namespaces/inkscape"
   xmlns:sodipodi="http://sodipodi.sourceforge.net/DTD/sodipodi-0.dtd"
   xmlns="http://www.w3.org/2000/svg"
   xmlns:svg="http://www.w3.org/2000/svg"><defs
     id="defs6"><clipPath
       clipPathUnits="userSpaceOnUse"
       id="clipPath16"><path
         d="M 0,80 H 69.814 V 0 H 0 Z"
         id="path14" /></clipPath></defs><sodipodi:namedview
     id="namedview4"
     pagecolor="#ffffff"
     bordercolor="#666666"
     borderopacity="1.0"
     inkscape:pageshadow="2"
     inkscape:pageopacity="0.0"
     inkscape:pagecheckerboard="0" /><g
     id="g8"
     inkscape:groupmode="layer"
     inkscape:label="0e67cf006f93c24f6e829bb408ae9815"
     transform="matrix(1.3333333,0,0,-1.3333333,0,106.66666)"><g
       id="g10"><g
         id="g12"
         clip-path="url(#clipPath16)"><g
           id="g18"
           transform="translate(69.814,12.0583)"><path
             d="m 0,0 c 0,-6.659 -5.399,-12.058 -12.061,-12.058 -6.659,0 -12.058,5.399 -12.058,12.058 0,0.379 0.017,0.755 0.052,1.127 l -26.264,17.081 c -2.048,-1.598 -4.624,-2.551 -7.422,-2.551 -6.66,0 -12.061,5.399 -12.061,12.058 0,6.662 5.401,12.061 12.061,12.061 2.679,0 5.156,-0.874 7.157,-2.35 l 26.776,15.775 c -0.195,0.862 -0.299,1.759 -0.299,2.68 0,6.662 5.399,12.061 12.058,12.061 C -5.399,67.942 0,62.543 0,55.881 0,49.221 -5.399,43.82 -12.061,43.82 c -2.471,0 -4.772,0.745 -6.687,2.023 L -45.883,29.857 c 0.126,-0.696 0.191,-1.411 0.191,-2.142 0,-0.612 -0.045,-1.213 -0.134,-1.8 l 25.85,-16.814 c 2.12,1.843 4.889,2.96 7.915,2.96 C -5.399,12.061 0,6.662 0,0"
             style="fill:#ee801f;fill-opacity:1;fill-rule:nonzero;stroke:none"
             id="path20" /></g></g></g></g></svg>
