<svg xmlns="http://www.w3.org/2000/svg" width="51" height="59" viewBox="0 0 51 59" fill="none">
  <path d="M26.0563 56.2478L11.8013 46.4495C3.73011 40.902 0.148427 30.7865 2.93541 21.3991L7.84988 4.81751C8.82394 5.5237 12.1573 7.74709 16.9062 7.54296C21.3488 7.34986 24.34 5.14578 25.3113 4.36511C25.6893 4.79269 28.8571 7.93467 33.893 7.63399C38.5122 7.35813 41.1612 4.45614 41.5668 3.94305C43.4901 9.37739 45.4134 14.8117 47.3367 20.2461C50.6038 29.4789 47.5547 39.7655 39.7815 45.724L26.0563 56.2478Z" fill="#555555" stroke="#242021" stroke-width="3" stroke-miterlimit="10"/>
  <path d="M42.1215 26.4473H33.3438L25.3389 18.4447L17.3366 26.4473H8.55902L25.3389 9.6698L42.1215 26.4473Z" fill="#EF801F"/>
  <path d="M42.1325 29.7465L25.3168 46.5543L8.5011 29.7465H17.5933L25.3168 37.6442L29.5773 33.5643L25.5376 29.7465H42.1325Z" fill="#EF801F"/>
</svg>
