<?xml version="1.0" encoding="UTF-8" standalone="no"?>
<svg
   xmlns:dc="http://purl.org/dc/elements/1.1/"
   xmlns:cc="http://creativecommons.org/ns#"
   xmlns:rdf="http://www.w3.org/1999/02/22-rdf-syntax-ns#"
   xmlns:svg="http://www.w3.org/2000/svg"
   xmlns="http://www.w3.org/2000/svg"
   viewBox="0 0 570.24268 661.59601"
   height="661.59601"
   width="570.24268"
   xml:space="preserve"
   id="svg2"
   version="1.1"><metadata
     id="metadata8"><rdf:RDF><cc:Work
         rdf:about=""><dc:format>image/svg+xml</dc:format><dc:type
           rdf:resource="http://purl.org/dc/dcmitype/StillImage" /></cc:Work></rdf:RDF></metadata><defs
     id="defs6"><clipPath
       id="clipPath26"
       clipPathUnits="userSpaceOnUse"><path
         id="path24"
         d="M 0,496.197 H 427.682 V 0 H 0 Z" /></clipPath></defs><g
     transform="matrix(1.3333333,0,0,-1.3333333,0,661.596)"
     id="g10"><g
       transform="translate(214.9911,496.197)"
       id="g12"><path
         id="path14"
         style="fill:#242021;fill-opacity:1;fill-rule:nonzero;stroke:none"
         d="m 0,0 -114.26,-114.26 h 59.76 l 54.5,54.5 54.499,-54.5 h 59.76 z" /></g><g
       transform="translate(329.321,359.4769)"
       id="g16"><path
         id="path18"
         style="fill:#ee801f;fill-opacity:1;fill-rule:nonzero;stroke:none"
         d="M 0,0 -114.49,-114.48 -228.97,0 h 61.89 l 52.59,-53.8 29.01,27.79 -27.5,26.01 z" /></g><g
       id="g20"><g
         clip-path="url(#clipPath26)"
         id="g22"><g
           transform="translate(83.2674,114.9805)"
           id="g28"><path
             id="path30"
             style="fill:#242021;fill-opacity:1;fill-rule:nonzero;stroke:none"
             d="m 0,0 c -6.901,-2.313 -19.686,-5.202 -31.654,-5.202 -17.987,0 -30.328,4.487 -38.556,12.376 -8.637,8.126 -13.125,19.958 -13.057,33.082 0.136,31.858 23.834,48.043 53.551,48.043 12.376,0 21.794,-2.21 26.588,-4.488 l -4.93,-19.619 c -5.168,2.176 -11.356,3.876 -21.794,3.876 -15.13,0 -27.642,-7.922 -27.642,-26.554 0,-17.068 11.084,-26.996 26.112,-26.996 3.366,0 6.528,0.306 7.718,0.782 V 31.076 H -35.938 V 50.15 L 0,50.15 Z" /></g><g
           transform="translate(120.8699,110.6963)"
           id="g32"><path
             id="path34"
             style="fill:#242021;fill-opacity:1;fill-rule:nonzero;stroke:none"
             d="M 0,0 -29.138,91.665 H -2.176 L 7.548,55.624 c 2.89,-10.268 5.406,-20.298 7.616,-32.062 h 0.273 c 2.209,11.186 4.828,21.794 7.513,31.655 l 9.963,36.448 H 59.024 L 29.036,0 Z" /></g><g
           transform="translate(189.8875,202.3613)"
           id="g36"><path
             id="path38"
             style="fill:#242021;fill-opacity:1;fill-rule:nonzero;stroke:none"
             d="m 0,0 h 24.549 v -71.095 h 35.292 v -20.57 l -59.841,0 z" /></g><g
           transform="translate(306.9832,150.0684)"
           id="g40"><path
             id="path42"
             style="fill:#242021;fill-opacity:1;fill-rule:nonzero;stroke:none"
             d="m 0,0 -4.25,16.49 c -1.395,5.168 -3.128,12.649 -4.557,18.055 h -0.271 c -1.36,-5.406 -2.72,-12.954 -4.046,-18.156 L -17.068,0 Z m -20.332,-18.122 -5.168,-21.25 h -25.398 l 26.587,91.665 H 8.398 L 35.734,-39.372 H 9.214 l -5.848,21.25 z" /></g><g
           transform="translate(378.7556,162.6826)"
           id="g44"><path
             id="path46"
             style="fill:#242021;fill-opacity:1;fill-rule:nonzero;stroke:none"
             d="m 0,0 h 6.393 c 9.248,0 14.586,4.522 14.586,11.391 0,6.867 -4.523,10.777 -12.683,10.845 -4.624,0 -7.072,-0.238 -8.296,-0.544 z m -24.311,38.421 c 6.937,1.088 17.341,1.972 29.615,1.972 14.043,0 24.106,-1.939 31.009,-7.141 5.881,-4.487 9.043,-11.016 9.043,-19.992 0,-11.424 -8.568,-19.55 -15.708,-22.168 v -0.476 c 6.086,-2.618 9.384,-8.467 11.731,-16.423 2.754,-9.315 5.779,-22.643 7.548,-26.179 H 23.834 c -1.394,2.651 -3.773,9.826 -6.426,21.114 -2.482,10.981 -5.847,13.26 -13.429,13.26 H 0 v -34.374 h -24.311 z" /></g><path
           id="path48"
           style="fill:#242021;fill-opacity:1;fill-rule:nonzero;stroke:none"
           d="m 40.15,69.918 h 5.376 V 41.382 H 40.15 Z m 6.09,8.29 c 0,-1.76 -1.3,-3.318 -3.473,-3.318 -2.014,0 -3.313,1.558 -3.313,3.318 0,1.777 1.382,3.317 3.413,3.317 2.032,0 3.354,-1.499 3.373,-3.317" /><g
           transform="translate(77.4754,62.0967)"
           id="g50"><path
             id="path52"
             style="fill:#242021;fill-opacity:1;fill-rule:nonzero;stroke:none"
             d="M 0,0 C 0,2.852 -0.077,5.431 -0.236,7.821 H 4.449 L 4.738,2.866 h 0.154 c 1.71,2.848 4.536,5.663 9.87,5.663 4.272,0 7.458,-2.719 8.733,-6.176 h 0.118 c 0.968,1.693 2.136,2.956 3.358,3.864 1.924,1.486 3.959,2.312 7.055,2.312 3.791,0 10.274,-2.34 10.274,-13.146 v -16.098 h -5.253 v 15.56 c 0,6.128 -2.535,9.289 -6.929,9.289 -3.332,0 -5.832,-2.354 -6.841,-4.801 C 25,-1.416 24.776,-2.36 24.776,-3.28 v -17.435 h -5.252 v 16.591 c 0,5.014 -2.495,8.258 -6.6,8.258 -3.686,0 -6.239,-2.907 -7.212,-5.361 -0.295,-0.767 -0.46,-1.699 -0.46,-2.595 V -20.715 H 0 Z" /></g><g
           transform="translate(176.2581,82.5332)"
           id="g54"><path
             id="path56"
             style="fill:#242021;fill-opacity:1;fill-rule:nonzero;stroke:none"
             d="M 0,0 -7.547,-8.615 H -11.44 L -6.053,0 Z m -17.964,-26.966 c 0,-6.77 4.498,-10.918 9.889,-10.918 5.332,0 10.026,3.976 10.026,11.124 0,4.98 -2.978,10.877 -9.861,10.877 -6.782,0 -10.054,-5.326 -10.054,-11.083 m 25.433,0.437 c 0,-10.409 -8.066,-15.33 -15.756,-15.33 -8.615,0 -15.196,5.964 -15.196,14.698 0,9.264 6.815,15.254 15.698,15.254 9.246,0 15.254,-6.343 15.254,-14.622" /></g><g
           transform="translate(220.5701,69.918)"
           id="g58"><path
             id="path60"
             style="fill:#242021;fill-opacity:1;fill-rule:nonzero;stroke:none"
             d="m 0,0 6.257,-15.993 c 1.144,-2.884 1.97,-5.174 2.696,-7.51 h 0.153 c 0.767,2.372 1.698,4.732 2.783,7.51 L 18.164,0 h 5.731 L 11.417,-28.536 H 6.158 L -5.843,0 Z" /></g><g
           transform="translate(297.8846,58.3945)"
           id="g62"><path
             id="path64"
             style="fill:#242021;fill-opacity:1;fill-rule:nonzero;stroke:none"
             d="m 0,0 c 0.042,2.453 -1.091,8.451 -8.133,8.451 -6.062,0 -8.575,-4.942 -9.058,-8.451 z m -17.262,-3.863 c 0.124,-6.433 4.914,-9.675 10.771,-9.675 4.294,0 6.779,0.73 8.963,1.592 l 0.963,-3.81 c -1.891,-0.809 -5.308,-1.965 -10.593,-1.965 -9.413,0 -15.261,5.924 -15.261,14.428 0,8.446 5.48,15.524 14.693,15.524 10.468,0 12.936,-8.843 12.936,-13.703 0,-1.08 -0.071,-1.866 -0.207,-2.391 z" /></g><path
           id="path66"
           style="fill:#242021;fill-opacity:1;fill-rule:nonzero;stroke:none"
           d="m 334.79,69.918 h 5.376 V 41.382 h -5.376 z m 6.09,8.29 c 0,-1.76 -1.299,-3.318 -3.472,-3.318 -2.014,0 -3.313,1.558 -3.313,3.318 0,1.777 1.381,3.317 3.413,3.317 2.032,0 3.354,-1.499 3.372,-3.317" /><g
           transform="translate(373.1907,46.8506)"
           id="g68"><path
             id="path70"
             style="fill:#242021;fill-opacity:1;fill-rule:nonzero;stroke:none"
             d="m 0,0 c 1.746,-1.08 4.798,-2.213 7.631,-2.213 4.193,0 5.985,1.957 5.985,4.28 0,2.613 -1.745,3.85 -5.85,5.107 -5.631,1.687 -8.203,4.609 -8.186,8.079 0,4.58 3.825,8.522 10.529,8.522 3.129,0 5.904,-0.802 7.626,-1.852 l -1.316,-3.887 c -1.104,0.666 -3.488,1.811 -6.538,1.811 -3.274,0 -5.072,-1.756 -5.072,-4.009 0,-2.512 1.993,-3.556 6.04,-4.848 5.459,-1.735 7.996,-4.173 8.013,-8.527 0,-4.833 -3.935,-8.64 -11.361,-8.64 -3.471,0 -6.546,0.862 -8.812,2.101 z" /></g></g></g></g></svg>