<svg width="30" height="39" viewBox="0 0 30 39" fill="none" xmlns="http://www.w3.org/2000/svg">
<g id="GPS">
<g id="ELEMENTS">
<g id="Group">
<path id="Vector" d="M14.9995 38.5935C14.6311 38.5935 14.273 38.44 14.0173 38.1638C13.4443 37.5499 0 22.9801 0 14.9995C0 7.01886 6.73237 0 14.9995 0C23.2666 0 29.999 6.73237 29.999 14.9995C29.999 23.2666 16.5547 37.5396 15.9817 38.1638C15.7259 38.44 15.3678 38.5935 14.9995 38.5935ZM14.9995 2.6909C8.20572 2.6909 2.68067 8.21595 2.68067 15.0097C2.68067 20.3097 10.825 30.5617 14.9995 35.258C19.174 30.5617 27.3183 20.2994 27.3183 15.0097C27.3183 8.21595 21.7932 2.6909 14.9995 2.6909Z" fill="white"/>
<path id="Vector_2" d="M14.9995 21.0975C11.2752 21.0975 8.2467 18.0689 8.2467 14.3446C8.2467 10.6203 11.2752 7.5918 14.9995 7.5918C18.7238 7.5918 21.7524 10.6203 21.7524 14.3446C21.7524 18.0689 18.7238 21.0975 14.9995 21.0975ZM14.9995 10.2725C12.7588 10.2725 10.9274 12.0937 10.9274 14.3446C10.9274 16.5956 12.7486 18.4168 14.9995 18.4168C17.2505 18.4168 19.0717 16.5956 19.0717 14.3446C19.0717 12.0937 17.2505 10.2725 14.9995 10.2725Z" fill="white"/>
</g>
</g>
</g>
</svg>
