<svg width="24" height="30" viewBox="0 0 24 30" fill="none" xmlns="http://www.w3.org/2000/svg">
<g id="Property 1=Variant2">
<g id="ELEMENTS">
<g id="Group">
<path id="Vector" d="M11.6556 7.57324C9.7436 7.57324 8.18079 9.11738 8.18079 11.0259C8.18079 12.9343 9.73487 14.4785 11.6556 14.4785C13.5764 14.4785 15.1305 12.9343 15.1305 11.0259C15.1305 9.11738 13.5764 7.57324 11.6556 7.57324Z" fill="#F0801F"/>
<path id="Vector_2" d="M11.6556 0C5.22103 0 0 5.1876 0 11.581C0 17.0375 8.47762 26.9009 10.9746 29.6942C11.3413 30.1019 11.9787 30.1019 12.3454 29.6942C14.8424 26.9009 23.32 17.0375 23.32 11.581C23.3113 5.1876 18.0902 0 11.6556 0ZM11.6556 16.7512C8.47762 16.7512 5.8933 14.1835 5.8933 11.0258C5.8933 7.86814 8.47762 5.30037 11.6556 5.30037C14.8337 5.30037 17.418 7.86814 17.418 11.0258C17.418 14.1835 14.8337 16.7512 11.6556 16.7512Z" fill="#F0801F"/>
</g>
</g>
</g>
</svg>
