<svg xmlns="http://www.w3.org/2000/svg" width="22" height="22" viewBox="0 0 22 22" fill="none">
  <path d="M21.5002 9.32C21.2202 9.32 21.0002 9.1 21.0002 8.82V3.52C21.0002 2.13 19.8702 1 18.4802 1H13.1802C12.9002 1 12.6802 0.78 12.6802 0.5C12.6802 0.22 12.9002 0 13.1802 0H18.4802C20.4202 0 22.0002 1.58 22.0002 3.52V8.82C22.0002 9.1 21.7802 9.32 21.5002 9.32Z" fill="white"/>
  <path d="M0.5 9.32C0.22 9.32 0 9.1 0 8.82V3.52C0 1.58 1.58 0 3.52 0H8.82C9.1 0 9.32 0.22 9.32 0.5C9.32 0.78 9.1 1 8.82 1H3.52C2.13 1 1 2.13 1 3.52V8.82C1 9.1 0.78 9.32 0.5 9.32Z" fill="white"/>
  <path d="M8.82 22.0001H3.52C1.58 22.0001 0 20.4201 0 18.4801V13.1801C0 12.9001 0.22 12.6801 0.5 12.6801C0.78 12.6801 1 12.9001 1 13.1801V18.4801C1 19.8701 2.13 21.0001 3.52 21.0001H8.82C9.1 21.0001 9.32 21.2201 9.32 21.5001C9.32 21.7801 9.1 22.0001 8.82 22.0001Z" fill="white"/>
  <path d="M18.4802 22.0001H13.1802C12.9002 22.0001 12.6802 21.7801 12.6802 21.5001C12.6802 21.2201 12.9002 21.0001 13.1802 21.0001H18.4802C19.8702 21.0001 21.0002 19.8701 21.0002 18.4801V13.1801C21.0002 12.9001 21.2202 12.6801 21.5002 12.6801C21.7802 12.6801 22.0002 12.9001 22.0002 13.1801V18.4801C22.0002 20.4201 20.4202 22.0001 18.4802 22.0001Z" fill="white"/>
  <path d="M4.53978 6.69995H6.20978L8.67979 13.98L11.1398 6.69995H12.7898V15.31H11.6798V10.23C11.6798 10.05 11.6798 9.75995 11.6898 9.35995C11.6998 8.95995 11.6998 8.51995 11.6998 8.04995L9.23978 15.31H8.08979L5.61978 8.04995V8.30995C5.61978 8.51995 5.61979 8.83995 5.62979 9.26995C5.63979 9.69995 5.63978 10.02 5.63978 10.22V15.3H4.52979V6.69995H4.53978Z" fill="white"/>
  <path d="M14.12 10.5899C14.39 10.2399 14.73 9.96993 15.14 9.75993C15.72 9.46993 16.1 9.25993 16.27 9.11993C16.44 8.97993 16.53 8.78993 16.53 8.55993C16.53 8.29993 16.46 8.09993 16.31 7.93993C16.16 7.77993 15.93 7.70993 15.62 7.70993C15.31 7.70993 15.08 7.80993 14.96 8.00993C14.84 8.20993 14.77 8.44993 14.77 8.73993H13.85C13.85 8.14993 14.02 7.70993 14.35 7.39993C14.68 7.08993 15.12 6.92993 15.65 6.92993C16.18 6.92993 16.63 7.05993 16.96 7.31993C17.29 7.57993 17.46 7.95993 17.46 8.46993C17.46 8.92993 17.34 9.28993 17.1 9.51993C16.86 9.74993 16.48 9.99993 15.96 10.2499C15.29 10.5499 14.9 10.8499 14.78 11.1499H17.46V11.9699H13.71C13.71 11.3999 13.85 10.9499 14.12 10.5999V10.5899Z" fill="white"/>
</svg>
