<?xml version="1.0" encoding="UTF-8" standalone="no"?>
<!-- Created with Inkscape (http://www.inkscape.org/) -->

<svg
   version="1.1"
   id="svg2"
   xml:space="preserve"
   width="29.333332"
   height="29.3328"
   viewBox="0 0 29.333332 29.3328"
   sodipodi:docname="25de45c7ba7e2b13db030f6c288c4f49.ai"
   xmlns:inkscape="http://www.inkscape.org/namespaces/inkscape"
   xmlns:sodipodi="http://sodipodi.sourceforge.net/DTD/sodipodi-0.dtd"
   xmlns="http://www.w3.org/2000/svg"
   xmlns:svg="http://www.w3.org/2000/svg"><defs
     id="defs6"><clipPath
       clipPathUnits="userSpaceOnUse"
       id="clipPath16"><path
         d="M 0,22 H 22 V 0 H 0 Z"
         id="path14" /></clipPath></defs><sodipodi:namedview
     id="namedview4"
     pagecolor="#ffffff"
     bordercolor="#666666"
     borderopacity="1.0"
     inkscape:pageshadow="2"
     inkscape:pageopacity="0.0"
     inkscape:pagecheckerboard="0" /><g
     id="g8"
     inkscape:groupmode="layer"
     inkscape:label="25de45c7ba7e2b13db030f6c288c4f49"
     transform="matrix(1.3333333,0,0,-1.3333333,0,29.332799)"><g
       id="g10"><g
         id="g12"
         clip-path="url(#clipPath16)"><g
           id="g18"
           transform="translate(21.5,12.6826)"><path
             d="m 0,0 c -0.276,0 -0.5,0.224 -0.5,0.5 v 5.301 c 0,1.387 -1.129,2.516 -2.516,2.516 h -5.299 c -0.276,0 -0.5,0.224 -0.5,0.5 0,0.277 0.224,0.5 0.5,0.5 h 5.299 C -1.077,9.317 0.5,7.74 0.5,5.801 V 0.5 C 0.5,0.224 0.276,0 0,0"
             style="fill:#ee801f;fill-opacity:1;fill-rule:nonzero;stroke:none"
             id="path20" /></g><g
           id="g22"
           transform="translate(0.5,12.6826)"><path
             d="m 0,0 c -0.276,0 -0.5,0.224 -0.5,0.5 v 5.301 c 0,1.939 1.577,3.516 3.516,3.516 h 5.299 c 0.277,0 0.5,-0.223 0.5,-0.5 0,-0.276 -0.223,-0.5 -0.5,-0.5 H 3.016 C 1.629,8.317 0.5,7.188 0.5,5.801 V 0.5 C 0.5,0.224 0.276,0 0,0"
             style="fill:#ee801f;fill-opacity:1;fill-rule:nonzero;stroke:none"
             id="path24" /></g><g
           id="g26"
           transform="translate(8.8154)"><path
             d="m 0,0 h -5.299 c -1.939,0 -3.516,1.577 -3.516,3.516 v 5.297 c 0,0.276 0.223,0.5 0.5,0.5 0.276,0 0.5,-0.224 0.5,-0.5 V 3.516 C -7.815,2.129 -6.687,1 -5.299,1 H 0 C 0.276,1 0.5,0.776 0.5,0.5 0.5,0.224 0.276,0 0,0"
             style="fill:#ee801f;fill-opacity:1;fill-rule:nonzero;stroke:none"
             id="path28" /></g><g
           id="g30"
           transform="translate(18.4839)"><path
             d="m 0,0 h -5.299 c -0.276,0 -0.5,0.224 -0.5,0.5 0,0.276 0.224,0.5 0.5,0.5 H 0 c 1.387,0 2.516,1.129 2.516,2.516 v 5.297 c 0,0.276 0.224,0.5 0.5,0.5 0.276,0 0.5,-0.224 0.5,-0.5 V 3.516 C 3.516,1.577 1.939,0 0,0"
             style="fill:#ee801f;fill-opacity:1;fill-rule:nonzero;stroke:none"
             id="path32" /></g><g
           id="g34"
           transform="translate(4.5372,15.3037)"><path
             d="M 0,0 H 1.67 L 4.143,-7.277 6.598,0 H 8.25 V -8.607 H 7.143 v 5.08 c 0,0.175 0.003,0.466 0.011,0.873 0.008,0.406 0.012,0.842 0.012,1.306 L 4.711,-8.607 H 3.557 l -2.473,7.259 v -0.263 c 0,-0.211 0.005,-0.533 0.015,-0.964 0.009,-0.432 0.014,-0.749 0.014,-0.952 v -5.08 H 0 Z"
             style="fill:#ee801f;fill-opacity:1;fill-rule:nonzero;stroke:none"
             id="path36" /></g><g
           id="g38"
           transform="translate(14.1231,11.413)"><path
             d="M 0,0 C 0.273,0.348 0.613,0.623 1.02,0.826 1.602,1.115 1.979,1.33 2.153,1.471 2.327,1.611 2.414,1.799 2.414,2.033 2.414,2.291 2.342,2.498 2.197,2.654 2.053,2.811 1.822,2.889 1.506,2.889 1.189,2.889 0.969,2.789 0.844,2.59 0.719,2.391 0.654,2.148 0.65,1.863 h -0.92 c 0,0.586 0.167,1.034 0.501,1.345 C 0.565,3.519 1,3.674 1.535,3.674 2.078,3.674 2.515,3.543 2.845,3.281 3.175,3.02 3.34,2.637 3.34,2.133 3.34,1.668 3.22,1.316 2.979,1.078 2.739,0.84 2.359,0.596 1.84,0.346 1.172,0.045 0.779,-0.254 0.662,-0.551 H 3.34 v -0.82 h -3.75 c 0,0.566 0.137,1.023 0.41,1.371"
             style="fill:#ee801f;fill-opacity:1;fill-rule:nonzero;stroke:none"
             id="path40" /></g></g></g></g></svg>
