<svg xmlns="http://www.w3.org/2000/svg" width="188" height="90" viewBox="0 0 188 90" fill="none">
  <path d="M45.5018 47.0031C45.5018 64.4367 54.5709 79.7305 68.1996 88.3526C31.0601 77.3761 0 47.3755 0 47.0031C0 46.6307 31.0601 16.6238 68.2058 5.65369C54.5709 14.2695 45.5081 29.5696 45.5081 47.0031H45.5018Z" fill="#242021"/>
  <path d="M187.636 47.0031C187.636 47.3755 156.576 77.3761 119.437 88.3526C133.072 79.7368 142.135 64.4367 142.135 47.0031C142.135 29.5696 133.065 14.2695 119.437 5.65369C156.583 16.6238 187.636 46.6244 187.636 47.0031Z" fill="#242021"/>
  <path d="M93.8181 4C70.3261 4 51.2122 23.2892 51.2122 47.0032C51.2122 70.7171 70.3261 90 93.8181 90C117.31 90 136.43 70.7108 136.43 47.0032C136.43 23.2956 117.316 4 93.8181 4ZM93.8181 83.9658C73.6222 83.9658 57.1915 67.3844 57.1915 47.0032C57.1915 26.6219 73.6222 10.0405 93.8181 10.0405C99.8037 10.0405 105.452 11.4986 110.443 14.0675C108.072 15.7149 106.521 18.4732 106.521 21.5977C106.521 26.6472 110.58 30.7373 115.578 30.7373C119.143 30.7373 122.22 28.6607 123.696 25.6436C127.949 31.6841 130.445 39.0501 130.445 47.0032C130.445 67.3844 114.014 83.9658 93.8181 83.9658Z" fill="#EF801F"/>
  <path d="M115.49 47.0031C115.49 59.0589 105.771 68.8677 93.8183 68.8677C81.8659 68.8677 72.1526 59.0589 72.1526 47.0031C72.1526 34.9474 81.8722 25.1323 93.8183 25.1323C96.0575 25.1323 98.2215 25.4795 100.248 26.1107C98.4905 27.777 97.3959 30.1377 97.3959 32.7634C97.3959 37.813 101.455 41.9031 106.453 41.9031C109.405 41.9031 112.025 40.4766 113.683 38.2738C114.846 40.95 115.484 43.904 115.484 47.0031H115.49Z" fill="#242021"/>
</svg>
