<svg xmlns="http://www.w3.org/2000/svg" width="189" height="88" viewBox="0 0 189 88" fill="none">
  <path d="M46.5004 44.0031C46.5004 61.4367 55.5695 76.7305 69.1981 85.3526C32.0586 74.3761 0.998535 44.3755 0.998535 44.0031C0.998535 43.6307 32.0586 13.6238 69.2044 2.65369C55.5695 11.2695 46.5066 26.5696 46.5066 44.0031H46.5004Z" fill="#F0801F"/>
  <path d="M188.635 44.0031C188.635 44.3755 157.575 74.3761 120.435 85.3526C134.07 76.7368 143.133 61.4367 143.133 44.0031C143.133 26.5696 134.064 11.2695 120.435 2.65369C157.581 13.6238 188.635 43.6244 188.635 44.0031Z" fill="#F0801F"/>
  <path d="M94.8167 1C71.3246 1 52.2107 20.2892 52.2107 44.0032C52.2107 67.7171 71.3246 87 94.8167 87C118.309 87 137.429 67.7108 137.429 44.0032C137.429 20.2956 118.315 1 94.8167 1ZM94.8167 80.9658C74.6207 80.9658 58.19 64.3844 58.19 44.0032C58.19 23.6219 74.6207 7.04051 94.8167 7.04051C100.802 7.04051 106.45 8.49857 111.441 11.0675C109.071 12.7149 107.52 15.4732 107.52 18.5977C107.52 23.6472 111.579 27.7373 116.576 27.7373C120.141 27.7373 123.219 25.6607 124.695 22.6436C128.948 28.6841 131.443 36.0501 131.443 44.0032C131.443 64.3844 115.013 80.9658 94.8167 80.9658Z" fill="#EF801F"/>
  <path d="M116.489 44.0031C116.489 56.0589 106.769 65.8677 94.8169 65.8677C82.8644 65.8677 73.1511 56.0589 73.1511 44.0031C73.1511 31.9474 82.8707 22.1323 94.8169 22.1323C97.056 22.1323 99.2201 22.4795 101.247 23.1107C99.489 24.777 98.3945 27.1377 98.3945 29.7634C98.3945 34.813 102.454 38.9031 107.451 38.9031C110.403 38.9031 113.024 37.4766 114.681 35.2738C115.845 37.95 116.483 40.904 116.483 44.0031H116.489Z" fill="#F0801F"/>
</svg>
