<svg width="26" height="26" viewBox="0 0 26 26" fill="none" xmlns="http://www.w3.org/2000/svg">
<g id="Youtube icon" clip-path="url(#clip0_59_214)">
<g id="ELEMENTS">
<g id="Group">
<path id="Vector" d="M13 0C5.82024 0 0 5.82024 0 13C0 20.1798 5.82024 26 13 26C20.1798 26 26 20.1798 26 13C26 5.82024 20.1798 0 13 0ZM22.0243 15.3957C22.0243 17.6224 20.2239 19.4228 17.9972 19.4228H7.70153C5.47484 19.4228 3.67439 17.6224 3.67439 15.3957V10.6043C3.67439 8.37761 5.47484 6.57716 7.70153 6.57716H17.9972C20.2239 6.57716 22.0243 8.37761 22.0243 10.6043V15.3957Z" fill="white"/>
<path id="Vector_2" d="M15.7778 12.8825L11.3612 10.4794C11.1775 10.3765 10.5602 10.5088 10.5602 10.7146V15.4031C10.5602 15.6089 11.1775 15.7411 11.3538 15.6456L15.9689 13.3601C16.16 13.2572 15.9689 12.9927 15.7778 12.8825Z" fill="white"/>
</g>
</g>
</g>
<defs>
<clipPath id="clip0_59_214">
<rect width="26" height="26" fill="white"/>
</clipPath>
</defs>
</svg>
