<svg width="26" height="26" viewBox="0 0 26 26" fill="none" xmlns="http://www.w3.org/2000/svg">
<g id="Youtube color" clip-path="url(#clip0_59_242)">
<g id="ELEMENTS">
<g id="Group">
<path id="Vector" d="M15.1164 12.9119L11.6919 11.0453C11.5523 10.9644 11.0673 11.0673 11.0673 11.229V14.8666C11.0673 15.0283 11.5449 15.1312 11.6846 15.0504L15.2634 13.2793C15.4104 13.1985 15.2634 12.9927 15.1164 12.9119Z" fill="#FF0000"/>
<path id="Vector_2" d="M13 0C5.82024 0 0 5.82024 0 13C0 20.1798 5.82024 26 13 26C20.1798 26 26 20.1798 26 13C26 5.82024 20.1798 0 13 0ZM19.9593 14.8592C19.9593 16.5862 18.563 17.9825 16.8361 17.9825H8.85528C7.12832 17.9825 5.73205 16.5862 5.73205 14.8592V11.1481C5.73205 9.42114 7.12832 8.02487 8.85528 8.02487H16.8361C18.563 8.02487 19.9593 9.42114 19.9593 11.1481V14.8592Z" fill="#FF0000"/>
</g>
</g>
</g>
<defs>
<clipPath id="clip0_59_242">
<rect width="26" height="26" fill="white"/>
</clipPath>
</defs>
</svg>
