<svg width="32" height="32" viewBox="0 0 32 32" fill="none" xmlns="http://www.w3.org/2000/svg">
<g id="Group">
<path id="Vector" d="M16 31.1819C24.2843 31.1819 31 24.4662 31 16.1819C31 7.89761 24.2843 1.18188 16 1.18188C7.71573 1.18188 1 7.89761 1 16.1819C1 24.4662 7.71573 31.1819 16 31.1819Z" stroke="white" stroke-miterlimit="10"/>
<g id="Group_2">
<path id="Vector_2" d="M25.1033 6.98071L23.043 9.04174" stroke="white" stroke-miterlimit="10" stroke-linecap="round"/>
<path id="Vector_3" d="M28.919 16.1025H26.0047" stroke="white" stroke-miterlimit="10" stroke-linecap="round"/>
<path id="Vector_4" d="M25.167 25.251L23.1059 23.1899" stroke="white" stroke-miterlimit="10" stroke-linecap="round"/>
<path id="Vector_5" d="M16.0451 29.0667V26.1516" stroke="white" stroke-miterlimit="10" stroke-linecap="round"/>
<path id="Vector_6" d="M6.89667 25.3147L8.9577 23.2537" stroke="white" stroke-miterlimit="10" stroke-linecap="round"/>
<path id="Vector_7" d="M3.08173 16.1921H5.99603" stroke="white" stroke-miterlimit="10" stroke-linecap="round"/>
<path id="Vector_8" d="M6.83374 7.04443L8.89477 9.10546" stroke="white" stroke-miterlimit="10" stroke-linecap="round"/>
<path id="Vector_9" d="M15.9556 3.22876V6.14306" stroke="white" stroke-miterlimit="10" stroke-linecap="round"/>
</g>
<g id="Group_3">
<path id="Vector_10" d="M28.919 20.9691L26.0084 19.8716" stroke="white" stroke-miterlimit="10" stroke-linecap="round"/>
<path id="Vector_11" d="M21.7257 28.6923L20.444 25.8579" stroke="white" stroke-miterlimit="10" stroke-linecap="round"/>
<path id="Vector_12" d="M11.1786 29.0666L12.2768 26.1553" stroke="white" stroke-miterlimit="10" stroke-linecap="round"/>
<path id="Vector_13" d="M3.45547 21.8736L6.29059 20.5911" stroke="white" stroke-miterlimit="10" stroke-linecap="round"/>
<path id="Vector_14" d="M3.08173 11.3254L5.99233 12.4237" stroke="white" stroke-miterlimit="10" stroke-linecap="round"/>
<path id="Vector_15" d="M10.275 3.60303L11.5568 6.43741" stroke="white" stroke-miterlimit="10" stroke-linecap="round"/>
<path id="Vector_16" d="M20.8221 3.22876L19.7239 6.13936" stroke="white" stroke-miterlimit="10" stroke-linecap="round"/>
<path id="Vector_17" d="M28.5445 10.4219L25.7101 11.7036" stroke="white" stroke-miterlimit="10" stroke-linecap="round"/>
</g>
<path id="Vector_18" d="M15.9556 8.56152V17.6264L19.7239 20.591" stroke="white" stroke-miterlimit="10" stroke-linecap="round"/>
</g>
</svg>
