<svg width="161" height="171" viewBox="0 0 161 171" fill="none" xmlns="http://www.w3.org/2000/svg">
<g id="logo = branco e laranja" clip-path="url(#clip0_272_522)">
<g id="CinzaClaro">
<g id="Group">
<path id="Vector" d="M123.946 42.8927H101.449L80.9329 22.4336L60.4164 42.8927H37.9198L80.9329 0L123.946 42.8927Z" fill="white"/>
<path id="Vector_2" d="M123.972 51.324L80.8727 94.2992L37.7767 51.324H61.0752L80.8727 71.5202L91.7935 61.088L81.4411 51.324H123.972Z" fill="#F0801F"/>
<g id="Group_2">
<path id="Vector_3" d="M31.347 143.108C28.7495 143.975 23.9347 145.06 19.4323 145.06C12.66 145.06 8.01461 143.375 4.91643 140.413C1.66391 137.365 -0.0263532 132.92 -1.71723e-06 127.995C0.0527012 116.035 8.97079 109.961 20.1589 109.961C24.8193 109.961 28.3617 110.79 30.1687 111.646L28.3128 119.011C26.3665 118.193 24.0363 117.555 20.1099 117.555C14.4143 117.555 9.70487 120.528 9.70487 127.522C9.70487 133.93 13.8759 137.657 19.534 137.657C20.8026 137.657 21.9922 137.541 22.4402 137.365V131.441H17.8211V124.282H31.3507V143.108H31.347Z" fill="white"/>
<path id="Vector_4" d="M45.5015 144.715L34.5317 110.302H44.6808L48.3399 123.831C49.4279 127.687 50.3765 131.452 51.2085 135.867H51.3101C52.1421 131.666 53.1283 127.687 54.1372 123.985L57.8867 110.302H67.7158L56.426 144.715H45.494H45.5015Z" fill="white"/>
<path id="Vector_5" d="M71.484 110.306H80.7259V136.993H94.0108V144.715H71.484V110.302V110.306Z" fill="white"/>
<path id="Vector_6" d="M107.909 136.738L105.963 144.715H96.4012L106.411 110.302H118.725L129.017 144.715H119.033L116.831 136.738H107.909ZM115.563 129.935L113.963 123.745C113.439 121.804 112.784 118.996 112.246 116.969H112.144C111.632 119 111.12 121.831 110.62 123.786L109.137 129.939H115.563V129.935Z" fill="white"/>
<path id="Vector_7" d="M133.433 110.775C136.045 110.366 139.96 110.036 144.579 110.036C149.865 110.036 153.655 110.764 156.253 112.716C158.466 114.401 159.656 116.853 159.656 120.22C159.656 124.507 156.43 127.559 153.742 128.543V128.723C156.035 129.706 157.273 131.902 158.158 134.887C159.193 138.385 160.334 143.386 161 144.715H151.555C151.032 143.72 150.136 141.025 149.134 136.79C148.201 132.668 146.932 131.812 144.079 131.812H142.58V144.715H133.429V110.775H133.433ZM142.584 125.198H144.99C148.472 125.198 150.482 123.501 150.482 120.922C150.482 118.343 148.78 116.875 145.709 116.849C143.969 116.849 143.047 116.939 142.584 117.052V125.194V125.198Z" fill="white"/>
</g>
<g id="Group_3">
<path id="Vector_8" d="M17.4071 156.911C17.4071 157.572 16.9177 158.158 16.1008 158.158C15.3441 158.158 14.8547 157.572 14.8547 156.911C14.8547 156.251 15.3742 155.665 16.1384 155.665C16.9026 155.665 17.3995 156.228 17.4071 156.911ZM15.1145 170.737V160.023H17.1398V170.737H15.1145Z" fill="white"/>
<path id="Vector_9" d="M29.1674 162.959C29.1674 161.889 29.1373 160.92 29.077 160.023H30.8388L30.948 161.885H31.0045C31.6482 160.815 32.7135 159.76 34.72 159.76C36.3275 159.76 37.5283 160.782 38.0064 162.08H38.0516C38.4167 161.446 38.8572 160.969 39.3165 160.631C40.0392 160.072 40.8072 159.764 41.9742 159.764C43.4009 159.764 45.8403 160.643 45.8403 164.701V170.745H43.864V164.903C43.864 162.602 42.9078 161.416 41.2552 161.416C40.0016 161.416 39.0605 162.298 38.6803 163.218C38.5749 163.499 38.492 163.852 38.492 164.198V170.741H36.5157V164.513C36.5157 162.632 35.5783 161.412 34.0311 161.412C32.642 161.412 31.6821 162.505 31.3169 163.424C31.204 163.713 31.1437 164.063 31.1437 164.4V170.741H29.1674V162.966V162.959Z" fill="white"/>
<path id="Vector_10" d="M69.1651 165.245C69.1651 169.153 66.1272 171 63.2323 171C59.9873 171 57.5103 168.763 57.5103 165.482C57.5103 162.005 60.0739 159.757 63.4205 159.757C66.7672 159.757 69.1614 162.137 69.1614 165.245H69.1651ZM59.592 165.41C59.592 167.952 61.286 169.51 63.3151 169.51C65.3442 169.51 67.0909 168.016 67.0909 165.335C67.0909 163.466 65.9691 161.251 63.3791 161.251C60.7891 161.251 59.5958 163.252 59.5958 165.41H59.592ZM66.3531 155.286L63.5109 158.522H62.0465L64.0755 155.286H66.3531Z" fill="white"/>
<path id="Vector_11" d="M83.0335 160.023L85.3901 166.026C85.8193 167.107 86.1317 167.967 86.4065 168.845H86.463C86.7528 167.956 87.1029 167.07 87.5095 166.026L89.8698 160.023H92.0269L87.3288 170.737H85.3487L80.8313 160.023H83.0298H83.0335Z" fill="white"/>
<path id="Vector_12" d="M105.639 165.801C105.685 168.214 107.488 169.431 109.694 169.431C111.309 169.431 112.246 169.157 113.067 168.834L113.428 170.264C112.717 170.568 111.429 171 109.441 171C105.899 171 103.697 168.778 103.697 165.583C103.697 162.388 105.76 159.757 109.227 159.757C113.168 159.757 114.098 163.075 114.098 164.9C114.098 165.305 114.072 165.602 114.019 165.797H105.636L105.639 165.801ZM112.137 164.352C112.152 163.432 111.727 161.18 109.076 161.18C106.795 161.18 105.85 163.034 105.666 164.352H112.137Z" fill="white"/>
<path id="Vector_13" d="M128.324 156.911C128.324 157.572 127.835 158.158 127.018 158.158C126.261 158.158 125.772 157.572 125.772 156.911C125.772 156.251 126.291 155.665 127.056 155.665C127.82 155.665 128.317 156.228 128.324 156.911ZM126.032 170.737V160.023H128.057V170.737H126.032Z" fill="white"/>
<path id="Vector_14" d="M140.487 168.684C141.146 169.089 142.294 169.513 143.36 169.513C144.937 169.513 145.615 168.778 145.615 167.907C145.615 166.927 144.956 166.461 143.412 165.988C141.293 165.354 140.325 164.258 140.329 162.955C140.329 161.236 141.771 159.757 144.293 159.757C145.471 159.757 146.514 160.057 147.166 160.451L146.669 161.912C146.254 161.66 145.355 161.232 144.207 161.232C142.976 161.232 142.298 161.893 142.298 162.737C142.298 163.68 143.047 164.074 144.572 164.558C146.627 165.211 147.583 166.124 147.587 167.76C147.587 169.573 146.104 171.004 143.311 171.004C142.004 171.004 140.845 170.681 139.994 170.215L140.487 168.684Z" fill="white"/>
</g>
</g>
</g>
</g>
<defs>
<clipPath id="clip0_272_522">
<rect width="161" height="171" fill="white"/>
</clipPath>
</defs>
</svg>
