<?xml version="1.0" encoding="UTF-8" standalone="no"?>
<!-- Created with Inkscape (http://www.inkscape.org/) -->

<svg
   version="1.1"
   id="svg2"
   xml:space="preserve"
   width="106.66615"
   height="64.360001"
   viewBox="0 0 106.66614 64.360001"
   sodipodi:docname="22ccd40787da6f6e6118ce4c49dbef20.ai"
   xmlns:inkscape="http://www.inkscape.org/namespaces/inkscape"
   xmlns:sodipodi="http://sodipodi.sourceforge.net/DTD/sodipodi-0.dtd"
   xmlns="http://www.w3.org/2000/svg"
   xmlns:svg="http://www.w3.org/2000/svg"><defs
     id="defs6"><clipPath
       clipPathUnits="userSpaceOnUse"
       id="clipPath16"><path
         d="M 0,48.27 H 80 V 0 H 0 Z"
         id="path14" /></clipPath></defs><sodipodi:namedview
     id="namedview4"
     pagecolor="#ffffff"
     bordercolor="#666666"
     borderopacity="1.0"
     inkscape:pageshadow="2"
     inkscape:pageopacity="0.0"
     inkscape:pagecheckerboard="0" /><g
     id="g8"
     inkscape:groupmode="layer"
     inkscape:label="22ccd40787da6f6e6118ce4c49dbef20"
     transform="matrix(1.3333333,0,0,-1.3333333,0,64.359998)"><g
       id="g10"><g
         id="g12"
         clip-path="url(#clipPath16)"><g
           id="g18"
           transform="translate(74.8563,48.27)"><path
             d="M 0,0 C -0.476,0 -0.862,-0.386 -0.862,-0.862 V -29.55 l -23.501,28.862 -1.409,-0.015 -2.231,-2.5 0.236,-24.421 -15.697,26.457 -5.585,-9.701 -5.248,9.769 -20.445,-35.713 c -0.237,-0.413 -0.094,-0.94 0.32,-1.177 0.135,-0.077 0.282,-0.114 0.427,-0.114 0.299,0 0.59,0.156 0.749,0.434 l 18.901,33.015 5.243,-9.761 5.66,9.83 17.461,-29.43 -0.291,30.162 1.183,1.326 25.951,-31.872 V -0.862 C 0.862,-0.386 0.476,0 0,0"
             style="fill:#ffffff;fill-opacity:1;fill-rule:nonzero;stroke:none"
             id="path20" /></g><g
           id="g22"
           transform="translate(25.2892,30.0351)"><path
             d="m 0,0 -1.614,2.795 c -1.468,2.541 -5.135,2.54 -6.602,0 l -2.306,-3.995 -9.77,-16.925 h 4.37 l 10.981,19.02 2.729,-4.727 z m 21.625,-18.125 -0.017,0.028 -9.801,16.978 -2.26,3.913 c -1.467,2.541 -5.135,2.54 -6.602,0 l -1.659,-2.876 2.164,-3.75 2.776,4.807 11.027,-19.1 z m 31.456,35.433 v -35.194 l -2.379,-2.378 h -0.991 l -1.327,1.812 -2.933,3.485 -1.786,2.124 -1.224,1.455 -1.785,2.122 -2.573,3.058 -1.785,2.122 -1.224,1.455 -1.785,2.122 -2.064,2.453 C 29.551,3.934 26.306,2.75 26.306,0.15 v -20.414 l -4.674,0.029 -0.024,-0.001 -4.355,-0.028 -9.465,16.415 C 7.094,-2.644 5.356,-2.643 4.659,-3.848 L 3.45,-5.943 0.677,-1.137 0.619,-1.039 0.609,-1.055 -2.212,-5.943 -3.377,-3.927 c -0.695,1.204 -2.433,1.204 -3.128,0 l -9.417,-16.309 h -6.809 l 1.219,2.111 10.99,19.037 5.607,9.711 5.524,-9.567 0.057,-0.098 0.011,0.016 5.569,9.649 5.561,-9.63 9.801,-16.976 1.237,-2.142 h 0.329 1.565 v 30.58 c 0.003,-0.003 0.006,-0.006 0.008,-0.009 0.031,-0.037 0.063,-0.075 0.093,-0.112 0.064,-0.078 0.128,-0.156 0.193,-0.233 0.096,-0.116 0.191,-0.231 0.287,-0.346 0.125,-0.152 0.25,-0.303 0.375,-0.455 0.154,-0.184 0.307,-0.369 0.46,-0.554 0.179,-0.216 0.356,-0.431 0.535,-0.647 0.203,-0.243 0.405,-0.488 0.607,-0.733 0.224,-0.27 0.449,-0.541 0.673,-0.811 0.243,-0.296 0.488,-0.59 0.732,-0.884 0.261,-0.317 0.523,-0.634 0.785,-0.95 0.278,-0.336 0.556,-0.671 0.835,-1.007 0.292,-0.353 0.584,-0.705 0.876,-1.059 0.305,-0.367 0.609,-0.735 0.913,-1.102 0.314,-0.38 0.629,-0.76 0.944,-1.14 0.078,-0.094 0.156,-0.188 0.234,-0.282 0.244,-0.297 0.489,-0.592 0.735,-0.888 0.329,-0.398 0.658,-0.796 0.987,-1.192 0.021,-0.025 0.042,-0.051 0.063,-0.076 0.313,-0.378 0.626,-0.755 0.938,-1.134 0.096,-0.115 0.191,-0.229 0.286,-0.345 0.243,-0.291 0.483,-0.583 0.724,-0.874 0.337,-0.406 0.674,-0.813 1.01,-1.221 0.018,-0.02 0.035,-0.041 0.051,-0.061 0.319,-0.385 0.638,-0.77 0.957,-1.155 0.332,-0.401 0.664,-0.803 0.997,-1.204 0.206,-0.249 0.412,-0.498 0.619,-0.747 0.12,-0.146 0.242,-0.292 0.363,-0.438 0.32,-0.387 0.64,-0.773 0.96,-1.16 0.154,-0.185 0.308,-0.372 0.462,-0.558 0.157,-0.19 0.314,-0.38 0.471,-0.569 0.251,-0.303 0.502,-0.606 0.753,-0.91 0.05,-0.059 0.098,-0.119 0.148,-0.178 0.286,-0.346 0.574,-0.693 0.861,-1.04 0.259,-0.313 0.518,-0.625 0.777,-0.938 0.014,-0.016 0.027,-0.033 0.041,-0.049 0.255,-0.309 0.511,-0.618 0.767,-0.927 0.238,-0.286 0.474,-0.573 0.711,-0.858 0.216,-0.262 0.433,-0.523 0.65,-0.785 0.194,-0.234 0.388,-0.469 0.582,-0.703 0.169,-0.204 0.338,-0.409 0.508,-0.614 0.143,-0.172 0.286,-0.345 0.429,-0.518 0.115,-0.138 0.23,-0.277 0.345,-0.416 0.084,-0.103 0.168,-0.204 0.254,-0.307 0.002,-0.002 0.004,-0.004 0.005,-0.007 0.307,-0.371 0.864,-0.404 1.205,-0.064 l 0.567,0.567 v 34.546 z"
             style="fill:#ffffff;fill-opacity:1;fill-rule:nonzero;stroke:none"
             id="path24" /></g><g
           id="g26"
           transform="translate(70.6788,45.3974)"><path
             d="m 0,0 v -11.207 c 0,-1.146 -0.929,-2.075 -2.075,-2.075 -0.308,0 -0.609,0.068 -0.88,0.196 -0.273,0.127 -0.518,0.314 -0.715,0.551 l -10.434,12.539 -0.549,0.66 c -0.259,0.31 -0.237,0.767 0.048,1.053 0.326,0.325 0.861,0.302 1.155,-0.052 l 0.457,-0.549 8.94,-10.743 c 0.842,-1.012 2.488,-0.416 2.488,0.9 v 8.699 c 0,0.417 0.314,0.78 0.729,0.808 C -0.598,0.797 -0.383,0.707 -0.23,0.553 -0.087,0.412 0,0.216 0,0"
             style="fill:#ffffff;fill-opacity:1;fill-rule:nonzero;stroke:none"
             id="path28" /></g><g
           id="g30"
           transform="translate(69.1462,11.0545)"><path
             d="m 0,0 c 0.259,-0.31 0.237,-0.767 -0.049,-1.053 -0.325,-0.326 -0.86,-0.302 -1.154,0.052 l -0.457,0.549 -8.94,10.743 c -0.842,1.012 -2.488,0.416 -2.488,-0.9 v -8.7 c 0,-0.416 -0.313,-0.78 -0.729,-0.808 -0.238,-0.016 -0.453,0.074 -0.607,0.228 -0.142,0.141 -0.229,0.337 -0.229,0.553 V 11.87 c 0,1.147 0.929,2.076 2.076,2.076 0.308,0 0.609,-0.069 0.88,-0.196 0.273,-0.128 0.518,-0.315 0.715,-0.552 L -0.549,0.66 Z"
             style="fill:#ffffff;fill-opacity:1;fill-rule:nonzero;stroke:none"
             id="path32" /></g><g
           id="g34"
           transform="translate(2.0666,3.1193)"><path
             d="M 0,0 V 2.716 H -1.173 V 3.022 H 8.971 V 2.716 h -8.5 L 0.471,0 Z"
             style="fill:#ffffff;fill-opacity:1;fill-rule:nonzero;stroke:none"
             id="path36" /></g><g
           id="g38"
           transform="translate(4.8046,4.4483)"><path
             d="M 0,0 H 1.664 C 1.664,0.103 1.645,0.195 1.608,0.277 1.57,0.359 1.517,0.429 1.449,0.489 1.38,0.548 1.298,0.593 1.203,0.624 1.108,0.654 1.001,0.669 0.882,0.669 0.776,0.669 0.675,0.656 0.58,0.631 0.485,0.605 0.398,0.564 0.318,0.508 0.239,0.452 0.171,0.382 0.116,0.299 0.061,0.215 0.022,0.115 0,0 m 1.001,-1.368 c -0.221,0 -0.422,0.025 -0.603,0.075 -0.181,0.05 -0.337,0.123 -0.468,0.219 -0.13,0.097 -0.231,0.216 -0.301,0.359 -0.071,0.143 -0.106,0.306 -0.106,0.49 0,0.186 0.036,0.351 0.109,0.496 0.073,0.145 0.172,0.266 0.298,0.364 0.126,0.098 0.274,0.173 0.445,0.224 0.17,0.051 0.35,0.077 0.54,0.077 0.172,0 0.333,-0.021 0.484,-0.063 C 1.549,0.831 1.679,0.768 1.79,0.682 1.9,0.597 1.988,0.488 2.052,0.356 2.116,0.224 2.148,0.068 2.148,-0.112 2.148,-0.138 2.147,-0.165 2.145,-0.192 2.142,-0.219 2.139,-0.246 2.135,-0.272 H -0.02 c 0.009,-0.14 0.042,-0.262 0.1,-0.366 0.057,-0.104 0.132,-0.189 0.225,-0.254 0.093,-0.066 0.2,-0.115 0.321,-0.147 0.122,-0.032 0.251,-0.047 0.388,-0.047 0.106,0 0.206,0.008 0.299,0.026 0.092,0.018 0.18,0.045 0.261,0.083 0.082,0.037 0.156,0.083 0.223,0.138 L 2.062,-1.028 C 1.978,-1.103 1.882,-1.166 1.773,-1.217 1.665,-1.269 1.547,-1.307 1.419,-1.331 1.29,-1.356 1.151,-1.368 1.001,-1.368"
             style="fill:#ffffff;fill-opacity:1;fill-rule:nonzero;stroke:none"
             id="path40" /></g><g
           id="g42"
           transform="translate(8.5967,3.1674)"><path
             d="m 0,0 c -0.186,0.058 -0.346,0.138 -0.481,0.241 -0.135,0.104 -0.239,0.225 -0.315,0.365 -0.075,0.14 -0.112,0.294 -0.112,0.461 0,0.165 0.037,0.317 0.112,0.457 0.076,0.14 0.18,0.261 0.315,0.365 C -0.346,1.992 -0.186,2.072 0,2.13 0.186,2.188 0.387,2.217 0.603,2.217 0.851,2.217 1.073,2.181 1.27,2.108 1.466,2.035 1.626,1.934 1.75,1.805 L 1.452,1.591 1.405,1.557 1.372,1.582 c 0,0.025 -0.008,0.05 -0.023,0.072 C 1.333,1.677 1.299,1.708 1.246,1.747 1.149,1.811 1.045,1.856 0.935,1.882 0.824,1.908 0.696,1.921 0.55,1.921 0.422,1.921 0.301,1.902 0.186,1.863 0.071,1.825 -0.032,1.769 -0.123,1.697 -0.213,1.624 -0.285,1.537 -0.338,1.434 -0.391,1.331 -0.418,1.217 -0.418,1.092 c 0,-0.126 0.027,-0.241 0.08,-0.345 C -0.285,0.642 -0.212,0.551 -0.119,0.474 -0.027,0.397 0.085,0.337 0.215,0.293 0.346,0.25 0.486,0.228 0.636,0.228 c 0.102,0 0.199,0.011 0.292,0.032 0.093,0.021 0.181,0.052 0.265,0.092 0.084,0.04 0.162,0.09 0.232,0.148 L 1.704,0.262 C 1.553,0.146 1.387,0.059 1.203,0 1.02,-0.058 0.822,-0.087 0.61,-0.087 0.389,-0.087 0.186,-0.058 0,0"
             style="fill:#ffffff;fill-opacity:1;fill-rule:nonzero;stroke:none"
             id="path44" /></g><g
           id="g46"
           transform="translate(11.1092,3.1193)"><path
             d="M 0,0 V 2.265 H 0.464 V 1.819 c 0.08,0.09 0.172,0.169 0.278,0.235 0.107,0.066 0.224,0.118 0.352,0.155 0.128,0.037 0.261,0.056 0.398,0.056 0.167,0 0.318,-0.031 0.45,-0.092 C 2.075,2.112 2.181,2.013 2.261,1.878 2.34,1.742 2.38,1.563 2.38,1.341 V 0 H 1.916 v 1.331 c 0,0.154 -0.025,0.278 -0.073,0.37 C 1.794,1.793 1.728,1.859 1.644,1.899 1.56,1.939 1.465,1.959 1.359,1.959 1.257,1.959 1.155,1.943 1.051,1.911 0.947,1.879 0.851,1.833 0.762,1.773 0.674,1.713 0.602,1.642 0.547,1.558 0.492,1.474 0.464,1.379 0.464,1.272 V 0 Z"
             style="fill:#ffffff;fill-opacity:1;fill-rule:nonzero;stroke:none"
             id="path48" /></g><g
           id="g50"
           transform="translate(15.6038,3.3715)"><path
             d="M 0,0 C 0.177,0 0.331,0.037 0.464,0.112 0.597,0.186 0.702,0.288 0.779,0.417 0.856,0.546 0.895,0.695 0.895,0.863 0.895,1.031 0.856,1.18 0.779,1.31 0.702,1.439 0.597,1.54 0.464,1.613 0.331,1.685 0.177,1.722 0,1.722 -0.172,1.722 -0.326,1.685 -0.461,1.613 -0.596,1.54 -0.702,1.439 -0.779,1.31 -0.856,1.18 -0.895,1.031 -0.895,0.863 -0.895,0.695 -0.856,0.546 -0.779,0.417 -0.702,0.288 -0.596,0.186 -0.461,0.112 -0.326,0.037 -0.172,0 0,0 m 0,-0.291 c -0.274,0 -0.516,0.049 -0.726,0.148 -0.21,0.099 -0.374,0.234 -0.494,0.407 -0.119,0.173 -0.179,0.371 -0.179,0.594 0,0.227 0.06,0.426 0.179,0.599 0.12,0.173 0.284,0.309 0.494,0.408 0.21,0.099 0.452,0.148 0.726,0.148 0.274,0 0.516,-0.049 0.726,-0.148 C 0.936,1.766 1.1,1.63 1.22,1.457 1.339,1.284 1.399,1.085 1.399,0.858 1.399,0.635 1.339,0.437 1.22,0.264 1.1,0.091 0.936,-0.044 0.726,-0.143 0.516,-0.242 0.274,-0.291 0,-0.291"
             style="fill:#ffffff;fill-opacity:1;fill-rule:nonzero;stroke:none"
             id="path52" /></g><g
           id="g54"
           transform="translate(17.785,3.1193)"><path
             d="m 0,0 v 0.281 h 0.895 v 2.435 h -7.02 V 3.022 H 1.379 V 0.281 H 2.267 V 0 Z"
             style="fill:#ffffff;fill-opacity:1;fill-rule:nonzero;stroke:none"
             id="path56" /></g><g
           id="g58"
           transform="translate(22.2332,3.3715)"><path
             d="M 0,0 C 0.177,0 0.331,0.037 0.464,0.112 0.597,0.186 0.702,0.288 0.779,0.417 0.856,0.546 0.895,0.695 0.895,0.863 0.895,1.031 0.856,1.18 0.779,1.31 0.702,1.439 0.597,1.54 0.464,1.613 0.331,1.685 0.177,1.722 0,1.722 -0.172,1.722 -0.326,1.685 -0.461,1.613 -0.596,1.54 -0.702,1.439 -0.779,1.31 -0.856,1.18 -0.895,1.031 -0.895,0.863 -0.895,0.695 -0.856,0.546 -0.779,0.417 -0.702,0.288 -0.596,0.186 -0.461,0.112 -0.326,0.037 -0.172,0 0,0 m 0,-0.291 c -0.274,0 -0.516,0.049 -0.726,0.148 -0.21,0.099 -0.374,0.234 -0.494,0.407 -0.119,0.173 -0.179,0.371 -0.179,0.594 0,0.227 0.06,0.426 0.179,0.599 0.12,0.173 0.284,0.309 0.494,0.408 0.21,0.099 0.452,0.148 0.726,0.148 0.274,0 0.516,-0.049 0.726,-0.148 C 0.936,1.766 1.1,1.63 1.22,1.457 1.339,1.284 1.399,1.085 1.399,0.858 1.399,0.635 1.339,0.437 1.22,0.264 1.1,0.091 0.936,-0.044 0.726,-0.143 0.516,-0.242 0.274,-0.291 0,-0.291"
             style="fill:#ffffff;fill-opacity:1;fill-rule:nonzero;stroke:none"
             id="path60" /></g><g
           id="g62"
           transform="translate(26.2706,4.9672)"><path
             d="M 0,0 -0.186,0.16 C -0.057,0.254 0.076,0.325 0.215,0.366 0.57,0.472 0.77,0.462 1.064,0.369 L 1.124,0.087 C 0.84,0.198 0.664,0.188 0.358,0.121 0.232,0.094 0.11,0.065 0,0 m -0.882,-0.81 c 0.128,0 0.242,0.021 0.342,0.064 0.099,0.042 0.177,0.099 0.235,0.171 0.057,0.072 0.086,0.151 0.086,0.236 0,0.087 -0.029,0.166 -0.086,0.237 -0.058,0.071 -0.136,0.127 -0.235,0.169 -0.1,0.043 -0.214,0.064 -0.342,0.064 -0.128,0 -0.242,-0.021 -0.341,-0.064 -0.1,-0.042 -0.178,-0.098 -0.235,-0.169 -0.058,-0.071 -0.087,-0.15 -0.087,-0.237 0,-0.085 0.029,-0.164 0.087,-0.236 0.057,-0.072 0.135,-0.129 0.235,-0.171 0.099,-0.043 0.213,-0.064 0.341,-0.064 m 0,-0.291 c -0.216,0 -0.404,0.034 -0.563,0.102 -0.159,0.069 -0.282,0.161 -0.368,0.276 -0.086,0.116 -0.129,0.244 -0.129,0.383 0,0.14 0.043,0.267 0.129,0.381 0.086,0.114 0.209,0.206 0.368,0.274 0.159,0.068 0.347,0.102 0.563,0.102 0.221,0 0.41,-0.034 0.567,-0.102 C -0.158,0.247 -0.037,0.155 0.05,0.041 0.136,-0.073 0.179,-0.2 0.179,-0.34 0.179,-0.479 0.136,-0.607 0.05,-0.723 -0.037,-0.838 -0.158,-0.93 -0.315,-0.999 -0.472,-1.067 -0.661,-1.101 -0.882,-1.101 m 0.14,-1.581 c -0.213,0 -0.404,0.012 -0.574,0.036 -0.17,0.024 -0.316,0.06 -0.437,0.106 -0.122,0.047 -0.215,0.106 -0.279,0.177 -0.064,0.071 -0.096,0.155 -0.096,0.251 0,0.091 0.026,0.171 0.079,0.242 0.054,0.071 0.123,0.13 0.209,0.177 0.087,0.046 0.18,0.081 0.282,0.104 l 0.199,-0.087 c -0.08,-0.036 -0.144,-0.071 -0.192,-0.107 -0.049,-0.035 -0.084,-0.076 -0.106,-0.123 -0.022,-0.047 -0.034,-0.102 -0.034,-0.166 0,-0.055 0.023,-0.104 0.067,-0.148 0.044,-0.043 0.107,-0.079 0.189,-0.108 0.081,-0.029 0.181,-0.052 0.298,-0.068 0.117,-0.016 0.251,-0.024 0.401,-0.024 0.203,0 0.368,0.015 0.494,0.046 0.126,0.03 0.22,0.072 0.282,0.125 0.062,0.053 0.093,0.113 0.093,0.181 0,0.071 -0.018,0.129 -0.053,0.174 -0.036,0.045 -0.109,0.079 -0.219,0.102 -0.111,0.022 -0.279,0.033 -0.504,0.033 -0.155,0 -0.296,0.005 -0.424,0.015 -0.129,0.01 -0.243,0.026 -0.345,0.048 -0.102,0.023 -0.187,0.051 -0.255,0.085 -0.069,0.034 -0.121,0.075 -0.156,0.123 -0.036,0.049 -0.053,0.105 -0.053,0.169 0,0.084 0.032,0.165 0.096,0.243 0.064,0.077 0.151,0.151 0.262,0.222 l 0.225,-0.131 c -0.044,-0.035 -0.079,-0.067 -0.106,-0.094 -0.026,-0.027 -0.045,-0.053 -0.056,-0.077 -0.011,-0.025 -0.017,-0.051 -0.017,-0.08 0,-0.052 0.028,-0.094 0.083,-0.126 0.055,-0.032 0.151,-0.056 0.289,-0.07 0.136,-0.015 0.322,-0.022 0.556,-0.022 0.235,0 0.425,-0.014 0.571,-0.041 C 0.172,-1.523 0.284,-1.562 0.361,-1.614 0.438,-1.665 0.493,-1.725 0.524,-1.792 0.555,-1.86 0.57,-1.934 0.57,-2.015 0.57,-2.102 0.547,-2.185 0.5,-2.264 0.454,-2.343 0.38,-2.414 0.278,-2.477 0.177,-2.54 0.042,-2.589 -0.126,-2.627 -0.294,-2.664 -0.5,-2.682 -0.742,-2.682"
             style="fill:#ffffff;fill-opacity:1;fill-rule:nonzero;stroke:none"
             id="path64" /></g><g
           id="g66"
           transform="translate(28.856,5.8015)"><path
             d="m 0,0 c -0.093,0 -0.172,0.024 -0.239,0.073 -0.066,0.048 -0.099,0.106 -0.099,0.174 0,0.071 0.032,0.131 0.096,0.18 C -0.178,0.475 -0.097,0.5 0,0.5 0.093,0.5 0.173,0.474 0.242,0.424 0.31,0.374 0.345,0.315 0.345,0.247 0.345,0.179 0.31,0.121 0.242,0.073 0.173,0.024 0.093,0 0,0 m -0.988,-2.682 v 0.281 h 0.776 v 1.654 h -1.013 v 0.281 h 1.49 v -1.935 h 0.709 v -0.281 z"
             style="fill:#ffffff;fill-opacity:1;fill-rule:nonzero;stroke:none"
             id="path68" /></g><g
           id="g70"
           transform="translate(31.9187,3.0804)"><path
             d="m 0,0 c -0.345,0 -0.61,0.057 -0.796,0.172 -0.185,0.114 -0.278,0.26 -0.278,0.437 0,0.119 0.04,0.226 0.119,0.321 0.08,0.095 0.189,0.176 0.329,0.242 0.139,0.066 0.301,0.117 0.487,0.152 0.185,0.036 0.382,0.054 0.59,0.054 0.075,0 0.151,-10e-4 0.229,-0.003 C 0.757,1.373 0.839,1.37 0.925,1.365 1.011,1.361 1.1,1.353 1.193,1.344 L 1.207,1.077 C 1.127,1.086 1.046,1.094 0.965,1.099 0.883,1.104 0.802,1.108 0.723,1.111 0.643,1.114 0.566,1.116 0.491,1.116 0.331,1.116 0.186,1.106 0.053,1.087 -0.079,1.067 -0.195,1.038 -0.292,1 -0.389,0.961 -0.464,0.911 -0.517,0.85 -0.57,0.789 -0.597,0.715 -0.597,0.628 c 0,-0.067 0.017,-0.124 0.05,-0.171 0.033,-0.046 0.079,-0.083 0.136,-0.111 0.057,-0.027 0.125,-0.047 0.202,-0.06 0.078,-0.013 0.163,-0.019 0.255,-0.019 0.173,0 0.326,0.02 0.461,0.06 0.135,0.04 0.25,0.098 0.345,0.176 C 0.947,0.579 1.019,0.674 1.067,0.786 1.116,0.899 1.14,1.027 1.14,1.171 1.14,1.389 1.105,1.559 1.034,1.681 0.964,1.803 0.859,1.889 0.719,1.941 0.58,1.992 0.402,2.018 0.186,2.018 0.04,2.018 -0.104,1.997 -0.245,1.957 -0.387,1.917 -0.515,1.854 -0.63,1.77 l -0.232,0.223 c 0.142,0.104 0.305,0.182 0.491,0.233 0.185,0.052 0.382,0.078 0.59,0.078 0.199,0 0.38,-0.018 0.543,-0.053 C 0.926,2.215 1.066,2.156 1.183,2.074 1.3,1.991 1.391,1.88 1.455,1.741 1.519,1.602 1.551,1.428 1.551,1.217 V 0.039 H 1.034 V 0.393 C 0.977,0.312 0.907,0.246 0.825,0.194 0.744,0.142 0.656,0.103 0.564,0.075 0.471,0.048 0.376,0.028 0.279,0.017 0.181,0.006 0.088,0 0,0"
             style="fill:#ffffff;fill-opacity:1;fill-rule:nonzero;stroke:none"
             id="path72" /></g><g
           id="g74"
           transform="translate(38.6144,4.9207)"><path
             d="m 0,0 c 0.08,0.029 0.15,0.065 0.212,0.107 0.062,0.041 0.115,0.089 0.159,0.142 0.044,0.054 0.078,0.108 0.1,0.165 0.022,0.056 0.033,0.11 0.033,0.162 0,0.106 -0.045,0.196 -0.136,0.269 C 0.277,0.917 0.172,0.954 0.053,0.954 -0.027,0.954 -0.102,0.939 -0.172,0.91 -0.243,0.881 -0.299,0.84 -0.341,0.787 -0.383,0.733 -0.404,0.671 -0.404,0.6 -0.404,0.549 -0.39,0.492 -0.361,0.431 -0.333,0.369 -0.287,0.303 -0.225,0.232 -0.164,0.161 -0.088,0.084 0,0 m -0.146,-1.544 c 0.106,0 0.207,0.013 0.302,0.041 0.095,0.027 0.187,0.066 0.275,0.116 0.088,0.05 0.172,0.109 0.252,0.176 l -0.842,0.838 c -0.089,-0.039 -0.167,-0.085 -0.235,-0.14 -0.069,-0.055 -0.128,-0.113 -0.176,-0.175 -0.049,-0.061 -0.086,-0.124 -0.113,-0.188 -0.026,-0.065 -0.04,-0.129 -0.04,-0.194 0,-0.068 0.016,-0.13 0.047,-0.186 0.031,-0.057 0.073,-0.107 0.126,-0.15 0.053,-0.044 0.114,-0.078 0.182,-0.102 0.069,-0.024 0.143,-0.036 0.222,-0.036 M 1.293,-1.86 0.928,-1.438 C 0.84,-1.522 0.736,-1.596 0.617,-1.659 0.497,-1.722 0.369,-1.77 0.232,-1.804 0.095,-1.838 -0.046,-1.855 -0.192,-1.855 c -0.199,0 -0.377,0.033 -0.534,0.1 -0.157,0.066 -0.28,0.154 -0.368,0.266 -0.088,0.111 -0.132,0.233 -0.132,0.365 0,0.104 0.019,0.202 0.059,0.296 0.04,0.094 0.096,0.182 0.169,0.266 0.073,0.084 0.162,0.162 0.266,0.233 0.103,0.071 0.217,0.132 0.341,0.184 -0.155,0.139 -0.272,0.271 -0.351,0.397 -0.08,0.126 -0.12,0.244 -0.12,0.353 0,0.091 0.023,0.175 0.07,0.252 0.046,0.078 0.111,0.145 0.195,0.201 0.084,0.057 0.182,0.101 0.292,0.133 0.11,0.033 0.228,0.049 0.351,0.049 0.182,0 0.339,-0.031 0.471,-0.092 C 0.65,1.086 0.754,1.008 0.829,0.913 0.904,0.818 0.941,0.715 0.941,0.605 0.941,0.528 0.924,0.448 0.888,0.366 0.853,0.283 0.803,0.206 0.739,0.133 0.675,0.061 0.6,-0.006 0.514,-0.065 0.428,-0.125 0.331,-0.173 0.225,-0.208 l 0.743,-0.76 c 0.057,0.048 0.104,0.093 0.139,0.135 0.035,0.042 0.064,0.082 0.086,0.119 0.022,0.037 0.039,0.075 0.05,0.114 0.011,0.039 0.019,0.079 0.023,0.121 0,0.01 0.002,0.019 0.007,0.027 0.004,0.008 0.011,0.015 0.02,0.022 L 1.724,-0.648 C 1.675,-0.713 1.623,-0.777 1.568,-0.84 1.513,-0.903 1.456,-0.965 1.399,-1.027 1.341,-1.088 1.282,-1.149 1.22,-1.211 l 0.464,-0.435 z"
             style="fill:#ffffff;fill-opacity:1;fill-rule:nonzero;stroke:none"
             id="path76" /></g><g
           id="g78"
           transform="translate(45.0383,3.1557)"><path
             d="m 0,0 c -0.195,0.06 -0.366,0.153 -0.514,0.279 -0.148,0.126 -0.264,0.286 -0.348,0.48 -0.084,0.194 -0.126,0.425 -0.126,0.694 0,0.236 0.031,0.442 0.093,0.618 0.062,0.176 0.146,0.324 0.252,0.444 0.106,0.119 0.227,0.215 0.364,0.286 0.137,0.071 0.281,0.123 0.431,0.155 C 0.303,2.988 0.453,3.005 0.603,3.005 0.904,3.005 1.16,2.95 1.372,2.842 1.584,2.734 1.743,2.589 1.85,2.408 L 1.452,2.272 1.392,2.253 1.372,2.287 c 0.013,0.026 0.013,0.049 0,0.07 C 1.359,2.378 1.335,2.411 1.299,2.457 1.189,2.566 1.075,2.64 0.958,2.677 0.841,2.714 0.718,2.733 0.59,2.733 0.418,2.733 0.262,2.705 0.123,2.648 -0.017,2.592 -0.136,2.509 -0.235,2.401 -0.335,2.292 -0.41,2.161 -0.461,2.006 -0.512,1.85 -0.537,1.674 -0.537,1.477 c 0,-0.191 0.03,-0.364 0.089,-0.519 0.06,-0.155 0.142,-0.29 0.246,-0.403 0.104,-0.113 0.225,-0.2 0.364,-0.262 0.14,-0.061 0.289,-0.092 0.448,-0.092 0.11,0 0.218,0.015 0.321,0.044 0.104,0.029 0.2,0.072 0.289,0.128 C 1.308,0.43 1.383,0.495 1.445,0.57 L 1.79,0.405 C 1.657,0.243 1.498,0.12 1.313,0.036 1.127,-0.048 0.899,-0.09 0.63,-0.09 0.404,-0.09 0.194,-0.06 0,0"
             style="fill:#ffffff;fill-opacity:1;fill-rule:nonzero;stroke:none"
             id="path80" /></g><g
           id="g82"
           transform="translate(48.7507,3.3715)"><path
             d="M 0,0 C 0.177,0 0.331,0.037 0.464,0.112 0.597,0.186 0.702,0.288 0.779,0.417 0.856,0.546 0.895,0.695 0.895,0.863 0.895,1.031 0.856,1.18 0.779,1.31 0.702,1.439 0.597,1.54 0.464,1.613 0.331,1.685 0.177,1.722 0,1.722 -0.172,1.722 -0.326,1.685 -0.461,1.613 -0.596,1.54 -0.702,1.439 -0.779,1.31 -0.856,1.18 -0.895,1.031 -0.895,0.863 -0.895,0.695 -0.856,0.546 -0.779,0.417 -0.702,0.288 -0.596,0.186 -0.461,0.112 -0.326,0.037 -0.172,0 0,0 m 0,-0.291 c -0.274,0 -0.516,0.049 -0.726,0.148 -0.21,0.099 -0.374,0.234 -0.494,0.407 -0.119,0.173 -0.179,0.371 -0.179,0.594 0,0.227 0.06,0.426 0.179,0.599 0.12,0.173 0.284,0.309 0.494,0.408 0.21,0.099 0.452,0.148 0.726,0.148 0.274,0 0.516,-0.049 0.726,-0.148 C 0.936,1.766 1.1,1.63 1.22,1.457 1.339,1.284 1.399,1.085 1.399,0.858 1.399,0.635 1.339,0.437 1.22,0.264 1.1,0.091 0.936,-0.044 0.726,-0.143 0.516,-0.242 0.274,-0.291 0,-0.291"
             style="fill:#ffffff;fill-opacity:1;fill-rule:nonzero;stroke:none"
             id="path84" /></g><g
           id="g86"
           transform="translate(50.66,3.1193)"><path
             d="M 0,0 V 2.217 H 0.438 V 1.993 c 0.048,0.055 0.104,0.103 0.169,0.144 0.064,0.04 0.134,0.071 0.212,0.094 0.077,0.023 0.156,0.034 0.235,0.034 0.088,0 0.17,-0.014 0.245,-0.041 C 1.374,2.196 1.437,2.158 1.488,2.11 1.539,2.061 1.573,2.005 1.591,1.94 1.631,2.005 1.685,2.061 1.753,2.11 1.822,2.158 1.902,2.196 1.992,2.224 2.083,2.251 2.177,2.265 2.274,2.265 2.376,2.265 2.464,2.25 2.539,2.221 2.614,2.192 2.676,2.153 2.725,2.103 2.773,2.053 2.809,1.993 2.831,1.924 2.853,1.854 2.862,1.779 2.857,1.699 V 0 H 2.42 V 1.568 C 2.42,1.703 2.408,1.802 2.383,1.863 2.359,1.924 2.325,1.964 2.281,1.981 2.236,1.999 2.188,2.008 2.135,2.008 2.051,2.008 1.972,1.98 1.899,1.923 1.826,1.867 1.767,1.797 1.72,1.713 1.674,1.629 1.651,1.545 1.651,1.461 V 0 H 1.207 v 1.539 c 0,0.184 -0.024,0.306 -0.07,0.367 C 1.091,1.968 1.003,1.998 0.875,1.998 0.826,1.998 0.777,1.986 0.726,1.962 0.675,1.938 0.628,1.904 0.583,1.86 0.539,1.817 0.504,1.763 0.477,1.698 0.451,1.634 0.438,1.56 0.438,1.476 V 0 Z"
             style="fill:#ffffff;fill-opacity:1;fill-rule:nonzero;stroke:none"
             id="path88" /></g><g
           id="g90"
           transform="translate(55.1878,3.0804)"><path
             d="m 0,0 c -0.119,0 -0.232,0.013 -0.338,0.039 -0.106,0.025 -0.202,0.065 -0.288,0.118 -0.087,0.053 -0.161,0.119 -0.223,0.2 -0.061,0.08 -0.109,0.176 -0.142,0.289 -0.033,0.112 -0.05,0.239 -0.05,0.381 l 0.007,1.228 H -0.57 V 1.028 C -0.57,0.89 -0.552,0.772 -0.517,0.676 -0.482,0.58 -0.432,0.503 -0.368,0.445 -0.304,0.387 -0.23,0.346 -0.146,0.32 -0.062,0.294 0.027,0.281 0.119,0.281 c 0.106,0 0.208,0.016 0.305,0.046 0.097,0.031 0.185,0.076 0.262,0.137 0.077,0.061 0.138,0.14 0.182,0.236 0.045,0.096 0.067,0.21 0.067,0.342 V 2.255 H 1.399 V 0.383 C 1.399,0.325 1.402,0.268 1.409,0.211 1.415,0.154 1.434,0.097 1.465,0.039 H 1.008 C 0.986,0.079 0.97,0.119 0.961,0.158 0.952,0.197 0.947,0.236 0.945,0.277 0.942,0.317 0.941,0.356 0.941,0.393 0.893,0.331 0.835,0.277 0.769,0.228 0.703,0.179 0.629,0.138 0.547,0.104 0.465,0.07 0.379,0.044 0.288,0.027 0.198,0.009 0.102,0 0,0"
             style="fill:#ffffff;fill-opacity:1;fill-rule:nonzero;stroke:none"
             id="path92" /></g><g
           id="g94"
           transform="translate(57.5147,3.1193)"><path
             d="M 0,0 V 2.217 H 0.464 V 1.819 c 0.08,0.09 0.172,0.169 0.278,0.235 0.107,0.066 0.224,0.118 0.352,0.155 0.128,0.037 0.261,0.056 0.398,0.056 0.167,0 0.318,-0.031 0.45,-0.092 C 2.075,2.112 2.181,2.013 2.261,1.878 2.34,1.742 2.38,1.563 2.38,1.341 V 0 H 1.916 v 1.331 c 0,0.154 -0.025,0.278 -0.073,0.37 C 1.794,1.793 1.728,1.859 1.644,1.899 1.56,1.939 1.465,1.959 1.359,1.959 1.257,1.959 1.155,1.943 1.051,1.911 0.947,1.879 0.851,1.833 0.762,1.773 0.674,1.713 0.602,1.642 0.547,1.558 0.492,1.474 0.464,1.379 0.464,1.272 V 0 Z"
             style="fill:#ffffff;fill-opacity:1;fill-rule:nonzero;stroke:none"
             id="path96" /></g><g
           id="g98"
           transform="translate(62.0029,5.8015)"><path
             d="m 0,0 c -0.093,0 -0.172,0.024 -0.239,0.073 -0.066,0.048 -0.099,0.106 -0.099,0.174 0,0.071 0.032,0.131 0.096,0.18 C -0.178,0.475 -0.097,0.5 0,0.5 0.093,0.5 0.173,0.474 0.242,0.424 0.31,0.374 0.345,0.315 0.345,0.247 0.345,0.179 0.31,0.121 0.242,0.073 0.173,0.024 0.093,0 0,0 m -0.988,-2.682 v 0.281 h 0.776 v 1.654 h -0.736 v 0.281 h 1.213 v -1.935 h 0.709 v -0.281 z"
             style="fill:#ffffff;fill-opacity:1;fill-rule:nonzero;stroke:none"
             id="path100" /></g><g
           id="g102"
           transform="translate(64.9463,3.1674)"><path
             d="m 0,0 c -0.186,0.058 -0.346,0.138 -0.481,0.241 -0.135,0.104 -0.239,0.225 -0.315,0.365 -0.075,0.14 -0.112,0.294 -0.112,0.461 0,0.165 0.037,0.317 0.112,0.457 0.076,0.14 0.18,0.261 0.315,0.365 C -0.346,1.992 -0.186,2.072 0,2.13 0.186,2.188 0.387,2.217 0.603,2.217 0.851,2.217 1.073,2.181 1.27,2.108 1.466,2.035 1.626,1.934 1.75,1.805 L 1.452,1.591 1.405,1.557 1.372,1.582 c 0,0.025 -0.008,0.05 -0.023,0.072 C 1.333,1.677 1.299,1.708 1.246,1.747 1.149,1.811 1.045,1.856 0.935,1.882 0.824,1.908 0.696,1.921 0.55,1.921 0.422,1.921 0.301,1.902 0.186,1.863 0.071,1.825 -0.032,1.769 -0.123,1.697 -0.213,1.624 -0.285,1.537 -0.338,1.434 -0.391,1.331 -0.418,1.217 -0.418,1.092 c 0,-0.126 0.027,-0.241 0.08,-0.345 C -0.285,0.642 -0.212,0.551 -0.119,0.474 -0.027,0.397 0.085,0.337 0.215,0.293 0.346,0.25 0.486,0.228 0.636,0.228 c 0.102,0 0.199,0.011 0.292,0.032 0.093,0.021 0.181,0.052 0.265,0.092 0.084,0.04 0.162,0.09 0.232,0.148 L 1.704,0.262 C 1.553,0.146 1.387,0.059 1.203,0 1.02,-0.058 0.822,-0.087 0.61,-0.087 0.389,-0.087 0.186,-0.058 0,0"
             style="fill:#ffffff;fill-opacity:1;fill-rule:nonzero;stroke:none"
             id="path104" /></g><g
           id="g106"
           transform="translate(67.9364,3.0713)"><path
             d="m 0,0 c -0.359,0 -0.61,0.061 -0.754,0.184 -0.137,0.117 -0.162,0.317 -0.085,0.48 0.044,0.094 0.112,0.179 0.205,0.257 0.112,0.094 0.249,0.174 0.411,0.239 0.162,0.066 0.342,0.116 0.54,0.151 0.198,0.035 0.4,0.053 0.608,0.053 C 1,1.364 1.076,1.363 1.153,1.361 1.23,1.359 1.311,1.356 1.395,1.352 1.48,1.347 1.567,1.34 1.656,1.33 L 1.577,1.066 C 1.501,1.075 1.423,1.083 1.343,1.087 1.263,1.092 1.184,1.096 1.105,1.099 1.027,1.103 0.95,1.104 0.875,1.104 0.716,1.104 0.567,1.095 0.427,1.076 0.288,1.056 0.163,1.028 0.053,0.99 -0.058,0.951 -0.15,0.902 -0.224,0.842 -0.298,0.781 -0.35,0.708 -0.38,0.622 -0.403,0.555 -0.407,0.499 -0.389,0.453 -0.372,0.406 -0.34,0.37 -0.292,0.343 -0.244,0.316 -0.183,0.296 -0.11,0.283 -0.037,0.27 0.045,0.264 0.138,0.264 c 0.173,0 0.333,0.02 0.482,0.06 0.148,0.039 0.283,0.097 0.405,0.173 0.121,0.077 0.226,0.17 0.313,0.281 C 1.425,0.889 1.494,1.016 1.544,1.159 1.619,1.375 1.642,1.543 1.613,1.664 1.584,1.785 1.509,1.87 1.388,1.921 1.266,1.972 1.097,1.997 0.881,1.997 0.735,1.997 0.584,1.977 0.429,1.937 0.311,1.907 0.196,1.864 0.084,1.808 0.024,1.778 -0.049,1.794 -0.088,1.849 v 0 C -0.136,1.917 -0.11,2.011 -0.036,2.047 0.101,2.113 0.245,2.166 0.396,2.204 0.599,2.255 0.805,2.28 1.012,2.28 1.211,2.28 1.386,2.263 1.538,2.228 1.689,2.192 1.809,2.134 1.898,2.052 1.986,1.971 2.039,1.861 2.055,1.724 2.071,1.586 2.043,1.413 1.971,1.205 L 1.622,0.202 C 1.588,0.104 1.495,0.038 1.391,0.038 1.223,0.038 1.105,0.204 1.161,0.363 L 1.17,0.389 C 1.084,0.309 0.992,0.243 0.892,0.192 0.793,0.141 0.692,0.102 0.589,0.074 0.487,0.047 0.385,0.028 0.284,0.017 0.183,0.006 0.088,0 0,0"
             style="fill:#ffffff;fill-opacity:1;fill-rule:nonzero;stroke:none"
             id="path108" /></g><g
           id="g110"
           transform="translate(71.4178,2.1783)"><path
             d="m 0,0 c -0.115,0 -0.223,0.012 -0.326,0.036 -0.025,0.006 -0.05,0.013 -0.075,0.021 -0.099,0.031 -0.121,0.162 -0.042,0.23 v 0 c 0.042,0.036 0.102,0.042 0.15,0.017 0.048,-0.026 0.1,-0.046 0.155,-0.061 0.087,-0.025 0.186,-0.037 0.296,-0.037 0.115,0 0.204,0.016 0.268,0.046 C 0.489,0.283 0.531,0.325 0.55,0.379 0.567,0.431 0.55,0.47 0.498,0.497 0.445,0.524 0.368,0.538 0.267,0.538 H 0.068 L 0.283,0.946 H 0.574 L 0.456,0.72 C 0.586,0.714 0.687,0.695 0.758,0.663 0.828,0.631 0.876,0.592 0.9,0.547 0.924,0.503 0.928,0.456 0.911,0.408 0.873,0.299 0.777,0.204 0.623,0.123 0.468,0.041 0.261,0 0,0 m -0.256,0.979 c -0.166,0.057 -0.298,0.137 -0.397,0.239 -0.1,0.102 -0.163,0.222 -0.19,0.361 -0.027,0.139 -0.011,0.291 0.046,0.457 0.057,0.162 0.147,0.313 0.27,0.451 0.124,0.139 0.271,0.259 0.441,0.361 C 0.084,2.95 0.272,3.03 0.478,3.087 0.683,3.145 0.894,3.173 1.111,3.173 1.358,3.173 1.568,3.138 1.74,3.066 1.796,3.042 1.848,3.015 1.895,2.985 2.024,2.901 2.016,2.709 1.882,2.633 v 0 C 1.801,2.587 1.699,2.601 1.633,2.667 1.617,2.683 1.602,2.698 1.592,2.708 1.517,2.772 1.429,2.817 1.327,2.842 1.225,2.868 1.102,2.881 0.956,2.881 0.828,2.881 0.7,2.862 0.571,2.823 0.443,2.785 0.321,2.73 0.206,2.659 0.09,2.587 -0.012,2.5 -0.1,2.398 -0.189,2.297 -0.254,2.184 -0.298,2.06 -0.341,1.935 -0.354,1.822 -0.337,1.718 -0.32,1.615 -0.278,1.525 -0.212,1.449 -0.146,1.372 -0.055,1.312 0.061,1.27 0.176,1.226 0.309,1.205 0.459,1.205 c 0.102,0 0.203,0.01 0.303,0.031 0.1,0.021 0.199,0.051 0.297,0.092 C 1.12,1.353 1.181,1.382 1.24,1.414 1.301,1.447 1.378,1.431 1.422,1.377 v 0 C 1.484,1.304 1.461,1.192 1.375,1.148 1.236,1.077 1.093,1.021 0.947,0.979 0.744,0.922 0.536,0.893 0.324,0.893 c -0.221,0 -0.414,0.029 -0.58,0.086"
             style="fill:#ffffff;fill-opacity:1;fill-rule:nonzero;stroke:none"
             id="path112" /></g><g
           id="g114"
           transform="translate(76.881,6.3165)"><path
             d="m 0,0 v 0 c 0.087,-0.045 0.096,-0.164 0.02,-0.225 -0.082,-0.065 -0.157,-0.114 -0.225,-0.147 -0.109,-0.053 -0.23,-0.079 -0.362,-0.079 -0.097,0 -0.18,0.013 -0.249,0.038 -0.068,0.026 -0.128,0.056 -0.18,0.092 -0.052,0.035 -0.105,0.065 -0.16,0.091 -0.056,0.025 -0.121,0.038 -0.196,0.038 -0.075,0 -0.148,-0.016 -0.219,-0.048 -0.055,-0.025 -0.113,-0.065 -0.175,-0.122 -0.036,-0.034 -0.089,-0.043 -0.135,-0.026 v 0 c -0.1,0.036 -0.121,0.169 -0.037,0.233 0.057,0.043 0.117,0.082 0.182,0.117 0.136,0.073 0.29,0.11 0.463,0.11 0.097,0 0.178,-0.013 0.241,-0.038 0.064,-0.026 0.121,-0.056 0.171,-0.091 0.05,-0.036 0.102,-0.066 0.157,-0.092 0.055,-0.025 0.123,-0.038 0.202,-0.038 0.071,0 0.135,0.016 0.193,0.048 0.043,0.024 0.096,0.064 0.159,0.12 C -0.109,0.018 -0.049,0.025 0,0 m -2.315,-3.245 c -0.359,0 -0.61,0.061 -0.754,0.184 -0.137,0.117 -0.162,0.317 -0.085,0.48 0.044,0.094 0.112,0.179 0.205,0.257 0.112,0.094 0.249,0.173 0.411,0.239 0.162,0.065 0.342,0.116 0.54,0.151 0.198,0.035 0.4,0.052 0.608,0.052 0.075,0 0.151,-0.001 0.228,-0.002 0.077,-0.002 0.158,-0.005 0.242,-0.01 0.084,-0.005 0.171,-0.012 0.261,-0.021 l -0.079,-0.264 c -0.076,0.009 -0.154,0.016 -0.234,0.021 -0.08,0.005 -0.16,0.009 -0.238,0.012 -0.078,0.003 -0.155,0.005 -0.23,0.005 -0.159,0 -0.309,-0.01 -0.448,-0.029 -0.139,-0.019 -0.264,-0.047 -0.374,-0.086 -0.111,-0.038 -0.203,-0.087 -0.277,-0.148 -0.074,-0.06 -0.126,-0.133 -0.156,-0.219 -0.024,-0.067 -0.027,-0.123 -0.01,-0.17 0.018,-0.046 0.05,-0.082 0.098,-0.109 0.048,-0.027 0.109,-0.047 0.182,-0.06 0.072,-0.013 0.155,-0.019 0.248,-0.019 0.173,0 0.333,0.02 0.482,0.059 0.148,0.04 0.283,0.098 0.405,0.174 0.121,0.076 0.226,0.17 0.313,0.281 0.087,0.111 0.156,0.238 0.206,0.381 0.075,0.216 0.098,0.384 0.069,0.505 -0.029,0.12 -0.104,0.206 -0.225,0.257 -0.122,0.051 -0.291,0.076 -0.507,0.076 -0.146,0 -0.297,-0.02 -0.452,-0.06 -0.119,-0.031 -0.233,-0.073 -0.345,-0.129 -0.06,-0.03 -0.133,-0.014 -0.172,0.041 v 0 c -0.048,0.068 -0.023,0.162 0.052,0.198 0.137,0.066 0.28,0.118 0.431,0.156 0.204,0.052 0.409,0.077 0.617,0.077 0.199,0 0.374,-0.017 0.525,-0.053 0.152,-0.035 0.272,-0.093 0.36,-0.175 0.089,-0.081 0.142,-0.191 0.158,-0.329 0.016,-0.137 -0.012,-0.31 -0.085,-0.518 l -0.348,-1.003 c -0.035,-0.098 -0.127,-0.164 -0.231,-0.164 -0.168,0 -0.286,0.166 -0.231,0.325 l 0.009,0.026 c -0.085,-0.08 -0.177,-0.146 -0.277,-0.197 -0.1,-0.051 -0.2,-0.091 -0.303,-0.118 -0.102,-0.027 -0.204,-0.046 -0.305,-0.057 -0.101,-0.012 -0.196,-0.017 -0.284,-0.017"
             style="fill:#ffffff;fill-opacity:1;fill-rule:nonzero;stroke:none"
             id="path116" /></g><g
           id="g118"
           transform="translate(78.2393,3.3594)"><path
             d="M 0,0 C 0.177,0 0.344,0.037 0.502,0.11 0.661,0.184 0.801,0.285 0.923,0.413 1.044,0.541 1.134,0.688 1.192,0.855 1.25,1.021 1.263,1.168 1.23,1.296 1.197,1.424 1.127,1.524 1.019,1.596 0.912,1.668 0.77,1.704 0.593,1.704 0.421,1.704 0.255,1.668 0.095,1.596 -0.065,1.524 -0.206,1.424 -0.328,1.296 -0.45,1.168 -0.54,1.021 -0.598,0.855 -0.656,0.688 -0.668,0.541 -0.635,0.413 -0.603,0.285 -0.532,0.184 -0.422,0.11 -0.313,0.037 -0.172,0 0,0 m -0.1,-0.288 c -0.274,0 -0.499,0.049 -0.675,0.146 -0.176,0.098 -0.294,0.232 -0.354,0.404 -0.06,0.171 -0.051,0.367 0.026,0.588 0.078,0.224 0.206,0.421 0.385,0.593 0.179,0.171 0.39,0.305 0.634,0.403 0.244,0.098 0.503,0.146 0.777,0.146 0.274,0 0.499,-0.048 0.675,-0.146 C 1.544,1.748 1.662,1.614 1.722,1.443 1.781,1.271 1.772,1.074 1.694,0.85 1.618,0.629 1.49,0.433 1.311,0.262 1.132,0.09 0.92,-0.044 0.677,-0.142 0.433,-0.239 0.174,-0.288 -0.1,-0.288"
             style="fill:#ffffff;fill-opacity:1;fill-rule:nonzero;stroke:none"
             id="path120" /></g><g
           id="g122"
           transform="translate(72.5832)"><path
             d="m 0,0 c -1.961,0 -3.556,1.196 -3.556,2.667 0,0.119 0.097,0.215 0.216,0.215 0.119,0 0.215,-0.096 0.215,-0.215 0,-1.233 1.402,-2.236 3.125,-2.236 1.723,0 3.125,1.003 3.125,2.236 0,0.119 0.096,0.215 0.215,0.215 0.119,0 0.216,-0.096 0.216,-0.215 C 3.556,1.196 1.961,0 0,0"
             style="fill:#ffffff;fill-opacity:1;fill-rule:nonzero;stroke:none"
             id="path124" /></g><g
           id="g126"
           transform="translate(75.9317,3.0633)"><path
             d="m 0,0 -0.535,-0.618 h 1.07 z"
             style="fill:#ffffff;fill-opacity:1;fill-rule:nonzero;stroke:none"
             id="path128" /></g><g
           id="g130"
           transform="translate(69.2626,2.3421)"><path
             d="m 0,0 0.535,0.618 h -1.07 z"
             style="fill:#ffffff;fill-opacity:1;fill-rule:nonzero;stroke:none"
             id="path132" /></g></g></g></g></svg>
