<svg width="30" height="31" viewBox="0 0 30 31" fill="none" xmlns="http://www.w3.org/2000/svg">
<g id="Property 1=Variant2">
<g id="ELEMENTS">
<g id="Group">
<path id="Vector" d="M0 30.068L2.15864 22.0283C0.934844 19.8272 0.29745 17.3626 0.29745 14.8555C0.288952 6.66289 6.95184 0 15.1445 0C23.3371 0 30 6.66289 30 14.8555C30 23.0482 23.3371 29.711 15.1445 29.711C12.6884 29.711 10.2578 29.0907 8.08215 27.9093L0 30.0765L0 30.068ZM8.49009 24.8839L9 25.1898C10.8697 26.3031 12.9943 26.8895 15.1445 26.8895C21.7819 26.8895 27.187 21.4844 27.187 14.847C27.187 8.20963 21.7819 2.80453 15.1445 2.80453C8.50708 2.80453 3.10198 8.20963 3.10198 14.8555C3.10198 17.0482 3.71388 19.2068 4.86119 21.102L5.17564 21.6119L3.96884 26.0991L8.48159 24.8924L8.49009 24.8839Z" fill="#00D95F"/>
<path id="Vector_2" fill-rule="evenodd" clip-rule="evenodd" d="M20.6686 16.9206C20.0567 16.5552 19.2578 16.1473 18.544 16.4447C17.9915 16.6742 17.6346 17.5325 17.2777 17.9745C17.0907 18.2039 16.8782 18.2379 16.5893 18.1189C14.5156 17.2946 12.9264 15.9093 11.7791 13.9971C11.5836 13.6997 11.6176 13.4702 11.8556 13.1897C12.204 12.7818 12.6374 12.3229 12.7309 11.7705C12.8244 11.2181 12.5694 10.5807 12.34 10.0963C12.051 9.47587 11.7281 8.58352 11.0992 8.22658C10.5213 7.90363 9.76491 8.0821 9.255 8.49853C8.37115 9.22091 7.94622 10.3427 7.95471 11.4645C7.95471 11.779 7.99721 12.1019 8.0737 12.4079C8.25217 13.1473 8.59211 13.8356 8.97455 14.49C9.2635 14.9829 9.57794 15.4589 9.91789 15.9263C11.0312 17.4305 12.408 18.7393 14.0057 19.7252C14.8046 20.2181 15.6629 20.643 16.5553 20.9405C17.5496 21.2719 18.442 21.6118 19.5213 21.4079C20.6516 21.1954 21.7649 20.4985 22.2153 19.4107C22.3513 19.0878 22.4108 18.7308 22.3428 18.3909C22.1898 17.6855 21.238 17.2691 20.6686 16.9291V16.9206Z" fill="#00D95F"/>
</g>
</g>
</g>
</svg>
