<?xml version="1.0" encoding="UTF-8" standalone="no"?>
<!-- Created with Inkscape (http://www.inkscape.org/) -->

<svg
   version="1.1"
   id="svg2"
   xml:space="preserve"
   width="106.666"
   height="106.66666"
   viewBox="0 0 106.666 106.66667"
   sodipodi:docname="956c3b52570f833be2e174cca116b601.ai"
   xmlns:inkscape="http://www.inkscape.org/namespaces/inkscape"
   xmlns:sodipodi="http://sodipodi.sourceforge.net/DTD/sodipodi-0.dtd"
   xmlns="http://www.w3.org/2000/svg"
   xmlns:svg="http://www.w3.org/2000/svg"><defs
     id="defs6"><clipPath
       clipPathUnits="userSpaceOnUse"
       id="clipPath16"><path
         d="M 0,80 H 80 V 0 H 0 Z"
         id="path14" /></clipPath></defs><sodipodi:namedview
     id="namedview4"
     pagecolor="#ffffff"
     bordercolor="#666666"
     borderopacity="1.0"
     inkscape:pageshadow="2"
     inkscape:pageopacity="0.0"
     inkscape:pagecheckerboard="0" /><g
     id="g8"
     inkscape:groupmode="layer"
     inkscape:label="956c3b52570f833be2e174cca116b601"
     transform="matrix(1.3333333,0,0,-1.3333333,-6.6666665e-4,106.66666)"><g
       id="g10"><g
         id="g12"
         clip-path="url(#clipPath16)"><g
           id="g18"
           transform="translate(63.4595,9.981)"><path
             d="m 0,0 c -10.519,6.965 -13.271,9.087 -13.697,9.625 -0.173,0.356 -0.36,1.855 -0.008,5.346 0.055,0.554 0.266,1.081 0.609,1.52 1.215,1.563 3.324,4.54 3.805,6.927 0.073,0.363 0.261,0.707 0.544,0.994 1.706,1.723 1.877,2.629 1.858,3.157 -0.028,0.803 -0.036,4.342 -0.038,5.828 -0.001,0.992 -0.348,1.96 -0.971,2.723 -0.352,0.434 -0.575,0.689 -0.716,0.845 -0.034,0.38 -0.076,1.485 -0.017,4.665 0.065,3.374 -1.126,6.628 -3.351,9.163 -2.233,2.547 -5.306,4.135 -8.663,4.475 l -0.123,0.012 c -0.111,0.011 -0.221,0.021 -0.331,0.03 l -3.734,0.002 -0.07,-0.002 c -0.114,-0.009 -0.226,-0.019 -0.337,-0.03 l -0.129,-0.012 c -3.349,-0.34 -6.423,-1.928 -8.655,-4.475 -2.224,-2.535 -3.414,-5.789 -3.351,-9.163 0.059,-3.182 0.017,-4.285 -0.018,-4.665 -0.15,-0.166 -0.369,-0.421 -0.715,-0.845 -0.625,-0.764 -0.97,-1.732 -0.973,-2.723 0,-1.486 -0.008,-5.025 -0.037,-5.828 -0.019,-0.526 0.153,-1.428 1.857,-3.157 0.285,-0.287 0.473,-0.631 0.546,-0.996 0.483,-2.389 2.59,-5.364 3.805,-6.925 0.344,-0.441 0.554,-0.966 0.609,-1.52 0.348,-3.448 0.171,-4.952 0.002,-5.332 -0.687,-0.754 -5.915,-3.814 -9.388,-5.845 -2.278,-1.335 -4.441,-2.602 -5.709,-3.414 -9.011,7.275 -14.162,18.032 -14.162,29.639 0,21.008 17.092,38.098 38.098,38.098 21.009,0 38.099,-17.09 38.099,-38.098 C 14.639,18.178 9.313,7.276 0,0 m -23.46,-8.079 c -4.267,0 -8.419,0.69 -12.344,2.033 -3.54,1.21 -6.893,2.95 -9.983,5.192 1.266,0.784 3.121,1.87 5.062,3.007 7.165,4.194 9.624,5.725 10.071,6.527 0.188,0.339 0.761,1.371 0.245,6.48 -0.089,0.909 -0.435,1.774 -1,2.499 -0.894,1.15 -3.02,4.051 -3.441,6.133 -0.146,0.727 -0.511,1.404 -1.057,1.955 -1.035,1.05 -1.297,1.634 -1.311,1.754 0.029,0.803 0.037,4.036 0.038,5.892 0.002,0.555 0.196,1.097 0.544,1.525 0.558,0.679 0.706,0.829 0.738,0.858 0.394,0.344 0.525,0.46 0.423,5.888 -0.111,5.972 4.414,11.115 10.289,11.71 l 0.127,0.013 c 0.088,0.008 0.175,0.015 0.264,0.023 h 3.585 c 0.088,-0.008 0.173,-0.015 0.259,-0.023 l 0.122,-0.011 c 5.886,-0.597 10.411,-5.74 10.298,-11.71 -0.102,-5.43 0.029,-5.546 0.423,-5.89 0.005,-0.006 0.156,-0.145 0.738,-0.86 0.348,-0.426 0.542,-0.966 0.542,-1.521 10e-4,-1.858 0.009,-5.091 0.04,-5.879 -0.014,-0.137 -0.276,-0.721 -1.311,-1.769 -0.546,-0.551 -0.911,-1.228 -1.057,-1.955 -0.417,-2.078 -2.545,-4.983 -3.441,-6.133 -0.563,-0.723 -0.909,-1.586 -1,-2.497 -0.516,-5.113 0.059,-6.145 0.247,-6.482 0.413,-0.744 2.937,-2.733 13.726,-9.884 -6.415,-4.502 -13.935,-6.875 -21.836,-6.875 m 0,78.098 c -10.684,0 -20.728,-4.159 -28.284,-11.715 -7.554,-7.555 -11.715,-17.6 -11.715,-28.285 0,-6.289 1.418,-12.309 4.214,-17.891 1.333,-2.662 2.976,-5.179 4.874,-7.489 1.899,-2.309 4.055,-4.411 6.414,-6.24 7.063,-5.482 15.536,-8.38 24.497,-8.38 8.77,0 17.094,2.786 24.076,8.054 4.839,3.652 8.846,8.428 11.59,13.816 2.876,5.648 4.335,11.747 4.335,18.13 0,22.056 -17.945,40 -40.001,40"
             style="fill:#ffffff;fill-opacity:1;fill-rule:nonzero;stroke:none"
             id="path20" /></g></g></g></g></svg>
