<?xml version="1.0" encoding="UTF-8" standalone="no"?>
<!-- Created with Inkscape (http://www.inkscape.org/) -->

<svg
   version="1.1"
   id="svg2"
   xml:space="preserve"
   width="159.99973"
   height="159.99866"
   viewBox="0 0 159.99973 159.99866"
   sodipodi:docname="45bc9c1f9e440110b926d611574fc734.ai"
   xmlns:inkscape="http://www.inkscape.org/namespaces/inkscape"
   xmlns:sodipodi="http://sodipodi.sourceforge.net/DTD/sodipodi-0.dtd"
   xmlns="http://www.w3.org/2000/svg"
   xmlns:svg="http://www.w3.org/2000/svg"><defs
     id="defs6"><clipPath
       clipPathUnits="userSpaceOnUse"
       id="clipPath16"><path
         d="M 0,120 H 120 V 0 H 0 Z"
         id="path14" /></clipPath></defs><sodipodi:namedview
     id="namedview4"
     pagecolor="#ffffff"
     bordercolor="#666666"
     borderopacity="1.0"
     inkscape:pageshadow="2"
     inkscape:pageopacity="0.0"
     inkscape:pagecheckerboard="0" /><g
     id="g8"
     inkscape:groupmode="layer"
     inkscape:label="45bc9c1f9e440110b926d611574fc734"
     transform="matrix(1.3333333,0,0,-1.3333333,-2.6666666e-4,159.99933)"><g
       id="g10"><g
         id="g12"
         clip-path="url(#clipPath16)"><g
           id="g18"
           transform="translate(60.0013,118.5742)"><path
             d="m 0,0 c 32.348,0 58.574,-26.223 58.574,-58.574 0,-19.113 -9.155,-36.09 -23.322,-46.78 -5.263,3.481 -20.937,13.831 -21.841,15.462 -0.81,1.455 -0.465,6.259 -0.2,8.89 0.112,1.098 0.528,2.139 1.207,3.012 1.638,2.106 4.764,6.459 5.435,9.794 0.168,0.839 0.599,1.603 1.201,2.214 1.027,1.038 2.413,2.644 2.376,3.683 -0.043,1.178 -0.054,6.102 -0.057,8.789 -0.003,1.161 -0.402,2.288 -1.138,3.187 -0.511,0.627 -1.05,1.266 -1.27,1.457 -0.231,0.203 -0.219,3.966 -0.148,7.734 0.182,9.708 -7.067,18.033 -16.729,19.011 -0.217,0.02 -0.436,0.043 -0.659,0.06 H -2.06 c -0.225,-0.017 -0.445,-0.04 -0.662,-0.06 -9.659,-0.978 -16.908,-9.303 -16.728,-19.011 0.071,-3.768 0.082,-7.531 -0.149,-7.734 -0.219,-0.191 -0.756,-0.83 -1.269,-1.457 -0.733,-0.899 -1.136,-2.026 -1.138,-3.187 -0.003,-2.687 -0.015,-7.611 -0.058,-8.789 -0.037,-1.039 1.353,-2.645 2.377,-3.683 0.602,-0.611 1.033,-1.375 1.201,-2.214 0.673,-3.335 3.797,-7.688 5.434,-9.794 0.679,-0.873 1.099,-1.914 1.207,-3.012 0.266,-2.631 0.611,-7.435 -0.197,-8.89 -0.93,-1.671 -18.717,-11.439 -23.575,-14.652 l -0.257,-0.333 c -13.813,10.712 -22.7,27.469 -22.7,46.303 C -58.574,-26.223 -32.351,0 0,0"
             style="fill:#555555;fill-opacity:1;fill-rule:nonzero;stroke:none"
             id="path20" /></g><g
           id="g22"
           transform="translate(95.1892,14.9715)"><path
             d="m 0,0 c -15.779,10.447 -19.907,13.631 -20.546,14.438 -0.259,0.533 -0.539,2.781 -0.011,8.019 0.082,0.83 0.399,1.621 0.913,2.28 1.823,2.345 4.986,6.809 5.708,10.389 0.109,0.545 0.391,1.062 0.816,1.492 2.559,2.585 2.816,3.943 2.787,4.736 -0.043,1.204 -0.054,6.513 -0.057,8.741 -0.003,1.489 -0.522,2.941 -1.458,4.085 -0.527,0.651 -0.861,1.033 -1.072,1.267 -0.052,0.57 -0.114,2.228 -0.026,6.998 0.097,5.061 -1.689,9.942 -5.027,13.745 -3.349,3.82 -7.959,6.202 -12.994,6.712 l -0.186,0.017 c -0.165,0.017 -0.33,0.032 -0.496,0.046 l -5.6,0.003 -0.106,-0.003 c -0.171,-0.014 -0.339,-0.029 -0.504,-0.046 l -0.194,-0.017 c -5.024,-0.51 -9.634,-2.892 -12.984,-6.712 -3.334,-3.803 -5.12,-8.684 -5.026,-13.745 0.088,-4.773 0.026,-6.428 -0.026,-6.998 -0.225,-0.248 -0.553,-0.631 -1.072,-1.267 -0.939,-1.147 -1.455,-2.599 -1.461,-4.085 0,-2.228 -0.012,-7.537 -0.054,-8.741 -0.029,-0.79 0.228,-2.142 2.784,-4.736 0.428,-0.43 0.71,-0.947 0.819,-1.494 0.724,-3.583 3.885,-8.045 5.708,-10.387 0.517,-0.662 0.83,-1.45 0.913,-2.28 0.522,-5.172 0.257,-7.428 0.003,-7.999 -1.03,-1.13 -8.872,-5.72 -14.081,-8.767 -3.418,-2.002 -6.662,-3.902 -8.565,-5.12 -13.516,10.912 -21.241,27.047 -21.241,44.458 0,31.511 25.638,57.147 57.147,57.147 31.512,0 57.147,-25.636 57.147,-57.147 C 21.958,27.267 13.97,10.915 0,0 m -35.189,-12.119 c -6.402,0 -12.63,1.036 -18.518,3.05 -5.309,1.814 -10.338,4.425 -14.974,7.788 1.9,1.175 4.681,2.804 7.594,4.51 10.747,6.291 14.435,8.587 15.106,9.791 0.282,0.508 1.141,2.057 0.368,9.72 -0.134,1.363 -0.654,2.661 -1.501,3.748 -1.341,1.726 -4.53,6.077 -5.161,9.201 -0.219,1.089 -0.767,2.105 -1.586,2.932 -1.552,1.575 -1.945,2.451 -1.965,2.63 0.042,1.204 0.054,6.054 0.057,8.838 0.003,0.833 0.294,1.647 0.816,2.288 0.835,1.019 1.058,1.244 1.106,1.287 0.591,0.516 0.788,0.69 0.634,8.832 -0.166,8.958 6.621,16.672 15.433,17.565 l 0.192,0.02 c 0.131,0.011 0.262,0.023 0.396,0.034 h 5.378 c 0.131,-0.011 0.259,-0.023 0.388,-0.034 l 0.182,-0.017 c 8.83,-0.896 15.616,-8.61 15.448,-17.565 -0.154,-8.145 0.043,-8.319 0.633,-8.835 0.009,-0.009 0.234,-0.217 1.107,-1.29 0.522,-0.638 0.813,-1.449 0.813,-2.282 0.003,-2.787 0.015,-7.637 0.06,-8.818 -0.02,-0.205 -0.413,-1.081 -1.965,-2.653 -0.819,-0.827 -1.367,-1.843 -1.586,-2.932 -0.625,-3.119 -3.818,-7.475 -5.161,-9.201 -0.845,-1.084 -1.364,-2.379 -1.501,-3.746 -0.773,-7.668 0.089,-9.217 0.371,-9.722 0.619,-1.115 4.405,-4.099 20.589,-14.826 -9.623,-6.752 -20.903,-10.313 -32.753,-10.313 m 0,117.147 c -16.027,0 -31.093,-6.238 -42.427,-17.573 -11.331,-11.331 -17.573,-26.399 -17.573,-42.426 0,-9.435 2.128,-18.464 6.322,-26.837 1.999,-3.994 4.464,-7.768 7.311,-11.234 2.847,-3.463 6.082,-6.616 9.62,-9.36 10.595,-8.222 23.304,-12.569 36.747,-12.569 13.154,0 25.641,4.179 36.113,12.081 7.258,5.477 13.269,12.641 17.385,20.723 4.314,8.473 6.502,17.621 6.502,27.196 0,33.083 -26.916,59.999 -60,59.999"
             style="fill:#555555;fill-opacity:1;fill-rule:nonzero;stroke:none"
             id="path24" /></g></g></g></g></svg>
