<?xml version="1.0" encoding="UTF-8" standalone="no"?>
<svg
   xmlns:dc="http://purl.org/dc/elements/1.1/"
   xmlns:cc="http://creativecommons.org/ns#"
   xmlns:rdf="http://www.w3.org/1999/02/22-rdf-syntax-ns#"
   xmlns:svg="http://www.w3.org/2000/svg"
   xmlns="http://www.w3.org/2000/svg"
   viewBox="0 0 106.66667 106.66653"
   height="106.66653"
   width="106.66667"
   xml:space="preserve"
   id="svg2"
   version="1.1"><metadata
     id="metadata8"><rdf:RDF><cc:Work
         rdf:about=""><dc:format>image/svg+xml</dc:format><dc:type
           rdf:resource="http://purl.org/dc/dcmitype/StillImage" /></cc:Work></rdf:RDF></metadata><defs
     id="defs6"><clipPath
       id="clipPath18"
       clipPathUnits="userSpaceOnUse"><path
         id="path16"
         d="M 0,80 H 80 V 0 H 0 Z" /></clipPath></defs><g
     transform="matrix(1.3333333,0,0,-1.3333333,0,106.66653)"
     id="g10"><g
       id="g12"><g
         clip-path="url(#clipPath18)"
         id="g14"><g
           transform="translate(40.0009,79.0494)"
           id="g20"><path
             id="path22"
             style="fill:#555555;fill-opacity:1;fill-rule:nonzero;stroke:none"
             d="m 0,0 c 21.565,0 39.049,-17.482 39.049,-39.049 0,-12.743 -6.103,-24.061 -15.548,-31.187 -3.509,2.32 -13.957,9.22 -14.56,10.308 -0.54,0.97 -0.31,4.173 -0.133,5.926 0.074,0.733 0.351,1.427 0.804,2.009 1.092,1.403 3.176,4.306 3.623,6.529 0.112,0.559 0.399,1.069 0.801,1.476 0.684,0.692 1.609,1.763 1.584,2.455 -0.029,0.786 -0.036,4.068 -0.038,5.86 -0.002,0.774 -0.268,1.525 -0.759,2.124 -0.34,0.419 -0.7,0.845 -0.846,0.972 -0.154,0.135 -0.147,2.644 -0.099,5.156 0.122,6.472 -4.711,12.022 -11.153,12.674 -0.144,0.013 -0.291,0.028 -0.439,0.04 h -3.659 c -0.15,-0.012 -0.297,-0.027 -0.441,-0.04 -6.44,-0.652 -11.273,-6.202 -11.153,-12.674 0.048,-2.512 0.055,-5.021 -0.099,-5.156 -0.146,-0.127 -0.504,-0.553 -0.846,-0.972 -0.489,-0.599 -0.757,-1.35 -0.759,-2.124 -0.002,-1.792 -0.009,-5.074 -0.038,-5.86 -0.025,-0.692 0.901,-1.763 1.584,-2.455 0.402,-0.407 0.689,-0.917 0.801,-1.476 0.449,-2.223 2.531,-5.126 3.623,-6.529 0.453,-0.582 0.732,-1.276 0.804,-2.009 0.177,-1.753 0.407,-4.956 -0.131,-5.926 -0.62,-1.114 -12.478,-7.626 -15.717,-9.768 l -0.171,-0.222 c -9.209,7.141 -15.133,18.313 -15.133,30.869 C -39.049,-17.482 -21.567,0 0,0" /></g><g
           transform="translate(63.4595,9.981)"
           id="g24"><path
             id="path26"
             style="fill:#ee801f;fill-opacity:1;fill-rule:nonzero;stroke:none"
             d="m 0,0 c -10.519,6.965 -13.271,9.087 -13.697,9.625 -0.173,0.356 -0.36,1.855 -0.008,5.346 0.055,0.554 0.266,1.081 0.609,1.52 1.215,1.563 3.324,4.54 3.805,6.927 0.073,0.363 0.261,0.707 0.544,0.994 1.706,1.723 1.877,2.629 1.858,3.157 -0.028,0.803 -0.036,4.342 -0.038,5.828 -0.001,0.992 -0.348,1.96 -0.971,2.723 -0.352,0.434 -0.575,0.689 -0.716,0.845 -0.034,0.38 -0.076,1.485 -0.017,4.665 0.065,3.374 -1.126,6.628 -3.351,9.163 -2.233,2.547 -5.306,4.135 -8.663,4.475 l -0.123,0.012 c -0.111,0.011 -0.221,0.021 -0.331,0.03 l -3.734,0.002 -0.07,-0.002 c -0.114,-0.009 -0.226,-0.019 -0.337,-0.03 l -0.129,-0.012 c -3.349,-0.34 -6.423,-1.928 -8.655,-4.475 -2.224,-2.535 -3.414,-5.789 -3.351,-9.163 0.059,-3.182 0.017,-4.285 -0.018,-4.665 -0.15,-0.166 -0.369,-0.421 -0.715,-0.845 -0.625,-0.764 -0.97,-1.732 -0.973,-2.723 0,-1.486 -0.008,-5.025 -0.037,-5.828 -0.019,-0.526 0.153,-1.428 1.857,-3.157 0.285,-0.287 0.473,-0.631 0.546,-0.996 0.483,-2.389 2.59,-5.364 3.805,-6.925 0.344,-0.441 0.554,-0.966 0.609,-1.52 0.348,-3.448 0.171,-4.952 0.002,-5.332 -0.687,-0.754 -5.915,-3.814 -9.388,-5.845 -2.278,-1.335 -4.441,-2.602 -5.709,-3.414 -9.011,7.275 -14.162,18.032 -14.162,29.639 0,21.008 17.092,38.098 38.098,38.098 21.009,0 38.099,-17.09 38.099,-38.098 C 14.639,18.178 9.313,7.276 0,0 m -23.46,-8.079 c -4.267,0 -8.419,0.69 -12.344,2.033 -3.54,1.21 -6.893,2.95 -9.983,5.192 1.266,0.784 3.121,1.87 5.062,3.007 7.165,4.194 9.624,5.725 10.071,6.527 0.188,0.339 0.761,1.371 0.245,6.48 -0.089,0.909 -0.435,1.774 -1,2.499 -0.894,1.15 -3.02,4.051 -3.441,6.133 -0.146,0.727 -0.511,1.404 -1.057,1.955 -1.035,1.05 -1.297,1.634 -1.311,1.754 0.029,0.803 0.037,4.036 0.038,5.892 0.002,0.555 0.196,1.097 0.544,1.525 0.558,0.679 0.706,0.829 0.738,0.858 0.394,0.344 0.525,0.46 0.423,5.888 -0.111,5.972 4.414,11.115 10.289,11.71 l 0.127,0.013 c 0.088,0.008 0.175,0.015 0.264,0.023 h 3.585 c 0.088,-0.008 0.173,-0.015 0.259,-0.023 l 0.122,-0.011 c 5.886,-0.597 10.411,-5.74 10.298,-11.71 -0.102,-5.43 0.029,-5.546 0.423,-5.89 0.005,-0.006 0.156,-0.145 0.738,-0.86 0.348,-0.426 0.542,-0.966 0.542,-1.521 10e-4,-1.858 0.009,-5.091 0.04,-5.879 -0.014,-0.137 -0.276,-0.721 -1.311,-1.769 -0.546,-0.551 -0.911,-1.228 -1.057,-1.955 -0.417,-2.078 -2.545,-4.983 -3.441,-6.133 -0.563,-0.723 -0.909,-1.586 -1,-2.497 -0.516,-5.113 0.059,-6.145 0.247,-6.482 0.413,-0.744 2.937,-2.733 13.726,-9.884 -6.415,-4.502 -13.935,-6.875 -21.836,-6.875 m 0,78.098 c -10.684,0 -20.728,-4.159 -28.284,-11.715 -7.554,-7.555 -11.715,-17.6 -11.715,-28.285 0,-6.289 1.418,-12.309 4.214,-17.891 1.333,-2.662 2.976,-5.179 4.874,-7.489 1.899,-2.309 4.055,-4.411 6.414,-6.24 7.063,-5.482 15.536,-8.38 24.497,-8.38 8.77,0 17.094,2.786 24.076,8.054 4.839,3.652 8.846,8.428 11.59,13.816 2.876,5.648 4.335,11.747 4.335,18.13 0,22.056 -17.945,40 -40.001,40" /></g></g></g></g></svg>