<?xml version="1.0" encoding="UTF-8" standalone="no"?>
<!-- Created with Inkscape (http://www.inkscape.org/) -->

<svg
   version="1.1"
   id="svg2"
   xml:space="preserve"
   width="107.99986"
   height="49.050133"
   viewBox="0 0 107.99986 49.050133"
   sodipodi:docname="0987b235affce60ed84efa4a14b67940.ai"
   xmlns:inkscape="http://www.inkscape.org/namespaces/inkscape"
   xmlns:sodipodi="http://sodipodi.sourceforge.net/DTD/sodipodi-0.dtd"
   xmlns="http://www.w3.org/2000/svg"
   xmlns:svg="http://www.w3.org/2000/svg"><defs
     id="defs6"><clipPath
       clipPathUnits="userSpaceOnUse"
       id="clipPath16"><path
         d="M 0,36.788 H 81 V 0 H 0 Z"
         id="path14" /></clipPath></defs><sodipodi:namedview
     id="namedview4"
     pagecolor="#ffffff"
     bordercolor="#666666"
     borderopacity="1.0"
     inkscape:pageshadow="2"
     inkscape:pageopacity="0.0"
     inkscape:pagecheckerboard="0" /><g
     id="g8"
     inkscape:groupmode="layer"
     inkscape:label="0987b235affce60ed84efa4a14b67940"
     transform="matrix(1.3333333,0,0,-1.3333333,-1.3333333e-4,49.050132)"><g
       id="g10"><g
         id="g12"
         clip-path="url(#clipPath16)"><g
           id="g18"
           transform="translate(19.6431,18.3931)"><path
             d="M 0,0 C 0,-7.457 3.914,-14 9.8,-17.687 -6.234,-12.993 -19.643,-0.16 -19.643,0 -19.643,0.161 -6.234,12.994 9.8,17.688 3.914,14.001 0,7.457 0,0"
             style="fill:#555555;fill-opacity:1;fill-rule:nonzero;stroke:none"
             id="path20" /></g><g
           id="g22"
           transform="translate(81,18.3931)"><path
             d="m 0,0 c 0,-0.16 -13.407,-12.993 -29.441,-17.687 5.885,3.687 9.799,10.23 9.799,17.687 0,7.457 -3.914,14.001 -9.799,17.688 C -13.407,12.994 0,0.161 0,0"
             style="fill:#555555;fill-opacity:1;fill-rule:nonzero;stroke:none"
             id="path24" /></g><g
           id="g26"
           transform="translate(40.5,2.5826)"><path
             d="m 0,0 c -8.717,0 -15.811,7.093 -15.811,15.811 0,8.718 7.094,15.811 15.811,15.811 2.583,0 5.022,-0.622 7.177,-1.723 -1.024,-0.706 -1.694,-1.885 -1.694,-3.221 0,-2.159 1.751,-3.909 3.91,-3.909 1.538,0 2.868,0.887 3.504,2.179 1.835,-2.583 2.915,-5.736 2.915,-9.137 C 15.812,7.093 8.719,0 0,0 m 0,34.205 c -10.142,0 -18.393,-8.251 -18.393,-18.394 0,-10.142 8.251,-18.394 18.393,-18.394 10.143,0 18.394,8.252 18.394,18.394 0,10.143 -8.251,18.394 -18.394,18.394"
             style="fill:#242021;fill-opacity:1;fill-rule:nonzero;stroke:none"
             id="path28" /></g><g
           id="g30"
           transform="translate(49.8554,18.3931)"><path
             d="m 0,0 c 0,-5.157 -4.197,-9.354 -9.355,-9.354 -5.158,0 -9.354,4.197 -9.354,9.354 0,5.159 4.196,9.355 9.354,9.355 0.967,0 1.899,-0.147 2.776,-0.419 C -7.337,8.223 -7.81,7.212 -7.81,6.09 c 0,-2.159 1.751,-3.909 3.91,-3.909 1.275,0 2.407,0.609 3.121,1.553 C -0.278,2.59 0,1.326 0,0"
             style="fill:#242021;fill-opacity:1;fill-rule:nonzero;stroke:none"
             id="path32" /></g></g></g></g></svg>
