<?xml version="1.0" encoding="UTF-8" standalone="no"?>
<!-- Created with Inkscape (http://www.inkscape.org/) -->

<svg
   version="1.1"
   id="svg2"
   xml:space="preserve"
   width="28.671999"
   height="15.502666"
   viewBox="0 0 28.671999 15.502666"
   sodipodi:docname="49815b93aed380e19eb28272f6ca8abc.ai"
   xmlns:inkscape="http://www.inkscape.org/namespaces/inkscape"
   xmlns:sodipodi="http://sodipodi.sourceforge.net/DTD/sodipodi-0.dtd"
   xmlns="http://www.w3.org/2000/svg"
   xmlns:svg="http://www.w3.org/2000/svg"><defs
     id="defs6"><clipPath
       clipPathUnits="userSpaceOnUse"
       id="clipPath16"><path
         d="M 0,11.627 H 21.504 V 0 H 0 Z"
         id="path14" /></clipPath></defs><sodipodi:namedview
     id="namedview4"
     pagecolor="#ffffff"
     bordercolor="#666666"
     borderopacity="1.0"
     inkscape:pageshadow="2"
     inkscape:pageopacity="0.0"
     inkscape:pagecheckerboard="0" /><g
     id="g8"
     inkscape:groupmode="layer"
     inkscape:label="49815b93aed380e19eb28272f6ca8abc"
     transform="matrix(1.3333333,0,0,-1.3333333,0,15.502666)"><g
       id="g10"><g
         id="g12"
         clip-path="url(#clipPath16)"><g
           id="g18"
           transform="translate(0.5039)"><path
             d="m 0,0 c -0.278,0 -0.504,0.226 -0.504,0.504 v 10.619 c 0,0.278 0.226,0.504 0.504,0.504 0.278,0 0.504,-0.226 0.504,-0.504 V 0.504 C 0.504,0.226 0.278,0 0,0"
             style="fill:#ee801f;fill-opacity:1;fill-rule:nonzero;stroke:none"
             id="path20" /></g><g
           id="g22"
           transform="translate(20.8354)"><path
             d="m 0,0 c -0.278,0 -0.504,0.226 -0.504,0.504 v 4.101 h -19.828 c -0.278,0 -0.503,0.226 -0.503,0.504 0,0.279 0.225,0.504 0.503,0.504 L 0,5.613 c 0.278,0 0.504,-0.225 0.504,-0.504 V 0.504 C 0.504,0.226 0.278,0 0,0"
             style="fill:#ee801f;fill-opacity:1;fill-rule:nonzero;stroke:none"
             id="path24" /></g><g
           id="g26"
           transform="translate(21.5041,4.6282)"><path
             d="m 0,0 h -16.412 v 1.934 c 0,0.693 0.562,1.254 1.254,1.254 H -1.254 C -0.561,3.188 0,2.627 0,1.934 Z"
             style="fill:#ee801f;fill-opacity:1;fill-rule:nonzero;stroke:none"
             id="path28" /></g><g
           id="g30"
           transform="translate(4.5694,7.4574)"><path
             d="m 0,0 c 0,-0.819 -0.708,-1.483 -1.581,-1.483 -0.873,0 -1.581,0.664 -1.581,1.483 0,0.819 0.708,1.483 1.581,1.483 C -0.708,1.483 0,0.819 0,0"
             style="fill:#ee801f;fill-opacity:1;fill-rule:nonzero;stroke:none"
             id="path32" /></g></g></g></g></svg>
