<svg width="151" height="161" viewBox="0 0 151 161" fill="none" xmlns="http://www.w3.org/2000/svg">
<g id="logo = branco e laranja" clip-path="url(#clip0_191_861)">
<g id="CinzaClaro">
<g id="Group">
<path id="Vector" d="M116.248 40.3843H95.1482L75.906 21.1217L56.6638 40.3843H35.5645L75.906 0L116.248 40.3843Z" fill="white"/>
<path id="Vector_2" d="M116.272 48.3226L75.8495 88.7847L35.4304 48.3226H57.2817L75.8495 67.3378L86.092 57.5157L76.3827 48.3226H116.272Z" fill="#F0801F"/>
<g id="Group_2">
<path id="Vector_3" d="M29.4 134.739C26.9638 135.556 22.4481 136.577 18.2254 136.577C11.8737 136.577 7.51685 134.99 4.6111 132.202C1.5606 129.332 -0.0246743 125.147 4.04696e-05 120.51C0.04947 109.249 8.41364 103.53 18.9068 103.53C23.2778 103.53 26.6002 104.311 28.2949 105.117L26.5543 112.052C24.7289 111.281 22.5434 110.68 18.8609 110.68C13.519 110.68 9.10213 113.48 9.10213 120.064C9.10213 126.098 13.0141 129.607 18.3207 129.607C19.5106 129.607 20.6263 129.498 21.0464 129.332V123.754H16.7143V117.014H29.4035V134.739H29.4Z" fill="white"/>
<path id="Vector_4" d="M42.6753 136.252L32.3869 103.852H41.9056L45.3374 116.59C46.3578 120.22 47.2475 123.765 48.0278 127.921H48.1231C48.9034 123.966 49.8284 120.22 50.7747 116.735L54.2912 103.852H63.5098L52.9213 136.252H42.6682H42.6753Z" fill="white"/>
<path id="Vector_5" d="M67.0441 103.855H75.7119V128.982H88.1716V136.252H67.0441V103.852V103.855Z" fill="white"/>
<path id="Vector_6" d="M101.207 128.741L99.3815 136.252H90.4136L99.8017 103.852H111.35L121.003 136.252H111.64L109.575 128.741H101.207ZM108.385 122.337L106.884 116.509C106.393 114.681 105.779 112.038 105.274 110.129H105.179C104.699 112.041 104.219 114.706 103.749 116.548L102.358 122.341H108.385V122.337Z" fill="white"/>
<path id="Vector_7" d="M125.145 104.297C127.595 103.912 131.267 103.601 135.599 103.601C140.556 103.601 144.112 104.287 146.548 106.125C148.624 107.712 149.74 110.02 149.74 113.19C149.74 117.226 146.714 120.1 144.193 121.026V121.195C146.343 122.121 147.505 124.189 148.334 126.999C149.305 130.293 150.375 135.001 151 136.252H142.142C141.651 135.315 140.811 132.778 139.871 128.791C138.996 124.91 137.806 124.104 135.13 124.104H133.724V136.252H125.141V104.297H125.145ZM133.728 117.877H135.984C139.25 117.877 141.135 116.279 141.135 113.851C141.135 111.423 139.539 110.041 136.658 110.016C135.027 110.016 134.162 110.101 133.728 110.207V117.873V117.877Z" fill="white"/>
</g>
<g id="Group_3">
<path id="Vector_8" d="M16.3259 147.735C16.3259 148.357 15.8669 148.909 15.1007 148.909C14.3911 148.909 13.9321 148.357 13.9321 147.735C13.9321 147.113 14.4193 146.562 15.136 146.562C15.8528 146.562 16.3188 147.092 16.3259 147.735ZM14.1757 160.753V150.665H16.0752V160.753H14.1757Z" fill="white"/>
<path id="Vector_9" d="M27.3557 153.429C27.3557 152.422 27.3275 151.51 27.271 150.665H28.9234L29.0257 152.418H29.0787C29.6824 151.411 30.6816 150.418 32.5635 150.418C34.0711 150.418 35.1974 151.379 35.6458 152.602H35.6881C36.0306 152.005 36.4437 151.556 36.8744 151.238C37.5523 150.711 38.2726 150.422 39.3671 150.422C40.7052 150.422 42.9931 151.249 42.9931 155.069V160.76H41.1395V155.26C41.1395 153.094 40.2427 151.977 38.6927 151.977C37.517 151.977 36.6344 152.807 36.2778 153.673C36.1789 153.938 36.1012 154.27 36.1012 154.596V160.756H34.2476V154.893C34.2476 153.122 33.3685 151.973 31.9174 151.973C30.6145 151.973 29.7142 153.002 29.3718 153.868C29.2658 154.14 29.2093 154.468 29.2093 154.787V160.756H27.3557V153.436V153.429Z" fill="white"/>
<path id="Vector_10" d="M64.8691 155.582C64.8691 159.261 62.0199 161 59.3048 161C56.2614 161 53.9382 158.894 53.9382 155.804C53.9382 152.532 56.3426 150.414 59.4813 150.414C62.6201 150.414 64.8656 152.655 64.8656 155.582H64.8691ZM55.8906 155.737C55.8906 158.13 57.4794 159.597 59.3825 159.597C61.2855 159.597 62.9237 158.19 62.9237 155.667C62.9237 153.906 61.8716 151.821 59.4425 151.821C57.0134 151.821 55.8942 153.705 55.8942 155.737H55.8906ZM62.2317 146.205L59.5661 149.252H58.1926L60.0957 146.205H62.2317Z" fill="white"/>
<path id="Vector_11" d="M77.8762 150.665L80.0864 156.317C80.4889 157.335 80.7819 158.144 81.0397 158.971H81.0926C81.3645 158.134 81.6928 157.3 82.0742 156.317L84.2879 150.665H86.311L81.9047 160.753H80.0475L75.8107 150.665H77.8726H77.8762Z" fill="white"/>
<path id="Vector_12" d="M99.0779 156.105C99.1202 158.377 100.811 159.523 102.88 159.523C104.395 159.523 105.274 159.265 106.044 158.961L106.383 160.307C105.716 160.594 104.508 161 102.644 161C99.3215 161 97.256 158.908 97.256 155.9C97.256 152.892 99.1909 150.414 102.443 150.414C106.139 150.414 107.011 153.539 107.011 155.257C107.011 155.638 106.987 155.918 106.937 156.101H99.0743L99.0779 156.105ZM105.172 154.741C105.186 153.875 104.787 151.754 102.301 151.754C100.162 151.754 99.2756 153.5 99.1026 154.741H105.172Z" fill="white"/>
<path id="Vector_13" d="M120.354 147.735C120.354 148.357 119.895 148.909 119.129 148.909C118.419 148.909 117.96 148.357 117.96 147.735C117.96 147.113 118.447 146.562 119.164 146.562C119.881 146.562 120.347 147.092 120.354 147.735ZM118.204 160.753V150.665H120.103V160.753H118.204Z" fill="white"/>
<path id="Vector_14" d="M131.761 158.819C132.379 159.201 133.456 159.6 134.455 159.6C135.935 159.6 136.57 158.908 136.57 158.088C136.57 157.165 135.952 156.727 134.505 156.282C132.517 155.684 131.61 154.652 131.613 153.426C131.613 151.807 132.965 150.414 135.331 150.414C136.436 150.414 137.414 150.697 138.025 151.068L137.559 152.443C137.17 152.206 136.327 151.803 135.25 151.803C134.095 151.803 133.46 152.426 133.46 153.221C133.46 154.108 134.162 154.479 135.592 154.935C137.52 155.55 138.417 156.409 138.42 157.95C138.42 159.657 137.029 161.004 134.409 161.004C133.184 161.004 132.097 160.7 131.299 160.261L131.761 158.819Z" fill="white"/>
</g>
</g>
</g>
</g>
<defs>
<clipPath id="clip0_191_861">
<rect width="151" height="161" fill="white"/>
</clipPath>
</defs>
</svg>
