<svg width="443" height="480" viewBox="0 0 443 480" fill="none" xmlns="http://www.w3.org/2000/svg">
<path d="M340.546 120.398H278.736L222.366 62.9702L165.997 120.398H104.186L222.366 6.10352e-05L340.546 120.398Z" fill="#242021"/>
<path d="M340.619 144.064L222.201 264.694L103.794 144.064H167.807L222.201 200.754L252.206 171.472L223.763 144.064H340.619Z" fill="#F0801F"/>
<path d="M86.1276 401.698C78.9909 404.132 65.7621 407.178 53.3918 407.178C34.7846 407.178 22.0213 402.447 13.5089 394.133C4.57253 385.577 -0.0715066 373.101 0.000894796 359.276C0.145698 325.704 24.6484 308.655 55.388 308.655C68.1927 308.655 77.9255 310.984 82.8902 313.386L77.7911 334.06C72.4437 331.763 66.0414 329.972 55.2535 329.972C39.6045 329.972 26.6653 338.317 26.6653 357.948C26.6653 375.935 38.1254 386.398 53.671 386.398C57.1567 386.398 60.4251 386.072 61.6559 385.577V368.949H48.965V348.854H86.1379V401.698H86.1276Z" fill="#242021"/>
<path d="M125.017 406.209L94.8776 309.614H122.763L132.816 347.59C135.805 358.412 138.412 368.981 140.697 381.372H140.977C143.262 369.581 145.972 358.412 148.744 348.022L159.046 309.614H186.052L155.033 406.209H124.997H125.017Z" fill="#242021"/>
<path d="M196.406 309.625H221.798V384.534H258.299V406.209H196.406V309.614V309.625Z" fill="#242021"/>
<path d="M296.485 383.817L291.138 406.209H264.866L292.369 309.614H326.201L354.479 406.209H327.049L320.998 383.817H296.485ZM317.513 364.724L313.117 347.348C311.679 341.9 309.879 334.018 308.4 328.328H308.121C306.714 334.029 305.308 341.974 303.932 347.464L299.857 364.734H317.513V364.724Z" fill="#242021"/>
<path d="M366.611 310.942C373.789 309.793 384.545 308.866 397.236 308.866C411.758 308.866 422.174 310.91 429.31 316.389C435.392 321.121 438.66 328.001 438.66 337.453C438.66 349.487 429.796 358.053 422.411 360.814V361.32C428.71 364.081 432.113 370.245 434.544 378.622C437.388 388.443 440.522 402.478 442.353 406.208H416.402C414.964 403.416 412.503 395.85 409.751 383.964C407.186 372.395 403.701 369.992 395.861 369.992H391.744V406.208H366.6V310.942H366.611ZM391.755 351.426H398.364C407.931 351.426 413.454 346.663 413.454 339.424C413.454 332.185 408.779 328.065 400.339 327.991C395.561 327.991 393.027 328.244 391.755 328.56V351.415V351.426Z" fill="#242021"/>
<path d="M47.8271 440.444C47.8271 442.298 46.4825 443.942 44.2381 443.942C42.1591 443.942 40.8145 442.298 40.8145 440.444C40.8145 438.589 42.2419 436.945 44.3415 436.945C46.4411 436.945 47.8064 438.526 47.8271 440.444ZM41.5282 479.252V449.179H47.0928V479.252H41.5282Z" fill="#242021"/>
<path d="M80.1391 457.419C80.1391 454.416 80.0564 451.697 79.8909 449.179H84.7314L85.0314 454.405H85.1865C86.9552 451.402 89.8823 448.441 95.3951 448.441C99.8116 448.441 103.111 451.307 104.425 454.953H104.549C105.552 453.172 106.762 451.834 108.024 450.886C110.01 449.316 112.12 448.452 115.326 448.452C119.246 448.452 125.949 450.917 125.949 462.308V479.273H120.518V462.877C120.518 456.418 117.891 453.088 113.351 453.088C109.906 453.088 107.321 455.564 106.276 458.146C105.986 458.936 105.759 459.927 105.759 460.896V479.262H100.329V461.781C100.329 456.502 97.7533 453.078 93.5023 453.078C89.6858 453.078 87.0483 456.144 86.045 458.725C85.7347 459.537 85.5692 460.517 85.5692 461.465V479.262H80.1391V457.44V457.419Z" fill="#242021"/>
<path d="M190.034 463.836C190.034 474.805 181.687 479.989 173.733 479.989C164.817 479.989 158.011 473.709 158.011 464.5C158.011 454.742 165.055 448.431 174.25 448.431C183.445 448.431 190.023 455.111 190.023 463.836H190.034ZM163.731 464.3C163.731 471.433 168.386 475.806 173.96 475.806C179.535 475.806 184.335 471.612 184.335 464.089C184.335 458.841 181.252 452.624 174.136 452.624C167.02 452.624 163.742 458.241 163.742 464.3H163.731ZM182.307 435.881L174.498 444.964H170.475L176.05 435.881H182.307Z" fill="#242021"/>
<path d="M228.137 449.179L234.612 466.028C235.791 469.062 236.65 471.475 237.405 473.941H237.56C238.356 471.444 239.318 468.957 240.435 466.028L246.92 449.179H252.847L239.939 479.252H234.498L222.087 449.179H228.127H228.137Z" fill="#242021"/>
<path d="M290.248 465.396C290.372 472.171 295.326 475.585 301.387 475.585C305.824 475.585 308.4 474.816 310.654 473.91L311.647 477.924C309.693 478.778 306.155 479.99 300.694 479.99C290.961 479.99 284.911 473.752 284.911 464.784C284.911 455.817 290.579 448.431 300.105 448.431C310.934 448.431 313.488 457.746 313.488 462.867C313.488 464.005 313.416 464.837 313.271 465.385H290.237L290.248 465.396ZM308.1 461.328C308.141 458.747 306.972 452.424 299.691 452.424C293.423 452.424 290.827 457.63 290.32 461.328H308.1Z" fill="#242021"/>
<path d="M352.575 440.444C352.575 442.298 351.231 443.942 348.986 443.942C346.907 443.942 345.563 442.298 345.563 440.444C345.563 438.589 346.99 436.945 349.09 436.945C351.189 436.945 352.555 438.526 352.575 440.444ZM346.276 479.252V449.179H351.841V479.252H346.276Z" fill="#242021"/>
<path d="M385.993 473.488C387.803 474.626 390.958 475.817 393.885 475.817C398.219 475.817 400.081 473.752 400.081 471.307C400.081 468.557 398.271 467.25 394.03 465.923C388.207 464.142 385.549 461.065 385.559 457.408C385.559 452.582 389.52 448.431 396.45 448.431C399.688 448.431 402.553 449.274 404.342 450.38L402.977 454.479C401.839 453.773 399.367 452.572 396.212 452.572C392.83 452.572 390.968 454.426 390.968 456.797C390.968 459.442 393.027 460.549 397.216 461.908C402.863 463.741 405.49 466.302 405.5 470.896C405.5 475.986 401.425 480 393.751 480C390.162 480 386.976 479.094 384.638 477.787L385.993 473.488Z" fill="#242021"/>
</svg>
