<?xml version="1.0" encoding="UTF-8" standalone="no"?>
<svg
   xmlns:dc="http://purl.org/dc/elements/1.1/"
   xmlns:cc="http://creativecommons.org/ns#"
   xmlns:rdf="http://www.w3.org/1999/02/22-rdf-syntax-ns#"
   xmlns:svg="http://www.w3.org/2000/svg"
   xmlns="http://www.w3.org/2000/svg"
   viewBox="0 0 43.239601 40"
   height="40"
   width="43.239601"
   xml:space="preserve"
   id="svg2"
   version="1.1"><metadata
     id="metadata8"><rdf:RDF><cc:Work
         rdf:about=""><dc:format>image/svg+xml</dc:format><dc:type
           rdf:resource="http://purl.org/dc/dcmitype/StillImage" /></cc:Work></rdf:RDF></metadata><defs
     id="defs6"><clipPath
       id="clipPath66"
       clipPathUnits="userSpaceOnUse"><path
         id="path64"
         d="M 0,30 H 32.43 V 0 H 0 Z" /></clipPath><clipPath
       id="clipPath74"
       clipPathUnits="userSpaceOnUse"><path
         id="path72"
         d="m 21.9409,28.1296 h 2.2504 v -2.2503 h -2.2504 z" /></clipPath><clipPath
       id="clipPath88"
       clipPathUnits="userSpaceOnUse"><path
         id="path86"
         d="m 24.5289,28.1296 h 2.2504 v -2.2503 h -2.2504 z" /></clipPath><clipPath
       id="clipPath102"
       clipPathUnits="userSpaceOnUse"><path
         id="path100"
         d="m 29.5922,28.1296 h 2.2504 v -2.2503 h -2.2504 z" /></clipPath><clipPath
       id="clipPath116"
       clipPathUnits="userSpaceOnUse"><path
         id="path114"
         d="m 19.1279,25.5417 h 2.2504 v -2.2503 h -2.2504 z" /></clipPath><clipPath
       id="clipPath130"
       clipPathUnits="userSpaceOnUse"><path
         id="path128"
         d="m 27.1169,25.5417 h 2.2504 v -2.2503 h -2.2504 z" /></clipPath><clipPath
       id="clipPath144"
       clipPathUnits="userSpaceOnUse"><path
         id="path142"
         d="m 19.1279,23.01 h 2.2504 v -2.2504 h -2.2504 z" /></clipPath><clipPath
       id="clipPath158"
       clipPathUnits="userSpaceOnUse"><path
         id="path156"
         d="m 21.9409,23.01 h 2.2504 v -2.2504 h -2.2504 z" /></clipPath><clipPath
       id="clipPath172"
       clipPathUnits="userSpaceOnUse"><path
         id="path170"
         d="m 24.5289,23.01 h 2.2504 v -2.2504 h -2.2504 z" /></clipPath><clipPath
       id="clipPath186"
       clipPathUnits="userSpaceOnUse"><path
         id="path184"
         d="m 29.5922,23.01 h 2.2504 v -2.2504 h -2.2504 z" /></clipPath><clipPath
       id="clipPath200"
       clipPathUnits="userSpaceOnUse"><path
         id="path198"
         d="m 24.5289,20.4783 h 2.2504 v -2.2504 h -2.2504 z" /></clipPath><clipPath
       id="clipPath214"
       clipPathUnits="userSpaceOnUse"><path
         id="path212"
         d="m 29.5922,20.4783 h 2.2504 v -2.2504 h -2.2504 z" /></clipPath><clipPath
       id="clipPath228"
       clipPathUnits="userSpaceOnUse"><path
         id="path226"
         d="m 21.9409,17.8904 h 2.2504 V 15.64 h -2.2504 z" /></clipPath><clipPath
       id="clipPath242"
       clipPathUnits="userSpaceOnUse"><path
         id="path240"
         d="m 24.5289,17.8904 h 2.2504 V 15.64 h -2.2504 z" /></clipPath><clipPath
       id="clipPath256"
       clipPathUnits="userSpaceOnUse"><path
         id="path254"
         d="m 27.1169,17.8904 h 2.2504 V 15.64 h -2.2504 z" /></clipPath><clipPath
       id="clipPath270"
       clipPathUnits="userSpaceOnUse"><path
         id="path268"
         d="m 27.1169,15.3586 h 2.2504 v -2.2504 h -2.2504 z" /></clipPath><clipPath
       id="clipPath284"
       clipPathUnits="userSpaceOnUse"><path
         id="path282"
         d="m 29.5922,12.8271 h 2.2504 v -2.2504 h -2.2504 z" /></clipPath><clipPath
       id="clipPath298"
       clipPathUnits="userSpaceOnUse"><path
         id="path296"
         d="m 19.1279,10.1267 h 2.2504 V 7.87634 h -2.2504 z" /></clipPath><clipPath
       id="clipPath312"
       clipPathUnits="userSpaceOnUse"><path
         id="path310"
         d="m 27.1169,10.1267 h 2.2504 V 7.87634 h -2.2504 z" /></clipPath></defs><g
     transform="matrix(1.3333333,0,0,-1.3333333,0,40)"
     id="g10"><path
       id="path12"
       style="fill:#fbe18a;fill-opacity:1;fill-rule:nonzero;stroke:none"
       d="m 21.941,28.13 h 2.25 v -2.25 h -2.25 z" /><path
       id="path14"
       style="fill:#fbe18a;fill-opacity:1;fill-rule:nonzero;stroke:none"
       d="m 24.529,28.13 h 2.25 v -2.25 h -2.25 z" /><path
       id="path16"
       style="fill:#fbe18a;fill-opacity:1;fill-rule:nonzero;stroke:none"
       d="m 29.592,28.13 h 2.25 v -2.25 h -2.25 z" /><path
       id="path18"
       style="fill:#fbe18a;fill-opacity:1;fill-rule:nonzero;stroke:none"
       d="m 19.128,25.542 h 2.25 v -2.25 h -2.25 z" /><path
       id="path20"
       style="fill:#fbe18a;fill-opacity:1;fill-rule:nonzero;stroke:none"
       d="m 27.117,25.542 h 2.25 v -2.25 h -2.25 z" /><path
       id="path22"
       style="fill:#fbe18a;fill-opacity:1;fill-rule:nonzero;stroke:none"
       d="m 19.128,23.01 h 2.25 v -2.25 h -2.25 z" /><path
       id="path24"
       style="fill:#fbe18a;fill-opacity:1;fill-rule:nonzero;stroke:none"
       d="m 21.941,23.01 h 2.25 v -2.25 h -2.25 z" /><path
       id="path26"
       style="fill:#fbe18a;fill-opacity:1;fill-rule:nonzero;stroke:none"
       d="m 24.529,23.01 h 2.25 v -2.25 h -2.25 z" /><path
       id="path28"
       style="fill:#fbe18a;fill-opacity:1;fill-rule:nonzero;stroke:none"
       d="m 29.592,23.01 h 2.25 v -2.25 h -2.25 z" /><path
       id="path30"
       style="fill:#fbe18a;fill-opacity:1;fill-rule:nonzero;stroke:none"
       d="m 24.529,20.478 h 2.25 v -2.25 h -2.25 z" /><path
       id="path32"
       style="fill:#fbe18a;fill-opacity:1;fill-rule:nonzero;stroke:none"
       d="m 29.592,20.478 h 2.25 v -2.25 h -2.25 z" /><path
       id="path34"
       style="fill:#fbe18a;fill-opacity:1;fill-rule:nonzero;stroke:none"
       d="m 21.941,17.89 h 2.25 v -2.25 h -2.25 z" /><path
       id="path36"
       style="fill:#fbe18a;fill-opacity:1;fill-rule:nonzero;stroke:none"
       d="m 24.529,17.89 h 2.25 v -2.25 h -2.25 z" /><path
       id="path38"
       style="fill:#fbe18a;fill-opacity:1;fill-rule:nonzero;stroke:none"
       d="m 27.117,17.89 h 2.25 v -2.25 h -2.25 z" /><path
       id="path40"
       style="fill:#fbe18a;fill-opacity:1;fill-rule:nonzero;stroke:none"
       d="m 27.117,15.359 h 2.25 v -2.25 h -2.25 z" /><path
       id="path42"
       style="fill:#fbe18a;fill-opacity:1;fill-rule:nonzero;stroke:none"
       d="m 29.592,12.827 h 2.25 v -2.25 h -2.25 z" /><path
       id="path44"
       style="fill:#fbe18a;fill-opacity:1;fill-rule:nonzero;stroke:none"
       d="m 19.128,10.127 h 2.25 v -2.25 h -2.25 z" /><path
       id="path46"
       style="fill:#fbe18a;fill-opacity:1;fill-rule:nonzero;stroke:none"
       d="m 27.117,10.127 h 2.25 v -2.25 h -2.25 z" /><g
       transform="translate(18.5886,29.9997)"
       id="g48"><path
         id="path50"
         style="fill:#ffffff;fill-opacity:1;fill-rule:nonzero;stroke:none"
         d="m 0,0 v -11.136 l 1.107,-1.055 h 1.637 v -1.563 l 1.305,-1.245 h 1.303 v -1.243 l 1.352,-1.288 h 1.255 v -1.197 l 0.827,-0.789 -0.827,-0.779 v -1.768 H 6.102 v 0.531 l -0.75,0.711 v -1.242 H 4.955 L 4.978,-30 h 8.863 V 0 Z m 11.097,-1.885 h 1.857 v -1.857 h -1.857 z m -2.388,0 h 1.858 V -3.742 H 8.709 Z m -2.607,0 H 7.959 V -3.742 H 6.102 Z m -2.608,0 H 5.353 V -3.742 H 3.494 Z m -2.607,0 H 2.744 V -3.742 H 0.887 Z m 10.21,-2.607 h 1.857 V -6.35 h -1.857 z m -2.388,0 h 1.858 V -6.35 H 8.709 Z m -2.607,0 H 7.959 V -6.35 H 6.102 Z m -2.608,0 H 5.353 V -6.35 H 3.494 Z m -2.607,0 H 2.744 V -6.35 H 0.887 Z m 10.21,-2.607 h 1.857 v -1.858 h -1.857 z m -2.388,0 h 1.858 V -8.957 H 8.709 Z m -2.607,0 H 7.959 V -8.957 H 6.102 Z m -2.608,0 H 5.353 V -8.957 H 3.494 Z m -2.607,0 H 2.744 V -8.957 H 0.887 Z m 10.21,-2.607 h 1.857 v -1.857 h -1.857 z m -2.388,0 h 1.858 v -1.857 H 8.709 Z m -2.607,0 h 1.857 v -1.857 H 6.102 Z m -2.608,0 h 1.859 v -1.857 H 3.494 Z m -2.607,0 h 1.857 v -1.857 H 0.887 Z m 10.21,-2.485 h 1.857 v -1.857 h -1.857 z m -2.388,0 h 1.858 v -1.857 H 8.709 Z m -2.607,0 h 1.857 v -1.857 H 6.102 Z m -2.608,0 h 1.859 v -1.857 H 3.494 Z m 7.603,-2.808 h 1.857 v -1.858 h -1.857 z m -2.388,0 h 1.858 v -1.858 H 8.709 Z m -2.607,0 h 1.857 v -1.858 H 6.102 Z m 4.995,-2.531 h 1.857 v -1.859 h -1.857 z m -2.388,0 h 1.858 v -1.859 H 8.709 Z m 2.388,-2.676 h 1.857 v -1.857 h -1.857 z m -2.388,0 h 1.858 v -1.857 H 8.709 Z" /></g><g
       transform="translate(4.1994,9.1143)"
       id="g52"><path
         id="path54"
         style="fill:#ffffff;fill-opacity:1;fill-rule:nonzero;stroke:none"
         d="m 0,0 v -9.114 h 11.347 v 7.647 h 4.407 v -7.647 h 3.132 V -0.03 L 9.443,9.116 Z m 6.176,-1.177 h 3.378 v -2.19 H 6.176 Z m -4.063,0 h 3.376 v -2.19 H 2.113 Z m 4.063,-2.77 h 3.378 v -2.19 H 6.176 Z m -4.063,0 h 3.376 v -2.19 H 2.113 Z" /></g><g
       transform="translate(7.2756,17.4375)"
       id="g56"><path
         id="path58"
         style="fill:#ffffff;fill-opacity:1;fill-rule:nonzero;stroke:none"
         d="M 0,0 V 4.068 H -3.076 V -2.927 L -7.276,-6.923 -5.25,-8.919 6.218,1.953 17.687,-8.919 19.771,-6.952 6.248,5.945 Z" /></g><g
       id="g60"><g
         clip-path="url(#clipPath66)"
         id="g62"><g
           id="g68"><g
             id="g70" /><g
             id="g80"><g
               style="opacity:0.5"
               id="g78"
               clip-path="url(#clipPath74)"><path
                 id="path76"
                 style="fill:#ffffff;fill-opacity:1;fill-rule:nonzero;stroke:none"
                 d="m 21.941,28.13 h 2.25 v -2.25 h -2.25 z" /></g></g></g><g
           id="g82"><g
             id="g84" /><g
             id="g94"><g
               style="opacity:0.5"
               id="g92"
               clip-path="url(#clipPath88)"><path
                 id="path90"
                 style="fill:#ffffff;fill-opacity:1;fill-rule:nonzero;stroke:none"
                 d="m 24.529,28.13 h 2.25 v -2.25 h -2.25 z" /></g></g></g><g
           id="g96"><g
             id="g98" /><g
             id="g108"><g
               style="opacity:0.5"
               id="g106"
               clip-path="url(#clipPath102)"><path
                 id="path104"
                 style="fill:#ffffff;fill-opacity:1;fill-rule:nonzero;stroke:none"
                 d="m 29.592,28.13 h 2.25 v -2.25 h -2.25 z" /></g></g></g><g
           id="g110"><g
             id="g112" /><g
             id="g122"><g
               style="opacity:0.5"
               id="g120"
               clip-path="url(#clipPath116)"><path
                 id="path118"
                 style="fill:#ffffff;fill-opacity:1;fill-rule:nonzero;stroke:none"
                 d="m 19.128,25.542 h 2.25 v -2.25 h -2.25 z" /></g></g></g><g
           id="g124"><g
             id="g126" /><g
             id="g136"><g
               style="opacity:0.5"
               id="g134"
               clip-path="url(#clipPath130)"><path
                 id="path132"
                 style="fill:#ffffff;fill-opacity:1;fill-rule:nonzero;stroke:none"
                 d="m 27.117,25.542 h 2.25 v -2.25 h -2.25 z" /></g></g></g><g
           id="g138"><g
             id="g140" /><g
             id="g150"><g
               style="opacity:0.5"
               id="g148"
               clip-path="url(#clipPath144)"><path
                 id="path146"
                 style="fill:#ffffff;fill-opacity:1;fill-rule:nonzero;stroke:none"
                 d="m 19.128,23.01 h 2.25 v -2.25 h -2.25 z" /></g></g></g><g
           id="g152"><g
             id="g154" /><g
             id="g164"><g
               style="opacity:0.5"
               id="g162"
               clip-path="url(#clipPath158)"><path
                 id="path160"
                 style="fill:#ffffff;fill-opacity:1;fill-rule:nonzero;stroke:none"
                 d="m 21.941,23.01 h 2.25 v -2.25 h -2.25 z" /></g></g></g><g
           id="g166"><g
             id="g168" /><g
             id="g178"><g
               style="opacity:0.5"
               id="g176"
               clip-path="url(#clipPath172)"><path
                 id="path174"
                 style="fill:#ffffff;fill-opacity:1;fill-rule:nonzero;stroke:none"
                 d="m 24.529,23.01 h 2.25 v -2.25 h -2.25 z" /></g></g></g><g
           id="g180"><g
             id="g182" /><g
             id="g192"><g
               style="opacity:0.5"
               id="g190"
               clip-path="url(#clipPath186)"><path
                 id="path188"
                 style="fill:#ffffff;fill-opacity:1;fill-rule:nonzero;stroke:none"
                 d="m 29.592,23.01 h 2.25 v -2.25 h -2.25 z" /></g></g></g><g
           id="g194"><g
             id="g196" /><g
             id="g206"><g
               style="opacity:0.5"
               id="g204"
               clip-path="url(#clipPath200)"><path
                 id="path202"
                 style="fill:#ffffff;fill-opacity:1;fill-rule:nonzero;stroke:none"
                 d="m 24.529,20.478 h 2.25 v -2.25 h -2.25 z" /></g></g></g><g
           id="g208"><g
             id="g210" /><g
             id="g220"><g
               style="opacity:0.5"
               id="g218"
               clip-path="url(#clipPath214)"><path
                 id="path216"
                 style="fill:#ffffff;fill-opacity:1;fill-rule:nonzero;stroke:none"
                 d="m 29.592,20.478 h 2.25 v -2.25 h -2.25 z" /></g></g></g><g
           id="g222"><g
             id="g224" /><g
             id="g234"><g
               style="opacity:0.5"
               id="g232"
               clip-path="url(#clipPath228)"><path
                 id="path230"
                 style="fill:#ffffff;fill-opacity:1;fill-rule:nonzero;stroke:none"
                 d="m 21.941,17.89 h 2.25 v -2.25 h -2.25 z" /></g></g></g><g
           id="g236"><g
             id="g238" /><g
             id="g248"><g
               style="opacity:0.5"
               id="g246"
               clip-path="url(#clipPath242)"><path
                 id="path244"
                 style="fill:#ffffff;fill-opacity:1;fill-rule:nonzero;stroke:none"
                 d="m 24.529,17.89 h 2.25 v -2.25 h -2.25 z" /></g></g></g><g
           id="g250"><g
             id="g252" /><g
             id="g262"><g
               style="opacity:0.5"
               id="g260"
               clip-path="url(#clipPath256)"><path
                 id="path258"
                 style="fill:#ffffff;fill-opacity:1;fill-rule:nonzero;stroke:none"
                 d="m 27.117,17.89 h 2.25 v -2.25 h -2.25 z" /></g></g></g><g
           id="g264"><g
             id="g266" /><g
             id="g276"><g
               style="opacity:0.5"
               id="g274"
               clip-path="url(#clipPath270)"><path
                 id="path272"
                 style="fill:#ffffff;fill-opacity:1;fill-rule:nonzero;stroke:none"
                 d="m 27.117,15.359 h 2.25 v -2.25 h -2.25 z" /></g></g></g><g
           id="g278"><g
             id="g280" /><g
             id="g290"><g
               style="opacity:0.5"
               id="g288"
               clip-path="url(#clipPath284)"><path
                 id="path286"
                 style="fill:#ffffff;fill-opacity:1;fill-rule:nonzero;stroke:none"
                 d="m 29.592,12.827 h 2.25 v -2.25 h -2.25 z" /></g></g></g><g
           id="g292"><g
             id="g294" /><g
             id="g304"><g
               style="opacity:0.5"
               id="g302"
               clip-path="url(#clipPath298)"><path
                 id="path300"
                 style="fill:#ffffff;fill-opacity:1;fill-rule:nonzero;stroke:none"
                 d="m 19.128,10.127 h 2.25 v -2.25 h -2.25 z" /></g></g></g><g
           id="g306"><g
             id="g308" /><g
             id="g318"><g
               style="opacity:0.5"
               id="g316"
               clip-path="url(#clipPath312)"><path
                 id="path314"
                 style="fill:#ffffff;fill-opacity:1;fill-rule:nonzero;stroke:none"
                 d="m 27.117,10.127 h 2.25 v -2.25 h -2.25 z" /></g></g></g></g></g></g></svg>