<?xml version="1.0" encoding="UTF-8" standalone="no"?>
<svg
   xmlns:dc="http://purl.org/dc/elements/1.1/"
   xmlns:cc="http://creativecommons.org/ns#"
   xmlns:rdf="http://www.w3.org/1999/02/22-rdf-syntax-ns#"
   xmlns:svg="http://www.w3.org/2000/svg"
   xmlns="http://www.w3.org/2000/svg"
   viewBox="0 0 43.239601 39.999866"
   height="39.999866"
   width="43.239601"
   xml:space="preserve"
   id="svg2"
   version="1.1"><metadata
     id="metadata8"><rdf:RDF><cc:Work
         rdf:about=""><dc:format>image/svg+xml</dc:format><dc:type
           rdf:resource="http://purl.org/dc/dcmitype/StillImage" /></cc:Work></rdf:RDF></metadata><defs
     id="defs6"><clipPath
       id="clipPath68"
       clipPathUnits="userSpaceOnUse"><path
         id="path66"
         d="M 0,30 H 32.43 V 0 H 0 Z" /></clipPath><clipPath
       id="clipPath76"
       clipPathUnits="userSpaceOnUse"><path
         id="path74"
         d="m 19.1281,28.1296 h 2.2504 v -2.2504 h -2.2504 z" /></clipPath><clipPath
       id="clipPath90"
       clipPathUnits="userSpaceOnUse"><path
         id="path88"
         d="M 5.62585,9.00171 H 14.6273 V 2.25061 H 5.62585 Z" /></clipPath><clipPath
       id="clipPath104"
       clipPathUnits="userSpaceOnUse"><path
         id="path102"
         d="m 24.5289,28.1296 h 2.2504 v -2.2504 h -2.2504 z" /></clipPath><clipPath
       id="clipPath118"
       clipPathUnits="userSpaceOnUse"><path
         id="path116"
         d="m 27.1169,28.1296 h 2.2504 v -2.2504 h -2.2504 z" /></clipPath><clipPath
       id="clipPath132"
       clipPathUnits="userSpaceOnUse"><path
         id="path130"
         d="m 21.941,25.5417 h 2.2504 V 23.2913 H 21.941 Z" /></clipPath><clipPath
       id="clipPath146"
       clipPathUnits="userSpaceOnUse"><path
         id="path144"
         d="m 24.5289,25.5417 h 2.2504 v -2.2504 h -2.2504 z" /></clipPath><clipPath
       id="clipPath160"
       clipPathUnits="userSpaceOnUse"><path
         id="path158"
         d="m 19.1281,23.01 h 2.2504 v -2.2504 h -2.2504 z" /></clipPath><clipPath
       id="clipPath174"
       clipPathUnits="userSpaceOnUse"><path
         id="path172"
         d="m 24.5289,23.01 h 2.2504 v -2.2504 h -2.2504 z" /></clipPath><clipPath
       id="clipPath188"
       clipPathUnits="userSpaceOnUse"><path
         id="path186"
         d="m 29.5923,23.01 h 2.2504 v -2.2504 h -2.2504 z" /></clipPath><clipPath
       id="clipPath202"
       clipPathUnits="userSpaceOnUse"><path
         id="path200"
         d="m 24.5289,20.4782 h 2.2504 v -2.2504 h -2.2504 z" /></clipPath><clipPath
       id="clipPath216"
       clipPathUnits="userSpaceOnUse"><path
         id="path214"
         d="m 27.1169,20.4782 h 2.2504 v -2.2504 h -2.2504 z" /></clipPath><clipPath
       id="clipPath230"
       clipPathUnits="userSpaceOnUse"><path
         id="path228"
         d="m 29.5923,20.4782 h 2.2504 v -2.2504 h -2.2504 z" /></clipPath><clipPath
       id="clipPath244"
       clipPathUnits="userSpaceOnUse"><path
         id="path242"
         d="m 21.941,17.8903 h 2.2504 V 15.6399 H 21.941 Z" /></clipPath><clipPath
       id="clipPath258"
       clipPathUnits="userSpaceOnUse"><path
         id="path256"
         d="m 24.5289,17.8903 h 2.2504 v -2.2504 h -2.2504 z" /></clipPath><clipPath
       id="clipPath272"
       clipPathUnits="userSpaceOnUse"><path
         id="path270"
         d="m 24.5289,15.3586 h 2.2504 v -2.2504 h -2.2504 z" /></clipPath><clipPath
       id="clipPath286"
       clipPathUnits="userSpaceOnUse"><path
         id="path284"
         d="m 29.5923,15.3586 h 2.2504 v -2.2504 h -2.2504 z" /></clipPath><clipPath
       id="clipPath300"
       clipPathUnits="userSpaceOnUse"><path
         id="path298"
         d="m 29.5923,12.8271 h 2.2504 v -2.2504 h -2.2504 z" /></clipPath><clipPath
       id="clipPath314"
       clipPathUnits="userSpaceOnUse"><path
         id="path312"
         d="m 19.1281,10.1267 h 2.2504 V 7.87634 h -2.2504 z" /></clipPath><clipPath
       id="clipPath328"
       clipPathUnits="userSpaceOnUse"><path
         id="path326"
         d="m 27.1169,10.1267 h 2.2504 V 7.87634 h -2.2504 z" /></clipPath></defs><g
     transform="matrix(1.3333333,0,0,-1.3333333,0,39.999867)"
     id="g10"><path
       id="path12"
       style="fill:#fbe18a;fill-opacity:1;fill-rule:nonzero;stroke:none"
       d="m 19.128,28.13 h 2.25 v -2.25 h -2.25 z" /><path
       id="path14"
       style="fill:#fbe18a;fill-opacity:1;fill-rule:nonzero;stroke:none"
       d="m 5.626,9.002 h 9.001 V 2.251 H 5.626 Z" /><path
       id="path16"
       style="fill:#fbe18a;fill-opacity:1;fill-rule:nonzero;stroke:none"
       d="m 24.529,28.13 h 2.25 v -2.25 h -2.25 z" /><path
       id="path18"
       style="fill:#fbe18a;fill-opacity:1;fill-rule:nonzero;stroke:none"
       d="m 27.117,28.13 h 2.25 v -2.25 h -2.25 z" /><path
       id="path20"
       style="fill:#fbe18a;fill-opacity:1;fill-rule:nonzero;stroke:none"
       d="m 21.941,25.542 h 2.25 v -2.25 h -2.25 z" /><path
       id="path22"
       style="fill:#fbe18a;fill-opacity:1;fill-rule:nonzero;stroke:none"
       d="m 24.529,25.542 h 2.25 v -2.25 h -2.25 z" /><path
       id="path24"
       style="fill:#fbe18a;fill-opacity:1;fill-rule:nonzero;stroke:none"
       d="m 19.128,23.01 h 2.25 v -2.25 h -2.25 z" /><path
       id="path26"
       style="fill:#fbe18a;fill-opacity:1;fill-rule:nonzero;stroke:none"
       d="m 24.529,23.01 h 2.25 v -2.25 h -2.25 z" /><path
       id="path28"
       style="fill:#fbe18a;fill-opacity:1;fill-rule:nonzero;stroke:none"
       d="m 29.592,23.01 h 2.25 v -2.25 h -2.25 z" /><path
       id="path30"
       style="fill:#fbe18a;fill-opacity:1;fill-rule:nonzero;stroke:none"
       d="m 24.529,20.478 h 2.25 v -2.25 h -2.25 z" /><path
       id="path32"
       style="fill:#fbe18a;fill-opacity:1;fill-rule:nonzero;stroke:none"
       d="m 27.117,20.478 h 2.25 v -2.25 h -2.25 z" /><path
       id="path34"
       style="fill:#fbe18a;fill-opacity:1;fill-rule:nonzero;stroke:none"
       d="m 29.592,20.478 h 2.25 v -2.25 h -2.25 z" /><path
       id="path36"
       style="fill:#fbe18a;fill-opacity:1;fill-rule:nonzero;stroke:none"
       d="m 21.941,17.89 h 2.25 v -2.25 h -2.25 z" /><path
       id="path38"
       style="fill:#fbe18a;fill-opacity:1;fill-rule:nonzero;stroke:none"
       d="m 24.529,17.89 h 2.25 v -2.25 h -2.25 z" /><path
       id="path40"
       style="fill:#fbe18a;fill-opacity:1;fill-rule:nonzero;stroke:none"
       d="m 24.529,15.359 h 2.25 v -2.25 h -2.25 z" /><path
       id="path42"
       style="fill:#fbe18a;fill-opacity:1;fill-rule:nonzero;stroke:none"
       d="m 29.592,15.359 h 2.25 v -2.25 h -2.25 z" /><path
       id="path44"
       style="fill:#fbe18a;fill-opacity:1;fill-rule:nonzero;stroke:none"
       d="m 29.592,12.827 h 2.25 v -2.25 h -2.25 z" /><path
       id="path46"
       style="fill:#fbe18a;fill-opacity:1;fill-rule:nonzero;stroke:none"
       d="m 19.128,10.127 h 2.25 v -2.25 h -2.25 z" /><path
       id="path48"
       style="fill:#fbe18a;fill-opacity:1;fill-rule:nonzero;stroke:none"
       d="m 27.117,10.127 h 2.25 v -2.25 h -2.25 z" /><g
       transform="translate(18.5886,29.9997)"
       id="g50"><path
         id="path52"
         style="fill:#ffffff;fill-opacity:1;fill-rule:nonzero;stroke:none"
         d="m 0,0 v -11.136 l 1.107,-1.055 h 1.637 v -1.563 l 1.305,-1.245 h 1.303 v -1.243 l 1.352,-1.288 h 1.255 v -1.197 l 0.827,-0.789 -0.827,-0.779 v -1.768 H 6.102 v 0.531 l -0.75,0.711 v -1.242 H 4.955 L 4.978,-30 h 8.863 V 0 Z m 11.097,-1.885 h 1.857 v -1.857 h -1.857 z m -2.388,0 h 1.858 V -3.742 H 8.709 Z m -2.607,0 H 7.959 V -3.742 H 6.102 Z m -2.608,0 H 5.353 V -3.742 H 3.494 Z m -2.607,0 H 2.744 V -3.742 H 0.887 Z m 10.21,-2.607 h 1.857 V -6.35 h -1.857 z m -2.388,0 h 1.858 V -6.35 H 8.709 Z m -2.607,0 H 7.959 V -6.35 H 6.102 Z m -2.608,0 H 5.353 V -6.35 H 3.494 Z m -2.607,0 H 2.744 V -6.35 H 0.887 Z M 11.097,-7.1 h 1.857 v -1.857 h -1.857 z m -2.388,0 h 1.858 V -8.957 H 8.709 Z m -2.607,0 H 7.959 V -8.957 H 6.102 Z m -2.608,0 H 5.353 V -8.957 H 3.494 Z m -2.607,0 H 2.744 V -8.957 H 0.887 Z m 10.21,-2.606 h 1.857 v -1.857 h -1.857 z m -2.388,0 h 1.858 v -1.857 H 8.709 Z m -2.607,0 h 1.857 v -1.857 H 6.102 Z m -2.608,0 h 1.859 v -1.857 H 3.494 Z m -2.607,0 h 1.857 v -1.857 H 0.887 Z m 10.21,-2.485 h 1.857 v -1.857 h -1.857 z m -2.388,0 h 1.858 v -1.857 H 8.709 Z m -2.607,0 h 1.857 v -1.857 H 6.102 Z m -2.608,0 h 1.859 v -1.857 H 3.494 Z m 7.603,-2.808 h 1.857 v -1.858 h -1.857 z m -2.388,0 h 1.858 v -1.858 H 8.709 Z m -2.607,0 h 1.857 v -1.858 H 6.102 Z m 4.995,-2.531 h 1.857 v -1.859 h -1.857 z m -2.388,0 h 1.858 v -1.859 H 8.709 Z m 2.388,-2.676 h 1.857 v -1.857 h -1.857 z m -2.388,0 h 1.858 v -1.857 H 8.709 Z" /></g><g
       transform="translate(4.1994,9.1143)"
       id="g54"><path
         id="path56"
         style="fill:#ffffff;fill-opacity:1;fill-rule:nonzero;stroke:none"
         d="m 0,0 v -9.114 h 11.347 v 7.647 h 4.407 v -7.647 h 3.132 V -0.03 L 9.443,9.115 Z m 6.176,-1.177 h 3.378 v -2.19 H 6.176 Z m -4.063,0 h 3.376 v -2.19 H 2.113 Z m 4.063,-2.77 h 3.378 v -2.19 H 6.176 Z m -4.063,0 h 3.376 v -2.19 H 2.113 Z" /></g><g
       transform="translate(7.2756,17.4375)"
       id="g58"><path
         id="path60"
         style="fill:#ffffff;fill-opacity:1;fill-rule:nonzero;stroke:none"
         d="M 0,0 V 4.068 H -3.076 V -2.927 L -7.276,-6.923 -5.25,-8.919 6.218,1.953 17.687,-8.919 19.771,-6.952 6.248,5.945 Z" /></g><g
       id="g62"><g
         clip-path="url(#clipPath68)"
         id="g64"><g
           id="g70"><g
             id="g72" /><g
             id="g82"><g
               style="opacity:0.5"
               id="g80"
               clip-path="url(#clipPath76)"><path
                 id="path78"
                 style="fill:#ffffff;fill-opacity:1;fill-rule:nonzero;stroke:none"
                 d="m 19.128,28.13 h 2.25 v -2.25 h -2.25 z" /></g></g></g><g
           id="g84"><g
             id="g86" /><g
             id="g96"><g
               style="opacity:0.5"
               id="g94"
               clip-path="url(#clipPath90)"><path
                 id="path92"
                 style="fill:#ffffff;fill-opacity:1;fill-rule:nonzero;stroke:none"
                 d="m 5.626,9.002 h 9.001 V 2.251 H 5.626 Z" /></g></g></g><g
           id="g98"><g
             id="g100" /><g
             id="g110"><g
               style="opacity:0.5"
               id="g108"
               clip-path="url(#clipPath104)"><path
                 id="path106"
                 style="fill:#ffffff;fill-opacity:1;fill-rule:nonzero;stroke:none"
                 d="m 24.529,28.13 h 2.25 v -2.25 h -2.25 z" /></g></g></g><g
           id="g112"><g
             id="g114" /><g
             id="g124"><g
               style="opacity:0.5"
               id="g122"
               clip-path="url(#clipPath118)"><path
                 id="path120"
                 style="fill:#ffffff;fill-opacity:1;fill-rule:nonzero;stroke:none"
                 d="m 27.117,28.13 h 2.25 v -2.25 h -2.25 z" /></g></g></g><g
           id="g126"><g
             id="g128" /><g
             id="g138"><g
               style="opacity:0.5"
               id="g136"
               clip-path="url(#clipPath132)"><path
                 id="path134"
                 style="fill:#ffffff;fill-opacity:1;fill-rule:nonzero;stroke:none"
                 d="m 21.941,25.542 h 2.25 v -2.25 h -2.25 z" /></g></g></g><g
           id="g140"><g
             id="g142" /><g
             id="g152"><g
               style="opacity:0.5"
               id="g150"
               clip-path="url(#clipPath146)"><path
                 id="path148"
                 style="fill:#ffffff;fill-opacity:1;fill-rule:nonzero;stroke:none"
                 d="m 24.529,25.542 h 2.25 v -2.25 h -2.25 z" /></g></g></g><g
           id="g154"><g
             id="g156" /><g
             id="g166"><g
               style="opacity:0.5"
               id="g164"
               clip-path="url(#clipPath160)"><path
                 id="path162"
                 style="fill:#ffffff;fill-opacity:1;fill-rule:nonzero;stroke:none"
                 d="m 19.128,23.01 h 2.25 v -2.25 h -2.25 z" /></g></g></g><g
           id="g168"><g
             id="g170" /><g
             id="g180"><g
               style="opacity:0.5"
               id="g178"
               clip-path="url(#clipPath174)"><path
                 id="path176"
                 style="fill:#ffffff;fill-opacity:1;fill-rule:nonzero;stroke:none"
                 d="m 24.529,23.01 h 2.25 v -2.25 h -2.25 z" /></g></g></g><g
           id="g182"><g
             id="g184" /><g
             id="g194"><g
               style="opacity:0.5"
               id="g192"
               clip-path="url(#clipPath188)"><path
                 id="path190"
                 style="fill:#ffffff;fill-opacity:1;fill-rule:nonzero;stroke:none"
                 d="m 29.592,23.01 h 2.25 v -2.25 h -2.25 z" /></g></g></g><g
           id="g196"><g
             id="g198" /><g
             id="g208"><g
               style="opacity:0.5"
               id="g206"
               clip-path="url(#clipPath202)"><path
                 id="path204"
                 style="fill:#ffffff;fill-opacity:1;fill-rule:nonzero;stroke:none"
                 d="m 24.529,20.478 h 2.25 v -2.25 h -2.25 z" /></g></g></g><g
           id="g210"><g
             id="g212" /><g
             id="g222"><g
               style="opacity:0.5"
               id="g220"
               clip-path="url(#clipPath216)"><path
                 id="path218"
                 style="fill:#ffffff;fill-opacity:1;fill-rule:nonzero;stroke:none"
                 d="m 27.117,20.478 h 2.25 v -2.25 h -2.25 z" /></g></g></g><g
           id="g224"><g
             id="g226" /><g
             id="g236"><g
               style="opacity:0.5"
               id="g234"
               clip-path="url(#clipPath230)"><path
                 id="path232"
                 style="fill:#ffffff;fill-opacity:1;fill-rule:nonzero;stroke:none"
                 d="m 29.592,20.478 h 2.25 v -2.25 h -2.25 z" /></g></g></g><g
           id="g238"><g
             id="g240" /><g
             id="g250"><g
               style="opacity:0.5"
               id="g248"
               clip-path="url(#clipPath244)"><path
                 id="path246"
                 style="fill:#ffffff;fill-opacity:1;fill-rule:nonzero;stroke:none"
                 d="m 21.941,17.89 h 2.25 v -2.25 h -2.25 z" /></g></g></g><g
           id="g252"><g
             id="g254" /><g
             id="g264"><g
               style="opacity:0.5"
               id="g262"
               clip-path="url(#clipPath258)"><path
                 id="path260"
                 style="fill:#ffffff;fill-opacity:1;fill-rule:nonzero;stroke:none"
                 d="m 24.529,17.89 h 2.25 v -2.25 h -2.25 z" /></g></g></g><g
           id="g266"><g
             id="g268" /><g
             id="g278"><g
               style="opacity:0.5"
               id="g276"
               clip-path="url(#clipPath272)"><path
                 id="path274"
                 style="fill:#ffffff;fill-opacity:1;fill-rule:nonzero;stroke:none"
                 d="m 24.529,15.359 h 2.25 v -2.25 h -2.25 z" /></g></g></g><g
           id="g280"><g
             id="g282" /><g
             id="g292"><g
               style="opacity:0.5"
               id="g290"
               clip-path="url(#clipPath286)"><path
                 id="path288"
                 style="fill:#ffffff;fill-opacity:1;fill-rule:nonzero;stroke:none"
                 d="m 29.592,15.359 h 2.25 v -2.25 h -2.25 z" /></g></g></g><g
           id="g294"><g
             id="g296" /><g
             id="g306"><g
               style="opacity:0.5"
               id="g304"
               clip-path="url(#clipPath300)"><path
                 id="path302"
                 style="fill:#ffffff;fill-opacity:1;fill-rule:nonzero;stroke:none"
                 d="m 29.592,12.827 h 2.25 v -2.25 h -2.25 z" /></g></g></g><g
           id="g308"><g
             id="g310" /><g
             id="g320"><g
               style="opacity:0.5"
               id="g318"
               clip-path="url(#clipPath314)"><path
                 id="path316"
                 style="fill:#ffffff;fill-opacity:1;fill-rule:nonzero;stroke:none"
                 d="m 19.128,10.127 h 2.25 v -2.25 h -2.25 z" /></g></g></g><g
           id="g322"><g
             id="g324" /><g
             id="g334"><g
               style="opacity:0.5"
               id="g332"
               clip-path="url(#clipPath328)"><path
                 id="path330"
                 style="fill:#ffffff;fill-opacity:1;fill-rule:nonzero;stroke:none"
                 d="m 27.117,10.127 h 2.25 v -2.25 h -2.25 z" /></g></g></g></g></g></g></svg>