<svg xmlns="http://www.w3.org/2000/svg" width="22" height="13" viewBox="0 0 22 13" fill="none">
  <path d="M21.49 6.90665V7.02665C21.49 7.63665 21.04 8.12665 20.48 8.12665H19.77V8.36665C19.77 10.4967 18.65 12.2167 17.26 12.2566C17.26 12.6066 17.01 12.8867 16.69 12.8867C16.37 12.8867 16.12 12.6067 16.12 12.2667H5.3C5.3 12.6067 5.05 12.8867 4.73 12.8867C4.41 12.8867 4.16 12.6067 4.16 12.2667C4.16 12.2566 4.16 12.2467 4.16 12.2267C2.91 11.9767 1.95 10.3367 1.95 8.36665V8.12665H1.52C0.96 8.12665 0.5 7.63665 0.5 7.02665V6.90665C0.5 6.30665 0.95 5.81665 1.52 5.81665H20.49C21.05 5.81665 21.5 6.30665 21.5 6.90665H21.49Z" fill="white"/>
  <path d="M4.44 1.14664L4.14 1.17664C4.1 0.856636 3.81 0.626636 3.49 0.656636C3.23 0.686636 3.02 0.886636 2.98 1.12664C3 1.14664 3 1.18664 3 1.21664V8.06664C3 8.16664 2.93 8.23664 2.83 8.23664C2.74 8.23664 2.66 8.16664 2.66 8.06664V1.24664C2.66 1.24664 2.66 1.18664 2.67 1.15664C2.71 0.746636 3.03 0.406636 3.45 0.356636C3.94 0.296636 4.39 0.656636 4.44 1.14664Z" fill="white"/>
  <path d="M5.62 1.32666C5.62 1.32666 5.62 1.38666 5.58 1.39666L3.53 2.21666C3.53 2.21666 3.47 2.21666 3.46 2.18666C3.45 2.15666 3.46 2.12666 3.49 2.11666L3.57 2.08666C3.49 1.61666 3.75 1.14666 4.22 0.956664C4.69 0.766664 5.2 0.936664 5.47 1.32666L5.54 1.29666C5.54 1.29666 5.61 1.29666 5.62 1.32666Z" fill="white"/>
</svg>
