<svg xmlns="http://www.w3.org/2000/svg" width="22" height="13" viewBox="0 0 22 13" fill="none">
  <path d="M21.49 6.90653V7.02653C21.49 7.63653 21.04 8.12653 20.48 8.12653H19.77V8.36653C19.77 10.4965 18.65 12.2165 17.26 12.2565C17.26 12.6065 17.01 12.8865 16.69 12.8865C16.37 12.8865 16.12 12.6065 16.12 12.2665H5.3C5.3 12.6065 5.05 12.8865 4.73 12.8865C4.41 12.8865 4.16 12.6065 4.16 12.2665C4.16 12.2565 4.16 12.2465 4.16 12.2265C2.91 11.9765 1.95 10.3365 1.95 8.36653V8.12653H1.52C0.96 8.12653 0.5 7.63653 0.5 7.02653V6.90653C0.5 6.30653 0.95 5.81653 1.52 5.81653H20.49C21.05 5.81653 21.5 6.30653 21.5 6.90653H21.49Z" fill="#555555"/>
  <path d="M4.44016 1.14651L4.14016 1.17651C4.10016 0.856514 3.81016 0.626514 3.49016 0.656514C3.23016 0.686514 3.02016 0.886514 2.98016 1.12651C3.00016 1.14651 3.00016 1.18651 3.00016 1.21651V8.06651C3.00016 8.16651 2.93016 8.23651 2.83016 8.23651C2.74016 8.23651 2.66016 8.16651 2.66016 8.06651V1.24651C2.66016 1.24651 2.66016 1.18651 2.67016 1.15651C2.71016 0.746514 3.03016 0.406514 3.45016 0.356514C3.94016 0.296514 4.39016 0.656514 4.44016 1.14651Z" fill="#555555"/>
  <path d="M5.6198 1.32654C5.6198 1.32654 5.6198 1.38654 5.5798 1.39654L3.5298 2.21654C3.5298 2.21654 3.4698 2.21654 3.4598 2.18654C3.4498 2.15654 3.4598 2.12654 3.4898 2.11654L3.5698 2.08654C3.4898 1.61654 3.7498 1.14654 4.2198 0.956542C4.6898 0.766542 5.1998 0.936542 5.4698 1.32654L5.5398 1.29654C5.5398 1.29654 5.6098 1.29654 5.6198 1.32654Z" fill="#555555"/>
</svg>
