<?xml version="1.0" encoding="UTF-8" standalone="no"?>
<!-- Created with Inkscape (http://www.inkscape.org/) -->

<svg
   version="1.1"
   id="svg2"
   xml:space="preserve"
   width="60.391262"
   height="66.666626"
   viewBox="0 0 60.391262 66.666626"
   sodipodi:docname="8c474115b6452749242179a86dcdffbe.ai"
   xmlns:inkscape="http://www.inkscape.org/namespaces/inkscape"
   xmlns:sodipodi="http://sodipodi.sourceforge.net/DTD/sodipodi-0.dtd"
   xmlns="http://www.w3.org/2000/svg"
   xmlns:svg="http://www.w3.org/2000/svg"><defs
     id="defs6"><clipPath
       clipPathUnits="userSpaceOnUse"
       id="clipPath16"><path
         d="M 0,50 H 45.294 V 0 H 0 Z"
         id="path14" /></clipPath></defs><sodipodi:namedview
     id="namedview4"
     pagecolor="#ffffff"
     bordercolor="#666666"
     borderopacity="1.0"
     inkscape:pageshadow="2"
     inkscape:pageopacity="0.0"
     inkscape:pagecheckerboard="0" /><g
     id="g8"
     inkscape:groupmode="layer"
     inkscape:label="8c474115b6452749242179a86dcdffbe"
     transform="matrix(1.3333333,0,0,-1.3333333,-3.0157789e-4,66.666625)"><g
       id="g10"><g
         id="g12"
         clip-path="url(#clipPath16)"><g
           id="g18"
           transform="translate(37.5118,35.7827)"><path
             d="m 0,0 -3.439,0.706 c -4.185,-0.548 -8.418,-0.822 -12.63,-0.829 h -0.028 c -5.384,0 -10.802,0.452 -16.117,1.335 v -27.994 c 0,-4.295 3.493,-7.782 7.788,-7.782 h 16.645 c 4.295,0 7.781,3.487 7.781,7.782 z m -8.596,11.391 c -0.315,0.473 -0.795,0.802 -1.357,0.918 l -6.89,1.404 c -1.076,0.22 -2.124,-0.404 -2.459,-1.418 l 11.048,-2.26 c 0.041,0.479 -0.075,0.952 -0.342,1.356 M 7.726,1.219 C 7.425,-0.267 5.973,-1.219 4.493,-0.918 l -3.274,0.672 v -26.536 c 0,-4.959 -4.041,-9.001 -9,-9.001 h -16.645 c -4.959,0 -9.001,4.042 -9.001,9.001 V 2.651 l 0.713,-0.123 c 5.473,-0.952 11.062,-1.432 16.617,-1.432 h 0.028 c 2.911,0 5.829,0.137 8.74,0.404 l -27.995,5.727 c -1.479,0.301 -2.438,1.746 -2.13,3.233 0.301,1.479 1.746,2.438 3.233,2.137 l 7.082,-1.453 c 0.418,1.46 1.898,2.37 3.405,2.055 l 3.979,-0.815 c 0.391,1.261 1.679,2.049 3.001,1.781 l 6.89,-1.411 c 0.685,-0.137 1.268,-0.534 1.651,-1.116 0.329,-0.507 0.48,-1.096 0.418,-1.692 L -3.822,9.131 C -2.308,8.823 -1.308,7.405 -1.493,5.898 L 5.589,4.452 C 7.076,4.144 8.028,2.699 7.726,1.219 m -33.965,-30.145 v 24.608 c 0,0.19 -0.153,0.343 -0.342,0.343 -0.189,0 -0.343,-0.153 -0.343,-0.343 v -24.608 c 0,-0.189 0.154,-0.342 0.343,-0.342 0.189,0 0.342,0.153 0.342,0.342 m 20.55,0 v 24.608 c 0,0.19 -0.154,0.343 -0.343,0.343 -0.189,0 -0.342,-0.153 -0.342,-0.343 v -24.608 c 0,-0.189 0.153,-0.342 0.342,-0.342 0.189,0 0.343,0.153 0.343,0.342 m -10.618,-0.342 c -0.189,0 -0.342,0.153 -0.342,0.342 v 24.608 c 0,0.19 0.153,0.343 0.342,0.343 0.19,0 0.343,-0.153 0.343,-0.343 v -24.608 c 0,-0.189 -0.153,-0.342 -0.343,-0.342"
             style="fill:#555555;fill-opacity:1;fill-rule:nonzero;stroke:none"
             id="path20" /></g></g></g></g></svg>
