<svg width="31" height="30" viewBox="0 0 31 30" fill="none" xmlns="http://www.w3.org/2000/svg">
<g id="Lupa">
<g id="Group">
<path id="Vector" d="M23.7921 27.615L20.0324 21.6651C19.8987 21.453 19.674 21.3222 19.4319 21.3018L17.8488 18.7959C20.6552 16.9854 22.1587 13.7919 21.7868 10.3821C21.4037 6.87241 19.1224 4.00458 15.8302 2.88771L15.7928 2.87501C11.1196 1.28965 6.03079 3.79444 4.44893 8.45732C3.83352 10.288 3.80488 12.1886 4.36349 13.9541C4.88349 15.5944 5.87812 17.0573 7.24161 18.1836C8.60437 19.3097 10.2281 20.0145 11.9372 20.2191C13.6778 20.428 15.4346 20.0989 17.0351 19.267L18.6368 21.8009C18.5509 22.0258 18.5722 22.2848 18.7059 22.4969L22.4597 28.4359L22.4659 28.4461C22.5789 28.6103 22.7201 28.7127 22.8706 28.7637C23.099 28.8412 23.3469 28.7995 23.5377 28.6798C23.8549 28.4812 24.0434 28.0513 23.7909 27.6137L23.7921 27.615ZM10.3568 18.9013C6.17485 17.4826 3.92429 12.9329 5.34006 8.75963C9.16234 -1.13876 23.498 3.72772 20.5087 13.9055C19.093 18.0788 14.5387 20.32 10.3568 18.9013Z" fill="white"/>
<path id="Vector_2" d="M19.1268 8.60117C20.1998 10.8867 20.019 13.3779 18.5205 15.2993C19.6554 13.3203 19.6251 11.0084 18.6092 8.84326C17.5926 6.67783 15.8212 5.15098 13.5699 4.752C16.0096 4.83489 18.0544 6.31583 19.1275 8.60141L19.1268 8.60117Z" fill="white"/>
</g>
</g>
</svg>
