<svg width="76" height="73" viewBox="0 0 76 73" fill="none" xmlns="http://www.w3.org/2000/svg">
<g id="Property 1=Default">
<g id="Lupa">
<g id="Group">
<path id="Vector" d="M70.0171 63.8633L55.4797 51.3713C54.9623 50.9257 54.2852 50.78 53.6587 50.9449L47.537 45.6833C53.0524 38.3008 54.1094 28.4031 50.2634 19.628C46.3041 10.5958 38.1169 5 28.8807 5H28.7756C15.6651 5 5 16.3073 5 30.2027C5.01415 35.6528 6.56429 40.758 9.47662 44.9699C12.1848 48.8819 15.9359 51.8897 20.3276 53.6636C24.7173 55.4375 29.4041 55.8488 33.8787 54.8462C38.4362 53.8264 42.5753 51.3541 45.8918 47.68L52.0843 52.9995C52.0601 53.6786 52.3349 54.3513 52.8523 54.7969L67.3654 67.2654L67.3897 67.2868C67.8141 67.6232 68.2567 67.7689 68.6791 67.7689C69.3198 67.7689 69.9079 67.4325 70.2859 66.9398C70.9144 66.1214 71.0215 64.8017 70.013 63.8612L70.0171 63.8633ZM28.7776 52.7574C17.0454 52.7574 7.50003 42.639 7.50003 30.2027C8.6682 0.284678 48.889 0.293246 50.0552 30.2027C50.0552 42.639 40.5098 52.7574 28.7776 52.7574Z" fill="#242021"/>
<path id="Vector_2" d="M42.0469 17.2801C46.6974 22.4153 48.3688 29.2366 46.2386 35.7301C47.4047 29.4123 45.3554 23.2616 40.9515 18.3963C36.5456 13.531 30.7857 11.0566 24.7811 12.0313C30.9898 10.0411 37.3985 12.1449 42.0489 17.2801H42.0469Z" fill="#242021"/>
</g>
</g>
</g>
</svg>
