<svg width="30" height="30" viewBox="0 0 30 30" fill="none" xmlns="http://www.w3.org/2000/svg">
<g id="Property 1=Default">
<g id="ELEMENTS">
<path id="Vector" d="M25.9496 12.5211C25.7528 12.5427 25.5493 12.5499 25.3458 12.5571C23.1409 12.5571 21.0853 11.3753 19.8777 9.41519V20.102C19.8777 24.469 16.5467 28 12.4422 28C8.33782 28 5 24.469 5 20.102C5 15.735 8.33103 12.204 12.4355 12.204C12.5915 12.204 12.7408 12.2184 12.8968 12.2256V16.117C12.7475 16.0953 12.5915 16.0665 12.4355 16.0665C10.3392 16.0665 8.63632 17.8753 8.63632 20.102C8.63632 22.3287 10.3392 24.1375 12.4355 24.1375C14.5318 24.1375 16.3839 22.3792 16.3839 20.1524L16.4178 2H19.9252C20.2576 5.34368 22.7881 7.95233 25.9428 8.19734V12.5211" fill="white"/>
</g>
</g>
</svg>
