<svg width="30" height="30" viewBox="0 0 30 30" fill="none" xmlns="http://www.w3.org/2000/svg">
<g id="Property 1=Variant2">
<g id="ELEMENTS">
<g id="Group">
<path id="Vector" fill-rule="evenodd" clip-rule="evenodd" d="M20.0563 11.3879C21.7337 12.586 23.7917 13.2908 26.0119 13.2908V9.01975C25.589 9.01975 25.1732 8.97746 24.7573 8.88583V12.2477C22.5372 12.2477 20.4792 11.5429 18.8018 10.3448V19.0631C18.8018 23.4258 15.2637 26.9639 10.901 26.9639C9.27291 26.9639 7.75759 26.4705 6.50305 25.6248C7.94084 27.0908 9.94247 28 12.1555 28C16.5182 28 20.0563 24.4619 20.0563 20.0992V11.3808V11.3879ZM21.5998 7.0745C20.74 6.13712 20.1761 4.92487 20.0563 3.58575V3.03601H18.8723C19.1683 4.73457 20.1902 6.19351 21.5998 7.0745ZM9.26586 22.284C8.7866 21.6568 8.52582 20.8885 8.52582 20.0992C8.52582 18.1046 10.1469 16.4836 12.1414 16.4836C12.515 16.4836 12.8815 16.5399 13.2409 16.6527V12.283C12.8251 12.2266 12.4093 12.2054 11.9934 12.2125V15.6096C11.641 15.4968 11.2675 15.4405 10.8939 15.4405C8.89937 15.4405 7.27833 17.0615 7.27833 19.0561C7.27833 20.4657 8.08885 21.685 9.26586 22.284Z" fill="#EE1D52"/>
<path id="Vector_2" fill-rule="evenodd" clip-rule="evenodd" d="M18.8016 10.3448C20.4791 11.5429 22.5371 12.2477 24.7572 12.2477V8.88584C23.5167 8.62506 22.4173 7.97664 21.5926 7.0745C20.183 6.19351 19.1611 4.74162 18.8651 3.03601H15.7499V20.1062C15.7428 22.0938 14.1288 23.7077 12.1342 23.7077C10.9572 23.7077 9.91414 23.1509 9.25867 22.284C8.08166 21.692 7.27114 20.4657 7.27114 19.0561C7.27114 17.0615 8.89218 15.4405 10.8868 15.4405C11.2673 15.4405 11.6409 15.4968 11.9862 15.6096V12.2125C7.70107 12.3041 4.24756 15.7999 4.24756 20.1062C4.24756 22.2559 5.10741 24.2011 6.50291 25.6318C7.75745 26.4776 9.27277 26.971 10.9009 26.971C15.2636 26.971 18.8016 23.4329 18.8016 19.0702V10.3518V10.3448Z" fill="black"/>
<path id="Vector_3" fill-rule="evenodd" clip-rule="evenodd" d="M24.7642 8.88588V7.97669C23.6435 7.97669 22.5511 7.66658 21.5996 7.07455C22.4383 7.99078 23.5449 8.6251 24.7642 8.88588ZM18.8721 3.0431C18.8439 2.881 18.8227 2.71889 18.8086 2.54974V2H14.5094V19.0702C14.5094 21.0577 12.8883 22.6717 10.8937 22.6717C10.3088 22.6717 9.75901 22.5308 9.26566 22.2841C9.92817 23.151 10.9713 23.7078 12.1412 23.7078C14.1358 23.7078 15.7498 22.0938 15.7568 20.1063V3.0431H18.8721ZM11.9862 12.2125V11.247C11.6267 11.1976 11.2673 11.1765 10.9008 11.1765C6.53809 11.1694 3 14.7075 3 19.0702C3 21.8048 4.38845 24.2152 6.50285 25.6319C5.10735 24.2082 4.24749 22.2559 4.24749 20.1063C4.24749 15.7999 7.69396 12.2971 11.9862 12.2125Z" fill="#69C9D0"/>
</g>
</g>
</g>
</svg>
